<svg xmlns="http://www.w3.org/2000/svg" viewBox="0 0 569.63 78.73"><defs><style>.cls-1{fill:#fad034;}.cls-2{fill:#6dc3d2;}.cls-3{fill:#1a1818;}</style></defs><title>evento</title><g id="Layer_2" data-name="Layer 2"><g id="Layer_1-2" data-name="Layer 1"><circle class="cls-1" cx="136.6" cy="39.37" r="39.37"/><circle class="cls-2" cx="39.37" cy="39.37" r="39.37"/><circle class="cls-1" cx="337.57" cy="39.37" r="39.37"/><circle class="cls-2" cx="240.34" cy="39.37" r="39.37"/><circle class="cls-1" cx="530.27" cy="39.37" r="39.37"/><circle class="cls-2" cx="433.03" cy="39.37" r="39.37"/><path class="cls-3" d="M28.69,11h21v6.78H37.29v17h9.6v6.78h-9.6V61H50v6.78H28.69Z"/><path class="cls-3" d="M121.37,11h8.8l6.25,44.94h.37L143.06,11h8.77L141.5,67.74h-9.83Z"/><path class="cls-3" d="M229.66,11h21v6.78H238.26v17h9.6v6.78h-9.6V61H251v6.78H229.66Z"/><path class="cls-3" d="M323.71,11h7l13.75,38h.2q-.1-1.33-.27-3t-.3-3.7q-.13-2.08-.23-4.7t-.1-5.91V11h7.71V67.74h-7l-13.69-37h-.27q.1,1.5.27,3.24t.3,4.1q.13,2.36.23,5.5t.1,7.46V67.74h-7.64Z"/><path class="cls-3" d="M429.63,17.77H420.5V11h26.84v6.78h-9.1v50h-8.6Z"/><path class="cls-3" d="M530.4,68.23a22.18,22.18,0,0,1-3-.22,11.51,11.51,0,0,1-3.16-.91,11.57,11.57,0,0,1-5.56-5.35,20,20,0,0,1-1.78-5.16,35.08,35.08,0,0,1-.66-7.33V29.17a34,34,0,0,1,.68-7.33,19.76,19.76,0,0,1,1.81-5.12,11.47,11.47,0,0,1,2.57-3.31,11.33,11.33,0,0,1,3-1.88,12.37,12.37,0,0,1,3.14-.85,22.92,22.92,0,0,1,2.89-.2,24.23,24.23,0,0,1,2.81.18,12.25,12.25,0,0,1,3.09.8,11.26,11.26,0,0,1,3,1.83,11.1,11.1,0,0,1,2.59,3.29,19.76,19.76,0,0,1,1.81,5.15,34.86,34.86,0,0,1,.68,7.42v20.1a32.83,32.83,0,0,1-.7,7.26,20.77,20.77,0,0,1-1.83,5.15,11.75,11.75,0,0,1-2.61,3.39,13,13,0,0,1-3,2,11.39,11.39,0,0,1-3.07.95A18.46,18.46,0,0,1,530.4,68.23Zm0-6.48a5.28,5.28,0,0,0,2.21-.43,3.48,3.48,0,0,0,1.56-1.5A8.78,8.78,0,0,0,535.1,57a25.45,25.45,0,0,0,.32-4.4V26.81a27.46,27.46,0,0,0-.32-4.55,9.5,9.5,0,0,0-.93-2.94,3.65,3.65,0,0,0-1.56-1.58,5,5,0,0,0-2.21-.46,5.15,5.15,0,0,0-2.26.46,3.71,3.71,0,0,0-1.59,1.58,9.17,9.17,0,0,0-.95,2.94,27.37,27.37,0,0,0-.32,4.55V52.62a25.36,25.36,0,0,0,.32,4.4,8.47,8.47,0,0,0,.95,2.81,3.54,3.54,0,0,0,1.59,1.5A5.48,5.48,0,0,0,530.4,61.76Z"/></g></g></svg>