<svg xmlns="http://www.w3.org/2000/svg" viewBox="0 0 230.74 269.54"><defs><style>.cls-1{fill:#d1ebe4;}.cls-2{fill:#f8b57c;}</style></defs><title>500</title><g id="Layer_2" data-name="Layer 2"><g id="Layer_4" data-name="Layer 4"><circle class="cls-1" cx="115.37" cy="115.37" r="115.37"/><path class="cls-2" d="M145.09,136.5s9.3,7.19,7.64,55.49l-2.33,57.5s-6.33,19.83-46.53,19c0,0-36.54,2.31-47.83-19.26V191.41s-.91-27.42,0-37.09c1-10.63,6.66-19.84,6.66-19.84S103.38,114.38,145.09,136.5Z"/><path d="M155.49,27.71a1.07,1.07,0,0,1,0,.15,1,1,0,0,1-.29.46,4.13,4.13,0,0,1-1.54.76,44,44,0,0,1-6.15,1.23c-2.67.38-5.91.81-9.65,1.25s-7.95.89-12.56,1.13-9.6.33-14.88.2S99.55,32.4,93.8,32L76.08,30.71c-3-.23-6.06-.45-9.12-.78-1.53-.15-3.07-.33-4.62-.6A21.45,21.45,0,0,1,60,28.8a7.27,7.27,0,0,1-1.25-.49,2.76,2.76,0,0,1-.74-.53,1.73,1.73,0,0,1-.39-.63,1.14,1.14,0,0,1-.06-.24,1.21,1.21,0,0,1,0-.4v-.07a.75.75,0,0,1,0-.16,1.72,1.72,0,0,1,.41-.75,2.78,2.78,0,0,1,.38-.35,4.68,4.68,0,0,1,.66-.4,10.18,10.18,0,0,1,1.21-.51c.79-.28,1.56-.49,2.33-.68,1.54-.38,3.07-.67,4.59-.94,3.06-.51,6.1-.89,9.13-1.17,6.05-.58,12-.91,17.78-1.17,2.88-.13,5.72-.22,8.5-.25s5.49-.08,8.14,0,5.23.12,7.72.22,4.9.27,7.2.52c4.61.43,8.82,1.11,12.53,1.72s6.92,1.29,9.56,1.87a39.48,39.48,0,0,1,6,1.74,4.39,4.39,0,0,1,1.46.91,1,1,0,0,1,.29.64Zm-.4,0s0-.12-.19-.35a4,4,0,0,0-1.34-.77,27,27,0,0,0-6-1.4A85,85,0,0,0,138,24.4c-3.72-.15-7.93-.1-12.51-.11h-7.14c-2.46,0-5,0-7.63,0l-16.51.14c-5.72.06-11.64.24-17.63.57-3,.17-6,.35-9,.63-1.5.13-3,.29-4.46.52-.73.12-1.46.25-2.13.43a8.12,8.12,0,0,0-.94.3,2.91,2.91,0,0,0-.34.16l-.05,0a.76.76,0,0,0,.1-.27c0-.09,0-.06,0,0v.07c0-.32,0-.15,0-.26l0-.1a.32.32,0,0,0-.09-.15s.08.08.18.15a5.26,5.26,0,0,0,.86.41,19.61,19.61,0,0,0,2.09.63c1.45.36,2.94.65,4.43.91,3,.48,6,.82,9,1.06A172.57,172.57,0,0,0,93.86,30c5.74-.11,11.29-.37,16.54-.51s10.23-.19,14.82-.08,8.8.27,12.53.33,7,0,9.66-.15a29.33,29.33,0,0,0,6.1-.9A3.79,3.79,0,0,0,154.9,28a.65.65,0,0,0,.17-.23.87.87,0,0,0,0-.13Z"/><path d="M63.58,34.95s1.34.06,3.64.26c1.15.08,2.54.22,4.13.37s3.37.33,5.31.57,4,.46,6.25.81,4.53.93,6.95,1.41a42.37,42.37,0,0,0,7.52,1,58.46,58.46,0,0,0,7.83-.24c2.62-.25,5.23-.6,7.8-.71s5.08-.44,7.52-.61,4.79-.44,7-.54c1.12,0,2.21-.11,3.26-.17l3.05-.16c2-.08,3.77-.09,5.37-.18s3-.1,4.16-.11c2.32,0,3.67.06,3.67.06l.07.39s-1.25.47-3.49,1.13c-1.12.33-2.48.72-4.05,1.12s-3.36.74-5.32,1.12-4.08.77-6.36,1-4.67.43-7.16.5-5.06,0-7.67,0-5.26-.36-7.9-.64-5.27-.58-7.86-.74-5.15-.1-7.65-.06a59.29,59.29,0,0,1-7.19,0,32.65,32.65,0,0,1-3.3-.4c-1.06-.17-2.09-.33-3.06-.54-2-.41-3.73-.83-5.29-1.31s-2.9-.93-4-1.33a27.92,27.92,0,0,1-3.37-1.52Z"/><path d="M58.82,26.67l.26,8.47L59,34.93c2.14,4.08,4,8.28,5.73,12.53s3.27,8.6,4.6,13A140,140,0,0,1,74.9,87.56a101.32,101.32,0,0,1,.31,13.92,77.36,77.36,0,0,1-1.87,13.86,65.7,65.7,0,0,1-4.59,13.29,58.17,58.17,0,0,1-3.38,6.2,45.35,45.35,0,0,0-3,5.85,48.52,48.52,0,0,0-3.65,12.66l-.11.81,0,.2,0,.18,0,.43c0,.57-.1,1.15-.13,1.7-.06,1.11-.13,2.21-.16,3.35L58,166.83c-.09,4.55-.1,9.12-.09,13.69l0,6.85,0,3.42c0,1.22,0,2.31,0,3.47-.14,9.14-.34,18.29-.41,27.43q-.09,6.86-.09,13.72c0,4.57,0,9.14,0,13.72l-.07-.29a27.88,27.88,0,0,0,8.78,9.74,43.51,43.51,0,0,0,12,5.72,70.94,70.94,0,0,0,13.11,2.6q3.33.36,6.68.46,1.67.05,3.35,0c1.11,0,2.24,0,3.31-.11h.09l3.28,0c1.09,0,2.19-.08,3.28-.12s2.18-.15,3.27-.23,2.17-.23,3.25-.34,2.15-.31,3.23-.47,2.14-.38,3.19-.62a60.77,60.77,0,0,0,6.24-1.7c1-.36,2-.7,3-1.11s2-.84,2.93-1.29,1.89-1,2.8-1.53,1.79-1.13,2.64-1.75a31.21,31.21,0,0,0,2.43-2,26.77,26.77,0,0,0,2.17-2.23,21.87,21.87,0,0,0,1.84-2.46c.27-.43.53-.86.75-1.3a10.08,10.08,0,0,0,.55-1.24l-.08.46,1-28.58,1-28.58.13-7.11c.08-2.4,0-4.72,0-7.09s-.11-4.71-.18-7.07-.28-4.7-.42-7.05c-.06-1.18-.23-2.34-.33-3.51s-.2-2.34-.39-3.49l-.49-3.47-.63-3.43c-.24-1.13-.52-2.25-.78-3.37s-.6-2.21-1-3.26a27,27,0,0,0-1.26-3.07,14.86,14.86,0,0,0-.77-1.36,4.79,4.79,0,0,0-.4-.58,2.57,2.57,0,0,0-.19-.24s-.17-.17-.06-.08l-.58-.72a91,91,0,0,1-7.78-26.14,96.29,96.29,0,0,1-.94-13.6A100.05,100.05,0,0,1,136.29,84a126.76,126.76,0,0,1,12-38.57q1.5-3,3.15-6c1.11-2,2.25-3.88,3.52-5.75l-.06.21.18-6.23h.4l.18,6.23V34l-.07.11a107.94,107.94,0,0,0-6,11.88c-1.79,4.07-3.36,8.23-4.77,12.44a121,121,0,0,0-5.64,25.89,107.68,107.68,0,0,0-.57,13.19,92.93,92.93,0,0,0,1.18,13.11,88.1,88.1,0,0,0,3.06,12.76c.67,2.08,1.4,4.14,2.23,6.16s1.73,4,2.66,6l-.58-.72a5.11,5.11,0,0,1,.57.55,5.69,5.69,0,0,1,.37.45,8.25,8.25,0,0,1,.62.87,18.82,18.82,0,0,1,1,1.74,31,31,0,0,1,1.49,3.52c.46,1.18.76,2.37,1.14,3.56s.6,2.39.87,3.58l.7,3.6.54,3.6c.2,1.2.29,2.4.44,3.61s.29,2.41.35,3.61c.14,2.41.37,4.81.42,7.22s.2,4.81.18,7.22.07,4.84,0,7.21l-.2,7.19-1.32,28.56L153,249.48v.27l-.07.19a12.55,12.55,0,0,1-.81,1.78c-.29.54-.6,1.05-.93,1.55a25.22,25.22,0,0,1-2.18,2.81,30.07,30.07,0,0,1-2.5,2.47,34.43,34.43,0,0,1-2.74,2.15q-1.42,1-2.92,1.86c-1,.58-2,1.09-3.05,1.59s-2.09.93-3.16,1.33-2.15.76-3.23,1.11a63.59,63.59,0,0,1-6.59,1.59c-1.11.22-2.22.36-3.33.55s-2.23.28-3.35.39-2.23.2-3.35.26-2.24.12-3.35.14-2.24,0-3.35,0l-3.35-.07h.09c-1.18,0-2.31,0-3.46,0s-2.28-.06-3.42-.13q-3.42-.19-6.82-.64a72.61,72.61,0,0,1-13.35-3,45.27,45.27,0,0,1-12.31-6,29.2,29.2,0,0,1-9.09-10.28l-.07-.14v-.15c0-4.57,0-9.14,0-13.72s0-9.14-.09-13.72c-.06-9.14-.27-18.29-.41-27.43,0-1.13,0-2.32-.07-3.39l-.16-3.43-.27-6.86c-.16-4.58-.29-9.16-.35-13.75,0-2.3,0-4.59,0-6.9,0-1.15.06-2.32.11-3.5,0-.59.07-1.15.11-1.72l0-.43,0-.25,0-.22.1-.89a53.27,53.27,0,0,1,7-20,54.6,54.6,0,0,0,3.23-5.81A62.23,62.23,0,0,0,70,114.55a80,80,0,0,0,2-13.26,98.53,98.53,0,0,0-.06-13.49,137.42,137.42,0,0,0-4.61-26.74c-1.2-4.38-2.56-8.73-4-13s-3.16-8.56-5.07-12.67l-.05-.12v-.09l.26-8.47Z"/><path d="M62.6,137.17l.24.08a6.48,6.48,0,0,0,.69.2c.59.16,1.5.38,2.63.65l9.39,2.19c1.93.47,4,.92,6.23,1.51s4.5,1.35,6.91,2.07a39.53,39.53,0,0,0,7.57,1.5,47.32,47.32,0,0,0,8,.12c2.67-.18,5.32-.45,7.91-.64,1.3-.11,2.58-.2,3.84-.37s2.51-.28,3.73-.47,2.42-.35,3.59-.53,2.31-.35,3.43-.52,2.19-.36,3.24-.53,2.06-.34,3-.56c2-.33,3.71-.78,5.3-1.1l4.1-1c2.25-.62,3.61-.89,3.61-.89l.17.36s-1.11.79-3.18,2c-.52.3-1.11.59-1.75.93s-1.33.71-2.1,1c-1.53.68-3.27,1.41-5.22,2.06-1,.34-2,.65-3.07.94s-2.18.6-3.34.83-2.34.49-3.57.65-2.48.34-3.77.41-2.58.19-3.91.21-2.66.06-4,0-2.7-.11-4.05-.21-2.71-.33-4.06-.49c-2.69-.42-5.37-.79-8-1.09s-5.25-.49-7.8-.61a56.6,56.6,0,0,1-7.33-.74,50.84,50.84,0,0,1-6.37-1.67,55.32,55.32,0,0,1-5.22-2c-.76-.33-1.47-.65-2.12-1s-1.24-.62-1.76-.93a22.91,22.91,0,0,1-2.38-1.51,6.5,6.5,0,0,1-.58-.47l-.18-.17Z"/><path d="M147,136.33s-1.34-.3-3.62-.86c-1.14-.29-2.53-.61-4.1-1L134,133.11c-1.92-.5-4-1-6.21-1.62s-4.48-1.41-6.88-2.16a38.41,38.41,0,0,0-7.57-1.54,44.75,44.75,0,0,0-8-.1c-1.33.08-2.66.22-4,.33s-2.63.24-3.92.36c-2.59.24-5.13.55-7.57.92l-7,1.14c-1.11.2-2.19.4-3.24.56l-3,.6c-1,.16-1.9.39-2.78.59s-1.74.34-2.52.55c-1.56.41-3,.68-4.11,1-2.27.6-3.62.86-3.62.86l-.16-.37s1.12-.78,3.19-2c.51-.32,1.11-.6,1.75-.93s1.34-.68,2.1-1c1.52-.69,3.27-1.41,5.21-2.1l3.06-1c1.07-.3,2.19-.57,3.33-.86a54.25,54.25,0,0,1,7.34-1.14c2.56-.24,5.22-.33,7.92-.33,1.35,0,2.7.1,4.06.18s2.72.29,4.07.48c2.7.4,5.38.77,8,1.08s5.25.52,7.81.66a54.42,54.42,0,0,1,7.33.84,49.85,49.85,0,0,1,6.36,1.77c1.94.66,3.67,1.38,5.19,2.08s2.8,1.37,3.84,2a25,25,0,0,1,3.16,2.07Z"/></g></g></svg>