<svg xmlns="http://www.w3.org/2000/svg" viewBox="0 0 129.41 102.08"><defs><style>.cls-1{fill:#92b344;}.cls-2{fill:#141313;}.cls-3{fill:#a5c232;}.cls-4{fill:#cbe08c;}.cls-5{fill:#8fad35;}.cls-6{fill:#61852f;}.cls-7{fill:#50722c;}.cls-8{fill:#adcf48;}</style></defs><title>apio</title><g id="Layer_2" data-name="Layer 2"><g id="Layer_3" data-name="Layer 3"><path class="cls-1" d="M2.48,67.7S73.74,17.08,75.65,17.19,86,19.69,84.61,31c0,0-67.92,51.3-68.64,53.62,0,0-2.61,1.77-3.88-1.69S7.33,70.53,4.54,78c0,0-3,1.3-3.56-2.27S.31,69.54.31,69.54Z"/><path class="cls-2" d="M2.44,67.65l11-7.76L24.32,52.1l10.93-7.79,11-7.75q5.48-3.87,11-7.69c3.68-2.55,7.36-5.09,11.08-7.59C70.14,20,72,18.79,73.92,17.61l.74-.43L75,17l.21-.1a1.21,1.21,0,0,1,.31-.1.72.72,0,0,1,.19,0h.12l.23,0,.44.08c.29.06.57.14.85.22a11.26,11.26,0,0,1,3.12,1.53,10.19,10.19,0,0,1,1.35,1.11c.21.2.41.42.6.63l.28.34c.09.11.18.23.27.35l.25.36.23.37.12.19.1.19.21.39a11.77,11.77,0,0,1,.66,1.62,13.84,13.84,0,0,1,.62,3.4A19.9,19.9,0,0,1,85.08,31l0,.2-.16.13q-8.67,6.59-17.3,13.24L50.34,57.88l-8.62,6.65-8.61,6.66-4.3,3.34-4.29,3.35c-1.42,1.12-2.85,2.25-4.26,3.38-.7.57-1.4,1.14-2.09,1.73-.34.29-.68.59-1,.89l-.48.45-.22.23-.09.11,0,0h0l-.15.21a2.83,2.83,0,0,1-.3.17l-.3.13a3.33,3.33,0,0,1-.64.17,2.53,2.53,0,0,1-1.34-.14,2.61,2.61,0,0,1-.59-.34,3.05,3.05,0,0,1-.47-.47,4.34,4.34,0,0,1-.64-1.09c-.16-.39-.27-.74-.41-1.11s-.27-.73-.41-1.09c-.28-.72-.58-1.43-.91-2.13a16.42,16.42,0,0,0-1.11-2,7.2,7.2,0,0,0-.69-.89,2.91,2.91,0,0,0-.85-.67,1.15,1.15,0,0,0-1,0,2.16,2.16,0,0,0-.82.68,7.94,7.94,0,0,0-1.06,2l0,.07-.06,0a3.43,3.43,0,0,1-1.45.23,2.2,2.2,0,0,1-1.36-.57,2.31,2.31,0,0,1-.46-.59,3.24,3.24,0,0,1-.28-.67,8.61,8.61,0,0,1-.26-1.41C.67,74.24.56,73.3.46,72.37S.28,70.49.23,69.55v0l0,0Zm.08.1L.36,69.6l0-.06c.06.94.15,1.87.26,2.81s.22,1.87.36,2.8a8.41,8.41,0,0,0,.27,1.36,3,3,0,0,0,.28.62,2.06,2.06,0,0,0,.42.52,1.92,1.92,0,0,0,1.2.48,3.15,3.15,0,0,0,1.31-.23L4.4,78a8.65,8.65,0,0,1,1.06-2.13A2.52,2.52,0,0,1,6.41,75a1.49,1.49,0,0,1,.65-.13,1.72,1.72,0,0,1,.64.15,3.33,3.33,0,0,1,1,.74,7.67,7.67,0,0,1,.76.93,16.91,16.91,0,0,1,1.2,2c.36.7.68,1.42,1,2.14q.23.54.44,1.09c.14.36.28.74.43,1.07a3.66,3.66,0,0,0,.56.91,2.36,2.36,0,0,0,.37.35,1.9,1.9,0,0,0,.42.23,1.79,1.79,0,0,0,1,.07,2.55,2.55,0,0,0,.49-.14l.23-.11.21-.12-.15.21,0-.09,0-.07.07-.1.12-.16.24-.27.5-.49c.33-.32.67-.63,1-.93.68-.61,1.37-1.21,2.06-1.8q2.08-1.77,4.19-3.5t4.23-3.43l4.26-3.39c2.84-2.26,5.72-4.48,8.58-6.71s5.74-4.45,8.63-6.65q8.65-6.62,17.35-13.18l17.4-13.1-.19.32a15.37,15.37,0,0,0-.43-6.44A9.72,9.72,0,0,0,80,19.35a10.41,10.41,0,0,0-2.87-1.43c-.26-.08-.51-.15-.77-.21L76,17.65l-.19,0h-.12l-.08,0-.17.08-.35.19-.71.41c-1.9,1.15-3.77,2.38-5.63,3.61C61.27,26.88,53.91,32,46.54,37L24.46,52.31Q19,56.14,13.46,60T2.51,67.75Z"/><path class="cls-3" d="M3.27,67.13S16.64,70,16,84.58c0,0-2.47,1.66-4-1.94s-4.38-12-7.45-4.6c0,0-3.17,1.34-3.66-3S.31,69.54.31,69.54Z"/><path class="cls-2" d="M3.26,67.07h.12l.09,0,.18,0,.36.1.7.22q.7.23,1.38.52a18.85,18.85,0,0,1,2.62,1.37,16.72,16.72,0,0,1,4.4,4,15.49,15.49,0,0,1,2.63,5.34,20.29,20.29,0,0,1,.65,5.94v.22l-.18.12a2.72,2.72,0,0,1-.31.17l-.31.13a3.07,3.07,0,0,1-.66.15,2.6,2.6,0,0,1-1.37-.21,3.2,3.2,0,0,1-.6-.35l-.25-.22-.12-.11-.11-.12a3.94,3.94,0,0,1-.39-.51,4.6,4.6,0,0,1-.32-.54c-.09-.18-.19-.38-.27-.56l-.23-.54-.45-1.07c-.3-.71-.61-1.41-.95-2.09a16.13,16.13,0,0,0-1.11-1.94,6.44,6.44,0,0,0-.66-.82,2.09,2.09,0,0,0-.71-.52.65.65,0,0,0-.59,0,2.2,2.2,0,0,0-.64.59,9.14,9.14,0,0,0-1,1.88L5,78.53l-.23.09-.22.08-.2.05L4,78.83a3.33,3.33,0,0,1-.85,0,2.76,2.76,0,0,1-1.58-.76,3.57,3.57,0,0,1-.85-1.41,6.53,6.53,0,0,1-.29-1.49c-.08-.94-.14-1.87-.2-2.8S.06,70.5,0,69.56V69.4l.12-.09,1.59-1.15Zm0,.12L1.88,68.51.5,69.77l.11-.25c.14.92.28,1.84.41,2.76s.26,1.84.38,2.76a5.48,5.48,0,0,0,.31,1.23,2.51,2.51,0,0,0,.61.94,1.55,1.55,0,0,0,.92.39,2.16,2.16,0,0,0,.54,0l.27-.06.13,0,.11,0L4,77.79a9.3,9.3,0,0,1,1.18-2.19,3.29,3.29,0,0,1,1.08-.95,1.94,1.94,0,0,1,1.65-.07A3.27,3.27,0,0,1,9,75.44a7,7,0,0,1,.76,1,17.28,17.28,0,0,1,1.11,2.13c.32.72.62,1.44.9,2.17l.42,1.08.21.54c.07.17.15.33.22.49a3.69,3.69,0,0,0,.25.46,3,3,0,0,0,.3.42l.08.1.09.08.18.17a2.29,2.29,0,0,0,.4.25,1.68,1.68,0,0,0,.89.16,2.18,2.18,0,0,0,.47-.1l.23-.09.2-.1-.19.34a19.5,19.5,0,0,0-.48-5.71,15.26,15.26,0,0,0-.94-2.71,14.61,14.61,0,0,0-1.43-2.49,16.28,16.28,0,0,0-4.15-4A19.37,19.37,0,0,0,6,68.21q-.66-.31-1.34-.57L4,67.4l-.35-.11-.18-.05-.09,0H3.29Z"/><path class="cls-2" d="M6.88,67.42,24.53,54.68,42.21,42,51,35.62l4.43-3.16q2.22-1.57,4.46-3.11l4.49-3.07c1.5-1,3-2,4.51-3s3-2,4.54-3l2.28-1.48L76.9,18l1.15-.73.07.1-1.07.84L76,19,73.8,20.69Q71.63,22.33,69.45,24C68,25,66.52,26.11,65.06,27.18l-4.41,3.19Q58.44,32,56.22,33.53l-4.47,3.11-9,6.17L24.89,55.19,6.95,67.52Z"/><path class="cls-2" d="M9.84,69.84l17.49-13,17.53-13,8.75-6.51L58,34.11q2.2-1.6,4.42-3.18l4.45-3.15c1.49-1,3-2.09,4.48-3.11s3-2.06,4.5-3.08l2.27-1.52,1.13-.76,1.14-.75.07.1-1.06.85-1.07.84-2.14,1.69Q74,23.72,71.86,25.38c-1.44,1.11-2.9,2.2-4.34,3.3l-4.37,3.26Q61,33.56,58.76,35.17l-4.43,3.18-8.89,6.31L27.69,57.33,9.91,69.95Z"/><path class="cls-2" d="M13.36,73.63,30.7,60.49,48.07,47.4l8.67-6.56,4.35-3.26q2.18-1.62,4.39-3.21l4.42-3.18c1.48-1,3-2.11,4.44-3.14s3-2.08,4.46-3.11l2.25-1.53,1.12-.77,1.13-.76.07.1-1.05.86-1.06.85-2.12,1.7Q77,27.08,74.87,28.75C73.44,29.87,72,31,70.56,32.07l-4.33,3.29Q64.06,37,61.88,38.62l-4.39,3.21L48.67,48.2,31.07,61,13.43,73.73Z"/><path class="cls-2" d="M16.24,79.06,33.07,65.59Q41.52,58.9,50,52.24l8.47-6.67,4.26-3.3Q64.86,40.64,67,39c1.45-1.07,2.89-2.13,4.35-3.19s2.91-2.11,4.39-3.14,3-2.06,4.45-3.06c.75-.49,1.51-1,2.27-1.46.38-.24.77-.48,1.16-.7l.6-.33.31-.15a1.07,1.07,0,0,1,.35-.11V27a1.07,1.07,0,0,0-.28.12l-.28.17-.55.38-1.09.79c-.72.53-1.43,1.08-2.14,1.63-1.42,1.09-2.84,2.2-4.26,3.3L67.78,40l-4.27,3.28-4.3,3.25Q54.89,49.78,50.6,53,42,59.54,33.46,66.09L16.32,79.16Z"/><path class="cls-1" d="M48.66,83.62S117,29.07,118.87,29.07s10.45,1.91,9.71,13.25c0,0-64.91,55.05-65.5,57.41,0,0-2.5,1.91-4-1.47s-5.45-12.07-7.8-4.42c0,0-2.94,1.47-3.68-2.06s-1-6.18-1-6.18Z"/><path class="cls-2" d="M48.63,83.59,69.58,66.81c3.5-2.79,7-5.62,10.45-8.42L90.5,50q5.24-4.19,10.5-8.36t10.58-8.27c1.78-1.36,3.56-2.71,5.42-4l.72-.48.39-.24.22-.12a1.46,1.46,0,0,1,.39-.14h.37l.24,0,.46.06c.3,0,.6.11.89.18A11.57,11.57,0,0,1,124,30,10.52,10.52,0,0,1,125.41,31c.23.19.44.41.66.62l.31.33c.1.11.2.22.29.34l.28.35.26.37.13.18.12.19.24.38a12.08,12.08,0,0,1,.77,1.62,14.16,14.16,0,0,1,.83,3.44,20.23,20.23,0,0,1,.08,3.49l0,.33-.26.22L112.51,57,95.88,71.1q-8.32,7-16.58,14.12-4.13,3.55-8.21,7.15Q69,94.17,67,96c-.67.61-1.33,1.23-2,1.85-.33.31-.65.63-1,1l-.46.49-.21.25-.09.13,0,.06,0,0-.07.1a3.18,3.18,0,0,1-1.13.5,2.34,2.34,0,0,1-1.24,0,2.41,2.41,0,0,1-.56-.28,2.88,2.88,0,0,1-.47-.41,4.16,4.16,0,0,1-.67-1c-.17-.36-.31-.72-.47-1.07s-.32-.71-.48-1.06c-.33-.7-.67-1.4-1.05-2.08a16.55,16.55,0,0,0-1.25-2,7.32,7.32,0,0,0-.76-.86,3,3,0,0,0-.93-.64,1.26,1.26,0,0,0-1.06,0,2.26,2.26,0,0,0-.81.76,8.15,8.15,0,0,0-.94,2.11v0h0a3.36,3.36,0,0,1-1.4.31,2.13,2.13,0,0,1-1.35-.47,2.25,2.25,0,0,1-.48-.54,3.18,3.18,0,0,1-.32-.64,8.58,8.58,0,0,1-.34-1.38q-.27-1.39-.5-2.78c-.15-.93-.29-1.86-.4-2.8v0l0,0Zm.06.07-2.06,2v0c.11.93.25,1.86.4,2.79s.32,1.85.51,2.78a8.49,8.49,0,0,0,.34,1.36,3.07,3.07,0,0,0,.31.62,2.14,2.14,0,0,0,.46.51,2,2,0,0,0,1.28.44,3.25,3.25,0,0,0,1.34-.3l0,0a8.35,8.35,0,0,1,.95-2.14,2.39,2.39,0,0,1,.86-.81,1.34,1.34,0,0,1,.58-.14,1.56,1.56,0,0,1,.59.11,3.16,3.16,0,0,1,1,.66,7.48,7.48,0,0,1,.78.88,16.7,16.7,0,0,1,1.27,2c.77,1.36,1.4,2.79,2,4.2a4,4,0,0,0,.64.95,2.66,2.66,0,0,0,.43.37,2.2,2.2,0,0,0,.51.25A2.51,2.51,0,0,0,63,99.67l0,0a1.11,1.11,0,0,1,.19-.31l.22-.27c.15-.17.31-.34.46-.5.31-.33.64-.65,1-1,.65-.64,1.31-1.26,2-1.88q2-1.86,4-3.67,4-3.64,8.14-7.23,8.18-7.19,16.44-14.3t16.52-14.2q8.28-7.08,16.58-14.13l0,.06a15.75,15.75,0,0,0-.84-6.57,10.09,10.09,0,0,0-4.14-5.06,10.75,10.75,0,0,0-3.05-1.3c-.27-.06-.54-.13-.81-.17l-.41-.05-.21,0h-.19a1.7,1.7,0,0,0-.35.17l-.36.21-.7.46c-1.84,1.26-3.63,2.61-5.42,3.95-3.57,2.69-7.12,5.42-10.65,8.16s-7.06,5.49-10.58,8.25Q80.22,58.63,69.7,67T48.69,83.66Z"/><path class="cls-3" d="M49.42,83s13.51,2.13,13.66,16.71c0,0-2.37,1.8-4.08-1.72s-5-11.73-7.69-4.17c0,0-3.09,1.52-3.82-2.75s-.89-5.49-.89-5.49Z"/><path class="cls-2" d="M49.41,83h.2l.18,0,.37.06.73.15c.48.11,1,.25,1.43.4a17.62,17.62,0,0,1,2.73,1.18,16.44,16.44,0,0,1,2.5,1.65,15.92,15.92,0,0,1,2.15,2.1,14.12,14.12,0,0,1,2.73,5.3,23.85,23.85,0,0,1,.79,5.86v.07l-.06,0a2.85,2.85,0,0,1-1.13.46,2.3,2.3,0,0,1-1.22-.11,3,3,0,0,1-.56-.27L60,99.72l-.12-.1-.11-.11a3.68,3.68,0,0,1-.4-.46,4.34,4.34,0,0,1-.34-.5c-.1-.17-.21-.35-.3-.52l-.27-.52-.53-1c-.36-.68-.71-1.37-1.09-2a17.09,17.09,0,0,0-1.23-1.9,6.32,6.32,0,0,0-.72-.81,2.26,2.26,0,0,0-.81-.52.85.85,0,0,0-.74.09,2.31,2.31,0,0,0-.66.69,8.92,8.92,0,0,0-.93,2l-.07.19-.17.08-.2.09-.19.07-.39.1a3.21,3.21,0,0,1-.81,0,2.62,2.62,0,0,1-1.54-.62,3.4,3.4,0,0,1-.9-1.31,6.44,6.44,0,0,1-.38-1.44c-.14-.93-.25-1.85-.38-2.78s-.24-1.85-.35-2.78l0-.13.09-.08,1.5-1.24.74-.61Zm0,.09-.68.7-.67.68-1.33,1.33.08-.21c.19.91.36,1.83.54,2.74L47.9,91a5.62,5.62,0,0,0,.38,1.24,2.7,2.7,0,0,0,.69,1,1.69,1.69,0,0,0,1,.38,2.27,2.27,0,0,0,.58,0l.29-.07.14,0,.12,0-.24.27a9.5,9.5,0,0,1,1.05-2.2,3.19,3.19,0,0,1,1-.94,1.75,1.75,0,0,1,1.49-.14,3.09,3.09,0,0,1,1.12.74,7.13,7.13,0,0,1,.79.94,16.44,16.44,0,0,1,1.22,2c.36.7.68,1.41,1,2.12L59,97.29l.23.53c.08.17.17.33.25.5a3.92,3.92,0,0,0,.29.48,3.28,3.28,0,0,0,.34.43l.09.1.1.09.2.18a2.47,2.47,0,0,0,.47.26A2,2,0,0,0,62,100a2.47,2.47,0,0,0,1-.39l-.05.11a17,17,0,0,0-1-5.71,16.23,16.23,0,0,0-1.23-2.6l-.18-.31-.19-.3c-.13-.2-.25-.41-.4-.6l-.42-.58-.45-.56a16.36,16.36,0,0,0-2-2,17.78,17.78,0,0,0-2.33-1.68A21,21,0,0,0,52.17,84c-.44-.2-.9-.37-1.35-.54l-.69-.23-.35-.11-.18,0-.09,0h-.07Z"/><path class="cls-2" d="M53,83.11l2.06-1.78,2.08-1.76,4.16-3.51,4.19-3.48c1.4-1.16,2.8-2.3,4.21-3.45l2.1-1.72L74,65.69l4.23-3.42,8.5-6.79,8.56-6.73c2.87-2.22,5.72-4.46,8.61-6.66,1.44-1.1,2.88-2.21,4.32-3.31l4.34-3.28,4.37-3.25,2.19-1.62,2.2-1.6.06.07L87.25,56.18l-34.14,27Z"/><path class="cls-2" d="M56.14,85.37l2-1.81,2.06-1.79,4.11-3.58,4.14-3.55c1.38-1.18,2.77-2.35,4.16-3.52l2.08-1.76,2.09-1.75L81,64.12l8.42-6.93,8.47-6.87c2.84-2.27,5.66-4.55,8.52-6.8,1.43-1.12,2.85-2.26,4.28-3.38l4.3-3.35,4.33-3.32,2.17-1.66,2.18-1.64.06.07L90,57.88,56.2,85.43Z"/><path class="cls-2" d="M59.87,88.94l2-1.83,2-1.8L68,81.7l4.1-3.57c1.37-1.19,2.75-2.37,4.12-3.55l2.06-1.77L80.36,71l4.15-3.52,8.34-7,8.39-6.92c2.81-2.29,5.61-4.59,8.45-6.85,1.41-1.13,2.82-2.28,4.24-3.4L118.19,40l4.29-3.35L124.62,35l2.16-1.65.06.07L93.42,61.24,59.93,89Z"/><path class="cls-2" d="M63.05,94.2,65,92.34l2-1.84,3.94-3.68,4-3.64c1.32-1.21,2.66-2.41,4-3.62l2-1.81,2-1.79,4-3.58q4-3.56,8.11-7.1c2.72-2.34,5.44-4.69,8.18-7s5.49-4.64,8.27-6.92,5.56-4.55,8.38-6.78q2.13-1.66,4.28-3.29c.72-.54,1.44-1.08,2.17-1.6l1.12-.76.57-.36.3-.17a1.06,1.06,0,0,1,.33-.13v.09a1,1,0,0,0-.29.13l-.28.18-.55.38-1.08.81c-.71.55-1.41,1.11-2.11,1.67q-2.1,1.69-4.16,3.42-4.14,3.45-8.23,7-8.19,7-16.32,14.07-16.3,14.1-32.49,28.31Z"/><path class="cls-4" d="M21,79.26S80.75,38.93,96.5,20.68c0,0-1.77-2.94-4.42-2.06,0,0-73,58.44-75.51,58.29S19.66,76.46,21,79.26Z"/><path class="cls-2" d="M21,79.22l.12-.1.15-.11.31-.22.61-.43,1.22-.87,2.44-1.73,4.87-3.47q4.88-3.46,9.72-7t9.69-7q4.83-3.53,9.63-7.09c6.41-4.74,12.81-9.51,19-14.5l2.32-1.89,2.3-1.92L85.67,31c.38-.32.75-.65,1.12-1l1.11-1c.75-.66,1.47-1.35,2.2-2s1.44-1.37,2.16-2.07,1.4-1.41,2.09-2.13c.17-.18.35-.36.51-.54l.5-.56,1-1.11,0,.23a5.68,5.68,0,0,0-.81-1,4.62,4.62,0,0,0-1-.75,3.07,3.07,0,0,0-1.16-.36,2.86,2.86,0,0,0-1.2.15l.07,0q-9.87,8.06-19.83,16l-10,7.94q-5,4-10,7.89c-3.35,2.61-6.7,5.22-10.07,7.81S35.6,63.62,32.2,66.18Q29.66,68.11,27.09,70t-5.17,3.74c-.87.61-1.74,1.22-2.63,1.81-.44.29-.89.58-1.35.86-.23.14-.46.27-.7.4a4.1,4.1,0,0,1-.38.18,1,1,0,0,1-.23.07h-.23L16,77h-.09s0,.08-.12-.12c.13-.29.11-.11.14-.17h.3a7.82,7.82,0,0,1,.8.11,8.82,8.82,0,0,1,1.55.43A5.61,5.61,0,0,1,20,78a3.71,3.71,0,0,1,.59.56,3.08,3.08,0,0,1,.24.33l.1.17,0,.09A.08.08,0,0,1,21,79.22Zm0,.09a.5.5,0,0,1-.07-.11l0-.09-.11-.16a3,3,0,0,0-.24-.31,3.58,3.58,0,0,0-.58-.52,5.61,5.61,0,0,0-1.4-.7A8.58,8.58,0,0,0,17,77a7.54,7.54,0,0,0-.78-.08H16c0-.05,0,.13.09-.15-.12-.18-.06-.06-.08-.1h.06l.38,0h.17l.15-.05.34-.17c.23-.13.45-.27.67-.41.44-.29.88-.59,1.31-.89q1.3-.92,2.58-1.86c3.41-2.52,6.76-5.14,10.12-7.73s6.7-5.22,10-7.85l10-7.88,40.1-31.47,0,0h0a3.33,3.33,0,0,1,1.4-.15,3.52,3.52,0,0,1,1.32.44,5,5,0,0,1,1.09.83,6,6,0,0,1,.85,1.06l.08.12-.1.11a108.6,108.6,0,0,1-8.55,8.39c-1.49,1.33-3,2.63-4.51,3.94l-2.29,1.93L79,37q-9.21,7.64-18.77,14.86-4.78,3.6-9.64,7.1t-9.75,6.94Q35.92,69.3,31,72.67c-1.65,1.13-3.31,2.23-5,3.34l-2.49,1.66-1.25.82-.63.41-.31.2-.16.1Z"/><polygon class="cls-5" points="32.76 91.6 34.38 93.54 110.25 35.18 107.83 33.36 32.76 91.6"/><path class="cls-2" d="M32.77,91.6l1.62,1.93h0l9.46-7.32,9.47-7.31,9.47-7.31,9.49-7.28,19-14.56,9.48-7.3,9.48-7.3v.08L107.8,33.4h.07L89.11,48,70.35,62.55,61,69.82l-9.4,7.26Zm0,0L51.49,77l9.37-7.3,9.38-7.28L89,47.86,107.8,33.32l0,0,0,0,2.41,1.83.05,0-.05,0-9.49,7.28L91.3,49.8,72.35,64.41l-9.48,7.3L53.39,79l-9.49,7.28-9.5,7.27h0Z"/><path class="cls-3" d="M16.57,76.9s-8.19,8.51-.64,15.66,18.74,9.8,18.45,1c0,0-1-4.3-6.62-1,0,0-12.87-3.68-6.77-13.31C21,79.26,20.1,76.9,16.57,76.9Z"/><path class="cls-2" d="M16.59,76.94v0l0,0-.05.06-.1.13-.2.26-.38.52c-.24.35-.48.71-.7,1.08A16.68,16.68,0,0,0,14,81.33a10.85,10.85,0,0,0-.87,4.91,8.42,8.42,0,0,0,.55,2.4,4.92,4.92,0,0,0,.25.57l.14.28a2.38,2.38,0,0,0,.15.27l.32.53.36.51a14,14,0,0,0,1.69,1.86c.31.3.63.58.94.86l.49.41c.16.14.32.28.49.41.66.54,1.36,1,2.07,1.52a23.81,23.81,0,0,0,2.21,1.31,19.31,19.31,0,0,0,2.36,1,14.81,14.81,0,0,0,2.48.64,8.64,8.64,0,0,0,2.54.05,4.84,4.84,0,0,0,2.28-.9,1.59,1.59,0,0,0,.23-.2l.22-.21.19-.24a1.62,1.62,0,0,0,.18-.24l.15-.26s.05-.08.07-.13l.06-.14a3.45,3.45,0,0,0,.21-.57A7.44,7.44,0,0,0,34,93.55v.07s0-.13-.07-.19l-.09-.2a3.34,3.34,0,0,0-.22-.38,2.66,2.66,0,0,0-.59-.63,2.57,2.57,0,0,0-1.6-.5,5.17,5.17,0,0,0-1.77.39A11.08,11.08,0,0,0,28,93l-.17.1L27.63,93c-.39-.11-.74-.24-1.1-.37s-.71-.28-1.06-.44a17.65,17.65,0,0,1-2-1.09,12.89,12.89,0,0,1-1.85-1.41,9.35,9.35,0,0,1-1.53-1.78,6.89,6.89,0,0,1-.93-2.19A6.68,6.68,0,0,1,19,83.37c0-.19.07-.39.11-.58s0-.19.06-.29l.08-.28c.06-.19.11-.37.17-.56l.22-.54.11-.27.13-.26.26-.51c.19-.33.4-.65.6-1l0,.22a2.77,2.77,0,0,0-.28-.52c-.06-.08-.12-.17-.19-.25a2.45,2.45,0,0,0-.21-.23,4.29,4.29,0,0,0-1-.76,5.38,5.38,0,0,0-1.2-.45,2.58,2.58,0,0,0-.32-.07L17.22,77Zm0-.08h.69c.22,0,.45,0,.67.07a5.64,5.64,0,0,1,1.3.37,4.47,4.47,0,0,1,1.16.74,2.84,2.84,0,0,1,.25.24c.08.08.15.18.23.27a3.14,3.14,0,0,1,.38.62l0,.1-.07.12a10.18,10.18,0,0,0-1.44,4.06,6.2,6.2,0,0,0,.17,2.09,6,6,0,0,0,.87,1.89,10.39,10.39,0,0,0,3.15,2.87,16.71,16.71,0,0,0,1.92,1c.33.15.67.29,1,.43s.69.26,1,.37l-.36,0a12,12,0,0,1,1.86-.89,6,6,0,0,1,2.08-.4,3.77,3.77,0,0,1,1.1.18,3.15,3.15,0,0,1,1,.54,3.44,3.44,0,0,1,.74.83,4.09,4.09,0,0,1,.26.48l.1.26a2.59,2.59,0,0,1,.09.28v.07a7.8,7.8,0,0,1-.4,2.67,4.39,4.39,0,0,1-1.61,2.18,5.27,5.27,0,0,1-2.53.87,9.78,9.78,0,0,1-2.63-.14,17,17,0,0,1-2.53-.66c-.82-.28-1.62-.62-2.42-1s-1.56-.78-2.31-1.21-1.49-.91-2.19-1.42a25.2,25.2,0,0,1-2.06-1.63c-.16-.15-.33-.29-.49-.44l-.47-.47a6.09,6.09,0,0,1-.45-.5,6.45,6.45,0,0,1-.42-.52,9,9,0,0,1-1.3-2.35,8.59,8.59,0,0,1-.55-2.64,9.64,9.64,0,0,1,.25-2.66,12.24,12.24,0,0,1,.88-2.5,14.87,14.87,0,0,1,1.33-2.26c.25-.36.52-.7.8-1l.43-.49.22-.24.11-.12.06-.06,0,0Z"/><path class="cls-6" d="M96.5,20.68S90.56,35,107.83,33.36L30.41,93.54S10.78,92,21,79.26C21,79.26,93.85,27.45,96.5,20.68Z"/><path class="cls-2" d="M96.47,20.73a0,0,0,0,0,0,0h0v0l0,.08-.05.16-.1.32c-.07.22-.13.44-.18.66-.11.44-.2.89-.28,1.33A12.88,12.88,0,0,0,95.7,26a8.31,8.31,0,0,0,.52,2.61,6,6,0,0,0,1.44,2.18,7.19,7.19,0,0,0,2.2,1.4l.62.24.64.18.32.09.33.06.66.12.67.07.33,0,.33,0,.67,0c.22,0,.45,0,.67,0,.45,0,.9,0,1.35,0l1.35-.1,1.36-.1-1.06.85q-9.6,7.63-19.27,15.16-4.84,3.77-9.7,7.5c-3.24,2.49-6.51,4.94-9.76,7.42l-9.77,7.41-4.87,3.73-4.85,3.75L45,82.41,40.23,86.2l-9.61,7.62-.11.08h-.14a27.77,27.77,0,0,1-2.91-.4,26.24,26.24,0,0,1-2.85-.7,17.74,17.74,0,0,1-2.75-1.1A10.07,10.07,0,0,1,19.38,90a6,6,0,0,1-1.63-2.65,5.65,5.65,0,0,1-.21-1.57,7,7,0,0,1,.19-1.55,10.83,10.83,0,0,1,1.15-2.81,19.14,19.14,0,0,1,1.68-2.46l0-.06.07,0q9.71-7,19.35-14.07l9.65-7.07q4.83-3.53,9.64-7.09t9.6-7.13q4.79-3.57,9.54-7.21c3.17-2.42,6.31-4.87,9.39-7.4,1.55-1.26,3.08-2.53,4.57-3.85.74-.66,1.47-1.34,2.18-2l.52-.53.5-.55.23-.29a3.35,3.35,0,0,0,.23-.29l.21-.3a.31.31,0,0,1,.08-.11A.67.67,0,0,0,96.47,20.73Zm0-.12a1.94,1.94,0,0,0,0,.2,1,1,0,0,1-.08.22l-.2.32a3.48,3.48,0,0,1-.22.31l-.23.3-.48.58-.5.56c-.68.73-1.4,1.43-2.12,2.12-1.45,1.38-2.94,2.71-4.45,4-3,2.61-6.12,5.14-9.22,7.64-6.22,5-12.56,9.86-18.92,14.68q-4.78,3.6-9.59,7.16T40.79,65.8q-9.71,7-19.48,13.92l.11-.11a18,18,0,0,0-1.61,2.3,9.78,9.78,0,0,0-1.07,2.52,6.22,6.22,0,0,0-.19,1.31A4.63,4.63,0,0,0,18.71,87,5,5,0,0,0,20,89.28a9.38,9.38,0,0,0,2.23,1.61A16.88,16.88,0,0,0,24.87,92a25.47,25.47,0,0,0,2.75.75,27.14,27.14,0,0,0,2.81.46l-.24.07,9.75-7.43L44.8,82.1l4.85-3.75,4.83-3.77,4.81-3.79,9.59-7.64c3.2-2.54,6.39-5.1,9.6-7.63s6.43-5,9.66-7.55q9.7-7.5,19.44-14.93l.29.74a22.77,22.77,0,0,1-5.56-.16l-.69-.15-.34-.07-.34-.1-.67-.21-.66-.27a7.49,7.49,0,0,1-2.34-1.6,6.48,6.48,0,0,1-1.47-2.41A8.71,8.71,0,0,1,95.34,26a12.79,12.79,0,0,1,.29-2.76c.1-.45.21-.9.35-1.34.07-.22.14-.44.22-.65l.12-.32.06-.16,0-.08,0,0a.12.12,0,0,1,0-.05Z"/><path class="cls-7" d="M32.76,98.05l76.42-59.38,1.06-3.49L34.38,93.54S33.9,97.39,32.76,98.05Z"/><path class="cls-2" d="M32.76,98l9.53-7.45,9.54-7.43,9.54-7.43,9.56-7.42L90.06,53.49l9.56-7.42,9.54-7.43,0,0,1.06-3.49.08.05L91.33,49.84l-19,14.59-9.48,7.3L53.39,79l-19,14.55v0a18.19,18.19,0,0,1-.5,2.4,8.37,8.37,0,0,1-.41,1.15,3.54,3.54,0,0,1-.3.54,1.81,1.81,0,0,1-.19.24,1.2,1.2,0,0,1-.24.19Zm0,0a1.19,1.19,0,0,0,.23-.19,1.8,1.8,0,0,0,.19-.24,3.52,3.52,0,0,0,.29-.53,8.32,8.32,0,0,0,.4-1.15,18.1,18.1,0,0,0,.48-2.4h0L53.3,78.89l9.47-7.31,9.49-7.29,19-14.58,19-14.56.12-.09,0,.15-1.07,3.49h0l-9.56,7.41L90.1,53.55,71,68.42l-9.55,7.43L51.9,83.26l-9.56,7.41-9.58,7.39Z"/><path class="cls-6" d="M25.84,20.82a3.33,3.33,0,0,1,2.13-3c2.21-1,9.05-4.2,11.33-11.11L37.69,4.41S41.15-.08,44.54.66c0,0,69.48,75.51,78.31,83.16,0,0,3.83,3.53-4.64,10.23s-10.3,7.43-13.32,7.29c0,0-39.9-42.52-42.77-44.95S25.84,20.82,25.84,20.82Z"/><path class="cls-2" d="M25.77,20.85a.24.24,0,0,1,0,0v-.15c0-.05,0-.11,0-.16s0-.22,0-.32a3.31,3.31,0,0,1,.19-.62,3.39,3.39,0,0,1,.72-1.09,3.77,3.77,0,0,1,1.07-.76c.39-.19.76-.36,1.14-.55a25.29,25.29,0,0,0,4.22-2.69,18.78,18.78,0,0,0,3.47-3.55,14.79,14.79,0,0,0,2.24-4.36l.06.41L37.28,4.7l-.22-.3.23-.3c.23-.3.45-.55.69-.82s.48-.51.74-.75a12.4,12.4,0,0,1,1.66-1.34,8.52,8.52,0,0,1,.94-.55,6.29,6.29,0,0,1,1-.42,4.65,4.65,0,0,1,2.3-.14l.18,0L45,.26,51,6.75l3,3.25,3,3.25,6.05,6.51,6,6.53c8,8.73,15.9,17.58,23.94,26.29l3,3.26,3,3.25c2,2.17,4.07,4.31,6.11,6.46s4.11,4.27,6.16,6.4c1,1.07,2.08,2.11,3.12,3.17s2.08,2.11,3.13,3.15l3.17,3.11,1.63,1.49.41.37.2.19.05,0,.08.08.11.13a3.64,3.64,0,0,1,.62,1.11,4.64,4.64,0,0,1,.14,2.46,7.65,7.65,0,0,1-.86,2.22,12.55,12.55,0,0,1-1.34,1.89A19.6,19.6,0,0,1,120.33,93c-.55.53-1.12,1-1.71,1.49l-1.74,1.39c-1.17.92-2.34,1.84-3.55,2.72a29.41,29.41,0,0,1-3.84,2.44,9.4,9.4,0,0,1-2.24.84,8.87,8.87,0,0,1-2.4.17h-.29l-.21-.22L84.92,81.39l-9.7-10.24Q70.39,66,65.51,60.93L64.3,59.65,63.07,58.4l-.61-.62-.61-.58c-.19-.19-.42-.4-.65-.6s-.45-.41-.66-.62l-1.28-1.23L58,53.51c-.84-.82-1.68-1.65-2.51-2.48q-5-5-10-10t-9.9-10l-4.92-5.05-2.46-2.53L27,22.15C26.6,21.72,26.2,21.32,25.77,20.85Zm.15-.06c.4.36.84.79,1.26,1.19l1.28,1.21L31,25.63l5.1,4.87,10.18,9.77L56.47,50c1.7,1.62,3.39,3.26,5.11,4.84.21.2.43.39.64.58l.65.59.67.63.63.63,1.26,1.25,1.24,1.26C70,63.18,73.21,66.57,76.46,70s6.47,6.82,9.7,10.24q9.65,10.29,19.25,20.63l-.5-.23a7.56,7.56,0,0,0,2-.12,8,8,0,0,0,1.92-.7,28.18,28.18,0,0,0,3.68-2.28q1.79-1.27,3.56-2.62l1.76-1.35c.57-.45,1.13-.91,1.67-1.4A18.46,18.46,0,0,0,121,90.62a11.47,11.47,0,0,0,1.27-1.7A6.62,6.62,0,0,0,123.1,87,3.65,3.65,0,0,0,123,85.1a2.7,2.7,0,0,0-.43-.83l-.07-.08,0,0-.05,0-.2-.19-.4-.39L120.26,82l-3.11-3.18c-4.1-4.28-8.16-8.6-12.23-12.91l-6.1-6.46L95.76,56.2,92.69,53C84.52,44.4,76.26,35.9,68.15,27.25c-2-2.16-4-4.34-6.06-6.51l-6-6.54q-3-3.27-6-6.56l-6-6.58.31.18a3.5,3.5,0,0,0-1.73.08,5.17,5.17,0,0,0-.87.33,7.41,7.41,0,0,0-.83.46A11.36,11.36,0,0,0,39.44,3.3a13.8,13.8,0,0,0-1.35,1.42V4.12l1.59,2.3.14.2-.07.21a15.64,15.64,0,0,1-2.5,4.54,19.24,19.24,0,0,1-3.72,3.55,24.63,24.63,0,0,1-4.41,2.57c-.38.18-.79.34-1.16.51a3.48,3.48,0,0,0-1,.65A3.17,3.17,0,0,0,26,20.22c0,.1,0,.2-.06.3s0,.1,0,.15v.11h0Z"/><path class="cls-8" d="M118.28,86.62s1.23,6.13-7.21,10.06L106,99.42a5.54,5.54,0,0,0-1.09,1.91c-.1.73,6-.81,12.22-6.42s7.6-6.68,5.74-11.3C122.84,83.62,119.51,84.8,118.28,86.62Z"/><path class="cls-2" d="M118.29,86.62a5.65,5.65,0,0,1,.07,1.18,7.6,7.6,0,0,1-.14,1.18,8.1,8.1,0,0,1-.32,1.15,8.77,8.77,0,0,1-.48,1.1c-.09.18-.19.35-.29.52l-.32.5a10.27,10.27,0,0,1-.74.94c-.13.15-.26.3-.41.44s-.28.29-.43.42-.6.53-.91.77l-.48.36-.5.33c-.16.11-.34.21-.51.31l-.26.15-.26.14-.53.28-.54.26c-.35.17-.7.37-1,.55L106,99.46h0a8.77,8.77,0,0,0-.56.76,4.34,4.34,0,0,0-.45.83,1.55,1.55,0,0,0-.07.22.52.52,0,0,0,0,.11.09.09,0,0,0,.05.07,1,1,0,0,0,.45,0,5.54,5.54,0,0,0,.93-.18,15.19,15.19,0,0,0,1.79-.62c.58-.24,1.16-.51,1.72-.79a33.15,33.15,0,0,0,6.27-4.22c.48-.41.95-.83,1.42-1.26L119,93.13c.93-.85,1.87-1.7,2.72-2.63A10,10,0,0,0,122.83,89a4.38,4.38,0,0,0,.66-1.73,4,4,0,0,0,0-.93,5.79,5.79,0,0,0-.15-.93,12.8,12.8,0,0,0-.58-1.79l.07,0c-.43.15-.85.34-1.27.53l-.31.15-.31.16-.3.16-.3.17-.29.18-.29.19-.28.2-.27.21c-.09.07-.17.15-.26.23a2.72,2.72,0,0,0-.25.24c-.08.09-.16.16-.23.25Zm0,0,.21-.28c.07-.09.15-.17.23-.26a2.75,2.75,0,0,1,.24-.25c.09-.08.17-.16.26-.23l.27-.22.28-.21L120,85l.29-.19.6-.35.31-.16.31-.16c.42-.2.84-.39,1.27-.55l.05,0,0,.05a12.92,12.92,0,0,1,.61,1.81,5.94,5.94,0,0,1,.16.94,4.17,4.17,0,0,1,0,1,4.49,4.49,0,0,1-.67,1.8,10.14,10.14,0,0,1-1.17,1.51c-.43.47-.88.92-1.34,1.35s-.92.87-1.39,1.29l-1.41,1.27c-.47.42-.94.85-1.43,1.25a33.74,33.74,0,0,1-3.05,2.27,31.37,31.37,0,0,1-3.29,1.9c-.57.28-1.14.55-1.73.78a15.29,15.29,0,0,1-1.8.61,5.82,5.82,0,0,1-.94.18,1,1,0,0,1-.48,0,.15.15,0,0,1-.08-.11.57.57,0,0,1,0-.12,1.63,1.63,0,0,1,.07-.23,4.4,4.4,0,0,1,.45-.84,8.85,8.85,0,0,1,.56-.77h0l4.17-2.29c.35-.19.69-.38,1.05-.57l.53-.26.52-.28.26-.14.25-.15.5-.31.49-.33.48-.35c.31-.24.62-.49.91-.76s.29-.27.43-.41.27-.28.41-.43a11,11,0,0,0,.74-.92l.33-.49c.1-.17.21-.34.29-.51a8.61,8.61,0,0,0,.49-1.08,8.86,8.86,0,0,0,.33-1.13,7.57,7.57,0,0,0,.17-1.17,5.64,5.64,0,0,0,0-1.18Z"/><path class="cls-4" d="M44.54.66s71.54,79.12,78.31,83.16c0,0-4.56,1.4-4.56,2.8S37.91,4.72,37.91,4.72,39.43,1.1,44.54.66Z"/><path class="cls-2" d="M44.55.63l38.71,42c6.46,7,12.89,14,19.41,21l4.91,5.18q2.47,2.58,5,5.14t5,5.05c.85.83,1.71,1.66,2.58,2.46.44.4.88.8,1.33,1.18a12.86,12.86,0,0,0,1.4,1.07l.22.13-.24.08c-.59.19-1.18.41-1.75.65a11.76,11.76,0,0,0-1.66.84,3.9,3.9,0,0,0-.71.56,1.43,1.43,0,0,0-.26.34l0,.09,0,.09s0,.06,0,.09,0,0,0,.08-.18.11-.18.1a.3.3,0,0,1-.1,0,3.28,3.28,0,0,1-.4-.3l-.36-.31-.7-.64c-1.83-1.72-3.62-3.48-5.4-5.24Q105.93,75,100.65,69.6L90.1,58.88q-5.26-5.37-10.51-10.76Q69.1,37.34,58.66,26.51T37.85,4.78l0,0,0-.05A6.27,6.27,0,0,1,39,3a7.72,7.72,0,0,1,1.62-1.25c.15-.09.3-.16.45-.24l.23-.12.24-.1L42,1.14,42.53,1l.24-.07L43,.87l.5-.11C43.86.7,44.21.67,44.55.63Zm0,0c-.33.05-.66.09-1,.15L43,.94,42.8,1l-.24.08-.48.16-.47.19-.23.1-.22.12c-.15.08-.3.15-.44.24a7.58,7.58,0,0,0-1.57,1.25A6.13,6.13,0,0,0,38,4.76l0-.1L59,26.18,80,47.73,90.48,58.51,101,69.27q5.25,5.38,10.55,10.72c1.77,1.77,3.54,3.55,5.35,5.28l.69.64.35.31a3.23,3.23,0,0,0,.35.27s0,0,0,0-.11,0-.13.08,0,0,0,0,0-.09,0-.14l0-.13.06-.12a1.69,1.69,0,0,1,.31-.41,4.15,4.15,0,0,1,.77-.59,12,12,0,0,1,1.7-.85c.58-.24,1.17-.46,1.78-.64l0,.21a13,13,0,0,1-1.42-1.11c-.45-.39-.89-.79-1.33-1.2-.87-.81-1.73-1.64-2.58-2.47q-2.55-2.51-5-5.07-5-5.12-9.9-10.29Q92.66,53.43,82.93,43C76.44,36,70,29,63.61,21.92L54,11.33,49.27,6,46.89,3.35Z"/><path class="cls-5" d="M28,17.81S101.55,90.1,106.36,99a5.28,5.28,0,0,0-1.47,2.31S61.54,54.95,60.15,54.57,26.38,20.23,25.84,20.82,26.53,17.73,28,17.81Z"/><path class="cls-2" d="M28,17.78c6.79,6.54,13.49,13.13,20.19,19.76s13.35,13.28,19.94,20S81.24,71,87.73,77.85Q90.16,80.4,92.58,83c1.61,1.72,3.22,3.43,4.81,5.17s3.17,3.48,4.72,5.25q1.16,1.33,2.28,2.7.56.69,1.09,1.39c.17.24.35.47.52.72s.32.5.48.76l.05.09-.08.07a6.76,6.76,0,0,0-.46.5,6.43,6.43,0,0,0-.41.54,3.26,3.26,0,0,0-.54,1.2l-.05.28-.19-.21L84.66,80.17q-5-5.31-10.09-10.6C71.19,66.05,67.83,62.51,64.41,59c-.85-.87-1.71-1.74-2.58-2.59-.43-.42-.87-.85-1.32-1.25l-.33-.28-.08-.06,0,0a1,1,0,0,1-.28-.15c-.27-.2-.49-.4-.72-.61-.91-.82-1.79-1.68-2.66-2.53s-1.73-1.72-2.6-2.58C50.38,45.5,47,42,43.56,38.52s-6.81-7-10.24-10.46c-1.72-1.73-3.43-3.47-5.18-5.17-.44-.42-.88-.85-1.33-1.26-.23-.2-.45-.41-.69-.59l-.18-.13-.08,0h0l0,0-.06,0-.06,0a.09.09,0,0,1-.07,0,.17.17,0,0,1,0-.09.62.62,0,0,1,0-.13,2,2,0,0,1,.05-.23,6.31,6.31,0,0,1,.8-1.65,3.47,3.47,0,0,1,.61-.69A1.23,1.23,0,0,1,28,17.78Zm0,0a1,1,0,0,0-.42.09,1.6,1.6,0,0,0-.37.25,3.4,3.4,0,0,0-.58.69,6.22,6.22,0,0,0-.76,1.64,1.87,1.87,0,0,0,0,.22.52.52,0,0,0,0,.1s0,0,0,0h0l0,0,0,0a.09.09,0,0,1,.07,0,.37.37,0,0,1,.13.05l.19.13c.25.19.48.39.71.59.46.4.91.82,1.35,1.24,1.78,1.67,3.52,3.38,5.25,5.1Q38.71,33,43.86,38.23c3.44,3.46,6.87,6.93,10.33,10.37l2.61,2.57c.87.85,1.75,1.7,2.65,2.51.22.2.45.4.68.57l.12.08.17.09.1.08.37.31c.46.41.9.84,1.34,1.27.87.86,1.73,1.72,2.59,2.59,6.84,7,13.52,14.08,20.21,21.18q5,5.33,10,10.69l10,10.72-.25.07a3.52,3.52,0,0,1,.6-1.31,6.72,6.72,0,0,1,.44-.56,7,7,0,0,1,.49-.51l0,.16c-.15-.25-.29-.5-.46-.74s-.33-.48-.5-.72c-.35-.47-.7-.94-1.07-1.39-.73-.92-1.49-1.82-2.25-2.71-1.54-1.78-3.11-3.53-4.7-5.27-3.17-3.48-6.41-6.89-9.67-10.28C81.07,71.2,74.42,64.53,67.8,57.85s-13.25-13.37-19.91-20Z"/></g></g></svg>