<svg xmlns="http://www.w3.org/2000/svg" viewBox="0 0 344.53 241.02"><defs><style>.cls-1{fill:#d6ebe6;}.cls-2{fill:#b38659;}.cls-3{fill:#1a1818;}.cls-4{fill:#e3dca8;}.cls-5{fill:#f79c9c;}.cls-6{fill:#f69e32;}</style></defs><title>bagel3</title><g id="Layer_2" data-name="Layer 2"><g id="Layer_3" data-name="Layer 3"><circle class="cls-1" cx="230.13" cy="114.4" r="114.4"/></g><g id="Layer_4" data-name="Layer 4"><path class="cls-2" d="M294.28,158.73s20.62,64.83-64.51,78.91S108,204.06,108,204.06s-9.32-36.3,1.17-45.33l93.48,22Z"/><path class="cls-3" d="M294.41,158.68a62.74,62.74,0,0,1,1.18,31A54.47,54.47,0,0,1,290,204.43a53,53,0,0,1-9.71,12.47,67.42,67.42,0,0,1-12.67,9.44,89.39,89.39,0,0,1-14.3,6.63,118.69,118.69,0,0,1-15.11,4.33c-2.56.55-5.13,1-7.71,1.44s-5.15.72-7.74,1.06-5.21.49-7.81.74-5.21.28-7.81.42-5.21.09-7.82,0l-3.91-.12-2-.06-1.95-.14-3.9-.28c-1.3-.09-2.59-.28-3.89-.4-2.59-.24-5.17-.64-7.74-1-1.29-.17-2.56-.45-3.84-.67s-2.57-.44-3.83-.75l-3.81-.87c-1.27-.28-2.51-.67-3.78-1a120.84,120.84,0,0,1-14.81-4.93,130.53,130.53,0,0,1-14.1-6.74,110.27,110.27,0,0,1-13.09-8.59,76,76,0,0,1-11.55-10.74l-.12-.15-.06-.23c-.5-1.93-.92-3.84-1.32-5.76s-.76-3.86-1.09-5.8c-.65-3.88-1.16-7.79-1.42-11.74a61.15,61.15,0,0,1,.21-11.94,26.69,26.69,0,0,1,1.43-6,13.26,13.26,0,0,1,3.53-5.38l.5-.43.66.15,46.79,10.81,23.37,5.52,23.34,5.61h-.64l23-5.31c7.65-1.77,15.3-3.55,23-5.26l23-5.18,23.15-5.07Zm-.24.22-22.66,5.92-22.84,5.82c-7.61,2-15.23,3.84-22.86,5.74l-22.87,5.69-.31.08-.33-.08-23.4-5.39-23.37-5.48L108.84,160l1.15-.28a10.72,10.72,0,0,0-2.83,4.32,25,25,0,0,0-1.33,5.39,58.79,58.79,0,0,0-.33,11.44c.21,3.85.67,7.7,1.26,11.53q.45,2.87,1,5.73c.37,1.9.78,3.81,1.22,5.67l-.18-.38a74.66,74.66,0,0,0,10.92,10.72,105.56,105.56,0,0,0,12.7,8.79,107.81,107.81,0,0,0,13.85,6.92,119.87,119.87,0,0,0,14.66,5A126,126,0,0,0,176.11,238c2.56.34,5.12.7,7.7.88,1.29.11,2.57.25,3.86.3l3.87.16,1.94.08h5.81c2.58,0,5.16-.19,7.74-.28s5.15-.4,7.71-.64,5.11-.59,7.66-1l7.66-1.21q3.8-.68,7.57-1.52a126.55,126.55,0,0,0,14.79-4.25,87.08,87.08,0,0,0,14-6.3,65.14,65.14,0,0,0,12.33-9,55.54,55.54,0,0,0,9.57-11.83,52.79,52.79,0,0,0,5.81-14.11A64,64,0,0,0,296,174.11a66.47,66.47,0,0,0-.45-7.72A56,56,0,0,0,294.17,158.9Z"/><path class="cls-4" d="M200.54,118.74C149.42,118.74,108,136,108,157.3s41.44,38.56,92.57,38.56,92.57-17.26,92.57-38.56S251.67,118.74,200.54,118.74Zm5.7,52.13c-16.69,0-30.21-3.36-30.21-7.5s7.43-6.21,30.21-7.5c16.66-.94,35.26-.11,35.26,4S222.93,170.88,206.24,170.88Z"/><path class="cls-3" d="M200.54,118.88l-4.82.07c-3.14.11-7.75.23-13.6.81A179.76,179.76,0,0,0,161.24,123a139.21,139.21,0,0,0-26,8.18c-2.27,1-4.57,2.09-6.83,3.33a62.93,62.93,0,0,0-6.69,4.09,44.51,44.51,0,0,0-6.13,5.17,25.15,25.15,0,0,0-4.73,6.56,16.1,16.1,0,0,0-1.66,7.9c0,.36,0,.75.07,1.09l.17,1a13.43,13.43,0,0,0,.5,2,18.06,18.06,0,0,0,.76,2c.28.66.66,1.27,1,1.91,3,5,7.81,9,13,12.3,10.61,6.58,23.2,10.58,36.08,13.16a194.94,194.94,0,0,0,19.71,2.73c6.65.54,13.35.75,20,.67s13.36-.5,20-1.2a194.27,194.27,0,0,0,19.6-3c12.8-2.69,25.31-6.59,35.88-13a53.62,53.62,0,0,0,7.33-5.35A28.7,28.7,0,0,0,289,166a17.08,17.08,0,0,0,2.54-7.76l.06-.92-.06-1.1a11.41,11.41,0,0,0-.27-2,17.31,17.31,0,0,0-1.25-3.76,24.48,24.48,0,0,0-4.64-6.54,43.7,43.7,0,0,0-6.08-5.18,78.7,78.7,0,0,0-13.48-7.46,137.88,137.88,0,0,0-26-8.22A180.26,180.26,0,0,0,219,119.78c-5.84-.58-10.46-.71-13.6-.82Zm0-.28,4.83,0c3.15.09,7.77.19,13.63.61a212.08,212.08,0,0,1,21.08,2.54,136,136,0,0,1,26.66,7.28,74.46,74.46,0,0,1,14.14,7.39,43.12,43.12,0,0,1,6.56,5.46,27.39,27.39,0,0,1,5.24,7.28,20.27,20.27,0,0,1,1.52,4.47,15.41,15.41,0,0,1,.33,2.36l.07,1.1s0,.2,0,.23v.15l0,.3,0,.61a20,20,0,0,1-3,9.14c-3.4,5.54-8.59,9.58-14.07,12.89-11.12,6.53-23.87,10.35-36.91,12.91A196.51,196.51,0,0,1,220.72,196c-6.69.53-13.47.73-20.17.64s-13.47-.47-20.14-1.17a195.89,195.89,0,0,1-19.78-2.92c-12.95-2.67-25.62-6.38-36.7-12.72a54,54,0,0,1-7.78-5.46,31.14,31.14,0,0,1-6.25-7.07c-.38-.7-.82-1.36-1.15-2.08a20.51,20.51,0,0,1-.91-2.2,15.52,15.52,0,0,1-.64-2.32L107,159.5c-.06-.39-.06-.75-.1-1.12a18.53,18.53,0,0,1,1.75-9.1,26.75,26.75,0,0,1,5.15-7.26,42.44,42.44,0,0,1,6.51-5.47,73.73,73.73,0,0,1,14.09-7.43A134.77,134.77,0,0,1,161,121.81c8.09-1.43,15.21-2.1,21.08-2.55s10.48-.53,13.63-.62Z"/><path class="cls-3" d="M206.24,171l-6,0c-1.91,0-4.24-.07-6.92-.21a57.54,57.54,0,0,1-9-1.07,26.12,26.12,0,0,1-5.08-1.55,11.93,11.93,0,0,1-2.58-1.5,5.88,5.88,0,0,1-1.21-1.26,3.58,3.58,0,0,1-.62-1.44l0-.29v-.22c0-.09,0,.1,0-.22l.1-.7a6.82,6.82,0,0,1,.37-1,4.88,4.88,0,0,1,1.2-1.45,7.81,7.81,0,0,1,1.42-.94c.49-.21,1-.45,1.48-.62a30.45,30.45,0,0,1,6.07-1.29c4.11-.53,8.33-.83,12.62-1.19l6.47-.54c2.16-.22,4.35-.41,6.53-.57,4.37-.34,8.75-.59,13.09-.51A72.43,72.43,0,0,1,237,155.51a16.27,16.27,0,0,1,3.19,1,6.5,6.5,0,0,1,1.65,1,4,4,0,0,1,.8.92,6,6,0,0,1,.3.68,5,5,0,0,1,.12.77s0,.43,0,.27v.14l0,.18a4.25,4.25,0,0,1-.21.7,2.82,2.82,0,0,1-.29.56,3.47,3.47,0,0,1-.29.43,7.42,7.42,0,0,1-1.26,1.27,17.87,17.87,0,0,1-2.62,1.7,42.85,42.85,0,0,1-10.2,3.72,74.79,74.79,0,0,1-8.92,1.49c-2.67.29-5,.43-6.91.54s-3.42.13-4.44.15Zm0-.28,1.56,0c1-.05,2.52-.1,4.4-.36a56.59,56.59,0,0,0,6.74-1.26c2.57-.62,5.42-1.48,8.47-2.54a61.47,61.47,0,0,0,9.43-4,15,15,0,0,0,2.12-1.45,5.11,5.11,0,0,0,.78-.77.92.92,0,0,0,.12-.17l.06-.09a0,0,0,0,0,0,0s0,.07,0,0l0-.18v-.14c0-.19,0,.21,0,.17a0,0,0,0,0,0,0s0,0,0,0a1.45,1.45,0,0,0-.18-.18,3.63,3.63,0,0,0-.9-.54,16.52,16.52,0,0,0-2.6-.86,72.19,72.19,0,0,0-12.24-1.49c-4.25-.22-8.59-.41-12.95-.45s-8.72.09-13,.43a81.58,81.58,0,0,0-12.41,1.81,30.44,30.44,0,0,0-5.56,1.77c-.42.18-.8.41-1.19.61a6.23,6.23,0,0,0-.94.73,2.58,2.58,0,0,0-.59.76c0,.11-.07.14-.12.29l-.07.7c0-.29,0-.07,0-.13v0a.43.43,0,0,1,0,.06s0,.09,0,.13a1.22,1.22,0,0,0,.18.32,3.45,3.45,0,0,0,.71.7,11.93,11.93,0,0,0,2.06,1.19,37.5,37.5,0,0,0,4.59,1.68,85,85,0,0,0,8.58,2,67.61,67.61,0,0,0,6.8.92c1.9.17,3.4.21,4.42.24Z"/><path class="cls-5" d="M99.27,169v4.68s88,21.87,121.74,36.81c0,0,74.32-55.18,87.93-41.49v-4l-86.51-24.34Z"/><path class="cls-3" d="M99.32,169l0,4.64-.07-.09,15.45,3.82c5.14,1.3,10.27,2.66,15.4,4q15.38,4.09,30.68,8.45,7.65,2.19,15.27,4.47c5.08,1.52,10.14,3.13,15.18,4.78s10.07,3.37,15.06,5.18c2.49.91,5,1.85,7.45,2.82s4.92,2,7.36,3.07l-.31,0Q231,202.85,241.45,196q5.24-3.45,10.56-6.77c3.55-2.21,7.14-4.35,10.74-6.48A203.41,203.41,0,0,1,285,171.22a69.18,69.18,0,0,1,11.91-4,25,25,0,0,1,6.29-.65,8.79,8.79,0,0,1,5.94,2.23l-.53.22,0-4,.24.32-43.29-12L222.3,141.15h.24l-30.78,7.1-30.81,7-30.82,7Zm-.1-.08L130,161.67l30.76-7.2,30.76-7.19,30.79-7.06.12,0,.12,0,43.25,12.19L309,164.71l.24.07V165l0,4v.75l-.53-.54a8.21,8.21,0,0,0-5.52-2.09,24.1,24.1,0,0,0-6.15.6,68.67,68.67,0,0,0-11.84,3.91A202.85,202.85,0,0,0,262.91,183c-3.62,2.08-7.17,4.28-10.71,6.51s-7,4.51-10.5,6.83q-10.41,7-20.51,14.39l-.15.11-.17-.07q-3.64-1.57-7.35-3c-2.47-1-5-1.87-7.45-2.76-5-1.77-10-3.45-15.06-5.08l-7.58-2.39-7.6-2.35q-7.6-2.35-15.23-4.57Q145.34,186.15,130,182l-15.36-4.14-15.38-4.07-.07,0v-.07Z"/><path class="cls-5" d="M99.27,169s93.56,19.72,121.91,37.87c0,0,59.26-51.18,87.75-41.85,0,0-58.69-56.54-150.83-35.27C158.1,129.75,109.19,138.31,99.27,169Z"/><path class="cls-3" d="M99.34,169q7.81,1.61,15.59,3.36T130.52,176c10.37,2.53,20.71,5.19,31,8.07q7.72,2.14,15.37,4.5,3.83,1.17,7.64,2.41c2.54.83,5.08,1.66,7.59,2.57s5,1.83,7.52,2.77,5,2,7.43,3,4.89,2.16,7.29,3.36,4.74,2.5,7,3.92l-.41,0c3.19-2.7,6.46-5.29,9.76-7.84s6.66-5,10.06-7.44c6.8-4.83,13.78-9.41,21-13.58,1.81-1,3.63-2.05,5.48-3s3.7-1.93,5.57-2.85l2.83-1.34,2.87-1.25c1-.43,1.93-.79,2.9-1.18s1.94-.77,2.94-1.09c2-.71,4-1.29,6-1.84l3.06-.69c1-.19,2.07-.33,3.1-.5s2.09-.18,3.13-.28,2.1,0,3.15,0,2.09.23,3.14.33,2,.49,3.07.74l-.27.44a112.79,112.79,0,0,0-11.47-9c-4-2.79-8.13-5.39-12.36-7.82s-8.58-4.64-13-6.71-8.93-3.92-13.5-5.62c-2.29-.84-4.6-1.62-6.91-2.39l-3.5-1.07c-1.16-.37-2.33-.71-3.51-1-2.35-.63-4.7-1.28-7.09-1.78l-3.56-.81-3.59-.67c-1.2-.21-2.39-.47-3.6-.64l-3.62-.53c-2.41-.39-4.84-.6-7.26-.86s-4.86-.38-7.29-.54-4.87-.17-7.3-.23-4.87,0-7.31.08-4.87.21-7.3.38l-3.65.26-3.63.42-3.63.41c-1.21.13-2.41.36-3.62.54l-3.61.56-1.81.29-1.79.36-7.19,1.45A121.3,121.3,0,0,0,143.55,134a99.6,99.6,0,0,0-26.25,12.63,58.59,58.59,0,0,0-10.81,9.76A40.16,40.16,0,0,0,99.34,169Zm-.12,0a40.36,40.36,0,0,1,7-12.81,56.75,56.75,0,0,1,10.77-10,87.73,87.73,0,0,1,12.67-7.43,119,119,0,0,1,13.63-5.49,121.83,121.83,0,0,1,14.19-3.86l7.17-1.51,1.8-.38,1.81-.3,3.63-.6c1.21-.19,2.41-.43,3.63-.57l3.65-.42,3.65-.42,3.67-.26c2.45-.17,4.89-.36,7.34-.38s4.9-.17,7.35-.07,4.9,0,7.34.24,4.9.25,7.33.56,4.88.47,7.3.87l3.64.53c1.21.18,2.41.44,3.62.65l3.61.68,3.58.82c2.4.51,4.76,1.16,7.13,1.8,1.19.3,2.36.65,3.53,1l3.51,1.08c2.32.78,4.65,1.56,6.94,2.41,4.59,1.71,9.12,3.59,13.55,5.69s8.77,4.37,13,6.84,8.36,5.12,12.35,7.95a115.15,115.15,0,0,1,11.48,9.18l.74.68-1-.24c-1-.24-2-.55-3-.74s-2-.31-3.07-.34-2.07-.09-3.1,0-2.07.12-3.09.26-2.05.3-3.07.48l-3,.67c-2,.54-4,1.1-6,1.8-1,.32-2,.69-2.93,1.07s-1.95.73-2.9,1.16l-2.87,1.24L273,172.17c-.95.43-1.86.93-2.8,1.39s-1.86.93-2.77,1.44c-1.84,1-3.65,2-5.45,3.05-7.19,4.21-14.13,8.83-20.89,13.7q-5.07,3.65-10,7.5c-3.28,2.57-6.53,5.18-9.68,7.88l-.19.16-.22-.13c-2.26-1.38-4.58-2.68-7-3.84s-4.82-2.26-7.27-3.3-4.93-2-7.42-3-5-1.85-7.52-2.71-5-1.72-7.57-2.57-5.07-1.66-7.61-2.45q-7.63-2.39-15.33-4.59c-10.25-2.94-20.57-5.66-30.92-8.26s-20.72-5.12-31.14-7.43h-.05Z"/><path class="cls-6" d="M97.74,162.86l.1,4.68s87.59,20,121.34,34.2c0,0,72.4-56.75,86.17-43.36l-.08-4-86.19-22.48Z"/><path class="cls-3" d="M97.79,162.89l.14,4.64-.07-.08,15.38,3.49c5.12,1.19,10.23,2.44,15.34,3.69q15.32,3.76,30.57,7.79,7.62,2,15.22,4.15c5.07,1.41,10.11,2.91,15.14,4.46s10,3.15,15,4.86c2.49.86,5,1.74,7.43,2.66s4.91,1.89,7.34,2.91l-.31,0q9.87-7.59,20.1-14.69,5.11-3.56,10.3-7c3.46-2.29,7-4.5,10.49-6.71a200.89,200.89,0,0,1,21.81-12,68.19,68.19,0,0,1,11.72-4.27,24.55,24.55,0,0,1,6.23-.79,8.66,8.66,0,0,1,5.93,2.1l-.53.23-.1-4,.24.31-43.13-11.1-43.11-11.19h.26l-30.34,7.71-30.36,7.62-30.37,7.61Zm-.1-.08L128,154.87l30.3-7.86,30.3-7.85,30.33-7.76.13,0,.13,0,43.08,11.29,43.06,11.38.24.06v.25l.07,4v.76l-.54-.53a8.08,8.08,0,0,0-5.52-2,23.67,23.67,0,0,0-6.09.74,67.69,67.69,0,0,0-11.65,4.17A200.8,200.8,0,0,0,260,173.38c-3.54,2.16-7,4.43-10.46,6.73s-6.86,4.66-10.24,7.05q-10.15,7.19-20,14.81l-.14.11-.17-.07q-3.64-1.49-7.34-2.85c-2.47-.9-4.95-1.76-7.43-2.6-5-1.67-10-3.24-15-4.75l-7.56-2.23-7.57-2.19q-7.57-2.18-15.18-4.24-15.21-4.15-30.51-8l-15.3-3.81-15.32-3.75-.07,0v-.07Z"/><path class="cls-6" d="M97.74,162.86s93.07,17.72,121.54,35.26c0,0,57.58-52.44,86-43.72,0,0-59.34-55.27-150.12-32C155.14,122.36,106.9,132,97.74,162.86Z"/><path class="cls-3" d="M97.81,162.82q7.77,1.44,15.52,3t15.52,3.31c10.33,2.31,20.63,4.75,30.87,7.41q7.69,2,15.32,4.17,3.82,1.09,7.62,2.25c2.53.78,5.06,1.55,7.57,2.41s5,1.72,7.51,2.6,5,1.85,7.42,2.86,4.89,2.06,7.28,3.2,4.74,2.4,7,3.77l-.41,0c3.1-2.76,6.27-5.42,9.48-8s6.47-5.17,9.79-7.65c6.62-5,13.43-9.7,20.5-14,1.77-1.07,3.55-2.13,5.36-3.14s3.62-2,5.45-3l2.77-1.4,2.81-1.32c.93-.45,1.89-.84,2.85-1.24s1.91-.81,2.89-1.15c1.93-.76,3.91-1.37,5.9-2l3-.76c1-.22,2-.38,3.06-.57s2.07-.23,3.1-.35,2.08,0,3.13-.07,2.08.18,3.12.27,2,.45,3.07.67l-.26.45a111.93,111.93,0,0,0-11.53-8.77c-4-2.7-8.16-5.21-12.39-7.55s-8.59-4.45-13-6.43c-2.22-1-4.44-1.92-6.7-2.79s-4.52-1.72-6.79-2.54-4.59-1.52-6.9-2.25l-3.49-1c-1.16-.34-2.33-.66-3.5-.93-2.35-.58-4.69-1.18-7.07-1.63l-3.55-.73-3.58-.59c-1.19-.19-2.38-.42-3.58-.57l-3.6-.45c-2.39-.34-4.81-.5-7.22-.7s-4.83-.28-7.24-.39-4.83-.06-7.25-.07-4.83.14-7.25.24-4.82.32-7.23.54c-1.2.12-2.41.21-3.61.35l-3.59.5-3.59.49c-1.2.16-2.38.41-3.57.62-2.37.46-4.77.79-7.12,1.38l-7.09,1.6a119.36,119.36,0,0,0-13.91,4,115.75,115.75,0,0,0-13.34,5.66A85.1,85.1,0,0,0,115,140.16a57.67,57.67,0,0,0-10.45,10A40.17,40.17,0,0,0,97.81,162.82Zm-.12,0a40.37,40.37,0,0,1,6.63-12.9,55.86,55.86,0,0,1,10.4-10.18A85.55,85.55,0,0,1,127.1,132a116.37,116.37,0,0,1,13.38-5.8,120.13,120.13,0,0,1,14-4.18l7.08-1.66c2.35-.61,4.76-1,7.15-1.44,1.2-.21,2.39-.48,3.59-.65l3.61-.5,3.61-.49c1.21-.14,2.42-.23,3.63-.34,2.42-.22,4.84-.47,7.27-.54s4.86-.27,7.29-.23,4.86-.07,7.29.08,4.86.15,7.28.4,4.85.37,7.26.72l3.62.45c1.21.15,2.4.39,3.6.58l3.6.6,3.57.74c2.39.46,4.74,1.06,7.1,1.65,1.18.28,2.36.6,3.52.94l3.51,1c2.32.73,4.64,1.46,6.93,2.26,4.59,1.61,9.11,3.4,13.54,5.41s8.78,4.18,13,6.56,8.38,4.93,12.39,7.68a114.36,114.36,0,0,1,11.54,8.91l.75.67-1-.22c-1-.22-2-.5-3-.67s-2-.27-3.06-.28-2.05,0-3.08.05-2.05.16-3.06.33-2,.34-3,.55l-3,.74c-2,.59-3.95,1.19-5.87,1.93-1,.34-1.93.74-2.88,1.13s-1.91.78-2.85,1.22l-2.81,1.3-2.77,1.38c-.93.46-1.83,1-2.74,1.45s-1.82,1-2.71,1.5c-1.8,1-3.57,2.09-5.33,3.17-7,4.36-13.79,9.12-20.37,14.13q-4.93,3.75-9.72,7.7c-3.18,2.63-6.34,5.31-9.4,8.08l-.19.17-.22-.13c-2.27-1.33-4.59-2.58-7-3.69s-4.81-2.16-7.26-3.14-4.92-1.9-7.41-2.8-5-1.74-7.5-2.55-5-1.61-7.55-2.41-5.05-1.55-7.59-2.29q-7.61-2.22-15.28-4.26c-10.22-2.72-20.5-5.22-30.8-7.6s-20.63-4.68-31-6.76h-.05Z"/><path class="cls-5" d="M103.5,153v4.68s82.75,21.87,114.5,36.81c0,0,69.9-55.18,82.7-41.49v-4l-81.37-24.34Z"/><path class="cls-3" d="M103.56,153l0,4.64-.07-.09q7.29,1.87,14.55,3.83c4.84,1.3,9.67,2.66,14.5,4q14.48,4.09,28.89,8.46,7.2,2.19,14.37,4.48c4.78,1.52,9.54,3.13,14.27,4.78s9.46,3.37,14.14,5.18c2.34.91,4.67,1.84,7,2.81s4.61,2,6.89,3.06l-.33,0q9.47-7.33,19.29-14.18,4.9-3.43,9.89-6.74c3.32-2.21,6.69-4.34,10.07-6.47a189.21,189.21,0,0,1,21-11.56,63.15,63.15,0,0,1,11.28-4.07,22.4,22.4,0,0,1,6-.68,8,8,0,0,1,5.63,2.23l-.54.21,0-4,.23.31-40.73-12-40.7-12.12h.27l-29,7.06-29,7-29,7Zm-.1-.08,28.95-7.29,28.93-7.2,28.93-7.19,29-7.1.14,0,.14,0,40.67,12.22,40.64,12.31.23.07V149l0,4v.79l-.53-.58a7.45,7.45,0,0,0-5.21-2.09,21.52,21.52,0,0,0-5.85.63,62.6,62.6,0,0,0-11.21,4,188.74,188.74,0,0,0-21,11.41c-3.4,2.08-6.73,4.28-10,6.5s-6.58,4.5-9.83,6.81q-9.74,6.94-19.16,14.3l-.15.12-.18-.08q-3.41-1.56-6.88-3T204,189c-4.69-1.77-9.41-3.45-14.15-5.07l-7.13-2.39-7.14-2.35q-7.15-2.34-14.33-4.57-14.36-4.48-28.82-8.65L118,161.81q-7.23-2.07-14.48-4.08l-.07,0v-.07Z"/><path class="cls-5" d="M103.5,153s88,19.72,114.67,37.87c0,0,55.74-51.18,82.54-41.85,0,0-55.2-56.54-141.87-35.27C158.84,113.71,112.84,122.27,103.5,153Z"/><path class="cls-3" d="M103.57,152.92q7.37,1.61,14.71,3.37t14.7,3.65c9.78,2.54,19.52,5.21,29.2,8.09l7.25,2.2c2.41.76,4.82,1.51,7.22,2.3s4.8,1.59,7.19,2.41,4.78,1.66,7.13,2.57,4.72,1.82,7.06,2.77,4.66,2,7,3,4.58,2.16,6.82,3.35,4.42,2.49,6.54,3.89l-.42,0c3-2.67,6-5.24,9.08-7.76s6.21-5,9.38-7.39c1.59-1.2,3.18-2.39,4.8-3.55s3.24-2.31,4.87-3.46,3.29-2.25,5-3.33,3.35-2.14,5-3.2,3.41-2.06,5.15-3,3.48-1.93,5.24-2.87,3.55-1.8,5.37-2.61c.9-.43,1.82-.82,2.74-1.19s1.83-.79,2.78-1.11,1.87-.7,2.82-1l2.86-.88,2.91-.71c1-.22,2-.35,3-.52s2-.19,3-.29,2,0,3,0,2,.23,3,.33,2,.5,2.93.74l-.28.43a107.06,107.06,0,0,0-10.65-8.93c-3.72-2.77-7.58-5.36-11.53-7.79s-8-4.64-12.18-6.72-8.4-3.95-12.72-5.63c-2.15-.87-4.35-1.61-6.52-2.41s-4.4-1.48-6.63-2.08-4.45-1.29-6.72-1.79l-3.38-.81-3.41-.68c-1.14-.21-2.27-.47-3.41-.65l-3.44-.53c-2.28-.4-4.59-.61-6.9-.87q-6.91-.73-13.87-.79c-2.32-.1-4.63,0-7,.08s-4.63.24-6.94.4c-1.15.1-2.31.14-3.46.28l-3.45.42-3.45.42-3.43.57c-4.6.66-9.08,1.78-13.66,2.71a111.71,111.71,0,0,0-13.35,3.83,103.76,103.76,0,0,0-12.78,5.47A75.77,75.77,0,0,0,119.9,131a53.25,53.25,0,0,0-9.89,9.71A40.36,40.36,0,0,0,103.57,152.92Zm-.11,0a40.51,40.51,0,0,1,6.31-12.4,51.6,51.6,0,0,1,9.84-9.91,76.27,76.27,0,0,1,11.79-7.51,104.53,104.53,0,0,1,12.81-5.61,112.55,112.55,0,0,1,13.42-4c4.53-1,9.07-2.14,13.68-2.83l3.45-.6,3.47-.43,3.47-.43c1.16-.15,2.32-.19,3.49-.29,2.33-.16,4.65-.39,7-.41s4.66-.19,7-.09q7,.06,14,.78c2.32.26,4.64.47,6.94.87l3.46.54c1.15.19,2.29.45,3.44.67l3.43.69,3.4.83c2.28.51,4.51,1.19,6.75,1.83s4.44,1.42,6.67,2.12,4.39,1.57,6.55,2.45c4.34,1.71,8.59,3.65,12.76,5.73s8.23,4.39,12.19,6.85,7.8,5.1,11.52,7.91a109.58,109.58,0,0,1,10.65,9.07l.69.68-1-.25c-1-.24-1.88-.55-2.85-.74s-1.94-.32-2.93-.34-2-.1-3,0-2,.11-2.95.27-2,.29-2.92.5l-2.89.68-2.85.86c-.95.3-1.87.66-2.81,1s-1.85.72-2.77,1.09-1.84.75-2.73,1.17c-1.82.8-3.59,1.69-5.37,2.58s-3.52,1.84-5.23,2.85-3.42,2-5.12,3.06-3.36,2.12-5,3.23-3.29,2.23-4.93,3.36-3.24,2.3-4.84,3.49-3.18,2.38-4.76,3.58q-4.73,3.63-9.31,7.44c-3.05,2.54-6.07,5.13-9,7.8l-.2.18-.23-.15c-2.1-1.37-4.26-2.65-6.5-3.81s-4.5-2.25-6.8-3.29-4.62-2-7-3-4.69-1.85-7.06-2.71-4.74-1.73-7.11-2.58-4.76-1.66-7.16-2.45-4.79-1.57-7.2-2.35L162,168.73c-9.65-2.95-19.37-5.67-29.13-8.27s-19.53-5.13-29.36-7.45h-.05Z"/><path class="cls-2" d="M144.84,50.7C110.38-7.41,75.93,58.8,35.38,105.76S.93,189.49.93,189.49c7.43,15.82,35.81,20,35.81,20C116.47,211.51,179.3,108.8,144.84,50.7ZM79.46,157.3c14.49-53.63,38.83-50.57,38.83-50.57C107.2,144.25,79.46,157.3,79.46,157.3Z"/><path class="cls-3" d="M144.72,50.77c-1.34-2.18-2.69-4.35-4.2-6.41a57.2,57.2,0,0,0-4.82-5.95c-3.47-3.7-7.53-7-12.32-8.71A21.41,21.41,0,0,0,116,28.46a23.45,23.45,0,0,0-7.37,1.32,44.24,44.24,0,0,0-13,7.55A107.76,107.76,0,0,0,84.54,47.74c-3.5,3.69-6.8,7.57-10.09,11.48-6.52,7.85-12.78,15.94-19.16,24q-4.77,6-9.67,12c-3.26,3.94-6.62,7.87-10,11.7s-6.7,7.77-9.61,11.94l-2.27,3.07c-.37.52-.77,1-1.12,1.54l-1,1.6c-1.38,2.14-2.78,4.28-4.13,6.44l-3.74,6.68c-1.19,2.25-2.22,4.59-3.34,6.89-.58,1.14-1,2.34-1.5,3.52l-1.42,3.55c-.5,1.17-.83,2.41-1.25,3.61L5,159.31a101.82,101.82,0,0,0-3.19,14.93c-.21,1.26-.28,2.53-.4,3.79s-.16,2.54-.2,3.8a45.64,45.64,0,0,0,.34,7.54l-.05-.17a22.31,22.31,0,0,0,1.28,2.22,10.39,10.39,0,0,0,.74,1c.26.34.5.69.8,1l.85,1,.91.91c.63.59,1.26,1.18,1.94,1.71s1.37,1,2.07,1.55,1.44,1,2.19,1.4,1.51.86,2.27,1.27,1.55.79,2.34,1.15a69.84,69.84,0,0,0,9.81,3.62q2.51.73,5.07,1.32c1.69.39,3.43.74,5.11,1h-.13l6.94-.16c2.31-.18,4.61-.46,6.91-.69s4.55-.81,6.83-1.19c1.15-.16,2.25-.54,3.38-.8l3.36-.87c1.13-.25,2.21-.67,3.31-1l3.29-1.11A33.47,33.47,0,0,0,74,201.26l3.2-1.34a110.21,110.21,0,0,0,12.32-6.4c2-1.11,3.9-2.49,5.84-3.75s3.77-2.69,5.62-4.08c.91-.72,1.88-1.36,2.75-2.12l2.66-2.24c.88-.76,1.79-1.48,2.64-2.26l2.53-2.39,2.52-2.39,2.4-2.52,2.4-2.52,2.28-2.63,2.27-2.63c.75-.88,1.43-1.82,2.16-2.73,1.42-1.83,2.87-3.65,4.16-5.58s2.7-3.78,3.88-5.78,2.53-3.9,3.61-6a134.12,134.12,0,0,0,6.34-12.4c1.9-4.24,3.55-8.59,5-13A113.17,113.17,0,0,0,152.13,105c.38-2.29.92-4.57,1.1-6.89s.58-4.63.6-7l.14-3.5c0-1.17-.05-2.33-.07-3.5l-.12-3.5-.39-3.48c-.15-1.16-.22-2.33-.46-3.47l-.7-3.43a60.52,60.52,0,0,0-1.81-6.77c-.18-.56-.32-1.13-.53-1.67l-.66-1.62L147.92,57a12.21,12.21,0,0,0-.75-1.58l-.81-1.55Zm.24-.15,1.66,3.11.83,1.55a12.49,12.49,0,0,1,.77,1.59l1.35,3.25.68,1.63c.22.54.36,1.12.55,1.67a62.92,62.92,0,0,1,1.95,6.78l.77,3.44c.26,1.15.35,2.33.54,3.49l.5,3.5.23,3.53c.06,1.18.2,2.35.19,3.53l0,3.54c0,2.36-.21,4.71-.38,7.06s-.57,4.68-.87,7a115.15,115.15,0,0,1-3.1,13.83,119.49,119.49,0,0,1-4.76,13.36,137.11,137.11,0,0,1-6.19,12.77c-1.07,2.12-2.37,4.1-3.59,6.13s-2.59,4-3.92,5.93-2.76,3.84-4.2,5.73c-.73.93-1.42,1.9-2.18,2.81l-2.3,2.71-2.31,2.7-2.45,2.57-2.45,2.57-2.58,2.44-2.59,2.44c-.87.8-1.8,1.54-2.7,2.31-1.81,1.53-3.6,3.09-5.54,4.46S99,191,97,192.21s-3.93,2.67-6,3.79a112.92,112.92,0,0,1-12.69,6.45L75,203.79A35,35,0,0,1,71.69,205l-3.39,1.11c-1.13.36-2.25.78-3.41,1l-3.46.86c-1.16.26-2.29.63-3.47.79-2.35.38-4.68.84-7,1.12s-4.73.45-7.1.59l-7.12.05h-.13c-1.81-.3-3.54-.68-5.28-1.11s-3.46-.91-5.17-1.45a71.89,71.89,0,0,1-10-4c-.81-.39-1.6-.82-2.39-1.24s-1.57-.88-2.32-1.38-1.5-1-2.25-1.51-1.45-1.08-2.13-1.68-1.35-1.2-2-1.83l-.94-1-.88-1c-.3-.34-.55-.72-.83-1.09a11.54,11.54,0,0,1-.76-1.13,23.46,23.46,0,0,1-1.32-2.4l0-.09v-.09a46.45,46.45,0,0,1-.2-7.79c.06-1.29.12-2.58.28-3.86s.22-2.57.45-3.84A102.78,102.78,0,0,1,4.14,159l1.23-3.66c.43-1.21.77-2.45,1.29-3.63l1.44-3.58c.48-1.19.92-2.4,1.5-3.55,1.11-2.31,2.14-4.67,3.32-7l3.67-6.78c2.7-4.37,5.31-8.8,8.37-12.95,2.86-4.31,6.19-8.19,9.34-12.23,3.3-4,6.5-7.9,9.67-11.93l9.42-12.12q4.68-6.08,9.45-12.12t9.75-11.92q5-5.88,10.4-11.41A105.12,105.12,0,0,1,94.59,36a45.86,45.86,0,0,1,13.68-7.34A24.48,24.48,0,0,1,116,27.51,22.23,22.23,0,0,1,123.63,29,33.37,33.37,0,0,1,136,38.15,76.13,76.13,0,0,1,145,50.62Z"/><path class="cls-3" d="M79.32,157.26c.54-2.79,1.17-5.55,1.84-8.3a41.92,41.92,0,0,1,1.21-4.09c.44-1.36.88-2.72,1.34-4.07a40.87,40.87,0,0,1,1.55-4l1.7-3.93a16.31,16.31,0,0,1,1-1.92l1-1.89c.34-.63.7-1.25,1.06-1.87a16.29,16.29,0,0,1,1.14-1.82l2.52-3.5a17.18,17.18,0,0,1,1.37-1.66l1.42-1.62c.49-.52.91-1.1,1.44-1.59l1.55-1.48c.51-.5,1-1,1.54-1.49s1.11-.9,1.67-1.35,1.08-.94,1.68-1.33l1.78-1.21c.3-.2.59-.41.89-.6L108,109c.63-.34,1.25-.72,1.9-1s1.33-.56,2-.85,1.38-.45,2.07-.68a15.67,15.67,0,0,1,4.45-.59l1,0-.29,1-1.13,4-.58,2-.3,1-.36,1-1.5,3.86a41,41,0,0,1-1.7,3.78c-.61,1.24-1.19,2.5-1.82,3.73l-2.06,3.61a37.64,37.64,0,0,1-2.24,3.5l-1.17,1.72-.59.86-.65.81L102.37,140c-.91,1-1.86,2.05-2.81,3.07s-2,1.94-3,2.91-2.07,1.84-3.12,2.74-2.17,1.72-3.27,2.55-2.27,1.57-3.41,2.34-2.35,1.44-3.57,2.08a33.28,33.28,0,0,1-3.73,1.77l-.25.1Zm.43-.33c1-.65,2-1.32,3-2s2.15-1.66,3.22-2.47,2.09-1.7,3.08-2.63,2-1.79,3-2.75,1.94-1.86,2.83-2.87,1.88-1.92,2.71-3l2.59-3.07,2.43-3.2c.83-1.05,1.54-2.19,2.31-3.28L106,130c.39-.55.7-1.14,1.06-1.7l2.11-3.42c.66-1.17,1.26-2.37,1.89-3.55a39.33,39.33,0,0,0,1.78-3.61l1.65-3.68c.61-1.21,1-2.51,1.5-3.75l1.47-3.78.69,1.06c-.25,0-.62,0-.93-.07l-1,0c-.67.05-1.35.15-2,.26s-1.34.29-2,.48-1.3.46-2,.7-1.25.6-1.88.9l-.93.47c-.3.18-.58.38-.87.57L104.86,112c-.58.39-1.07.89-1.61,1.34s-1.06.91-1.58,1.37-.94,1-1.42,1.55l-1.39,1.57c-.47.52-.84,1.12-1.25,1.68l-1.21,1.71A16.76,16.76,0,0,0,95.27,123l-2.12,3.6a16.31,16.31,0,0,0-1,1.82c-.32.62-.62,1.25-1,1.86-.64,1.24-1.35,2.43-1.94,3.7l-1.76,3.8c-.59,1.27-1.23,2.51-1.71,3.83s-1,2.59-1.58,3.88-1.12,2.57-1.57,3.92C81.72,151.93,80.77,154.44,79.75,156.94Z"/><path class="cls-3" d="M99.66,164.31s-.41.18-1.2.47a27.44,27.44,0,0,1-3.5,1,23.19,23.19,0,0,1-5.71.53,14.34,14.34,0,0,1-3.61-.61,9.74,9.74,0,0,1-3.71-2.09,9.64,9.64,0,0,1-2.44-4c-.09-.39-.18-.78-.26-1.18l-.11-.6,0-.6q0-.6-.07-1.21c0-.4,0-.8.07-1.2a29.58,29.58,0,0,1,2.73-9.42c1.33-3.08,3-6.09,4.53-9.2s3.25-6.21,5-9.31a83.17,83.17,0,0,1,5.57-9,56.79,56.79,0,0,1,6.72-7.94,18.48,18.48,0,0,1,1.9-1.71,19.68,19.68,0,0,1,2-1.51l1.06-.69c.35-.23.75-.4,1.13-.59s.75-.38,1.14-.53l1.2-.41a10.32,10.32,0,0,1,9.29,1.33,12.91,12.91,0,0,1,1.65,1.37,18.86,18.86,0,0,1,1.31,1.5,14.29,14.29,0,0,1,1.07,1.52c.33.5.6,1,.87,1.5a28,28,0,0,1,2.12,5.29,28.85,28.85,0,0,1,1,4.79l-.28.06s-.13-.42-.43-1.18-.72-1.89-1.38-3.27a35.74,35.74,0,0,0-2.66-4.73,20.56,20.56,0,0,0-2-2.54,16.13,16.13,0,0,0-1.23-1.18,11.58,11.58,0,0,0-1.42-1,9.4,9.4,0,0,0-1.57-.77,7.81,7.81,0,0,0-1.73-.35,9.45,9.45,0,0,0-1.83,0c-.31,0-.62.13-.94.2l-.47.1-.47.17-1,.35c-.32.13-.62.32-.94.48s-.64.3-.95.5l-.93.6a16.87,16.87,0,0,0-1.83,1.34c-.3.25-.61.46-.91.72l-.88.79a56,56,0,0,0-6.72,7.3c-1.09,1.32-2.12,2.7-3.16,4.08s-2.07,2.83-3.1,4.25-1.94,2.92-2.91,4.37-1.77,3-2.61,4.51a52.7,52.7,0,0,0-3.88,9.32,37.6,37.6,0,0,0-1.66,9,13.59,13.59,0,0,0,.35,4,7.18,7.18,0,0,0,1.69,3,10.22,10.22,0,0,0,5.81,2.55,29.14,29.14,0,0,0,5.38.17c1.51-.09,2.71-.23,3.52-.34s1.25-.19,1.25-.19Z"/><path class="cls-3" d="M121.13,112.86a7.07,7.07,0,0,1,.32.7,12.54,12.54,0,0,1,.62,2.09c.09.46.19,1,.27,1.54s.1,1.17.13,1.83a18.33,18.33,0,0,1,0,2.09l-.07,1.13-.18,1.17c-.17.79-.25,1.63-.5,2.46s-.51,1.69-.82,2.56a22.38,22.38,0,0,1-1.23,2.54,19.68,19.68,0,0,1-1.51,2.52c-.56.82-1.12,1.66-1.64,2.52s-1.18,1.66-1.72,2.53l-.84,1.3a12.93,12.93,0,0,1-.85,1.31q-.9,1.28-1.77,2.6a37,37,0,0,1-3.84,5c-.69.77-1.34,1.59-2.07,2.28l-2.17,2.08a38.34,38.34,0,0,1-4.31,3.7c-1.45,1.07-2.86,2-4.15,2.93A38.64,38.64,0,0,1,91,161.88c-1.12.62-2.11,1.13-2.93,1.54-1.63.83-2.6,1.24-2.6,1.24l-.15-.24s.75-.75,2.13-1.95c.69-.6,1.52-1.32,2.5-2.12s2.13-1.62,3.25-2.69,2.42-2.1,3.79-3.22c.67-.57,1.41-1.09,2.08-1.72s1.39-1.24,2.12-1.85l2.24-1.87c.78-.62,1.43-1.36,2.18-2,1.42-1.41,3.06-2.69,4.43-4.21q1.08-1.1,2.12-2.24A25.15,25.15,0,0,0,114,138a20,20,0,0,0,1.57-2.56c.43-.9.8-1.8,1.17-2.69a21.68,21.68,0,0,0,.91-2.66l.42-1.29a9.87,9.87,0,0,0,.4-1.25c.22-.83.46-1.63.72-2.4s.39-1.54.58-2.26l.28-1.07.18-1c.09-.67.28-1.31.33-1.92s.13-1.18.2-1.71l.09-1.46c0-.88,0-1.6,0-2.07a7,7,0,0,0,0-.75Z"/></g></g></svg>