<svg xmlns="http://www.w3.org/2000/svg" viewBox="0 0 355.26 229.97"><defs><style>.cls-1{fill:#d6ebe6;}.cls-2{fill:none;stroke:#1a1818;stroke-miterlimit:10;}.cls-3{fill:#b38659;}.cls-4{fill:#1a1818;}.cls-5{fill:#e3dca8;}.cls-6{fill:#fff;}.cls-7{fill:#d70000;}.cls-8{fill:#febfbf;}.cls-9{fill:#ffbfbf;}.cls-10{fill:#980000;}</style></defs><title>bagel1</title><g id="Layer_2" data-name="Layer 2"><g id="Layer_3" data-name="Layer 3"><circle class="cls-1" cx="240.86" cy="114.4" r="114.4"/></g><g id="Layer_4" data-name="Layer 4"><path class="cls-2" d="M165.52,147.68"/><path class="cls-3" d="M283.93,147.68s20.62,64.83-64.51,78.91S97.63,193,97.63,193s-9.32-36.3,1.17-45.33l93.48,22Z"/><path class="cls-4" d="M284.07,147.64a62.74,62.74,0,0,1,1.18,31,54.46,54.46,0,0,1-5.63,14.72,53,53,0,0,1-9.71,12.47,67.48,67.48,0,0,1-12.67,9.44,89.52,89.52,0,0,1-14.3,6.63,118.71,118.71,0,0,1-15.11,4.33c-2.56.55-5.13,1-7.71,1.44s-5.15.72-7.74,1.06-5.21.49-7.81.74-5.21.28-7.81.42-5.21.09-7.82,0l-3.91-.12-2-.06-2-.14-3.9-.28c-1.3-.09-2.59-.28-3.88-.4-2.59-.23-5.17-.64-7.74-1-1.29-.17-2.56-.45-3.84-.67s-2.57-.44-3.83-.75l-3.81-.87c-1.27-.28-2.51-.67-3.78-1a120.73,120.73,0,0,1-14.81-4.93,130.6,130.6,0,0,1-14.1-6.74,110.34,110.34,0,0,1-13.09-8.59A76,76,0,0,1,96.8,193.65l-.12-.15-.06-.23c-.5-1.93-.92-3.83-1.32-5.76s-.76-3.86-1.09-5.8c-.65-3.88-1.16-7.79-1.42-11.74A61.16,61.16,0,0,1,93,158a26.72,26.72,0,0,1,1.43-6,13.26,13.26,0,0,1,3.53-5.38l.5-.43.66.15,46.79,10.81,23.37,5.52,23.34,5.61H192l23-5.31c7.65-1.77,15.3-3.55,23-5.26l23-5.18L284,147.51Zm-.24.22-22.66,5.92-22.84,5.82c-7.61,2-15.23,3.84-22.86,5.74L192.6,171l-.31.08L192,171l-23.4-5.39-23.37-5.48L98.5,149l1.15-.28A10.71,10.71,0,0,0,96.83,153a25,25,0,0,0-1.33,5.39,58.8,58.8,0,0,0-.33,11.45c.21,3.85.67,7.7,1.26,11.53q.45,2.87,1,5.73c.37,1.9.78,3.81,1.22,5.67l-.18-.38a74.66,74.66,0,0,0,10.92,10.72,105.67,105.67,0,0,0,12.7,8.79,108,108,0,0,0,13.85,6.92,119.88,119.88,0,0,0,14.66,5A126.18,126.18,0,0,0,165.76,227c2.56.34,5.12.7,7.7.88,1.29.1,2.57.25,3.86.3l3.87.16,1.94.08h5.81c2.58,0,5.16-.19,7.74-.28s5.15-.4,7.71-.64,5.11-.59,7.67-1l7.66-1.21q3.8-.68,7.57-1.52a126.49,126.49,0,0,0,14.79-4.25,86.92,86.92,0,0,0,14-6.3,65.15,65.15,0,0,0,12.33-9A55.51,55.51,0,0,0,278,192.43a52.79,52.79,0,0,0,5.81-14.11,64,64,0,0,0,1.84-15.26,66.47,66.47,0,0,0-.45-7.72A56.07,56.07,0,0,0,283.83,147.85Z"/><path class="cls-5" d="M190.2,107.69c-51.12,0-92.57,17.26-92.57,38.56s41.44,38.56,92.57,38.56,92.57-17.26,92.57-38.56S241.32,107.69,190.2,107.69Zm5.7,52.13c-16.69,0-30.21-3.36-30.21-7.5s7.43-6.21,30.21-7.5c16.66-.94,35.26-.11,35.26,4S212.59,159.83,195.9,159.83Z"/><path class="cls-4" d="M190.2,107.84l-4.82.07c-3.14.11-7.75.23-13.6.81A180,180,0,0,0,150.9,112a139.21,139.21,0,0,0-26,8.18c-2.27,1-4.57,2.09-6.83,3.33a62.77,62.77,0,0,0-6.69,4.09,44.43,44.43,0,0,0-6.13,5.17,25.14,25.14,0,0,0-4.73,6.56,16.1,16.1,0,0,0-1.66,7.9c0,.36,0,.75.07,1.1l.17,1a13.43,13.43,0,0,0,.5,2,17.86,17.86,0,0,0,.76,2c.28.66.66,1.27,1,1.91,3,5,7.81,9,13,12.3,10.61,6.58,23.2,10.58,36.08,13.16a195,195,0,0,0,19.71,2.73c6.65.54,13.35.75,20,.67s13.36-.5,20-1.2a194.27,194.27,0,0,0,19.6-3c12.8-2.69,25.31-6.59,35.88-13a53.61,53.61,0,0,0,7.33-5.35,28.72,28.72,0,0,0,5.67-6.59,17.08,17.08,0,0,0,2.54-7.76l.06-.92-.06-1.1a11.51,11.51,0,0,0-.27-2,17.31,17.31,0,0,0-1.25-3.76,24.5,24.5,0,0,0-4.64-6.54,43.77,43.77,0,0,0-6.08-5.18,78.7,78.7,0,0,0-13.48-7.46,137.88,137.88,0,0,0-26-8.22,180.28,180.28,0,0,0-20.88-3.26c-5.84-.58-10.46-.71-13.6-.82Zm0-.28,4.83,0c3.15.09,7.77.19,13.63.61a212.05,212.05,0,0,1,21.08,2.54A136,136,0,0,1,256.4,118a74.47,74.47,0,0,1,14.14,7.39,43.13,43.13,0,0,1,6.56,5.46,27.35,27.35,0,0,1,5.24,7.28,20.2,20.2,0,0,1,1.52,4.47,15.43,15.43,0,0,1,.33,2.36l.07,1.1s0,.2,0,.23v.15l0,.3,0,.6a20,20,0,0,1-3,9.14c-3.39,5.54-8.59,9.58-14.07,12.89-11.12,6.53-23.87,10.35-36.91,12.91a196.51,196.51,0,0,1-19.89,2.66c-6.69.53-13.47.73-20.17.64s-13.47-.47-20.14-1.17a195.83,195.83,0,0,1-19.78-2.92c-12.95-2.67-25.62-6.38-36.7-12.72a54.16,54.16,0,0,1-7.78-5.46,31.15,31.15,0,0,1-6.25-7.07c-.38-.69-.82-1.36-1.15-2.08a20.13,20.13,0,0,1-.91-2.2,15.52,15.52,0,0,1-.64-2.32l-.23-1.21c-.06-.39-.06-.75-.1-1.12a18.53,18.53,0,0,1,1.75-9.1,26.77,26.77,0,0,1,5.15-7.26,42.53,42.53,0,0,1,6.51-5.47A73.73,73.73,0,0,1,124,118.07a134.77,134.77,0,0,1,26.63-7.31c8.09-1.43,15.21-2.1,21.08-2.55s10.48-.53,13.63-.62Z"/><path class="cls-4" d="M195.9,160l-6,0c-1.91,0-4.24-.07-6.92-.21a57.43,57.43,0,0,1-9-1.07,26.13,26.13,0,0,1-5.08-1.55,11.93,11.93,0,0,1-2.58-1.5,5.9,5.9,0,0,1-1.21-1.26,3.74,3.74,0,0,1-.47-.9,3.68,3.68,0,0,1-.14-.54l0-.29v-.22c0-.09,0,.1,0-.22l.1-.7a6.82,6.82,0,0,1,.37-1,4.89,4.89,0,0,1,1.2-1.45,7.8,7.8,0,0,1,1.42-.94c.49-.21,1-.45,1.48-.62a30.45,30.45,0,0,1,6.07-1.29c4.11-.53,8.33-.83,12.62-1.19l6.47-.54c2.16-.22,4.35-.41,6.53-.57,4.37-.34,8.75-.59,13.09-.51a72.43,72.43,0,0,1,12.81,1.14,16.33,16.33,0,0,1,3.19,1,6.53,6.53,0,0,1,1.65,1,4,4,0,0,1,.8.93,6.28,6.28,0,0,1,.3.68,5,5,0,0,1,.12.77s0,.43,0,.27v.14l0,.18a4.31,4.31,0,0,1-.21.7,2.77,2.77,0,0,1-.29.56,3.43,3.43,0,0,1-.29.43,7.42,7.42,0,0,1-1.26,1.27,17.83,17.83,0,0,1-2.62,1.7,42.89,42.89,0,0,1-10.2,3.72,75,75,0,0,1-8.92,1.49c-2.67.29-5,.43-6.91.54s-3.42.13-4.44.15Zm0-.28,1.56,0c1-.05,2.52-.1,4.4-.36A56.58,56.58,0,0,0,208.6,158c2.57-.62,5.42-1.48,8.47-2.53a61.47,61.47,0,0,0,9.43-4,15,15,0,0,0,2.12-1.45,5,5,0,0,0,.78-.77.88.88,0,0,0,.12-.17l.06-.09a0,0,0,0,0,0,0s0,.07,0,0l0-.18v-.14c0-.2,0,.21,0,.17a0,0,0,0,0,0,0s0,0,0,0a1.44,1.44,0,0,0-.18-.18,3.66,3.66,0,0,0-.9-.54,16.52,16.52,0,0,0-2.6-.86,72.19,72.19,0,0,0-12.24-1.49c-4.25-.22-8.59-.41-12.95-.45s-8.72.08-13,.43a81.57,81.57,0,0,0-12.41,1.81,30.44,30.44,0,0,0-5.56,1.77c-.42.18-.8.41-1.19.61a6.22,6.22,0,0,0-.94.73,2.58,2.58,0,0,0-.59.76c0,.11-.07.14-.12.29l-.07.7c0-.29,0-.07,0-.13v0a.44.44,0,0,1,0,.06s0,.09,0,.13a1.24,1.24,0,0,0,.18.32,3.49,3.49,0,0,0,.71.7,12,12,0,0,0,2.06,1.19,37.33,37.33,0,0,0,4.59,1.68,85,85,0,0,0,8.58,2,67.32,67.32,0,0,0,6.8.92c1.9.17,3.4.21,4.42.24Z"/><path class="cls-4" d="M224.42,133.37s.38.24,1.05.72a33,33,0,0,1,2.77,2.32,23.55,23.55,0,0,1,3.67,4.33,14.38,14.38,0,0,1,1.55,3.23,9.44,9.44,0,0,1,.44,4.08,9.28,9.28,0,0,1-1.77,4.16c-.25.29-.51.58-.78.87l-.4.43-.45.37-.91.75c-.32.23-.66.43-1,.64a31.24,31.24,0,0,1-9.08,3.42c-3.25.78-6.64,1.25-10.07,1.82s-6.93,1-10.46,1.33a91.72,91.72,0,0,1-10.55.64,56.21,56.21,0,0,1-10.3-.83,19,19,0,0,1-2.47-.54,19.36,19.36,0,0,1-2.39-.75l-1.16-.45c-.38-.15-.75-.37-1.11-.55s-.73-.37-1.08-.59l-1-.71a10,10,0,0,1-4.27-8,12.78,12.78,0,0,1,.11-2.08,18.37,18.37,0,0,1,.41-1.91,13.9,13.9,0,0,1,.58-1.73c.2-.56.45-1.07.68-1.57a29.6,29.6,0,0,1,2.92-4.84,30,30,0,0,1,3.16-3.71l.15.13s-.27.35-.73,1-1.15,1.67-1.91,3a33.24,33.24,0,0,0-2.39,4.91,20.89,20.89,0,0,0-.93,3.16,16.93,16.93,0,0,0-.26,1.73,11.84,11.84,0,0,0,0,1.79,9.76,9.76,0,0,0,.3,1.8,8.17,8.17,0,0,0,.75,1.7,9.4,9.4,0,0,0,1.13,1.56c.23.24.49.45.74.68l.38.34.43.29a22.9,22.9,0,0,0,8.38,3.24,56.68,56.68,0,0,0,9.93,1.1c1.71.1,3.44.11,5.18.1s3.51,0,5.26-.07,3.5-.19,5.25-.28,3.47-.36,5.19-.56a58.36,58.36,0,0,0,9.86-2.25,35,35,0,0,0,8.42-3.86,13.53,13.53,0,0,0,3.09-2.68,7.54,7.54,0,0,0,1.49-3.3,10.43,10.43,0,0,0-1.46-6.39,28.6,28.6,0,0,0-3.13-4.43c-1-1.17-1.84-2-2.42-2.59s-.91-.87-.91-.87Z"/><path class="cls-4" d="M232.95,144.81s-1-.2-2.79-.67c-.88-.23-1.95-.53-3.15-.89-.6-.19-1.25-.37-1.93-.59s-1.39-.43-2.13-.61c-1.49-.41-3.1-.83-4.78-1.37s-3.46-1.1-5.32-1.63c-.93-.27-1.87-.56-2.84-.8a9.29,9.29,0,0,0-1.47-.29c-.5-.07-1-.16-1.5-.21a34.62,34.62,0,0,0-6.14-.41l-3.08,0a12.57,12.57,0,0,0-1.52.09l-1.51.12c-1,.09-2,.09-3,.24l-2.86.46a25,25,0,0,0-2.73.56l-1.32.31a10.17,10.17,0,0,0-1.28.31l-2.41.75c-.79.21-1.49.58-2.2.84l-1,.4-.95.47c-.6.33-1.23.56-1.75.88l-1.49.88-1.21.84a16.78,16.78,0,0,0-1.63,1.29c-.37.31-.54.5-.54.5l-.16-.12s.13-.23.42-.63a7.19,7.19,0,0,1,.57-.71c.24-.27.49-.61.83-.92s.69-.69,1.11-1.07l1.41-1.14a19.56,19.56,0,0,1,1.71-1.16l.95-.6,1-.53c.72-.33,1.45-.77,2.26-1.06l2.51-.91a25.63,25.63,0,0,1,2.72-.71,17.39,17.39,0,0,1,2.88-.52l3-.33c1-.1,2-.06,3.08-.09s2.08-.05,3.12.06l3.12.36c2.09.15,4.12.65,6.16.89,1,.16,2,.22,3,.4s2,.31,2.94.45a41.7,41.7,0,0,1,5.57,1c1.74.46,3.36,1,4.86,1.45a38.34,38.34,0,0,1,4,1.56c1.16.5,2.17,1,3,1.35,1.65.77,2.57,1.28,2.57,1.28Z"/><path class="cls-4" d="M164.66,111.13c7.21-1.37,14.71-4.81,22.06-2.56,5.17,1.58,8.87,4.78,13.39,7.52,10.35,6.27,23.6,3.6,35,3.28,7.17-.2,15.29-.31,21.71,3.37,5.82,3.35,8.61,9.55,12.58,14.66,2.62,3.37,8.41,7.71,8.83,12.31.44,4.81-8,5.86-11.42,6.54-13.33,2.7-26.54.72-37.29,10.49-4.7,4.27-8.62,9.56-14.87,11.65-8.05,2.69-16.74,2.36-24.91.53-7.27-1.62-14.35-3.76-21.8-4.45a107,107,0,0,0-23,.77c-6.9.85-14.67,3.28-21.52,1.47a17.71,17.71,0,0,1-12.32-11.42c-2.22-7,1.48-11.8,7.17-15.55,4.92-3.24,9.31-6.57,10.77-12.61.67-2.75.41-5.37,2.57-7.54,2.91-2.93,6.92-5.2,10.52-7.19,8-4.4,15.4-9.22,24.7-10.13,1.8-.18,1.82-3,0-2.83-7.93.78-13.88,3.86-20.73,7.63-5.73,3.15-14.08,6.41-17.83,12.09-1.29,2-1.35,4-1.76,6.26-.88,4.67-3.63,7.82-7.44,10.44-4.41,3-9.27,5.68-10.89,11.14-2.83,9.52,4.56,19.26,13.4,22.13,7.5,2.44,15.82-.11,23.37-1,9.62-1.19,19.28-1.65,28.88,0,15.09,2.61,32.13,9.82,46.63.65,6.07-3.84,9.95-10.33,16.19-14,7.39-4.3,16.17-3.58,24.36-4.69,6.16-.84,23.64-2.53,19.39-12.84-2.25-5.45-7.41-9.53-10.71-14.28-3.79-5.44-7.16-10.86-13.45-13.67-7.51-3.35-16.3-3-24.32-2.65-8.83.38-19.06,2.11-27.43-1.47-5.63-2.41-9.87-6.95-15.77-9-8.52-2.9-16.44.56-24.85,2.16-1.79.34-1,3.07.75,2.73Z"/><path class="cls-4" d="M164.28,109.76c6.52-1.1,15.64-5,22.15-2.75,12.38,3.3,12.38,11,28,11.56,12.38.55,29.32-2.75,40.4,1.65,9.77,3.86,11.73,12.67,18.25,19.27,9.77,11,10.42,15.42-9.12,18.72-11.73,2.2-21.5,0-30.62,7.16-8.47,6.61-11.08,13.77-22.81,15.42-12.38,2.75-20.85-.55-32.58-3.3-16.94-3.85-30.63-1.1-46.92,1.1-17.59,2.21-28-17.07-18.25-26.43,4.56-4.41,11.08-6.06,13.68-12.12,3.26-6.06-.65-8.81,7.17-13.77,4.56-3.85,11.08-6.61,15.64-9.36a36.19,36.19,0,0,1,17.59-6.06"/><path class="cls-4" d="M164.28,109.76c6.52-1.1,15.64-5,22.15-2.75,12.38,3.3,12.38,11,28,11.56,12.38.55,29.32-2.75,40.4,1.65,9.77,3.86,11.73,12.67,18.25,19.27,9.77,11,10.42,15.42-9.12,18.72-11.73,2.2-21.5,0-30.62,7.16-8.47,6.61-11.08,13.77-22.81,15.42-12.38,2.75-20.85-.55-32.58-3.3-16.94-3.85-30.63-1.1-46.92,1.1-17.59,2.21-28-17.07-18.25-26.43,4.56-4.41,11.08-6.06,13.68-12.12,3.26-6.06-.65-8.81,7.17-13.77,4.56-3.85,11.08-6.61,15.64-9.36a36.19,36.19,0,0,1,17.59-6.06"/><path class="cls-6" d="M164.28,109.76c6.52-1.1,15.64-5,22.15-2.75,12.38,3.3,12.38,11,28,11.56,12.38.55,29.32-2.75,40.4,1.65,9.77,3.86,11.73,12.67,18.25,19.27,9.77,11,10.42,15.42-9.12,18.72-11.73,2.2-21.5,0-30.62,7.16-8.47,6.61-11.08,13.77-22.81,15.42-12.38,2.75-20.85-.55-32.58-3.3-16.94-3.85-30.63-1.1-46.92,1.1-17.59,2.21-28-17.07-18.25-26.43,4.56-4.41,11.08-6.06,13.68-12.12,3.26-6.06-.65-8.81,7.17-13.77,4.56-3.85,11.08-6.61,15.64-9.36a36.19,36.19,0,0,1,17.59-6.06"/><path class="cls-7" d="M174.34,113.09c5.52-.88,13.26-4,18.78-2.21,10.5,2.65,10.5,8.83,23.75,9.28,10.49.44,24.86-2.21,34.24,1.32,8.29,3.09,9.94,10.16,15.47,15.46,8.29,8.83,8.84,12.37-7.73,15-9.94,1.77-18.23,0-26,5.74-7.18,5.3-9.39,11-19.33,12.37-10.49,2.21-17.67-.44-27.62-2.65-14.36-3.09-26-.88-39.77.88-14.91,1.77-23.75-13.69-15.47-21.2,3.87-3.53,9.39-4.86,11.6-9.72,2.76-4.86-.55-7.07,6.07-11,3.87-3.09,9.39-5.3,13.26-7.51A31.83,31.83,0,0,1,176.54,114"/><path class="cls-4" d="M174.43,113.43c6.12-1.12,12.33-3.74,18.59-2.21,4.83,1.18,8.22,4.13,12.43,6.45,8.86,4.89,20.12,2.51,29.75,2.32,6.13-.12,12.94-.11,18.4,3,4.56,2.63,6.95,7.23,10.11,11.22,2.43,3.06,7,6.21,8,10.21,1.24,5.24-7.79,6.25-11.26,6.88-10.63,1.91-21.25.45-30,7.89-4,3.44-7.38,7.68-12.56,9.49-6.51,2.28-13.82,2.19-20.51.94-5.66-1.06-11.16-2.8-16.88-3.55a86.85,86.85,0,0,0-20.46.07c-10.68,1.13-26.67,5.53-31.43-8.14-4.18-12,12-13.21,15-22.63.73-2.3.46-4.33,2-6.34,2.19-2.8,6.49-4.86,9.62-6.5,6.93-3.63,13.41-7.46,21.36-8.23.45,0,.45-.75,0-.71-6.7.65-11.71,3.2-17.58,6.24-4.59,2.37-11.3,4.8-14.37,9.21-1,1.39-1,2.75-1.34,4.36-.89,4.27-3.22,6.95-6.85,9.34-3.36,2.21-7.23,4.07-8.67,8.11-2.7,7.58,4,15.12,10.87,17.17,6.07,1.81,12.74-.14,18.85-.87,8.55-1,17.08-1.39,25.61,0,12.43,2.09,26.5,7.7,38.5.53,5.23-3.12,8.68-8.49,14.1-11.4,6.56-3.52,14.43-2.78,21.59-3.78,4.17-.58,17.6-1.58,14.87-8.9-1.58-4.23-6-7.37-8.63-10.87-3-4-5.56-8.3-10.17-10.71-13.64-7.13-30.1,1.22-44.18-3.54-5.26-1.78-9.21-6-14.57-7.62-6.91-2.16-13.52.58-20.34,1.83-.45.08-.26.77.19.68Z"/><path class="cls-8" d="M167.06,130.27c-5.75,0-1-6.25,1.75-7.25,3-1.5,7.25-.75,8.75,2.5-2.5.25-4.75-1.5-7.25-1-3,.5-7,5.5-2.25,6.5"/><path class="cls-9" d="M150.06,139.52c2.5,7-3.25,7.75-7.25,12.75-2.75,3.25-2.75,8.25,1.5,10.75,7.75,4.75,15.5-8,23.5-6.25-1.25-3-8.75-5-11.75-4.5-2.5.5-6,5.75-8,5.25-3-1-1.25-8-.25-9.75,1.75-2.5,5.75-3.5,1.75-6.75"/><path class="cls-9" d="M229.31,124c5.75,1.5,18.5,1.25,22.75,6.5,5.5,7.25-7.25,15.5-12.25,17.25-4.25,1.75-6.5,0-3-3.75,3-3,6.5-1.5,7-6,.75-7.25-10.25-11.25-15.5-13.75"/><path class="cls-10" d="M182.31,137.52c-4.75,4-11.75,8-4.75,14.5,3.75,3.25,15.5,5,20,2.5,7.25-4-10.75-3.75-14-3.75-4.25-.25-6.5-1.5-5.25-6.5.75-3.5,3.25-4.5,6-6.5"/><path class="cls-10" d="M208.31,138.52c4.75-1,11.25-1.5,14,3.5,1,2,2.5,14.75-.5,16-5.25,2.25-1.5-5-.5-6.25,2.75-4,1.75-5-2-8.25a16,16,0,0,0-7.75-3.75c-2.25-.5-3.75,0-5.5-2.25"/><path class="cls-3" d="M144.84,45.47c-34.46-58.11-68.92,8.11-109.46,55.07S.93,184.26.93,184.26c7.43,15.82,35.81,20,35.81,20C116.47,206.28,179.3,103.58,144.84,45.47ZM79.46,152.08c14.49-53.63,38.83-50.57,38.83-50.57C107.2,139,79.46,152.08,79.46,152.08Z"/><path class="cls-4" d="M144.72,45.54c-1.34-2.18-2.69-4.35-4.2-6.42a57.19,57.19,0,0,0-4.82-5.95c-3.47-3.7-7.53-7-12.32-8.71A21.41,21.41,0,0,0,116,23.23a23.48,23.48,0,0,0-7.37,1.32,44.24,44.24,0,0,0-13,7.55A107.73,107.73,0,0,0,84.54,42.52C81,46.21,77.73,50.09,74.45,54c-6.52,7.85-12.79,15.94-19.16,24q-4.77,6-9.67,12c-3.26,3.94-6.62,7.87-10,11.69s-6.7,7.77-9.61,11.94l-2.27,3.07c-.37.52-.77,1-1.13,1.54l-1,1.6c-1.38,2.14-2.78,4.28-4.13,6.44l-3.74,6.68c-1.19,2.25-2.22,4.59-3.34,6.89-.58,1.14-1,2.34-1.5,3.52l-1.42,3.55c-.5,1.17-.83,2.41-1.25,3.61L5,154.08A101.89,101.89,0,0,0,1.83,169c-.21,1.26-.28,2.53-.4,3.79s-.16,2.54-.2,3.8a45.65,45.65,0,0,0,.34,7.54L1.53,184a22.34,22.34,0,0,0,1.28,2.22,10.42,10.42,0,0,0,.74,1c.26.34.5.69.8,1l.85,1,.91.91c.63.59,1.26,1.18,1.94,1.71s1.37,1,2.07,1.55,1.44,1,2.19,1.39,1.51.86,2.27,1.28,1.55.79,2.34,1.15a69.83,69.83,0,0,0,9.81,3.62q2.52.73,5.07,1.32c1.69.39,3.43.74,5.11,1h-.13l6.94-.16c2.31-.18,4.61-.46,6.91-.69s4.55-.81,6.83-1.19c1.15-.16,2.25-.54,3.38-.8l3.36-.87c1.13-.25,2.21-.67,3.31-1l3.29-1.11A33.22,33.22,0,0,0,74,196l3.2-1.34a110,110,0,0,0,12.32-6.4c2-1.11,3.9-2.49,5.84-3.75s3.77-2.69,5.62-4.08c.91-.72,1.88-1.36,2.75-2.12l2.66-2.24c.88-.76,1.79-1.47,2.64-2.26l2.53-2.39,2.52-2.39,2.4-2.52,2.4-2.52,2.28-2.63,2.27-2.63c.75-.88,1.43-1.82,2.16-2.73,1.42-1.83,2.87-3.65,4.16-5.58s2.7-3.78,3.88-5.78,2.53-3.9,3.61-6a134,134,0,0,0,6.34-12.4,139.31,139.31,0,0,0,5-13,113.15,113.15,0,0,0,3.53-13.49c.38-2.29.92-4.57,1.1-6.89s.58-4.63.6-7l.14-3.49c0-1.17-.05-2.33-.07-3.5l-.12-3.5L153.41,72c-.15-1.16-.22-2.33-.46-3.47l-.7-3.43a60.53,60.53,0,0,0-1.81-6.77c-.18-.56-.32-1.13-.53-1.67L149.24,55l-1.32-3.25a12.21,12.21,0,0,0-.75-1.58l-.81-1.55Zm.24-.15,1.66,3.11.83,1.55a12.47,12.47,0,0,1,.77,1.59l1.35,3.25.68,1.63c.22.54.36,1.12.55,1.67A63,63,0,0,1,152.75,65l.77,3.44c.26,1.15.35,2.33.54,3.49l.5,3.5.23,3.53c.06,1.18.2,2.35.19,3.53L155,86c0,2.36-.21,4.71-.38,7.07s-.57,4.68-.87,7a115.15,115.15,0,0,1-3.1,13.83,119.27,119.27,0,0,1-4.76,13.36,136.72,136.72,0,0,1-6.19,12.77c-1.07,2.12-2.37,4.1-3.59,6.13s-2.59,4-3.92,5.92-2.76,3.84-4.2,5.73c-.73.93-1.42,1.9-2.18,2.81l-2.3,2.71-2.31,2.7-2.45,2.57-2.45,2.57-2.58,2.44-2.59,2.44c-.87.8-1.8,1.54-2.7,2.31-1.81,1.53-3.6,3.09-5.54,4.46S99,185.73,97,187s-3.93,2.67-6,3.79a112.93,112.93,0,0,1-12.69,6.45L75,198.56a35.17,35.17,0,0,1-3.33,1.25l-3.39,1.11c-1.13.36-2.25.78-3.41,1l-3.46.86c-1.16.26-2.29.63-3.47.79-2.35.38-4.68.84-7,1.13s-4.73.45-7.1.59l-7.12.05h-.13c-1.81-.3-3.54-.68-5.28-1.11s-3.46-.91-5.17-1.46a71.65,71.65,0,0,1-10-4c-.81-.39-1.6-.82-2.39-1.24s-1.57-.88-2.32-1.38-1.5-1-2.25-1.51S7.74,193.63,7.05,193s-1.35-1.2-2-1.84l-.94-1-.88-1c-.3-.34-.55-.72-.83-1.09a11.57,11.57,0,0,1-.76-1.13,23.46,23.46,0,0,1-1.32-2.4l0-.09v-.09a46.45,46.45,0,0,1-.2-7.79c.06-1.29.12-2.58.28-3.86s.22-2.57.45-3.84a102.78,102.78,0,0,1,3.34-15.06l1.23-3.66c.43-1.21.77-2.45,1.29-3.63L8.09,143c.48-1.19.92-2.4,1.5-3.55,1.11-2.31,2.14-4.67,3.32-7l3.67-6.78c2.7-4.37,5.31-8.8,8.37-12.95,2.86-4.31,6.19-8.19,9.34-12.23,3.3-4,6.5-7.9,9.67-11.93l9.42-12.12q4.68-6.08,9.45-12.12t9.75-11.92Q77.55,46.53,83,41A105.1,105.1,0,0,1,94.59,30.76a45.87,45.87,0,0,1,13.68-7.34A24.51,24.51,0,0,1,116,22.29a22.23,22.23,0,0,1,7.63,1.53A33.37,33.37,0,0,1,136,32.93,76.13,76.13,0,0,1,145,45.4Z"/><path class="cls-4" d="M79.32,152c.54-2.79,1.17-5.55,1.84-8.3a41.88,41.88,0,0,1,1.21-4.09c.44-1.36.88-2.72,1.34-4.07a40.9,40.9,0,0,1,1.55-4l1.7-3.93a16.29,16.29,0,0,1,1-1.92l1-1.89c.34-.63.7-1.25,1.06-1.87a16.3,16.3,0,0,1,1.14-1.82l2.52-3.5A17.18,17.18,0,0,1,95.05,115l1.42-1.62c.49-.52.91-1.1,1.44-1.59l1.55-1.48c.51-.5,1-1,1.54-1.49s1.11-.9,1.66-1.35,1.08-.94,1.68-1.33l1.78-1.21c.3-.2.59-.41.89-.6l.95-.51c.63-.34,1.25-.72,1.9-1s1.33-.56,2-.85,1.38-.45,2.07-.68a15.67,15.67,0,0,1,4.45-.59l1,0-.29,1-1.13,4-.58,2-.3,1-.36,1-1.5,3.86a41,41,0,0,1-1.7,3.78c-.61,1.24-1.19,2.5-1.82,3.73l-2.06,3.61a37.63,37.63,0,0,1-2.24,3.5l-1.17,1.72-.59.86-.65.81-2.61,3.24c-.91,1-1.86,2.05-2.81,3.07s-2,1.94-3,2.91-2.07,1.84-3.12,2.74-2.17,1.72-3.27,2.55-2.27,1.57-3.41,2.34-2.35,1.44-3.57,2.08a33.27,33.27,0,0,1-3.73,1.77l-.25.1Zm.43-.33c1-.65,2-1.32,3-2S84.91,148,86,147.19s2.09-1.7,3.08-2.63,2-1.79,3-2.75S94,140,94.85,138.95s1.88-1.92,2.71-3l2.59-3.07,2.43-3.2c.83-1.05,1.54-2.19,2.31-3.28l1.14-1.65c.39-.55.7-1.14,1.06-1.7l2.11-3.42c.66-1.17,1.26-2.37,1.89-3.55a39.32,39.32,0,0,0,1.78-3.61l1.65-3.68c.61-1.21,1-2.51,1.5-3.75l1.47-3.78.69,1.06c-.25,0-.62,0-.93-.07l-1,0c-.67.05-1.35.15-2,.26s-1.34.29-2,.48-1.3.45-2,.7-1.25.6-1.88.9l-.93.47c-.3.18-.58.38-.87.57l-1.74,1.16c-.58.39-1.07.89-1.61,1.33s-1.06.91-1.58,1.37-.94,1-1.42,1.55l-1.39,1.57c-.47.52-.84,1.12-1.25,1.68L96.41,116a16.76,16.76,0,0,0-1.15,1.74l-2.12,3.6a16.29,16.29,0,0,0-1,1.82c-.32.62-.62,1.25-1,1.86-.64,1.24-1.35,2.43-1.94,3.7l-1.76,3.8c-.59,1.27-1.23,2.51-1.71,3.83s-1,2.59-1.58,3.88-1.12,2.57-1.57,3.92C81.72,146.7,80.77,149.22,79.75,151.71Z"/><path class="cls-4" d="M96.93,159.08s-.41.18-1.2.47a27.43,27.43,0,0,1-3.5,1,23.15,23.15,0,0,1-5.71.52,14.34,14.34,0,0,1-3.61-.61,8.83,8.83,0,0,1-6.14-6.11c-.09-.39-.18-.78-.26-1.18l-.11-.6,0-.6q0-.6-.07-1.21c0-.4,0-.8.07-1.2a29.58,29.58,0,0,1,2.73-9.42c1.33-3.08,3-6.09,4.53-9.2s3.25-6.21,5-9.31a83.31,83.31,0,0,1,5.57-9,56.8,56.8,0,0,1,6.72-7.94,18.37,18.37,0,0,1,1.9-1.71,19.7,19.7,0,0,1,2-1.51l1.06-.69c.35-.23.75-.4,1.13-.59s.75-.38,1.14-.53l1.2-.41a10.33,10.33,0,0,1,9.29,1.33,13,13,0,0,1,1.65,1.37,18.87,18.87,0,0,1,1.31,1.5,14.38,14.38,0,0,1,1.07,1.52c.33.5.6,1,.87,1.5a28,28,0,0,1,2.12,5.29,28.84,28.84,0,0,1,1,4.79l-.28.06s-.13-.42-.43-1.18-.72-1.89-1.38-3.27a35.75,35.75,0,0,0-2.66-4.73,20.58,20.58,0,0,0-2-2.54,16.34,16.34,0,0,0-1.23-1.18,11.59,11.59,0,0,0-1.42-1,9.26,9.26,0,0,0-1.57-.76,7.76,7.76,0,0,0-1.73-.35,9.37,9.37,0,0,0-1.83,0c-.31,0-.62.13-.94.2l-.47.1-.47.17-1,.35c-.32.13-.62.32-.94.48s-.64.3-.95.5l-.93.6a17,17,0,0,0-1.83,1.34c-.3.25-.61.46-.91.72l-.88.79a56,56,0,0,0-6.72,7.3c-1.08,1.32-2.12,2.7-3.16,4.08S91,121,89.92,122.45,88,125.36,87,126.82s-1.77,3-2.61,4.51a52.73,52.73,0,0,0-3.88,9.32,37.6,37.6,0,0,0-1.66,9,13.6,13.6,0,0,0,.35,4,7.19,7.19,0,0,0,1.69,3,10.22,10.22,0,0,0,5.81,2.55,29.13,29.13,0,0,0,5.38.17c1.51-.09,2.71-.23,3.52-.34s1.25-.19,1.25-.19Z"/><path class="cls-4" d="M118.4,107.63a7.07,7.07,0,0,1,.32.7,12.52,12.52,0,0,1,.62,2.09c.09.46.19,1,.27,1.54s.1,1.17.13,1.83a18.31,18.31,0,0,1,0,2.09l-.07,1.13-.18,1.17c-.17.79-.25,1.63-.5,2.46s-.51,1.69-.82,2.56a22.36,22.36,0,0,1-1.23,2.54,19.69,19.69,0,0,1-1.51,2.52c-.56.82-1.12,1.66-1.64,2.52s-1.18,1.66-1.72,2.53l-.84,1.3a12.94,12.94,0,0,1-.85,1.31q-.9,1.28-1.77,2.6a37.1,37.1,0,0,1-3.83,5c-.69.77-1.34,1.59-2.07,2.28l-2.17,2.08a38.38,38.38,0,0,1-4.31,3.7c-1.45,1.07-2.86,2-4.15,2.93a38.74,38.74,0,0,1-3.69,2.18c-1.12.62-2.11,1.13-2.93,1.54-1.63.83-2.6,1.24-2.6,1.24l-.15-.24s.75-.75,2.13-1.95c.69-.6,1.52-1.32,2.5-2.12s2.13-1.62,3.25-2.69,2.42-2.1,3.79-3.21c.67-.57,1.41-1.09,2.08-1.72s1.39-1.24,2.13-1.85l2.24-1.87c.78-.62,1.43-1.36,2.18-2,1.42-1.41,3.06-2.69,4.43-4.21q1.08-1.1,2.12-2.24a25.24,25.24,0,0,0,1.81-2.46,20.19,20.19,0,0,0,1.57-2.56c.43-.9.8-1.8,1.17-2.69a21.67,21.67,0,0,0,.91-2.66l.42-1.29a9.84,9.84,0,0,0,.4-1.25c.22-.83.46-1.63.72-2.4s.39-1.54.58-2.26l.28-1.07.18-1c.09-.67.28-1.31.33-1.92s.13-1.18.2-1.71l.09-1.46c0-.88,0-1.6,0-2.07a7,7,0,0,0,0-.75Z"/></g></g></svg>