<svg xmlns="http://www.w3.org/2000/svg" viewBox="0 0 312.58 228.79"><defs><style>.cls-1{fill:#d6ebe6;}.cls-2{fill:#b38659;}.cls-3{fill:#1a1818;}.cls-4{fill:#e3dca8;}.cls-5{fill:none;}.cls-6{fill:#dbd9df;}.cls-6,.cls-7,.cls-8{fill-rule:evenodd;}.cls-7{fill:#75ac41;}.cls-8{fill:#a29da0;}.cls-9{fill:#cd1e2d;}.cls-10{fill:#f07452;}.cls-11{fill:#ec1f26;}.cls-12{fill:#a3c890;}.cls-13{fill:#d9eaa3;}.cls-14{fill:#cbdf7e;}.cls-15{fill:#e9ead9;}.cls-16{fill:#fefbd0;}.cls-17{fill:#c6e78c;}</style></defs><title>bagel2</title><g id="Layer_2" data-name="Layer 2"><g id="Layer_3" data-name="Layer 3"><circle class="cls-1" cx="198.18" cy="114.4" r="114.4"/></g><g id="Layer_4" data-name="Layer 4"><path class="cls-2" d="M273.34,145.3s20.62,64.83-64.51,78.91S87,190.63,87,190.63s-9.32-36.3,1.17-45.33l93.48,22Z"/><path class="cls-3" d="M273.48,145.26a62.76,62.76,0,0,1,1.18,31A54.45,54.45,0,0,1,269,191a52.9,52.9,0,0,1-9.71,12.47,67.46,67.46,0,0,1-12.67,9.44,89.52,89.52,0,0,1-14.3,6.63,118.69,118.69,0,0,1-15.11,4.32c-2.56.55-5.13,1-7.71,1.44s-5.15.72-7.74,1.06-5.21.49-7.81.74-5.21.28-7.81.42-5.22.09-7.82,0l-3.91-.12-2-.06-2-.14-3.9-.28c-1.3-.09-2.59-.28-3.89-.4-2.59-.23-5.17-.64-7.74-1-1.29-.17-2.56-.45-3.84-.68s-2.57-.44-3.83-.75l-3.81-.87c-1.27-.28-2.51-.67-3.78-1a120.91,120.91,0,0,1-14.81-4.93,130.44,130.44,0,0,1-14.1-6.74A110.38,110.38,0,0,1,97.76,202a76.08,76.08,0,0,1-11.55-10.74l-.12-.15-.06-.23c-.5-1.93-.92-3.83-1.32-5.76s-.76-3.86-1.09-5.8c-.65-3.88-1.16-7.79-1.42-11.74a61.24,61.24,0,0,1,.21-11.94,26.79,26.79,0,0,1,1.42-6,13.27,13.27,0,0,1,3.53-5.38l.5-.43.66.15,46.79,10.81,23.37,5.52L182,166h-.64l23-5.31c7.65-1.77,15.3-3.55,23-5.26l23-5.18,23.15-5.07Zm-.24.22-22.66,5.92-22.84,5.82c-7.61,2-15.23,3.84-22.86,5.74L182,168.64l-.31.08-.33-.08L158,163.25l-23.37-5.48L87.9,146.58l1.15-.28a10.71,10.71,0,0,0-2.83,4.32A25.06,25.06,0,0,0,84.9,156a59,59,0,0,0-.33,11.45c.21,3.85.67,7.7,1.26,11.53q.45,2.87,1,5.73c.37,1.9.78,3.81,1.22,5.67l-.18-.38a74.72,74.72,0,0,0,10.92,10.72,105.66,105.66,0,0,0,12.7,8.79,107.81,107.81,0,0,0,13.84,6.92,119.9,119.9,0,0,0,14.66,5,126.22,126.22,0,0,0,15.18,3.15c2.56.34,5.12.7,7.7.88,1.29.1,2.57.25,3.87.3l3.87.16,1.93.08h5.81c2.58,0,5.16-.19,7.74-.28s5.15-.4,7.71-.64,5.11-.59,7.66-1l7.66-1.21q3.8-.68,7.57-1.52a126.51,126.51,0,0,0,14.8-4.25,87,87,0,0,0,14-6.3,65.26,65.26,0,0,0,12.33-9A55.53,55.53,0,0,0,267.37,190a52.73,52.73,0,0,0,5.81-14.11A64,64,0,0,0,275,160.68a66.69,66.69,0,0,0-.45-7.72A56.22,56.22,0,0,0,273.23,145.48Z"/><path class="cls-4" d="M179.6,105.32c-51.12,0-92.57,17.26-92.57,38.56s41.44,38.56,92.57,38.56,92.57-17.26,92.57-38.56S230.73,105.32,179.6,105.32Zm5.7,52.13c-16.69,0-30.21-3.36-30.21-7.5s7.43-6.21,30.21-7.5c16.66-.95,35.26-.11,35.26,4S202,157.45,185.3,157.45Z"/><path class="cls-3" d="M179.61,105.46l-4.82.07c-3.14.11-7.75.23-13.6.81a180.15,180.15,0,0,0-20.88,3.25,139.32,139.32,0,0,0-26,8.18c-2.27,1-4.57,2.09-6.83,3.33a63.09,63.09,0,0,0-6.69,4.09,44.44,44.44,0,0,0-6.13,5.17,25.11,25.11,0,0,0-4.73,6.56,16.11,16.11,0,0,0-1.66,7.9c0,.36,0,.75.07,1.09l.17,1a13.38,13.38,0,0,0,.5,2,18.28,18.28,0,0,0,.76,2c.28.66.66,1.27,1,1.92,3,5,7.81,9,13,12.3,10.61,6.58,23.2,10.58,36.08,13.16A194.93,194.93,0,0,0,159.57,181c6.64.54,13.35.75,20,.67s13.36-.5,20-1.2a194.23,194.23,0,0,0,19.6-3c12.8-2.69,25.31-6.59,35.88-13a53.74,53.74,0,0,0,7.33-5.35,28.74,28.74,0,0,0,5.67-6.59,17.08,17.08,0,0,0,2.54-7.76l.06-.92-.06-1.1a11.32,11.32,0,0,0-.27-2,17.3,17.3,0,0,0-1.25-3.76,24.45,24.45,0,0,0-4.64-6.54,43.7,43.7,0,0,0-6.08-5.18,78.7,78.7,0,0,0-13.48-7.46,137.9,137.9,0,0,0-26-8.22A180.26,180.26,0,0,0,198,106.35c-5.84-.58-10.45-.71-13.6-.82Zm0-.28,4.83,0c3.15.09,7.77.19,13.63.61a212.16,212.16,0,0,1,21.08,2.54,136.09,136.09,0,0,1,26.66,7.28A74.48,74.48,0,0,1,259.94,123a43,43,0,0,1,6.56,5.45,27.31,27.31,0,0,1,5.24,7.28,20.16,20.16,0,0,1,1.52,4.47,15.41,15.41,0,0,1,.33,2.36l.07,1.1s0,.2,0,.23v.15l0,.3,0,.6a20,20,0,0,1-3,9.14c-3.39,5.54-8.59,9.58-14.07,12.89-11.12,6.53-23.87,10.35-36.91,12.91a196.24,196.24,0,0,1-19.89,2.66c-6.69.53-13.47.73-20.17.64s-13.47-.47-20.14-1.17a195.86,195.86,0,0,1-19.78-2.92c-12.95-2.67-25.62-6.38-36.7-12.72a53.94,53.94,0,0,1-7.77-5.46A31.1,31.1,0,0,1,89,153.87c-.38-.69-.82-1.36-1.15-2.08a20.15,20.15,0,0,1-.91-2.2,15.49,15.49,0,0,1-.64-2.32L86,146.07c-.06-.39-.06-.75-.1-1.12a18.54,18.54,0,0,1,1.75-9.1,26.73,26.73,0,0,1,5.15-7.26,42.48,42.48,0,0,1,6.51-5.47,73.72,73.72,0,0,1,14.09-7.43,134.77,134.77,0,0,1,26.63-7.31c8.09-1.43,15.21-2.1,21.07-2.55s10.49-.53,13.63-.62Z"/><path class="cls-3" d="M185.3,157.59l-6,0c-1.91,0-4.24-.07-6.92-.21a57.42,57.42,0,0,1-9-1.07,26.14,26.14,0,0,1-5.08-1.55,11.9,11.9,0,0,1-2.58-1.5,5.85,5.85,0,0,1-1.21-1.26,3.57,3.57,0,0,1-.62-1.44l0-.29V150c0-.09,0,.1,0-.22l.1-.7a6.81,6.81,0,0,1,.37-1,4.89,4.89,0,0,1,1.2-1.45,7.81,7.81,0,0,1,1.42-.94c.49-.21,1-.45,1.48-.62a30.4,30.4,0,0,1,6.07-1.29c4.11-.53,8.33-.83,12.62-1.19l6.47-.54c2.16-.22,4.35-.41,6.53-.57,4.37-.34,8.75-.59,13.09-.51A72.45,72.45,0,0,1,216,142.08a16.25,16.25,0,0,1,3.19,1,6.51,6.51,0,0,1,1.65,1,4,4,0,0,1,.8.93,5.94,5.94,0,0,1,.3.68,5,5,0,0,1,.12.77s0,.43,0,.27v.14l0,.18a4.11,4.11,0,0,1-.21.7,2.71,2.71,0,0,1-.29.56,3.26,3.26,0,0,1-.29.43A7.43,7.43,0,0,1,220,150a18,18,0,0,1-2.62,1.7,42.93,42.93,0,0,1-10.2,3.72,75,75,0,0,1-8.92,1.49c-2.67.29-5,.43-6.91.54s-3.42.13-4.44.15Zm0-.28,1.56,0c1-.05,2.52-.1,4.4-.36a56.67,56.67,0,0,0,6.74-1.26c2.57-.62,5.43-1.48,8.47-2.54a61.58,61.58,0,0,0,9.43-4,15,15,0,0,0,2.12-1.45,5,5,0,0,0,.78-.77.86.86,0,0,0,.11-.17l.06-.09a0,0,0,0,0,0,0s0,.07,0,0l0-.18v-.14c0-.19,0,.21,0,.17a0,0,0,0,0,0,0s0,0,0,0a1.39,1.39,0,0,0-.18-.18,3.64,3.64,0,0,0-.9-.54,16.48,16.48,0,0,0-2.6-.86,72.18,72.18,0,0,0-12.24-1.49c-4.25-.22-8.59-.41-12.94-.45s-8.72.09-13,.43a81.46,81.46,0,0,0-12.41,1.81,30.44,30.44,0,0,0-5.56,1.77c-.42.18-.8.41-1.19.61a6.23,6.23,0,0,0-.94.73,2.62,2.62,0,0,0-.59.76c0,.11-.07.14-.12.29l-.07.7c0-.29,0-.07,0-.13v0a.32.32,0,0,1,0,.06s0,.09,0,.13a1.24,1.24,0,0,0,.18.32,3.45,3.45,0,0,0,.71.7,12,12,0,0,0,2.06,1.19,37.45,37.45,0,0,0,4.59,1.68,85,85,0,0,0,8.58,2,67.36,67.36,0,0,0,6.8.92c1.9.17,3.4.21,4.42.24Z"/><path class="cls-5" d="M151.34,142.26"/><path class="cls-3" d="M210.19,128s.36.26,1,.79a34.48,34.48,0,0,1,2.62,2.44,25.3,25.3,0,0,1,3.43,4.38,11,11,0,0,1,1.76,6.91,8.51,8.51,0,0,1-1.64,3.79l-.73.81-.38.4-.43.35-.87.71c-.31.22-.63.41-1,.62a33.08,33.08,0,0,1-8.79,3.62,84.41,84.41,0,0,1-10,2c-3.44.48-6.94.87-10.45,1.12s-7,.44-10.51.35a56.26,56.26,0,0,1-10.14-1,22.5,22.5,0,0,1-8.85-3.44,9.16,9.16,0,0,1-4-7.28,12.3,12.3,0,0,1,.06-2,17.58,17.58,0,0,1,.35-1.83,20,20,0,0,1,1.12-3.24,31.44,31.44,0,0,1,2.69-4.87c.86-1.28,1.6-2.24,2.12-2.88s.81-1,.81-1l0,0s-.29.33-.8,1-1.24,1.61-2.08,2.9a31.39,31.39,0,0,0-2.62,4.88,19.7,19.7,0,0,0-1.07,3.23,17.37,17.37,0,0,0-.33,1.81,12.14,12.14,0,0,0,0,1.92,10.49,10.49,0,0,0,.29,2,9,9,0,0,0,.79,1.9,10,10,0,0,0,1.22,1.75c.25.26.53.5.79.75l.41.38c.15.11.3.21.46.32a22.24,22.24,0,0,0,8.74,3.4,56.9,56.9,0,0,0,10.09,1c3.46.11,7,0,10.49-.26s7-.6,10.45-1.05a81,81,0,0,0,10-2.07,33,33,0,0,0,8.71-3.66,13.67,13.67,0,0,0,3.28-2.85,8.3,8.3,0,0,0,1.62-3.67,10.82,10.82,0,0,0-1.69-6.8,26.3,26.3,0,0,0-3.37-4.38,34.32,34.32,0,0,0-2.57-2.48c-.62-.54-1-.81-1-.81Z"/><path class="cls-3" d="M218.79,139.31l-2.69-.94-3.08-1.1c-1.2-.4-2.51-1-4-1.35s-3.11-.88-4.81-1.4-3.54-.91-5.43-1.35l-2.89-.64c-1-.23-2-.31-3-.47a54.25,54.25,0,0,0-6.14-.62l-3.1-.13c-1,0-2.05.07-3.07.1s-2,0-3,.17l-2.92.39a20.22,20.22,0,0,0-2.8.54c-.9.23-1.81.38-2.65.66l-2.45.83c-.8.25-1.51.64-2.23.93l-1,.46-1,.53c-.61.36-1.22.64-1.73,1l-1.46,1-1.17.94a16.23,16.23,0,0,0-1.53,1.44,7.36,7.36,0,0,0-.49.56l0,0s.15-.21.48-.58a16.41,16.41,0,0,1,1.49-1.49c.35-.29.73-.63,1.16-1l1.45-1c.51-.38,1.12-.67,1.73-1l.95-.54,1-.48c.72-.3,1.43-.71,2.23-1l2.47-.84c.85-.29,1.76-.43,2.67-.66a20.51,20.51,0,0,1,2.82-.54l2.94-.39c1-.12,2-.1,3-.16s2.05-.11,3.08,0l3.1.18a54.51,54.51,0,0,1,6.15.68c1,.16,2,.21,3,.44l2.9.6c1.9.41,3.76.74,5.46,1.28s3.33,1,4.82,1.42,2.81,1,4,1.4l3.06,1.15,2.66,1Z"/><path class="cls-6" d="M97.91,156.8s5.43,14.27,25.29,10.59,25.07,1.74,33.31,6.28,16.12,11.86,29.37,5.23,19-11.07,26.15-9.72,19.7,5.28,27.94,0,13.28-13.55,11.47-17.79,21.12-1.9,8.59-19.11-41.55-17.22-43-17.22-11.46,6.28-23.28,3.84-21.49-14.65-35.82-9.42-29.48,11.38-37.25,7.1-24.07,7-22.78,12.18-.5,13.48-4.08,16.11S87.67,151.45,97.91,156.8Z"/><path class="cls-3" d="M97.93,156.8a8.62,8.62,0,0,0,.52,1.07,17.25,17.25,0,0,0,1.94,2.86,19.23,19.23,0,0,0,4.12,3.74,21,21,0,0,0,6.92,2.9,27.14,27.14,0,0,0,9.31.32l2.58-.36,2.68-.45c.91-.17,1.84-.25,2.79-.37s1.91-.2,2.9-.27a43.88,43.88,0,0,1,6.11,0,31.55,31.55,0,0,1,6.37,1.14,32.54,32.54,0,0,1,6.25,2.7c2,1.12,4,2.39,6.18,3.56,4.25,2.33,8.38,5.41,13.39,6.94a19.17,19.17,0,0,0,7.83.74,24.23,24.23,0,0,0,7.79-2.38c2.5-1.22,5-2.54,7.52-3.87s5.07-2.7,7.73-3.91a21.58,21.58,0,0,1,8.53-2.27,21.18,21.18,0,0,1,4.46.61l4.43,1a64.42,64.42,0,0,0,9.06,1.31,25.35,25.35,0,0,0,9.18-1,16.88,16.88,0,0,0,4.16-2.11,33.57,33.57,0,0,0,3.71-2.9,27,27,0,0,0,5.9-7.38,11.81,11.81,0,0,0,1.42-4.51,4.87,4.87,0,0,0,0-1.19,4.68,4.68,0,0,0-.28-1.15,1.68,1.68,0,0,1-.12-.6,1.11,1.11,0,0,1,.21-.59,3,3,0,0,1,1-.74,47.13,47.13,0,0,1,4.51-1.72,16.49,16.49,0,0,0,4.27-2.17,5.78,5.78,0,0,0,2.41-4,9.26,9.26,0,0,0-.91-4.66,23.85,23.85,0,0,0-2.42-4.17c-.44-.68-1-1.29-1.46-1.93s-1.06-1.22-1.61-1.8a42.05,42.05,0,0,0-16.42-9.92,75.65,75.65,0,0,0-18.78-3.81c-1.58-.12-3.17-.21-4.75-.22a2.62,2.62,0,0,0-1.11.24l-1.1.44c-.73.3-1.46.61-2.2.89a40.84,40.84,0,0,1-9.1,2.49,29.63,29.63,0,0,1-9.31-.11,32.5,32.5,0,0,1-8.66-3c-5.44-2.67-10.53-6-16.24-7.25a19.53,19.53,0,0,0-8.54-.11,69.47,69.47,0,0,0-8,2.66c-5.22,1.91-10.32,3.77-15.39,5.1a51.38,51.38,0,0,1-7.59,1.46,19.42,19.42,0,0,1-7.41-.49c-1.18-.33-2.23-1-3.33-1.36a9.67,9.67,0,0,0-3.44-.37,19.59,19.59,0,0,0-6.52,1.69,29.42,29.42,0,0,0-5.58,3.19,21.39,21.39,0,0,0-4.42,4.15A7.37,7.37,0,0,0,98,127.32a6.33,6.33,0,0,0,.19,2.75,20.23,20.23,0,0,1,0,5.33c-.48,3.37-1.52,6.48-3.4,8.64a10.64,10.64,0,0,1-1.56,1.36,10,10,0,0,0-1.39,1.36A4.09,4.09,0,0,0,90.75,150a5.13,5.13,0,0,0,1.37,2.66,7.77,7.77,0,0,0,.94.94,8.45,8.45,0,0,0,.93.76,17.82,17.82,0,0,0,1.65,1.14c.48.32.91.55,1.25.74l1,.58Zm0,0-1-.57c-.34-.19-.77-.42-1.25-.74A17.85,17.85,0,0,1,94,154.36a8.45,8.45,0,0,1-.93-.76,7.9,7.9,0,0,1-.94-.94A5.18,5.18,0,0,1,90.69,150a4.16,4.16,0,0,1,1.1-3.28,10.06,10.06,0,0,1,1.39-1.37A10.47,10.47,0,0,0,94.73,144c1.86-2.14,2.88-5.24,3.35-8.59a20.14,20.14,0,0,0,0-5.29c0-.45-.18-.91-.26-1.37a3.17,3.17,0,0,1,.06-1.44,7.51,7.51,0,0,1,1.35-2.59,21.54,21.54,0,0,1,4.44-4.19,29.67,29.67,0,0,1,5.61-3.23,19.74,19.74,0,0,1,6.58-1.73,9.9,9.9,0,0,1,3.52.37c1.16.37,2.17,1,3.33,1.35a19.19,19.19,0,0,0,7.32.46,51.25,51.25,0,0,0,7.54-1.48c5.05-1.34,10.14-3.19,15.37-5.1a69.59,69.59,0,0,1,8-2.67,19.8,19.8,0,0,1,8.65.12c5.78,1.29,10.89,4.62,16.3,7.28a32.24,32.24,0,0,0,8.59,3,29.35,29.35,0,0,0,9.22.11,40.56,40.56,0,0,0,9-2.47c.74-.28,1.46-.59,2.19-.89l1.11-.45a2.86,2.86,0,0,1,1.2-.26c1.59,0,3.18.1,4.77.23A76,76,0,0,1,240.9,119a42.25,42.25,0,0,1,16.47,10c.56.59,1.1,1.2,1.62,1.82s1,1.26,1.46,1.94a23.91,23.91,0,0,1,2.43,4.21,9.4,9.4,0,0,1,.91,4.74,5.92,5.92,0,0,1-2.47,4.06c-2.63,2-5.93,2.53-8.81,3.88a2.92,2.92,0,0,0-.93.71,1.1,1.1,0,0,0-.08,1.09,4.77,4.77,0,0,1,.28,1.18,5,5,0,0,1,0,1.21,11.9,11.9,0,0,1-1.44,4.55,27.56,27.56,0,0,1-5.92,7.41,33.69,33.69,0,0,1-3.72,2.92,17,17,0,0,1-4.18,2.13,25.52,25.52,0,0,1-9.22,1,64.79,64.79,0,0,1-9.09-1.3l-4.43-.94a21,21,0,0,0-4.42-.6,21.42,21.42,0,0,0-8.45,2.27c-2.65,1.22-5.19,2.59-7.72,3.92s-5,2.65-7.51,3.89a24.47,24.47,0,0,1-7.86,2.42,19.13,19.13,0,0,1-7.93-.75c-5.06-1.56-9.19-4.67-13.42-7-2.13-1.17-4.13-2.46-6.16-3.57a32.35,32.35,0,0,0-6.21-2.7,31.45,31.45,0,0,0-6.33-1.15,43.66,43.66,0,0,0-6.09,0c-1,.06-2,.13-2.89.26s-1.88.19-2.79.36l-2.68.44-2.59.36a27.22,27.22,0,0,1-9.34-.35,21,21,0,0,1-6.93-2.92,19.24,19.24,0,0,1-4.12-3.76,17.33,17.33,0,0,1-1.94-2.87A8.66,8.66,0,0,1,97.9,156.81Z"/><path class="cls-7" d="M102.22,146.95s5.43,12.08,25.29,9,25.07,1.48,33.31,5.31,16.12,10,29.37,4.43,19-9.37,26.15-8.22,19.7,4.46,27.94,0,13.28-11.46,11.47-15,21.12-1.6,8.59-16.17-41.55-14.57-43-14.57-11.46,5.31-23.28,3.25-21.49-12.39-35.82-8-29.48,9.63-37.25,6-24.07,6-22.78,10.31-.5,11.4-4.08,13.63S92,142.42,102.22,146.95Z"/><path class="cls-3" d="M102.23,146.94a8.43,8.43,0,0,0,.57,1,16.43,16.43,0,0,0,2.12,2.57,19.61,19.61,0,0,0,4.33,3.16,22.39,22.39,0,0,0,6.88,2.27c.68.09,1.36.25,2.08.29l2.2.13c.75,0,1.52,0,2.31,0l1.19,0,1.21-.14c1.63-.18,3.33-.4,5.09-.66.88-.14,1.78-.21,2.7-.31s1.85-.18,2.8-.23a42.16,42.16,0,0,1,12.07.77,33.37,33.37,0,0,1,6.22,2.1c2.05.91,4.08,2,6.19,3,4.26,1.93,8.43,4.56,13.27,6a22.77,22.77,0,0,0,7.56,1,25.89,25.89,0,0,0,7.69-1.65c5-1.92,9.94-4.37,15.15-6.52a30.77,30.77,0,0,1,8.2-2.34,17.18,17.18,0,0,1,4.34.11c1.43.24,2.86.51,4.3.77,2.88.53,5.78,1,8.74,1.29a35.62,35.62,0,0,0,8.93-.15,20.6,20.6,0,0,0,4.35-1.16,26.31,26.31,0,0,0,4-2.18,30.2,30.2,0,0,0,3.64-2.75,23.08,23.08,0,0,0,3.16-3.31,13.55,13.55,0,0,0,2.24-4,8.21,8.21,0,0,0,.27-1.11,5.06,5.06,0,0,0,0-1.14,5.64,5.64,0,0,0-.09-.56l-.2-.54c-.05-.2-.17-.35-.13-.58a.82.82,0,0,1,.27-.54,5.74,5.74,0,0,1,2.09-1c.74-.24,1.48-.45,2.23-.67a26.65,26.65,0,0,0,4.36-1.59,6.13,6.13,0,0,0,3.24-3.13,4.68,4.68,0,0,0,.16-2.27,8.2,8.2,0,0,0-.74-2.18,18.84,18.84,0,0,0-2.59-3.85c-.47-.61-1-1.16-1.56-1.74s-1.11-1.09-1.72-1.57a36,36,0,0,0-7.84-5,55,55,0,0,0-8.71-3.28,87.94,87.94,0,0,0-18.23-3.1c-1.53-.1-3.06-.18-4.59-.2a5,5,0,0,0-2.18.45l-2.16.75a48.75,48.75,0,0,1-8.83,2.16,34.66,34.66,0,0,1-9,.14,33.31,33.31,0,0,1-8.56-2.25c-5.44-2.15-10.51-5-16-6.29a25.18,25.18,0,0,0-8.24-.61l-2,.28c-.66.15-1.32.33-2,.49-1.31.32-2.59.78-3.87,1.16-5.12,1.59-10.1,3.15-15,4.36s-9.76,2.12-14.47,1.77a15.94,15.94,0,0,1-3.43-.66,21,21,0,0,0-3.2-1.08,15.53,15.53,0,0,0-6.46.37A30.13,30.13,0,0,0,105.76,118a16.15,16.15,0,0,0-2.07,1.88,5.86,5.86,0,0,0-1.39,2.26c-.3.86.23,1.68.26,2.54a12.7,12.7,0,0,1,.09,2.52,14.48,14.48,0,0,1-3,8.4c-.86,1.1-2.12,1.61-3,2.42a6.1,6.1,0,0,0-1.17,1.3,2.82,2.82,0,0,0-.44,1.54,3.78,3.78,0,0,0,1.32,2.51,7.05,7.05,0,0,0,1,.84,8.09,8.09,0,0,0,.95.66,18.35,18.35,0,0,0,1.67,1c.48.28.91.47,1.25.63l1,.49Zm0,0-1-.48c-.34-.16-.77-.35-1.26-.63a18.62,18.62,0,0,1-1.67-1,8.3,8.3,0,0,1-1-.66,7.08,7.08,0,0,1-1-.84A3.83,3.83,0,0,1,95,140.83a2.87,2.87,0,0,1,.44-1.58,6.12,6.12,0,0,1,1.18-1.32c.91-.82,2.15-1.33,3-2.42a14.4,14.4,0,0,0,3-8.35,12.68,12.68,0,0,0-.1-2.5,9.26,9.26,0,0,0-.26-1.26,2.31,2.31,0,0,1,0-1.33,6,6,0,0,1,1.41-2.32,16.28,16.28,0,0,1,2.08-1.9,30.27,30.27,0,0,1,10.86-5.25,15.73,15.73,0,0,1,6.54-.39,20.91,20.91,0,0,1,3.23,1.08,15.72,15.72,0,0,0,3.38.64c4.66.33,9.5-.62,14.38-1.81s9.87-2.76,15-4.36c1.29-.38,2.55-.84,3.88-1.16.66-.16,1.33-.34,2-.49l2-.28a25.45,25.45,0,0,1,8.33.62c5.54,1.29,10.61,4.17,16,6.31a33,33,0,0,0,8.49,2.24,34.4,34.4,0,0,0,8.91-.13,48.33,48.33,0,0,0,8.79-2.14l2.16-.75a5.27,5.27,0,0,1,2.27-.46c1.53,0,3.07.1,4.6.2a88.16,88.16,0,0,1,18.27,3.15,55.11,55.11,0,0,1,8.74,3.31,36.2,36.2,0,0,1,7.87,5.05c.61.49,1.15,1.06,1.73,1.59s1.08,1.12,1.56,1.75a19,19,0,0,1,2.61,3.89,8.36,8.36,0,0,1,.75,2.23,4.82,4.82,0,0,1-.17,2.34,6.27,6.27,0,0,1-3.31,3.2,26.65,26.65,0,0,1-4.38,1.59c-.74.22-1.49.43-2.22.66a5.66,5.66,0,0,0-2,1,.71.71,0,0,0-.24.46c0,.16.08.37.12.54l.2.55c0,.19.06.39.09.58a5.11,5.11,0,0,1,0,1.17,7.91,7.91,0,0,1-.28,1.13,13.67,13.67,0,0,1-2.26,4,24,24,0,0,1-3.18,3.32,30.3,30.3,0,0,1-3.65,2.77,26.38,26.38,0,0,1-4,2.2,20.76,20.76,0,0,1-4.37,1.18,35.78,35.78,0,0,1-9,.17c-3-.27-5.88-.75-8.75-1.28-1.44-.26-2.87-.53-4.3-.76a17,17,0,0,0-4.29-.1,30.61,30.61,0,0,0-8.15,2.34c-5.2,2.15-10.13,4.61-15.14,6.56A26.12,26.12,0,0,1,181,168a22.54,22.54,0,0,1-7.64-1c-4.88-1.46-9-4.1-13.29-6-2.11-1-4.13-2.1-6.17-3a33.27,33.27,0,0,0-6.18-2.11,42,42,0,0,0-12-.8q-1.42.06-2.79.22c-.91.1-1.81.16-2.69.3-1.76.25-3.46.47-5.09.65l-1.21.14-1.2,0c-.79,0-1.56.07-2.32,0l-2.21-.14c-.72,0-1.41-.2-2.08-.29a22.46,22.46,0,0,1-6.89-2.3,19.66,19.66,0,0,1-4.33-3.18,16.53,16.53,0,0,1-2.11-2.58A8.2,8.2,0,0,1,102.21,147Z"/><path class="cls-8" d="M188.52,170.8c1.7-12.43,21.73.24,25.34-14.17-.09,5.55-7.13,11.89-12,12.19-3.43.17-6.49-2.24-10.31-1.44a27.33,27.33,0,0,0-6.58,3.3"/><path class="cls-8" d="M147.23,165c7.33-12.33,17,8.33,24,6.67-5.67,2.33-8.67-4.67-14-5-2.67,0-5.33,3-7.67,2.33-3-.67-4.33-4-1-5.33"/><path class="cls-8" d="M219.78,166.15c5.67-8,14,.67,21.33-5.33,1,8.33-6.33,5-10.67,5.33-3.33,0-8.33,4.33-10-.33"/><path class="cls-8" d="M103.73,163c3.37-3.63,10.76-7.49,16-6.83,6.13.94,10.35,12.64,16.07,7-10.29,8.38-11.63-8.6-20.22-5.62-4,1.71-7.14,9.37-13.17,5.74,3.41-1.4,9.33-3.74,12.76-3.65,4.92.07,6.65,5.55,11.4,3.83"/><path class="cls-3" d="M186.32,138.08l-.14,2.06a23.76,23.76,0,0,1-.48,2.44,13,13,0,0,1-.51,1.49,9.69,9.69,0,0,1-.7,1.64,22.07,22.07,0,0,1-5.59,7.1,34.64,34.64,0,0,1-10.11,6,44.5,44.5,0,0,1-13.6,3,49.58,49.58,0,0,1-15.45-1.45A37.14,37.14,0,0,1,125,152.92a23.25,23.25,0,0,1-5.43-6.57,16.7,16.7,0,0,1,0-16.57,23.3,23.3,0,0,1,5.41-6.61,37,37,0,0,1,14.81-7.37,49.64,49.64,0,0,1,15.46-1.42,44.75,44.75,0,0,1,13.6,3,34.66,34.66,0,0,1,10.11,6,22.06,22.06,0,0,1,5.59,7.1,9.84,9.84,0,0,1,.7,1.64,13.11,13.11,0,0,1,.51,1.49,23.37,23.37,0,0,1,.48,2.44Zm0,0-.16-2.06a23.3,23.3,0,0,0-.49-2.43,12.62,12.62,0,0,0-.52-1.48,9.71,9.71,0,0,0-.71-1.63,22,22,0,0,0-5.61-7,34.36,34.36,0,0,0-10.1-5.89,46.39,46.39,0,0,0-13.53-2.9,49.39,49.39,0,0,0-15.39,1.41,36.88,36.88,0,0,0-14.72,7.31,23.09,23.09,0,0,0-5.39,6.52,16.53,16.53,0,0,0,0,16.41,23.13,23.13,0,0,0,5.37,6.56,36.77,36.77,0,0,0,14.75,7.3,49.48,49.48,0,0,0,15.4,1.38,46.69,46.69,0,0,0,13.54-2.92,34.4,34.4,0,0,0,10.1-5.89,22,22,0,0,0,5.61-7,9.72,9.72,0,0,0,.71-1.63,13.06,13.06,0,0,0,.52-1.48,23.18,23.18,0,0,0,.49-2.43Z"/><ellipse class="cls-3" cx="151.85" cy="138.08" rx="34.45" ry="23.68"/><ellipse class="cls-9" cx="151.85" cy="138.08" rx="34.45" ry="23.68"/><ellipse class="cls-10" cx="151.85" cy="135.65" rx="34.45" ry="21.25"/><path class="cls-3" d="M186.32,135.65l-.16,2c-.1.64-.32,1.42-.54,2.33a17.57,17.57,0,0,1-1.37,2.93,21.68,21.68,0,0,1-5.9,6.4,36.27,36.27,0,0,1-10.09,5.14,49.35,49.35,0,0,1-13.19,2.47,54.64,54.64,0,0,1-14.91-1.22,46.86,46.86,0,0,1-7.56-2.36,37.88,37.88,0,0,1-7.08-3.95,23.33,23.33,0,0,1-5.73-5.88,13.83,13.83,0,0,1,0-15.73,23.39,23.39,0,0,1,5.71-5.92,37.17,37.17,0,0,1,7.1-3.95,46.88,46.88,0,0,1,7.57-2.35,54.73,54.73,0,0,1,14.92-1.19,49.75,49.75,0,0,1,13.19,2.48A36.27,36.27,0,0,1,178.35,122a21.69,21.69,0,0,1,5.9,6.4,17.67,17.67,0,0,1,1.37,2.93c.22.92.45,1.69.54,2.33Zm0,0-.17-2c-.1-.64-.33-1.41-.56-2.32a17.57,17.57,0,0,0-1.39-2.91,21.58,21.58,0,0,0-5.91-6.34,36,36,0,0,0-10.08-5A52,52,0,0,0,155,114.64a54.48,54.48,0,0,0-14.86,1.17,46.61,46.61,0,0,0-7.53,2.33,37.43,37.43,0,0,0-7.05,3.91,23.21,23.21,0,0,0-5.69,5.84,13.67,13.67,0,0,0,0,15.55,23.23,23.23,0,0,0,5.67,5.88,36.67,36.67,0,0,0,7.07,3.91,46.63,46.63,0,0,0,7.54,2.32A54.54,54.54,0,0,0,155,156.68a52.39,52.39,0,0,0,13.14-2.43,36.05,36.05,0,0,0,10.08-5.05,21.58,21.58,0,0,0,5.91-6.34,17.57,17.57,0,0,0,1.39-2.91c.22-.91.46-1.68.56-2.32Z"/><path class="cls-11" d="M148.93,135.65s-14.66,6-14.14,12.3,25.17,4.83,26.9,3.79S159.27,138.86,148.93,135.65Z"/><path class="cls-3" d="M148.93,135.66s-1,.43-2.73,1.29c-.86.44-1.89,1-3,1.66a35.26,35.26,0,0,0-3.73,2.49,15.7,15.7,0,0,0-3.66,3.78,5.2,5.2,0,0,0-.88,2.67,2.59,2.59,0,0,0,.33,1.4,3.8,3.8,0,0,0,1,1.07,14.93,14.93,0,0,0,5.95,2,52.06,52.06,0,0,0,6.53.54c2.2.05,4.4,0,6.55-.12,1.08-.06,2.15-.13,3.2-.25a15.29,15.29,0,0,0,3-.53c.43-.19.41-.74.4-1.22a7.11,7.11,0,0,0-.25-1.45,15.24,15.24,0,0,0-1-2.69,22.8,22.8,0,0,0-2.86-4.44,20,20,0,0,0-6.09-5,18.8,18.8,0,0,0-2-.91Zm0,0,.75.25a19.3,19.3,0,0,1,2.07.86,19.9,19.9,0,0,1,6.22,5,20.76,20.76,0,0,1,2.92,4.48,15.49,15.49,0,0,1,1,2.74,7.22,7.22,0,0,1,.26,1.51,3.19,3.19,0,0,1,0,.8,1.29,1.29,0,0,1-.17.41.55.55,0,0,1-.14.16.42.42,0,0,1-.1.07l-.1,0a15.13,15.13,0,0,1-3.13.55q-1.59.16-3.22.24c-2.17.1-4.37.11-6.57,0a52.4,52.4,0,0,1-6.54-.6,15.3,15.3,0,0,1-6-2,3.92,3.92,0,0,1-1.09-1.11,2.77,2.77,0,0,1-.37-1.49,5.41,5.41,0,0,1,.88-2.79,14.45,14.45,0,0,1,3.72-3.83,35.23,35.23,0,0,1,3.78-2.46c1.17-.66,2.21-1.2,3.08-1.62,1.74-.82,2.77-1.22,2.77-1.22h0Z"/><path class="cls-11" d="M157,135.65s10.36,12.5,16.71,13.05,6.37-21,5.64-22.83S161.94,126,157,135.65Z"/><path class="cls-3" d="M157,135.64c.05.06.78.91,2.09,2.3a72.71,72.71,0,0,0,5.92,5.71,34.76,34.76,0,0,0,4.41,3.26,13.48,13.48,0,0,0,2.68,1.3,3.77,3.77,0,0,0,3,.11,5.08,5.08,0,0,0,2.05-2.38,16.26,16.26,0,0,0,1.13-3.11,42.25,42.25,0,0,0,1.06-6.68,65.54,65.54,0,0,0,.21-6.77,22,22,0,0,0-.25-3.29l-.05-.18-.1-.14a1.22,1.22,0,0,0-.29-.16,3.05,3.05,0,0,0-.76-.18,9.44,9.44,0,0,0-1.58-.07,26.18,26.18,0,0,0-6,1,32.28,32.28,0,0,0-5.13,1.91,20,20,0,0,0-6.57,4.82,14.52,14.52,0,0,0-1.36,1.86Zm0,0,.39-.72a14.72,14.72,0,0,1,1.31-1.9,20,20,0,0,1,6.55-5,28.45,28.45,0,0,1,5.16-2,26.41,26.41,0,0,1,6.08-1,9.74,9.74,0,0,1,1.63.07,3.29,3.29,0,0,1,.82.2,1.19,1.19,0,0,1,.41.25,1.47,1.47,0,0,1,.13.2l.06.21a20.89,20.89,0,0,1,.25,3.34,65.47,65.47,0,0,1-.31,6.79,42.31,42.31,0,0,1-1.13,6.69,17.67,17.67,0,0,1-1.11,3.14,5.21,5.21,0,0,1-2.09,2.47,3.92,3.92,0,0,1-3.11-.07,13.69,13.69,0,0,1-2.73-1.29,29,29,0,0,1-4.43-3.29c-1.3-1.12-2.42-2.21-3.4-3.19s-1.81-1.86-2.47-2.61c-1.33-1.49-2-2.37-2-2.37h0Z"/><path class="cls-11" d="M150.52,132.63s16.27-5.22,15.81-11.57S141.21,116,139.47,117,140.21,129.3,150.52,132.63Z"/><path class="cls-3" d="M150.52,132.61s1-.35,2.81-1.07a50.16,50.16,0,0,0,7.12-3.48,20,20,0,0,0,4.15-3.23,6.48,6.48,0,0,0,1.48-2.41,3.64,3.64,0,0,0,.15-1.44,2.53,2.53,0,0,0-.59-1.34,6.28,6.28,0,0,0-2.57-1.66,19.29,19.29,0,0,0-3.07-.88,46.24,46.24,0,0,0-6.49-.74c-2.19-.1-4.38-.11-6.53,0a52.78,52.78,0,0,0-6.3.51c-.25,0-.5.09-.74.15a.83.83,0,0,0-.57.32,2.6,2.6,0,0,0-.26,1.36,10.42,10.42,0,0,0,.51,2.8,17.82,17.82,0,0,0,2.33,4.7,17,17,0,0,0,5.82,5.24,17.67,17.67,0,0,0,2,.94Zm0,0-.75-.25a17.92,17.92,0,0,1-2-.88,17,17,0,0,1-6-5.21,16.65,16.65,0,0,1-2.4-4.76,10.68,10.68,0,0,1-.52-2.88,2.75,2.75,0,0,1,.33-1.54,1.1,1.1,0,0,1,.71-.41c.25-.07.51-.11.76-.16a51.2,51.2,0,0,1,6.33-.49c2.16,0,4.36,0,6.55.13a46.26,46.26,0,0,1,6.5.81,21.24,21.24,0,0,1,3.1.86,6.39,6.39,0,0,1,2.65,1.67,3,3,0,0,1,.5,2.93,6.68,6.68,0,0,1-1.49,2.51,17.84,17.84,0,0,1-4.2,3.27,48.22,48.22,0,0,1-7.19,3.41c-1.8.68-2.85,1-2.85,1h0Z"/><path class="cls-11" d="M144.27,134.15S140,121.69,133,120.74s-10.08,21.82-9.22,23.42S139.13,141.7,144.27,134.15Z"/><path class="cls-3" d="M144.26,134.15c0-.05-.38-1.06-1.16-2.71-.41-.85-.91-1.88-1.57-3a24.07,24.07,0,0,0-2.5-3.61,13,13,0,0,0-3.94-3.28,5.68,5.68,0,0,0-1.29-.49l-.69-.17a3.74,3.74,0,0,0-.71-.06,3.94,3.94,0,0,0-2.53,1.28,15.54,15.54,0,0,0-3.1,5.32,46.38,46.38,0,0,0-1.78,6.17,60.67,60.67,0,0,0-1,6.34,28.6,28.6,0,0,0-.2,3.13,5,5,0,0,0,.05.75.9.9,0,0,0,.08.3.5.5,0,0,0,.26.17,4.2,4.2,0,0,0,1.46.06,24.85,24.85,0,0,0,5.6-1.44,41.76,41.76,0,0,0,4.76-2.09,26.65,26.65,0,0,0,6.37-4.44,16.19,16.19,0,0,0,1.47-1.61Zm0,0-.45.63a16.29,16.29,0,0,1-1.43,1.66,26.4,26.4,0,0,1-6.33,4.57,34.94,34.94,0,0,1-4.78,2.14,25.19,25.19,0,0,1-5.67,1.44,4.41,4.41,0,0,1-1.57-.07.83.83,0,0,1-.37-.25,1,1,0,0,1-.14-.43,5.35,5.35,0,0,1-.05-.79,26.93,26.93,0,0,1,.21-3.16,60.84,60.84,0,0,1,1.13-6.34,46.47,46.47,0,0,1,1.84-6.17,16,16,0,0,1,3.08-5.4,4.09,4.09,0,0,1,2.65-1.36,4,4,0,0,1,.73,0l.71.17a5.87,5.87,0,0,1,1.33.49,12.19,12.19,0,0,1,4,3.35,24.18,24.18,0,0,1,2.48,3.66,33.38,33.38,0,0,1,1.54,3c.76,1.73,1.09,2.76,1.09,2.76h0Z"/><path class="cls-10" d="M144.27,134.18s-1.8-5.26-4.77-5.66-4.25,9.21-3.89,9.88S142.1,137.36,144.27,134.18Z"/><path class="cls-3" d="M144.26,134.17s-.17-.45-.51-1.13a13.08,13.08,0,0,0-1.74-2.76,5.61,5.61,0,0,0-1.65-1.36,2.78,2.78,0,0,0-1.1-.3,1.6,1.6,0,0,0-1,.51,6.45,6.45,0,0,0-1.32,2.22,19.38,19.38,0,0,0-.73,2.6,25.8,25.8,0,0,0-.41,2.67,12.24,12.24,0,0,0-.07,1.31,2,2,0,0,0,0,.31s0,.1,0,.08.05,0,.07,0a1.72,1.72,0,0,0,.58,0,10.85,10.85,0,0,0,2.34-.6,19,19,0,0,0,2-.86,11.33,11.33,0,0,0,2.7-1.84,6.7,6.7,0,0,0,.63-.66Zm0,0-.18.27a7,7,0,0,1-.59.71,11.08,11.08,0,0,1-2.66,2,14,14,0,0,1-2,.92,10.3,10.3,0,0,1-2.41.62,1.92,1.92,0,0,1-.7,0,.47.47,0,0,1-.19-.13.46.46,0,0,1-.08-.22,2.26,2.26,0,0,1,0-.35,11.26,11.26,0,0,1,.1-1.34,25.71,25.71,0,0,1,.5-2.68,19.78,19.78,0,0,1,.8-2.6,6.86,6.86,0,0,1,1.29-2.3,1.8,1.8,0,0,1,1.15-.6,2.72,2.72,0,0,1,1.2.3,5,5,0,0,1,1.71,1.44,12.45,12.45,0,0,1,1.68,2.86c.3.74.44,1.18.44,1.18h0Z"/><path class="cls-10" d="M148.86,133.5s6-1.81,6.57-5.14-10.2-5.17-11-4.79S145.36,130.92,148.86,133.5Z"/><path class="cls-3" d="M148.86,133.48s.51-.17,1.3-.53a14.7,14.7,0,0,0,3.19-1.84,6.25,6.25,0,0,0,1.61-1.8,3.15,3.15,0,0,0,.39-1.24,1.8,1.8,0,0,0-.54-1.19,7.26,7.26,0,0,0-2.45-1.58,21.73,21.73,0,0,0-2.9-.93,28.78,28.78,0,0,0-3-.58,13.81,13.81,0,0,0-1.48-.14,2.39,2.39,0,0,0-.35,0c-.05,0-.11,0-.1,0s0,.06-.06.09a2,2,0,0,0,0,.66,12.24,12.24,0,0,0,.58,2.67,21,21,0,0,0,.89,2.3,12.8,12.8,0,0,0,2,3.11,7.62,7.62,0,0,0,.73.74Zm0,0-.3-.22a7.63,7.63,0,0,1-.78-.7,12.48,12.48,0,0,1-2.1-3.08,15.78,15.78,0,0,1-1-2.31,11.54,11.54,0,0,1-.6-2.74,2.16,2.16,0,0,1,.07-.78.5.5,0,0,1,.15-.2.51.51,0,0,1,.25-.08,2.65,2.65,0,0,1,.39,0,12.85,12.85,0,0,1,1.51.17,29.16,29.16,0,0,1,3,.67,22.05,22.05,0,0,1,2.9,1,7.69,7.69,0,0,1,2.54,1.55,2,2,0,0,1,.63,1.32,3.07,3.07,0,0,1-.38,1.34,5.71,5.71,0,0,1-1.68,1.86,14,14,0,0,1-3.28,1.78c-.84.32-1.34.45-1.34.45h0Z"/><path class="cls-10" d="M156.45,135.35s3.9,5,7.27,5.3,2.7-9.8,2.25-10.54S158.72,131.65,156.45,135.35Z"/><path class="cls-3" d="M156.47,135.35s.35.42.93,1a22.46,22.46,0,0,0,2.68,2.45,11.93,11.93,0,0,0,2.05,1.26,5.28,5.28,0,0,0,1.23.41,1.46,1.46,0,0,0,1.27-.16,4.09,4.09,0,0,0,1.3-2.48,17.11,17.11,0,0,0,.31-3,26.21,26.21,0,0,0-.11-3,11.86,11.86,0,0,0-.2-1.44c-.06-.28-.08-.32-.34-.33a3.2,3.2,0,0,0-.67.07,17,17,0,0,0-4.72,1.91,12.6,12.6,0,0,0-2.87,2.2,7.82,7.82,0,0,0-.66.77Zm0,0,.19-.31a8,8,0,0,1,.62-.82,12.37,12.37,0,0,1,2.83-2.33,16,16,0,0,1,2.17-1.14,12.72,12.72,0,0,1,2.62-.85,3.42,3.42,0,0,1,.74-.06l.21,0a.49.49,0,0,1,.22.12.91.91,0,0,1,.16.4,11.15,11.15,0,0,1,.18,1.48,26.33,26.33,0,0,1,0,3,17.2,17.2,0,0,1-.38,3,4.29,4.29,0,0,1-1.3,2.59,1.58,1.58,0,0,1-.69.28,2.57,2.57,0,0,1-.7,0,4.68,4.68,0,0,1-1.29-.4,9.58,9.58,0,0,1-2.09-1.3,20.71,20.71,0,0,1-2.63-2.54c-.57-.67-.87-1.08-.87-1.08h0Z"/><path class="cls-10" d="M149,135.35s-5.48,3-5.34,6.41,11.06,2.91,11.74,2.37S152.93,137.13,149,135.35Z"/><path class="cls-3" d="M149,135.37s-.47.28-1.16.79a14.75,14.75,0,0,0-2.73,2.47,6.3,6.3,0,0,0-1.19,2.1,3.16,3.16,0,0,0-.12,1.29,1.81,1.81,0,0,0,.77,1.05,7.28,7.28,0,0,0,2.73,1,22,22,0,0,0,3,.3,29,29,0,0,0,3-.07,13.77,13.77,0,0,0,1.47-.18,2.4,2.4,0,0,0,.34-.08l.1,0c.06-.06,0-.07,0-.1a2,2,0,0,0-.1-.66,12.28,12.28,0,0,0-1.13-2.49,20.81,20.81,0,0,0-1.36-2.06,12.75,12.75,0,0,0-2.58-2.63,7.6,7.6,0,0,0-.87-.57Zm0,0,.34.15a7.77,7.77,0,0,1,.91.52,12.47,12.47,0,0,1,2.7,2.57,15.85,15.85,0,0,1,1.42,2.06,11.61,11.61,0,0,1,1.16,2.55,2.16,2.16,0,0,1,.09.78.48.48,0,0,1-.1.23.5.5,0,0,1-.22.13,2.61,2.61,0,0,1-.38.09,12.57,12.57,0,0,1-1.51.15,28.84,28.84,0,0,1-3.07,0,22,22,0,0,1-3-.37,7.7,7.7,0,0,1-2.81-1,2,2,0,0,1-.89-1.15,3.09,3.09,0,0,1,.09-1.39,5.73,5.73,0,0,1,1.25-2.18,14.08,14.08,0,0,1,2.83-2.43c.76-.49,1.22-.72,1.22-.72h0Z"/><path class="cls-3" d="M245.33,129.14l-.12,1.73a19.71,19.71,0,0,1-.4,2,10.79,10.79,0,0,1-.43,1.25,8.27,8.27,0,0,1-.59,1.38,18.56,18.56,0,0,1-4.7,6,29.13,29.13,0,0,1-8.49,5,37.2,37.2,0,0,1-11.43,2.49,41.68,41.68,0,0,1-13-1.23,31.24,31.24,0,0,1-12.41-6.21,19.55,19.55,0,0,1-4.57-5.52,14,14,0,0,1,0-13.93,19.63,19.63,0,0,1,4.55-5.56,31.11,31.11,0,0,1,12.45-6.2,41.71,41.71,0,0,1,13-1.2,37.48,37.48,0,0,1,11.43,2.51,29.14,29.14,0,0,1,8.49,5,18.56,18.56,0,0,1,4.7,6,8.31,8.31,0,0,1,.59,1.38,11.31,11.31,0,0,1,.43,1.25,19.87,19.87,0,0,1,.4,2C245.29,128.54,245.33,129.14,245.33,129.14Zm0,0-.13-1.73a19.58,19.58,0,0,0-.42-2,11,11,0,0,0-.44-1.25,8.23,8.23,0,0,0-.59-1.37,18.46,18.46,0,0,0-4.71-5.9,28.87,28.87,0,0,0-8.48-4.94,39.11,39.11,0,0,0-11.36-2.43,41.46,41.46,0,0,0-12.92,1.18,31,31,0,0,0-12.36,6.13,19.36,19.36,0,0,0-4.53,5.47,13.87,13.87,0,0,0,0,13.77,19.44,19.44,0,0,0,4.51,5.51,30.85,30.85,0,0,0,12.39,6.13,41.58,41.58,0,0,0,12.93,1.15,39.41,39.41,0,0,0,11.37-2.45,28.9,28.9,0,0,0,8.48-4.94,18.44,18.44,0,0,0,4.71-5.91,8.22,8.22,0,0,0,.59-1.37,11.24,11.24,0,0,0,.44-1.24,19.56,19.56,0,0,0,.42-2Z"/><ellipse class="cls-3" cx="216.37" cy="129.14" rx="28.95" ry="19.89"/><ellipse class="cls-9" cx="216.37" cy="129.14" rx="28.95" ry="19.89"/><ellipse class="cls-10" cx="216.37" cy="127.1" rx="28.95" ry="17.85"/><path class="cls-3" d="M245.33,127.1l-.13,1.67c-.08.54-.27,1.19-.46,2a14.75,14.75,0,0,1-1.15,2.46,18.23,18.23,0,0,1-5,5.38,30.46,30.46,0,0,1-8.48,4.33A41.24,41.24,0,0,1,219.07,145a45.88,45.88,0,0,1-12.53-1,39.4,39.4,0,0,1-6.35-2,31.88,31.88,0,0,1-5.95-3.32,19.62,19.62,0,0,1-4.81-4.94,11.65,11.65,0,0,1,0-13.23,19.71,19.71,0,0,1,4.8-5,31.15,31.15,0,0,1,6-3.32,39.43,39.43,0,0,1,6.36-2,46,46,0,0,1,12.54-1,41.62,41.62,0,0,1,11.09,2.09,30.53,30.53,0,0,1,8.48,4.33,18.22,18.22,0,0,1,5,5.38,14.87,14.87,0,0,1,1.15,2.46c.18.77.38,1.42.46,2Zm0,0-.14-1.66c-.08-.54-.28-1.18-.47-1.95a14.73,14.73,0,0,0-1.17-2.44,18.11,18.11,0,0,0-5-5.32,30.21,30.21,0,0,0-8.47-4.23,43.84,43.84,0,0,0-11-2,45.72,45.72,0,0,0-12.48,1,39.25,39.25,0,0,0-6.32,2,31.54,31.54,0,0,0-5.92,3.28,19.45,19.45,0,0,0-4.78,4.89,11.45,11.45,0,0,0,0,13.05,19.52,19.52,0,0,0,4.76,4.94,30.8,30.8,0,0,0,5.94,3.28,39.11,39.11,0,0,0,6.34,1.94,45.81,45.81,0,0,0,12.49,1,44.28,44.28,0,0,0,11-2,30.24,30.24,0,0,0,8.47-4.24,18.13,18.13,0,0,0,5-5.32,14.76,14.76,0,0,0,1.17-2.44c.19-.76.38-1.41.47-1.95Z"/><path class="cls-11" d="M213.91,127.1s-12.31,5-11.88,10.33,21.15,4.06,22.6,3.19S222.61,129.81,213.91,127.1Z"/><path class="cls-3" d="M213.91,127.12s-.86.36-2.29,1.09a36.43,36.43,0,0,0-5.69,3.49,13.29,13.29,0,0,0-3.07,3.17,4.35,4.35,0,0,0-.74,2.24,2.16,2.16,0,0,0,.27,1.17,3.18,3.18,0,0,0,.86.9,12.5,12.5,0,0,0,5,1.69,44,44,0,0,0,5.49.45c1.85,0,3.69,0,5.5-.11.91-.05,1.81-.11,2.69-.21a12.87,12.87,0,0,0,2.55-.45c.34-.15.33-.6.33-1a6,6,0,0,0-.21-1.21,12.72,12.72,0,0,0-.86-2.25,19.26,19.26,0,0,0-2.39-3.73,16.81,16.81,0,0,0-5.1-4.22,15.92,15.92,0,0,0-1.7-.77Zm0,0,.63.21a16.24,16.24,0,0,1,1.74.72,16.74,16.74,0,0,1,5.24,4.17,17.33,17.33,0,0,1,2.46,3.76,12.9,12.9,0,0,1,.87,2.31,6.11,6.11,0,0,1,.22,1.27,2.73,2.73,0,0,1,0,.67,1.07,1.07,0,0,1-.15.35.46.46,0,0,1-.12.13.32.32,0,0,1-.08.06l-.08,0a12.7,12.7,0,0,1-2.64.46q-1.34.13-2.7.2c-1.82.08-3.67.08-5.52,0a43.77,43.77,0,0,1-5.5-.51,12.88,12.88,0,0,1-5.07-1.65,3.3,3.3,0,0,1-.92-.94,2.35,2.35,0,0,1-.31-1.26,4.57,4.57,0,0,1,.74-2.35,12.07,12.07,0,0,1,3.13-3.22,29.84,29.84,0,0,1,3.18-2.07c1-.56,1.86-1,2.59-1.35,1.47-.69,2.33-1,2.33-1h0Z"/><path class="cls-11" d="M220.72,127.1s8.71,10.5,14,11,5.35-17.61,4.74-19.18S224.85,119,220.72,127.1Z"/><path class="cls-3" d="M220.74,127.1c0,.06.66.77,1.76,1.93a61.34,61.34,0,0,0,5,4.79,29.91,29.91,0,0,0,3.7,2.74,11.32,11.32,0,0,0,2.24,1.09,3.16,3.16,0,0,0,2.49.1,4.26,4.26,0,0,0,1.72-2,13.63,13.63,0,0,0,.95-2.61,35.4,35.4,0,0,0,.88-5.61,54.9,54.9,0,0,0,.17-5.68,18.53,18.53,0,0,0-.21-2.75l0-.15-.08-.12a1,1,0,0,0-.24-.13,2.53,2.53,0,0,0-.63-.15,8.05,8.05,0,0,0-1.33-.06,21.93,21.93,0,0,0-5,.83,27.45,27.45,0,0,0-4.31,1.6,16.82,16.82,0,0,0-5.52,4,12.11,12.11,0,0,0-1.14,1.55Zm0,0,.33-.6a12.28,12.28,0,0,1,1.1-1.6,16.77,16.77,0,0,1,5.5-4.18,23.71,23.71,0,0,1,4.34-1.65,22.18,22.18,0,0,1,5.12-.83,8.12,8.12,0,0,1,1.37.06,2.78,2.78,0,0,1,.7.17,1,1,0,0,1,.35.22,1.14,1.14,0,0,1,.11.17l.05.18a17.38,17.38,0,0,1,.21,2.81,55.13,55.13,0,0,1-.26,5.7,35.47,35.47,0,0,1-1,5.62,15,15,0,0,1-.93,2.64,4.38,4.38,0,0,1-1.76,2.08,3.31,3.31,0,0,1-2.62-.06,11.54,11.54,0,0,1-2.3-1.08,24,24,0,0,1-3.72-2.77c-1.09-.94-2-1.86-2.85-2.68s-1.52-1.57-2.07-2.2c-1.11-1.25-1.71-2-1.71-2h0Z"/><path class="cls-11" d="M215.25,124.57s13.67-4.39,13.28-9.72-21.11-4.27-22.56-3.41S206.59,121.77,215.25,124.57Z"/><path class="cls-3" d="M215.25,124.55s.87-.29,2.36-.91a42.29,42.29,0,0,0,6-2.93,16.94,16.94,0,0,0,3.48-2.71,5.45,5.45,0,0,0,1.24-2,3.05,3.05,0,0,0,.13-1.2,2.09,2.09,0,0,0-.49-1.12,5.25,5.25,0,0,0-2.15-1.4,15.93,15.93,0,0,0-2.58-.74,38.59,38.59,0,0,0-5.45-.62c-1.84-.08-3.68-.09-5.49,0a44.54,44.54,0,0,0-5.29.43c-.4.09-.9.11-1.09.39a2.16,2.16,0,0,0-.21,1.13,8.75,8.75,0,0,0,.43,2.35,15,15,0,0,0,2,3.95,14.25,14.25,0,0,0,4.88,4.41,15.13,15.13,0,0,0,1.69.79Zm0,0-.63-.21a15,15,0,0,1-1.72-.74,14.24,14.24,0,0,1-5-4.37,13.88,13.88,0,0,1-2-4,9,9,0,0,1-.44-2.43,2.32,2.32,0,0,1,.28-1.3,1,1,0,0,1,.61-.35c.22-.06.43-.09.64-.13a43,43,0,0,1,5.32-.41c1.82,0,3.66,0,5.5.11a38.75,38.75,0,0,1,5.46.69,18,18,0,0,1,2.6.72,5.38,5.38,0,0,1,2.23,1.41,2.54,2.54,0,0,1,.43,2.47,5.64,5.64,0,0,1-1.26,2.12,14.89,14.89,0,0,1-3.54,2.75,40.4,40.4,0,0,1-6,2.86c-1.51.56-2.4.83-2.4.83h0Z"/><path class="cls-11" d="M210,125.84s-3.59-10.46-9.49-11.26-8.47,18.33-7.75,19.67S205.68,132.18,210,125.84Z"/><path class="cls-3" d="M210,125.84c0-.05-.32-.89-1-2.28a25.74,25.74,0,0,0-3.43-5.55,11,11,0,0,0-3.3-2.75,4.76,4.76,0,0,0-1.08-.41,4,4,0,0,0-1.17-.19,3.31,3.31,0,0,0-2.12,1.06,13,13,0,0,0-2.61,4.46,38.73,38.73,0,0,0-1.49,5.18,51,51,0,0,0-.86,5.32,24,24,0,0,0-.17,2.63,4.15,4.15,0,0,0,0,.63.79.79,0,0,0,.06.24.38.38,0,0,0,.21.14,3.51,3.51,0,0,0,1.22,0,20.88,20.88,0,0,0,4.7-1.21,35.69,35.69,0,0,0,4-1.75,22.4,22.4,0,0,0,5.35-3.72,13.57,13.57,0,0,0,1.24-1.35Zm0,0-.37.53a13.67,13.67,0,0,1-1.2,1.4,22.16,22.16,0,0,1-5.32,3.85,28.78,28.78,0,0,1-4,1.8,21.08,21.08,0,0,1-4.77,1.21,3.7,3.7,0,0,1-1.33-.06.72.72,0,0,1-.32-.22.83.83,0,0,1-.12-.37,4.6,4.6,0,0,1,0-.67,22.55,22.55,0,0,1,.18-2.66,51,51,0,0,1,1-5.33,38.73,38.73,0,0,1,1.55-5.18,13.43,13.43,0,0,1,2.58-4.54,3.45,3.45,0,0,1,2.24-1.15,4.15,4.15,0,0,1,1.22.18,5,5,0,0,1,1.13.41,10.18,10.18,0,0,1,3.37,2.82,20.43,20.43,0,0,1,2.08,3.08,27.67,27.67,0,0,1,1.29,2.56c.63,1.46.91,2.32.91,2.32h0Z"/><path class="cls-10" d="M210,125.87s-1.52-4.42-4-4.75-3.58,7.74-3.27,8.3S208.18,128.54,210,125.87Z"/><path class="cls-3" d="M210,125.87s-.15-.38-.44-.95a11.82,11.82,0,0,0-1.47-2.31,4.66,4.66,0,0,0-1.37-1.14,2.37,2.37,0,0,0-.92-.26,1.34,1.34,0,0,0-.86.42,5.14,5.14,0,0,0-1.11,1.86,16.27,16.27,0,0,0-.61,2.19,21.25,21.25,0,0,0-.34,2.24,10.07,10.07,0,0,0-.06,1.1,1.84,1.84,0,0,0,0,.25s0,.08,0,.06,0,0,.05,0a1.48,1.48,0,0,0,.48,0,9.21,9.21,0,0,0,2-.5,16.5,16.5,0,0,0,1.68-.72,9.58,9.58,0,0,0,2.27-1.53,5.74,5.74,0,0,0,.54-.55Zm0,0-.15.23a5.6,5.6,0,0,1-.5.6,9.26,9.26,0,0,1-2.24,1.66,11.35,11.35,0,0,1-1.7.78,8.58,8.58,0,0,1-2,.52,1.65,1.65,0,0,1-.6,0,.34.34,0,0,1-.24-.31,1.83,1.83,0,0,1,0-.3,9.3,9.3,0,0,1,.09-1.13,21.38,21.38,0,0,1,.43-2.25,16.35,16.35,0,0,1,.68-2.19,6.07,6.07,0,0,1,1.08-1.94,1.5,1.5,0,0,1,1-.52,2.28,2.28,0,0,1,1,.25,4.29,4.29,0,0,1,1.45,1.21,9.8,9.8,0,0,1,1.4,2.41c.25.62.36,1,.36,1h0Z"/><path class="cls-10" d="M213.86,125.3s5-1.52,5.52-4.32-8.57-4.35-9.22-4S210.92,123.13,213.86,125.3Z"/><path class="cls-3" d="M213.86,125.28s.43-.15,1.09-.45a12.44,12.44,0,0,0,2.67-1.55,5.34,5.34,0,0,0,1.34-1.51,2.66,2.66,0,0,0,.33-1,1.5,1.5,0,0,0-.44-1,6.09,6.09,0,0,0-2.05-1.33,18.4,18.4,0,0,0-2.44-.78,24.16,24.16,0,0,0-2.51-.48,11.61,11.61,0,0,0-1.24-.11h-.29s-.09,0-.08,0,0,0,0,.06a1.61,1.61,0,0,0,0,.55,10.32,10.32,0,0,0,.48,2.23,18.26,18.26,0,0,0,.74,1.93,10.76,10.76,0,0,0,1.64,2.62,6.41,6.41,0,0,0,.61.62Zm0,0-.25-.18a6.58,6.58,0,0,1-.66-.59,10.44,10.44,0,0,1-1.77-2.59,13,13,0,0,1-.81-1.94,9.81,9.81,0,0,1-.5-2.31,1.83,1.83,0,0,1,.06-.66.43.43,0,0,1,.13-.18.44.44,0,0,1,.22-.07,2.23,2.23,0,0,1,.33,0,10.47,10.47,0,0,1,1.27.14,24.25,24.25,0,0,1,2.52.57,18.64,18.64,0,0,1,2.44.85,6.5,6.5,0,0,1,2.14,1.3,1.7,1.7,0,0,1,.53,1.12,2.59,2.59,0,0,1-.32,1.13,4.77,4.77,0,0,1-1.42,1.57,11.73,11.73,0,0,1-2.76,1.49c-.71.26-1.13.37-1.13.37h0Z"/><path class="cls-10" d="M220.23,126.86s3.28,4.21,6.11,4.45,2.27-8.24,1.89-8.86S222.14,123.74,220.23,126.86Z"/><path class="cls-3" d="M220.25,126.86s.3.35.78.85a19,19,0,0,0,2.26,2.05A10.39,10.39,0,0,0,225,130.8a4.51,4.51,0,0,0,1,.35,1.21,1.21,0,0,0,1.05-.12,3.42,3.42,0,0,0,1.09-2.07,14.36,14.36,0,0,0,.26-2.5,21.65,21.65,0,0,0-.1-2.51,9.87,9.87,0,0,0-.17-1.21c-.06-.23,0-.25-.26-.26a2.66,2.66,0,0,0-.56.06,14.48,14.48,0,0,0-4,1.6A10.63,10.63,0,0,0,221,126a6.47,6.47,0,0,0-.56.65Zm0,0,.16-.26a6.38,6.38,0,0,1,.52-.69,10.32,10.32,0,0,1,2.38-2,13.16,13.16,0,0,1,1.83-1,10.55,10.55,0,0,1,2.2-.72,2.83,2.83,0,0,1,.63,0l.18,0a.45.45,0,0,1,.2.11.79.79,0,0,1,.14.35,9.15,9.15,0,0,1,.15,1.25,22,22,0,0,1,0,2.54,14.44,14.44,0,0,1-.32,2.51,3.62,3.62,0,0,1-1.09,2.18,1.33,1.33,0,0,1-.59.24,2.14,2.14,0,0,1-.59,0,3.91,3.91,0,0,1-1.09-.33,7.93,7.93,0,0,1-1.76-1.1,17.24,17.24,0,0,1-2.21-2.15c-.48-.57-.72-.92-.72-.92h0Z"/><path class="cls-10" d="M213.94,126.85s-4.61,2.55-4.49,5.38,9.29,2.44,9.86,2S217.27,128.35,213.94,126.85Z"/><path class="cls-3" d="M213.94,126.87s-.39.24-1,.67a12.38,12.38,0,0,0-2.29,2.08,5.32,5.32,0,0,0-1,1.76,2.68,2.68,0,0,0-.1,1.08,1.5,1.5,0,0,0,.64.88,6.08,6.08,0,0,0,2.29.86,18.38,18.38,0,0,0,2.55.25,24.48,24.48,0,0,0,2.56-.06,11.63,11.63,0,0,0,1.24-.15,2,2,0,0,0,.28-.07s.08,0,.07,0,0-.05,0-.07a1.65,1.65,0,0,0-.08-.54,10.37,10.37,0,0,0-.94-2.08,18,18,0,0,0-1.13-1.73,10.73,10.73,0,0,0-2.16-2.21,6.43,6.43,0,0,0-.72-.48Zm0,0,.28.13a6.6,6.6,0,0,1,.77.43,10.45,10.45,0,0,1,2.28,2.16,13.06,13.06,0,0,1,1.2,1.73,9.74,9.74,0,0,1,1,2.15,1.85,1.85,0,0,1,.08.66.36.36,0,0,1-.29.32,2.19,2.19,0,0,1-.32.08,10.42,10.42,0,0,1-1.27.13,24.24,24.24,0,0,1-2.58,0,18.39,18.39,0,0,1-2.56-.31,6.5,6.5,0,0,1-2.36-.82,1.7,1.7,0,0,1-.76-1,2.6,2.6,0,0,1,.08-1.17,4.78,4.78,0,0,1,1.06-1.84,11.79,11.79,0,0,1,2.39-2c.64-.4,1-.6,1-.6h0Z"/><path class="cls-3" d="M252.43,132.38l-.1,1.41a16,16,0,0,1-.33,1.67,9.07,9.07,0,0,1-.35,1,6.79,6.79,0,0,1-.48,1.12,15.1,15.1,0,0,1-3.82,4.86,23.7,23.7,0,0,1-6.91,4.1,30,30,0,0,1-9.3,2,33.88,33.88,0,0,1-10.56-1,25.41,25.41,0,0,1-10.09-5.06,15.9,15.9,0,0,1-3.71-4.49,11.45,11.45,0,0,1,0-11.34,15.92,15.92,0,0,1,3.7-4.53,25.3,25.3,0,0,1,10.13-5,33.94,33.94,0,0,1,10.57-1,30.33,30.33,0,0,1,9.3,2,23.71,23.71,0,0,1,6.9,4.11,15.1,15.1,0,0,1,3.82,4.86,6.69,6.69,0,0,1,.48,1.12,9,9,0,0,1,.35,1,15.84,15.84,0,0,1,.33,1.67Zm0,0s0-.49-.11-1.41a16,16,0,0,0-.34-1.66,9,9,0,0,0-.36-1,6.66,6.66,0,0,0-.48-1.11,15,15,0,0,0-3.83-4.79,23.47,23.47,0,0,0-6.9-4,32,32,0,0,0-9.23-2,33.72,33.72,0,0,0-10.5,1,25.19,25.19,0,0,0-10,5,13.58,13.58,0,0,0-5.19,10,11.91,11.91,0,0,0,1.47,5.6,15.79,15.79,0,0,0,3.66,4.48,25.05,25.05,0,0,0,10.08,5,33.78,33.78,0,0,0,10.51.93,32.23,32.23,0,0,0,9.24-2,23.46,23.46,0,0,0,6.89-4,15,15,0,0,0,3.84-4.8,6.75,6.75,0,0,0,.48-1.11,8.9,8.9,0,0,0,.36-1,16,16,0,0,0,.34-1.66C252.37,132.87,252.4,132.38,252.4,132.38Z"/><ellipse class="cls-3" cx="228.88" cy="132.38" rx="23.53" ry="16.17"/><ellipse class="cls-12" cx="228.88" cy="132.38" rx="23.53" ry="16.17"/><ellipse class="cls-13" cx="228.88" cy="130.72" rx="23.53" ry="14.51"/><path class="cls-3" d="M252.43,130.72l-.11,1.36c-.07.44-.22,1-.37,1.6a12.1,12.1,0,0,1-.94,2,14.83,14.83,0,0,1-4,4.38,24.8,24.8,0,0,1-6.9,3.53,33.3,33.3,0,0,1-9,1.69,37.35,37.35,0,0,1-10.2-.84,32,32,0,0,1-5.16-1.62,26,26,0,0,1-4.84-2.7,16,16,0,0,1-3.92-4,9.49,9.49,0,0,1,0-10.77,16,16,0,0,1,3.91-4.06,25.31,25.31,0,0,1,4.86-2.7,32.07,32.07,0,0,1,5.18-1.61,36.42,36.42,0,0,1,19.23.89,24.87,24.87,0,0,1,6.9,3.53,14.81,14.81,0,0,1,4,4.38,12,12,0,0,1,.94,2c.15.63.3,1.16.37,1.59Zm0,0-.12-1.35c-.07-.44-.23-1-.38-1.58a12,12,0,0,0-.95-2,14.74,14.74,0,0,0-4-4.32,24.57,24.57,0,0,0-6.89-3.43,35.91,35.91,0,0,0-9-1.64,37.15,37.15,0,0,0-10.14.8,31.83,31.83,0,0,0-5.14,1.59,25.63,25.63,0,0,0-4.81,2.66,15.82,15.82,0,0,0-3.88,4,9.3,9.3,0,0,0,0,10.59,15.87,15.87,0,0,0,3.87,4,24.92,24.92,0,0,0,4.83,2.66,31.86,31.86,0,0,0,5.15,1.57,37.25,37.25,0,0,0,10.15.77,36.3,36.3,0,0,0,9-1.65,24.57,24.57,0,0,0,6.89-3.44,14.73,14.73,0,0,0,4-4.32,12,12,0,0,0,.95-2c.15-.62.31-1.15.38-1.58Z"/><ellipse class="cls-14" cx="228.88" cy="130.72" rx="11.24" ry="6.93"/><path class="cls-3" d="M240.14,130.72l0,.65c0,.21-.1.46-.17.77a5.76,5.76,0,0,1-.44,1,7.12,7.12,0,0,1-1.92,2.11,11.9,11.9,0,0,1-3.3,1.71,17,17,0,0,1-9.2.4,13,13,0,0,1-4.78-2.09,5.84,5.84,0,0,1-2.71-4.51,4.8,4.8,0,0,1,.79-2.6,7.72,7.72,0,0,1,1.87-2,12.88,12.88,0,0,1,4.81-2.07,17.2,17.2,0,0,1,9.21.44,11.92,11.92,0,0,1,3.29,1.71,7.11,7.11,0,0,1,1.92,2.11,5.85,5.85,0,0,1,.44,1c.07.3.14.55.17.76Zm0,0-.06-.64c0-.21-.11-.46-.19-.75a5.63,5.63,0,0,0-.46-.94,7,7,0,0,0-1.93-2,11.62,11.62,0,0,0-3.29-1.61,18,18,0,0,0-9.09-.39,12.78,12.78,0,0,0-4.73,2,5.69,5.69,0,0,0-2.65,4.37,4.64,4.64,0,0,0,.77,2.51,7.55,7.55,0,0,0,1.83,1.91,12.61,12.61,0,0,0,4.76,2,17.77,17.77,0,0,0,4.83.35,18.28,18.28,0,0,0,4.27-.78,11.68,11.68,0,0,0,3.29-1.62,7,7,0,0,0,1.93-2,5.71,5.71,0,0,0,.46-.94c.08-.29.15-.54.19-.75Z"/><path class="cls-15" d="M241.48,137.76s2.73-.83,3-2.34-4.65-2.36-5-2.18S239.89,136.59,241.48,137.76Z"/><path class="cls-3" d="M241.48,137.74s.24-.09.58-.26a7.8,7.8,0,0,0,1.42-.86,2.93,2.93,0,0,0,.71-.8,1.19,1.19,0,0,0,.17-.53c0-.05,0-.11,0-.16l-.05-.12a.74.74,0,0,0-.16-.25,3.07,3.07,0,0,0-1.09-.73,8.45,8.45,0,0,0-1.32-.41c-.45-.1-.91-.18-1.36-.24a6.34,6.34,0,0,0-.66-.05c-.27,0-.16,0-.17.28a7.87,7.87,0,0,0,.65,2.24,6.53,6.53,0,0,0,.86,1.42A3.36,3.36,0,0,0,241.48,137.74Zm0,0a4.09,4.09,0,0,1-.5-.41,5.38,5.38,0,0,1-1-1.39,6.85,6.85,0,0,1-.45-1.06,5.28,5.28,0,0,1-.28-1.27.89.89,0,0,1,.07-.43l.05-.07c.11-.08.1,0,.16-.06a.86.86,0,0,1,.2,0,5.41,5.41,0,0,1,.7.08c.46.09.91.2,1.37.33s.89.3,1.32.48a4,4,0,0,1,1.17.71.91.91,0,0,1,.3.62,1.19,1.19,0,0,1-.16.65,2.57,2.57,0,0,1-.79.87,5.64,5.64,0,0,1-1.52.79c-.39.13-.62.18-.62.18h0Z"/><path class="cls-15" d="M244.41,127.76s-.27-2.84-1.7-3.4-3.24,4.09-3.14,4.46S242.94,129.09,244.41,127.76Z"/><path class="cls-3" d="M244.4,127.75s0-.25-.14-.62a7.76,7.76,0,0,0-.56-1.57,2.94,2.94,0,0,0-.64-.86,1.18,1.18,0,0,0-.48-.27l-.15,0-.13,0a.72.72,0,0,0-.27.1,3,3,0,0,0-.93.93,8.26,8.26,0,0,0-.66,1.22,13.56,13.56,0,0,0-.5,1.29,6.2,6.2,0,0,0-.19.64c-.06.27,0,.16.24.23a7.86,7.86,0,0,0,2.32-.19,6.47,6.47,0,0,0,1.57-.56A3.36,3.36,0,0,0,244.4,127.75Zm0,0a4,4,0,0,1-.5.41,5.4,5.4,0,0,1-1.56.7,6.85,6.85,0,0,1-1.13.23,5.34,5.34,0,0,1-1.3,0,.9.9,0,0,1-.41-.15l-.06-.07c-.06-.12,0-.1,0-.16a.76.76,0,0,1,0-.19,5.22,5.22,0,0,1,.22-.67c.17-.43.38-.86.6-1.27s.47-.81.73-1.2a4,4,0,0,1,.92-1,.91.91,0,0,1,.67-.17,1.18,1.18,0,0,1,.6.29,2.58,2.58,0,0,1,.7.94,5.67,5.67,0,0,1,.47,1.65c0,.41.05.64.05.64v0Z"/><path class="cls-15" d="M234.84,120.94s-2.24-1.78-3.63-1.13.71,5.16,1,5.35S234.78,122.92,234.84,120.94Z"/><path class="cls-3" d="M234.82,120.94s-.21-.14-.54-.33a7.78,7.78,0,0,0-1.52-.68,3,3,0,0,0-1.06-.13,1.2,1.2,0,0,0-.53.16l-.13.09-.07.11a.71.71,0,0,0-.11.27,3.06,3.06,0,0,0,0,1.31,8.39,8.39,0,0,0,.42,1.32c.18.43.37.85.58,1.25a6.61,6.61,0,0,0,.33.58c.15.23.12.11.33,0a7.85,7.85,0,0,0,1.47-1.81,6.53,6.53,0,0,0,.68-1.52A3.41,3.41,0,0,0,234.82,120.94Zm0,0a3.91,3.91,0,0,1,0,.65,5.38,5.38,0,0,1-.58,1.61,6.8,6.8,0,0,1-.62,1,5.35,5.35,0,0,1-.88.95.89.89,0,0,1-.39.19h-.09c-.13,0-.09-.06-.14-.09A.86.86,0,0,1,232,125a5.4,5.4,0,0,1-.33-.62c-.19-.42-.36-.87-.5-1.31s-.26-.9-.36-1.36a4,4,0,0,1-.09-1.36.91.91,0,0,1,.34-.6,1.19,1.19,0,0,1,.62-.24,2.59,2.59,0,0,1,1.16.15,5.7,5.7,0,0,1,1.51.81c.33.25.5.41.5.41h0Z"/><path class="cls-15" d="M224.42,120s-2.81.51-3.25,2,4.35,2.88,4.72,2.75S225.86,121.4,224.42,120Z"/><path class="cls-3" d="M224.41,120.07s-.25.06-.6.19a7.8,7.8,0,0,0-1.52.69,3,3,0,0,0-.8.71,1.19,1.19,0,0,0-.23.5c0,.05,0,.11,0,.16l0,.13a.75.75,0,0,0,.13.26,3.05,3.05,0,0,0,1,.85,8.31,8.31,0,0,0,1.27.56c.44.15.88.29,1.33.39a6.16,6.16,0,0,0,.65.13c.27,0,.16,0,.2-.25a7.83,7.83,0,0,0-.39-2.3,6.49,6.49,0,0,0-.69-1.51A3.37,3.37,0,0,0,224.41,120.07Zm0,0a4,4,0,0,1,.45.46,5.37,5.37,0,0,1,.83,1.5,6.79,6.79,0,0,1,.32,1.1,5.29,5.29,0,0,1,.13,1.29.9.9,0,0,1-.11.42l-.06.06c-.12.07-.1,0-.16,0a.77.77,0,0,1-.2,0,5.41,5.41,0,0,1-.68-.16c-.44-.14-.88-.3-1.32-.49s-.85-.4-1.25-.62a4,4,0,0,1-1.08-.84.91.91,0,0,1-.23-.65,1.18,1.18,0,0,1,.23-.62,2.58,2.58,0,0,1,.88-.77,5.67,5.67,0,0,1,1.6-.6c.4-.08.64-.11.64-.11h0Z"/><path class="cls-15" d="M215,125s-2.09,1.94-1.66,3.42,5.21.08,5.45-.23S216.92,125.31,215,125Z"/><path class="cls-3" d="M215,125s-.17.19-.4.49a7.78,7.78,0,0,0-.9,1.4,2.93,2.93,0,0,0-.29,1,1.18,1.18,0,0,0,.08.55l.07.14.1.08a.72.72,0,0,0,.25.15,3.06,3.06,0,0,0,1.3.17,8.44,8.44,0,0,0,1.37-.22c.45-.11.9-.24,1.33-.39a6.14,6.14,0,0,0,.62-.24c.25-.12.13-.1,0-.32a7.86,7.86,0,0,0-1.57-1.72,6.55,6.55,0,0,0-1.4-.9A3.34,3.34,0,0,0,215,125Zm0,0a4,4,0,0,1,.63.14,5.4,5.4,0,0,1,1.51.81,7,7,0,0,1,.87.76,5.32,5.32,0,0,1,.8,1,.89.89,0,0,1,.13.41.6.6,0,0,1,0,.09c-.06.12-.07.08-.11.12a.83.83,0,0,1-.17.09,5.4,5.4,0,0,1-.66.23,14,14,0,0,1-1.37.3c-.47.07-.93.13-1.39.15a4,4,0,0,1-1.36-.12.91.91,0,0,1-.54-.42,1.18,1.18,0,0,1-.14-.65,2.58,2.58,0,0,1,.32-1.13,5.65,5.65,0,0,1,1-1.37c.29-.29.48-.44.48-.44h0Z"/><path class="cls-15" d="M231.2,140.25s2.29,1.7,3.67,1-.88-5.14-1.23-5.32S231.19,138.27,231.2,140.25Z"/><path class="cls-3" d="M231.21,140.24s.22.14.55.31a7.83,7.83,0,0,0,1.54.63,2.94,2.94,0,0,0,1.07.1,1.2,1.2,0,0,0,.52-.18L235,141l.06-.11a.72.72,0,0,0,.1-.27,3.06,3.06,0,0,0-.07-1.31,8.3,8.3,0,0,0-.46-1.31,13.76,13.76,0,0,0-.62-1.24,6.22,6.22,0,0,0-.35-.56c-.16-.22-.12-.11-.33,0a7.82,7.82,0,0,0-1.41,1.86,6.47,6.47,0,0,0-.63,1.54A3.33,3.33,0,0,0,231.21,140.24Zm0,0a4.15,4.15,0,0,1,0-.65,5.39,5.39,0,0,1,.53-1.63,6.77,6.77,0,0,1,.58-1,5.3,5.3,0,0,1,.85-1,.89.89,0,0,1,.39-.2h.09c.13,0,.09.06.14.09a.88.88,0,0,1,.12.15,5.39,5.39,0,0,1,.35.61c.2.42.38.85.55,1.29s.29.89.4,1.34a3.94,3.94,0,0,1,.13,1.36.91.91,0,0,1-.31.61,1.18,1.18,0,0,1-.62.26,2.57,2.57,0,0,1-1.17-.11,5.71,5.71,0,0,1-1.54-.75c-.34-.24-.52-.39-.52-.39h0Z"/><path class="cls-15" d="M221.57,138.4s1,2.68,2.5,2.86,2.1-4.77,1.91-5.11S222.66,136.75,221.57,138.4Z"/><path class="cls-3" d="M221.59,138.4s.11.23.29.56a7.86,7.86,0,0,0,.94,1.38,3,3,0,0,0,.84.67,1.19,1.19,0,0,0,.54.14h.16l.12-.06a.73.73,0,0,0,.24-.17,3.06,3.06,0,0,0,.66-1.13,8.4,8.4,0,0,0,.33-1.34c.08-.46.13-.92.16-1.37a6.13,6.13,0,0,0,0-.66c0-.27,0-.16-.29-.16a7.85,7.85,0,0,0-2.2.77,6.46,6.46,0,0,0-1.37.93A3.48,3.48,0,0,0,221.59,138.4Zm0,0a3.9,3.9,0,0,1,.38-.53,5.38,5.38,0,0,1,1.34-1.07,6.87,6.87,0,0,1,1-.5,5.33,5.33,0,0,1,1.25-.35.89.89,0,0,1,.43,0l.07,0c.08.1,0,.1.07.15a.78.78,0,0,1,0,.2,5.36,5.36,0,0,1,0,.7c-.06.46-.15.92-.26,1.38s-.25.91-.4,1.34a4,4,0,0,1-.64,1.21.91.91,0,0,1-.6.34,1.18,1.18,0,0,1-.65-.12,2.58,2.58,0,0,1-.91-.74,5.71,5.71,0,0,1-.87-1.48c-.15-.38-.21-.61-.21-.61v0Z"/><path class="cls-15" d="M214.84,133.89s-.31,2.84,1,3.67,4-3.36,4-3.75S216.54,132.88,214.84,133.89Z"/><path class="cls-3" d="M214.86,133.9s0,.25,0,.63a7.76,7.76,0,0,0,.24,1.65,2.93,2.93,0,0,0,.46,1,1.19,1.19,0,0,0,.42.36l.15.06h.13a.73.73,0,0,0,.29,0,3.08,3.08,0,0,0,1.1-.72,8.49,8.49,0,0,0,.89-1.06c.27-.38.52-.77.75-1.16a6.48,6.48,0,0,0,.31-.59c.11-.25,0-.16-.19-.27a7.83,7.83,0,0,0-2.31-.27,6.51,6.51,0,0,0-1.65.23A3.39,3.39,0,0,0,214.86,133.9Zm0,0a3.76,3.76,0,0,1,.57-.31,5.39,5.39,0,0,1,1.67-.37,6.86,6.86,0,0,1,1.15,0,5.28,5.28,0,0,1,1.27.24.89.89,0,0,1,.37.23.44.44,0,0,1,0,.08c0,.13,0,.11,0,.17a.76.76,0,0,1-.07.18,5.37,5.37,0,0,1-.35.61c-.26.39-.54.76-.84,1.13s-.62.71-1,1a4,4,0,0,1-1.11.8.91.91,0,0,1-.69,0,1.18,1.18,0,0,1-.53-.4,2.56,2.56,0,0,1-.49-1.06,5.69,5.69,0,0,1-.13-1.71c0-.41.08-.64.08-.64v0Z"/><path class="cls-3" d="M203.24,149.27l-.1,1.41a16.28,16.28,0,0,1-.33,1.67,8.85,8.85,0,0,1-.35,1,6.72,6.72,0,0,1-.48,1.12,15.1,15.1,0,0,1-3.82,4.86,23.7,23.7,0,0,1-6.91,4.1,30,30,0,0,1-9.3,2,33.88,33.88,0,0,1-10.56-1,25.41,25.41,0,0,1-10.09-5.06,15.9,15.9,0,0,1-3.71-4.49,11.45,11.45,0,0,1,0-11.34,16,16,0,0,1,3.7-4.53,25.3,25.3,0,0,1,10.13-5A33.94,33.94,0,0,1,182,133a30.32,30.32,0,0,1,9.3,2,23.72,23.72,0,0,1,6.9,4.11,15.07,15.07,0,0,1,3.82,4.86,6.63,6.63,0,0,1,.48,1.12,8.79,8.79,0,0,1,.35,1,16.07,16.07,0,0,1,.33,1.67Zm0,0-.11-1.41a16,16,0,0,0-.34-1.66,8.82,8.82,0,0,0-.36-1,6.67,6.67,0,0,0-.48-1.11,15,15,0,0,0-3.83-4.79,23.45,23.45,0,0,0-6.9-4,32,32,0,0,0-9.23-2,33.72,33.72,0,0,0-10.5,1,25.19,25.19,0,0,0-10,5,13.58,13.58,0,0,0-5.19,10,11.92,11.92,0,0,0,1.47,5.6,15.82,15.82,0,0,0,3.66,4.48,25.07,25.07,0,0,0,10.08,5,33.78,33.78,0,0,0,10.51.93,32.23,32.23,0,0,0,9.24-2,23.48,23.48,0,0,0,6.9-4,15,15,0,0,0,3.83-4.8,6.68,6.68,0,0,0,.48-1.11,8.87,8.87,0,0,0,.35-1,16,16,0,0,0,.34-1.66C203.18,149.76,203.22,149.27,203.22,149.27Z"/><ellipse class="cls-3" cx="179.7" cy="149.27" rx="23.53" ry="16.17"/><ellipse class="cls-12" cx="179.7" cy="149.27" rx="23.53" ry="16.17"/><ellipse class="cls-13" cx="179.7" cy="147.61" rx="23.53" ry="14.51"/><path class="cls-3" d="M203.24,147.62l-.1,1.36c-.07.44-.22,1-.37,1.6a12.1,12.1,0,0,1-.94,2,14.83,14.83,0,0,1-4,4.38,24.79,24.79,0,0,1-6.9,3.53,33.28,33.28,0,0,1-9,1.69,37.35,37.35,0,0,1-10.19-.84,32,32,0,0,1-5.16-1.62,26,26,0,0,1-4.84-2.7,16,16,0,0,1-3.92-4,9.49,9.49,0,0,1,0-10.77,16,16,0,0,1,3.91-4.06,25.28,25.28,0,0,1,4.86-2.7,32.07,32.07,0,0,1,5.18-1.61,36.42,36.42,0,0,1,19.23.89,24.85,24.85,0,0,1,6.9,3.53,14.82,14.82,0,0,1,4,4.38,12,12,0,0,1,.94,2c.15.63.3,1.16.37,1.59Zm0,0-.12-1.35c-.07-.44-.23-1-.38-1.58a11.89,11.89,0,0,0-.95-2,14.72,14.72,0,0,0-4-4.32,24.56,24.56,0,0,0-6.89-3.43,35.9,35.9,0,0,0-9-1.64,37.16,37.16,0,0,0-10.14.8,31.84,31.84,0,0,0-5.14,1.59,25.63,25.63,0,0,0-4.81,2.66,15.81,15.81,0,0,0-3.88,4,9.29,9.29,0,0,0,0,10.59,15.87,15.87,0,0,0,3.87,4,24.93,24.93,0,0,0,4.83,2.66,31.83,31.83,0,0,0,5.15,1.57,37.25,37.25,0,0,0,10.15.77,36.29,36.29,0,0,0,9-1.65,24.57,24.57,0,0,0,6.89-3.44,14.73,14.73,0,0,0,4-4.32,12,12,0,0,0,.95-2c.15-.62.31-1.15.38-1.58Z"/><ellipse class="cls-14" cx="179.7" cy="147.61" rx="11.24" ry="6.93"/><path class="cls-3" d="M190.95,147.62l0,.65c0,.21-.1.46-.17.77a5.85,5.85,0,0,1-.44,1,7.09,7.09,0,0,1-1.92,2.11,11.9,11.9,0,0,1-3.3,1.71,17,17,0,0,1-9.2.4,13,13,0,0,1-4.78-2.09,5.83,5.83,0,0,1-2.71-4.51,4.8,4.8,0,0,1,.79-2.6,7.7,7.7,0,0,1,1.87-2,12.89,12.89,0,0,1,4.81-2.07,17.2,17.2,0,0,1,9.21.44,11.93,11.93,0,0,1,3.29,1.71,7.11,7.11,0,0,1,1.92,2.11,5.77,5.77,0,0,1,.44,1c.07.3.14.55.17.76Zm0,0-.06-.64c0-.21-.11-.46-.19-.75a5.78,5.78,0,0,0-.46-.94,7,7,0,0,0-1.93-2,11.64,11.64,0,0,0-3.29-1.61,18,18,0,0,0-9.09-.39,12.78,12.78,0,0,0-4.73,2,5.68,5.68,0,0,0-2.65,4.37,4.65,4.65,0,0,0,.77,2.51,7.55,7.55,0,0,0,1.83,1.91,12.6,12.6,0,0,0,4.76,2,17.77,17.77,0,0,0,4.83.35,18.28,18.28,0,0,0,4.27-.78,11.69,11.69,0,0,0,3.29-1.62,7,7,0,0,0,1.93-2,5.63,5.63,0,0,0,.46-.94c.07-.29.15-.54.19-.75Z"/><path class="cls-15" d="M192.29,154.65s2.73-.83,3-2.34-4.65-2.36-5-2.18S190.7,153.48,192.29,154.65Z"/><path class="cls-3" d="M192.29,154.63s.24-.09.58-.26a7.8,7.8,0,0,0,1.42-.86,3,3,0,0,0,.71-.8,1.19,1.19,0,0,0,.17-.53c0-.05,0-.11,0-.16l-.05-.12a.74.74,0,0,0-.16-.25,3.07,3.07,0,0,0-1.09-.73,8.44,8.44,0,0,0-1.32-.41c-.45-.1-.91-.18-1.36-.24a6.35,6.35,0,0,0-.66-.05c-.27,0-.16,0-.17.28a7.88,7.88,0,0,0,.65,2.24,6.53,6.53,0,0,0,.86,1.42A3.41,3.41,0,0,0,192.29,154.63Zm0,0a3.88,3.88,0,0,1-.51-.41,5.39,5.39,0,0,1-1-1.39,6.84,6.84,0,0,1-.45-1.06,5.33,5.33,0,0,1-.28-1.27.9.9,0,0,1,.06-.43l.05-.07c.11-.08.1,0,.16-.06a.87.87,0,0,1,.2,0,5.45,5.45,0,0,1,.7.08c.46.09.91.2,1.37.33s.89.3,1.32.48a4,4,0,0,1,1.17.71.9.9,0,0,1,.3.62,1.19,1.19,0,0,1-.16.65,2.57,2.57,0,0,1-.79.87,5.67,5.67,0,0,1-1.52.79c-.39.13-.62.18-.62.18h0Z"/><path class="cls-15" d="M195.22,144.65s-.27-2.84-1.7-3.4-3.24,4.09-3.14,4.46S193.76,146,195.22,144.65Z"/><path class="cls-3" d="M195.21,144.64s0-.25-.14-.62a7.81,7.81,0,0,0-.56-1.57,2.94,2.94,0,0,0-.64-.86,1.19,1.19,0,0,0-.48-.27l-.15,0-.13,0a.72.72,0,0,0-.27.1,3.06,3.06,0,0,0-.93.93,8.34,8.34,0,0,0-.66,1.22c-.19.42-.36.86-.5,1.29a6.2,6.2,0,0,0-.19.64c-.06.27,0,.16.24.23a7.87,7.87,0,0,0,2.32-.19,6.45,6.45,0,0,0,1.57-.56A3.34,3.34,0,0,0,195.21,144.64Zm0,0a4,4,0,0,1-.5.41,5.4,5.4,0,0,1-1.56.7A6.86,6.86,0,0,1,192,146a5.34,5.34,0,0,1-1.3,0,.9.9,0,0,1-.41-.15l-.06-.07c-.06-.12,0-.1,0-.16a.9.9,0,0,1,0-.19,5.38,5.38,0,0,1,.22-.67c.17-.43.38-.86.6-1.27s.47-.81.73-1.2a4,4,0,0,1,.92-1,.91.91,0,0,1,.67-.17,1.18,1.18,0,0,1,.6.29,2.58,2.58,0,0,1,.7.94,5.67,5.67,0,0,1,.47,1.65c0,.41.05.64.05.64v0Z"/><path class="cls-15" d="M185.65,137.83S183.41,136,182,136.7s.71,5.16,1,5.35S185.59,139.81,185.65,137.83Z"/><path class="cls-3" d="M185.63,137.83s-.21-.14-.54-.33a7.78,7.78,0,0,0-1.52-.68,3,3,0,0,0-1.06-.13,1.2,1.2,0,0,0-.53.16l-.13.09-.07.11a.73.73,0,0,0-.11.27,3.06,3.06,0,0,0,0,1.31,8.48,8.48,0,0,0,.42,1.32c.18.43.37.85.58,1.25a6.59,6.59,0,0,0,.33.58c.15.23.12.11.33,0a7.87,7.87,0,0,0,1.47-1.81,6.53,6.53,0,0,0,.68-1.52A3.42,3.42,0,0,0,185.63,137.83Zm0,0a4.14,4.14,0,0,1,0,.65,5.36,5.36,0,0,1-.58,1.61,6.89,6.89,0,0,1-.62,1,5.33,5.33,0,0,1-.88.95.88.88,0,0,1-.39.19h-.09c-.13,0-.09-.06-.14-.09a.85.85,0,0,1-.12-.16,5.37,5.37,0,0,1-.33-.62A14,14,0,0,1,182,140c-.14-.45-.26-.9-.36-1.36a4,4,0,0,1-.09-1.36.91.91,0,0,1,.33-.6,1.2,1.2,0,0,1,.62-.24,2.59,2.59,0,0,1,1.16.15,5.68,5.68,0,0,1,1.51.81c.33.25.5.41.5.41h0Z"/><path class="cls-15" d="M175.23,136.94s-2.81.51-3.25,2,4.35,2.88,4.72,2.75S176.68,138.29,175.23,136.94Z"/><path class="cls-3" d="M175.22,137s-.25.06-.6.19a7.78,7.78,0,0,0-1.51.69,3,3,0,0,0-.8.71,1.18,1.18,0,0,0-.23.5c0,.05,0,.11,0,.16l0,.13a.72.72,0,0,0,.13.26,3.05,3.05,0,0,0,1,.85,8.33,8.33,0,0,0,1.27.56c.44.15.88.29,1.33.39a6.16,6.16,0,0,0,.65.13c.27,0,.16,0,.2-.25a7.86,7.86,0,0,0-.39-2.3,6.57,6.57,0,0,0-.69-1.51A3.46,3.46,0,0,0,175.22,137Zm0,0a4,4,0,0,1,.46.46,5.39,5.39,0,0,1,.83,1.5,6.88,6.88,0,0,1,.32,1.1,5.28,5.28,0,0,1,.13,1.29.9.9,0,0,1-.11.42l-.06.06c-.12.07-.1,0-.16,0a.77.77,0,0,1-.2,0,5.38,5.38,0,0,1-.68-.16c-.45-.14-.89-.3-1.32-.49s-.85-.4-1.26-.62a4,4,0,0,1-1.08-.84.91.91,0,0,1-.23-.65,1.18,1.18,0,0,1,.23-.62,2.57,2.57,0,0,1,.88-.77,5.67,5.67,0,0,1,1.6-.6c.4-.08.64-.11.64-.11h0Z"/><path class="cls-15" d="M165.78,141.85s-2.09,1.94-1.66,3.42,5.21.08,5.45-.23S167.73,142.2,165.78,141.85Z"/><path class="cls-3" d="M165.79,141.86s-.17.19-.4.49a7.84,7.84,0,0,0-.9,1.4,2.93,2.93,0,0,0-.29,1,1.18,1.18,0,0,0,.08.55l.07.14.1.08a.72.72,0,0,0,.25.15,3.06,3.06,0,0,0,1.3.17,8.44,8.44,0,0,0,1.37-.22c.45-.11.9-.24,1.33-.39a6.33,6.33,0,0,0,.62-.24c.25-.12.13-.1,0-.32a7.86,7.86,0,0,0-1.57-1.72,6.55,6.55,0,0,0-1.4-.9A3.29,3.29,0,0,0,165.79,141.86Zm0,0a4,4,0,0,1,.63.14,5.37,5.37,0,0,1,1.51.81,6.85,6.85,0,0,1,.87.76,5.32,5.32,0,0,1,.8,1,.89.89,0,0,1,.13.41.49.49,0,0,1,0,.09c-.06.12-.07.08-.11.12a.86.86,0,0,1-.17.09,5.48,5.48,0,0,1-.66.23c-.45.12-.91.22-1.37.3s-.93.13-1.39.15a4,4,0,0,1-1.36-.12.91.91,0,0,1-.54-.42,1.18,1.18,0,0,1-.14-.65,2.58,2.58,0,0,1,.32-1.13,5.68,5.68,0,0,1,1-1.37c.29-.29.48-.44.48-.44h0Z"/><path class="cls-15" d="M182,157.14s2.29,1.7,3.67,1-.88-5.14-1.23-5.32S182,155.16,182,157.14Z"/><path class="cls-3" d="M182,157.13s.22.14.55.31a7.8,7.8,0,0,0,1.54.63,2.94,2.94,0,0,0,1.07.1,1.19,1.19,0,0,0,.52-.18l.13-.09.06-.11a.72.72,0,0,0,.1-.27,3.06,3.06,0,0,0-.07-1.31,8.43,8.43,0,0,0-.46-1.31c-.19-.42-.4-.84-.62-1.24a6.46,6.46,0,0,0-.35-.56c-.16-.22-.12-.11-.33,0a7.84,7.84,0,0,0-1.41,1.86,6.47,6.47,0,0,0-.63,1.54A3.34,3.34,0,0,0,182,157.13Zm0,0a3.9,3.9,0,0,1,0-.65,5.41,5.41,0,0,1,.53-1.63,7,7,0,0,1,.58-1,5.34,5.34,0,0,1,.85-1,.9.9,0,0,1,.38-.2h.09c.13,0,.09.06.14.09a.85.85,0,0,1,.12.15,5.4,5.4,0,0,1,.35.61,13.9,13.9,0,0,1,.55,1.29c.15.44.29.89.4,1.34a4,4,0,0,1,.13,1.36.9.9,0,0,1-.31.61,1.18,1.18,0,0,1-.62.26,2.57,2.57,0,0,1-1.17-.11,5.71,5.71,0,0,1-1.54-.75c-.34-.24-.51-.39-.51-.39h0Z"/><path class="cls-15" d="M172.38,155.29s1,2.68,2.5,2.86,2.1-4.77,1.91-5.11S173.47,153.64,172.38,155.29Z"/><path class="cls-3" d="M172.4,155.29s.1.23.29.56a7.85,7.85,0,0,0,.94,1.38,3,3,0,0,0,.84.67,1.18,1.18,0,0,0,.53.14h.16l.12-.06a.71.71,0,0,0,.24-.17,3.06,3.06,0,0,0,.67-1.13,8.5,8.5,0,0,0,.33-1.34c.08-.46.13-.92.16-1.37a6.13,6.13,0,0,0,0-.66c0-.27,0-.16-.29-.16a7.83,7.83,0,0,0-2.2.77,6.48,6.48,0,0,0-1.38.93A3.39,3.39,0,0,0,172.4,155.29Zm0,0a3.9,3.9,0,0,1,.38-.53,5.39,5.39,0,0,1,1.34-1.07,6.83,6.83,0,0,1,1-.5,5.31,5.31,0,0,1,1.25-.35.89.89,0,0,1,.43,0l.07,0c.09.1,0,.1.07.15a.88.88,0,0,1,0,.2,5.34,5.34,0,0,1,0,.7c-.06.46-.15.92-.26,1.38s-.25.91-.4,1.34a4,4,0,0,1-.64,1.21.91.91,0,0,1-.6.34,1.18,1.18,0,0,1-.65-.12,2.58,2.58,0,0,1-.91-.74,5.7,5.7,0,0,1-.87-1.48c-.15-.38-.21-.61-.21-.61v0Z"/><path class="cls-15" d="M165.65,150.78s-.31,2.84,1,3.67,4-3.36,4-3.75S167.36,149.77,165.65,150.78Z"/><path class="cls-3" d="M165.67,150.79s0,.25,0,.63a7.83,7.83,0,0,0,.24,1.65,2.93,2.93,0,0,0,.46,1,1.19,1.19,0,0,0,.42.36l.14.06h.13a.73.73,0,0,0,.29,0,3.07,3.07,0,0,0,1.1-.72,8.33,8.33,0,0,0,.89-1.06c.27-.38.52-.77.75-1.16a6.44,6.44,0,0,0,.31-.59c.11-.25,0-.16-.19-.27a7.83,7.83,0,0,0-2.31-.27,6.51,6.51,0,0,0-1.65.23A3.52,3.52,0,0,0,165.67,150.79Zm0,0a3.91,3.91,0,0,1,.57-.31,5.4,5.4,0,0,1,1.67-.37,6.86,6.86,0,0,1,1.15,0,5.29,5.29,0,0,1,1.27.24.88.88,0,0,1,.37.23.52.52,0,0,1,0,.08c0,.13,0,.11,0,.17a.85.85,0,0,1-.07.18,5.23,5.23,0,0,1-.35.61c-.26.39-.54.76-.84,1.13s-.62.71-1,1a4,4,0,0,1-1.11.8.91.91,0,0,1-.69,0,1.19,1.19,0,0,1-.53-.4,2.56,2.56,0,0,1-.49-1.06,5.69,5.69,0,0,1-.13-1.71c0-.41.08-.64.08-.64v0Z"/><path class="cls-3" d="M157.49,125.23l-.1,1.41a16,16,0,0,1-.33,1.67,9.08,9.08,0,0,1-.35,1,6.8,6.8,0,0,1-.48,1.12,15.1,15.1,0,0,1-3.82,4.86,23.7,23.7,0,0,1-6.91,4.1,30,30,0,0,1-9.3,2,33.88,33.88,0,0,1-10.56-1,25.41,25.41,0,0,1-10.09-5.06,15.9,15.9,0,0,1-3.71-4.49,11.45,11.45,0,0,1,0-11.34,15.92,15.92,0,0,1,3.7-4.53,25.3,25.3,0,0,1,10.13-5,33.94,33.94,0,0,1,10.57-1,30.33,30.33,0,0,1,9.3,2,23.71,23.71,0,0,1,6.9,4.11,15.1,15.1,0,0,1,3.82,4.86,6.69,6.69,0,0,1,.48,1.12,9,9,0,0,1,.35,1,15.87,15.87,0,0,1,.33,1.67Zm0,0s0-.49-.11-1.41a16,16,0,0,0-.34-1.66,9,9,0,0,0-.36-1,6.67,6.67,0,0,0-.48-1.11,15,15,0,0,0-3.83-4.79,23.47,23.47,0,0,0-6.9-4,32,32,0,0,0-9.23-2,33.72,33.72,0,0,0-10.5,1,25.19,25.19,0,0,0-10,5,13.58,13.58,0,0,0-5.19,10,11.91,11.91,0,0,0,1.47,5.6,15.79,15.79,0,0,0,3.67,4.48,25.05,25.05,0,0,0,10.08,5,33.78,33.78,0,0,0,10.51.93,32.23,32.23,0,0,0,9.24-2,23.46,23.46,0,0,0,6.89-4,15,15,0,0,0,3.83-4.8,6.75,6.75,0,0,0,.48-1.11,8.9,8.9,0,0,0,.36-1,15.92,15.92,0,0,0,.34-1.66C157.42,125.72,157.46,125.23,157.46,125.23Z"/><ellipse class="cls-3" cx="133.94" cy="125.23" rx="23.53" ry="16.17"/><ellipse class="cls-12" cx="133.94" cy="125.23" rx="23.53" ry="16.17"/><ellipse class="cls-13" cx="133.94" cy="123.57" rx="23.53" ry="14.51"/><path class="cls-3" d="M157.49,123.57l-.11,1.36c-.07.44-.22,1-.37,1.6a12.1,12.1,0,0,1-.94,2,14.83,14.83,0,0,1-4,4.38,24.8,24.8,0,0,1-6.9,3.53,33.3,33.3,0,0,1-9,1.69,37.35,37.35,0,0,1-10.2-.84,32,32,0,0,1-5.16-1.62,26,26,0,0,1-4.84-2.7,16,16,0,0,1-3.92-4,9.49,9.49,0,0,1,0-10.77,16,16,0,0,1,3.91-4.06,25.31,25.31,0,0,1,4.86-2.7,32.07,32.07,0,0,1,5.18-1.61,36.42,36.42,0,0,1,19.23.89,24.87,24.87,0,0,1,6.9,3.53,14.81,14.81,0,0,1,4,4.38,12,12,0,0,1,.94,2c.15.63.3,1.16.37,1.59Zm0,0-.12-1.35c-.07-.44-.23-1-.38-1.58a12,12,0,0,0-.95-2,14.74,14.74,0,0,0-4-4.32,24.57,24.57,0,0,0-6.89-3.43,35.91,35.91,0,0,0-9-1.64,37.15,37.15,0,0,0-10.14.8,31.84,31.84,0,0,0-5.14,1.59,25.63,25.63,0,0,0-4.81,2.66,15.81,15.81,0,0,0-3.88,4,9.3,9.3,0,0,0,0,10.59,15.87,15.87,0,0,0,3.87,4,24.92,24.92,0,0,0,4.83,2.66,31.86,31.86,0,0,0,5.15,1.57,37.25,37.25,0,0,0,10.15.77,36.3,36.3,0,0,0,9-1.65,24.57,24.57,0,0,0,6.89-3.44,14.74,14.74,0,0,0,4-4.32,12,12,0,0,0,.95-2c.15-.62.31-1.15.38-1.58Z"/><ellipse class="cls-14" cx="133.94" cy="123.57" rx="11.24" ry="6.93"/><path class="cls-3" d="M145.19,123.57l0,.65c0,.21-.1.46-.17.77a5.76,5.76,0,0,1-.44,1,7.12,7.12,0,0,1-1.92,2.11,11.91,11.91,0,0,1-3.3,1.71,17,17,0,0,1-9.2.4,13,13,0,0,1-4.78-2.09,5.84,5.84,0,0,1-2.71-4.51,4.8,4.8,0,0,1,.79-2.6,7.72,7.72,0,0,1,1.87-2,12.88,12.88,0,0,1,4.81-2.07,17.2,17.2,0,0,1,9.21.44,11.92,11.92,0,0,1,3.29,1.71,7.11,7.11,0,0,1,1.92,2.11,5.85,5.85,0,0,1,.44,1c.07.3.14.55.17.76C145.18,123.34,145.19,123.57,145.19,123.57Zm0,0-.06-.64c0-.21-.11-.46-.19-.75a5.63,5.63,0,0,0-.46-.94,7,7,0,0,0-1.93-2,11.62,11.62,0,0,0-3.29-1.61,18,18,0,0,0-9.08-.39,12.78,12.78,0,0,0-4.73,2,5.68,5.68,0,0,0-2.65,4.37,4.64,4.64,0,0,0,.77,2.51,7.55,7.55,0,0,0,1.83,1.91,12.61,12.61,0,0,0,4.76,2,17.77,17.77,0,0,0,4.83.35,18.28,18.28,0,0,0,4.27-.78,11.68,11.68,0,0,0,3.29-1.62,7,7,0,0,0,1.93-2,5.71,5.71,0,0,0,.46-.94c.08-.29.15-.54.19-.75Z"/><path class="cls-15" d="M146.54,130.61s2.73-.83,3-2.34-4.65-2.36-5-2.18S144.94,129.43,146.54,130.61Z"/><path class="cls-3" d="M146.54,130.59s.24-.09.58-.26a7.8,7.8,0,0,0,1.42-.86,2.93,2.93,0,0,0,.71-.8,1.19,1.19,0,0,0,.17-.53c0-.05,0-.11,0-.16l-.05-.12a.74.74,0,0,0-.16-.25,3.07,3.07,0,0,0-1.09-.73,8.45,8.45,0,0,0-1.32-.41c-.45-.1-.91-.18-1.36-.24a6.34,6.34,0,0,0-.66-.05c-.27,0-.16,0-.17.28a7.87,7.87,0,0,0,.65,2.24,6.53,6.53,0,0,0,.86,1.42A3.36,3.36,0,0,0,146.54,130.59Zm0,0a4.08,4.08,0,0,1-.5-.41,5.37,5.37,0,0,1-1-1.39,6.85,6.85,0,0,1-.45-1.06,5.28,5.28,0,0,1-.28-1.27.89.89,0,0,1,.07-.43l.05-.07c.11-.08.1,0,.16-.06a.86.86,0,0,1,.2,0,5.41,5.41,0,0,1,.7.08c.46.09.91.2,1.37.33s.89.3,1.32.48a4,4,0,0,1,1.17.71.91.91,0,0,1,.3.62,1.19,1.19,0,0,1-.16.65,2.57,2.57,0,0,1-.79.87,5.64,5.64,0,0,1-1.52.79c-.39.13-.62.18-.62.18h0Z"/><path class="cls-15" d="M149.47,120.6s-.27-2.84-1.7-3.4-3.24,4.09-3.14,4.46S148,121.93,149.47,120.6Z"/><path class="cls-3" d="M149.45,120.6s0-.25-.14-.62a7.76,7.76,0,0,0-.56-1.57,2.94,2.94,0,0,0-.64-.86,1.18,1.18,0,0,0-.48-.27l-.15,0-.13,0a.72.72,0,0,0-.27.1,3,3,0,0,0-.93.93,8.26,8.26,0,0,0-.66,1.22,13.56,13.56,0,0,0-.5,1.29,6.18,6.18,0,0,0-.19.64c-.06.27,0,.16.24.23a7.86,7.86,0,0,0,2.32-.19,6.47,6.47,0,0,0,1.57-.56A3.36,3.36,0,0,0,149.45,120.6Zm0,0a4,4,0,0,1-.5.41,5.4,5.4,0,0,1-1.56.7,6.84,6.84,0,0,1-1.13.23,5.34,5.34,0,0,1-1.3,0,.9.9,0,0,1-.41-.15l-.06-.07c-.06-.12,0-.1,0-.16a.76.76,0,0,1,0-.19,5.22,5.22,0,0,1,.22-.67c.17-.43.38-.86.6-1.27s.47-.81.73-1.2a4,4,0,0,1,.92-1,.91.91,0,0,1,.67-.17,1.18,1.18,0,0,1,.6.29,2.58,2.58,0,0,1,.7.94,5.67,5.67,0,0,1,.47,1.65c0,.41.05.64.05.64v0Z"/><path class="cls-15" d="M139.9,113.78s-2.24-1.78-3.63-1.13.71,5.16,1,5.35S139.84,115.76,139.9,113.78Z"/><path class="cls-3" d="M139.88,113.79s-.21-.14-.54-.33a7.78,7.78,0,0,0-1.52-.68,3,3,0,0,0-1.06-.13,1.2,1.2,0,0,0-.53.16l-.13.09L136,113a.71.71,0,0,0-.11.27,3.06,3.06,0,0,0,0,1.31,8.39,8.39,0,0,0,.42,1.32c.18.43.37.85.58,1.25a6.61,6.61,0,0,0,.33.58c.15.23.12.11.33,0a7.85,7.85,0,0,0,1.47-1.81,6.53,6.53,0,0,0,.68-1.52A3.42,3.42,0,0,0,139.88,113.79Zm0,0a3.91,3.91,0,0,1,0,.65,5.38,5.38,0,0,1-.58,1.61,6.8,6.8,0,0,1-.62,1,5.36,5.36,0,0,1-.88.95.89.89,0,0,1-.39.19h-.09c-.13,0-.09-.06-.14-.09a.86.86,0,0,1-.12-.16,5.4,5.4,0,0,1-.33-.62c-.19-.42-.36-.87-.5-1.31s-.26-.9-.36-1.36a4,4,0,0,1-.09-1.36.91.91,0,0,1,.34-.6,1.19,1.19,0,0,1,.62-.24,2.59,2.59,0,0,1,1.16.15,5.7,5.7,0,0,1,1.51.81c.33.25.5.41.5.41h0Z"/><path class="cls-15" d="M129.47,112.9s-2.81.51-3.25,2,4.35,2.88,4.72,2.75S130.92,114.25,129.47,112.9Z"/><path class="cls-3" d="M129.47,112.91s-.25.06-.6.19a7.8,7.8,0,0,0-1.52.69,3,3,0,0,0-.8.71,1.19,1.19,0,0,0-.23.5c0,.05,0,.11,0,.16l0,.13a.75.75,0,0,0,.13.26,3.05,3.05,0,0,0,1,.85,8.31,8.31,0,0,0,1.27.56c.44.15.88.29,1.33.39a6.16,6.16,0,0,0,.65.13c.27,0,.16,0,.2-.25a7.83,7.83,0,0,0-.39-2.3,6.49,6.49,0,0,0-.69-1.51A3.37,3.37,0,0,0,129.47,112.91Zm0,0a4,4,0,0,1,.45.46,5.37,5.37,0,0,1,.83,1.5,6.79,6.79,0,0,1,.32,1.1,5.29,5.29,0,0,1,.13,1.29.9.9,0,0,1-.11.42l-.06.06c-.12.07-.1,0-.16,0a.77.77,0,0,1-.2,0,5.41,5.41,0,0,1-.68-.16c-.44-.14-.88-.3-1.32-.49s-.85-.4-1.25-.62a4,4,0,0,1-1.08-.84.91.91,0,0,1-.23-.65,1.18,1.18,0,0,1,.23-.62,2.58,2.58,0,0,1,.88-.77,5.67,5.67,0,0,1,1.6-.6c.4-.08.64-.11.64-.11h0Z"/><path class="cls-15" d="M120,117.8s-2.09,1.94-1.66,3.42,5.21.08,5.45-.23S122,118.16,120,117.8Z"/><path class="cls-3" d="M120,117.82s-.17.19-.4.49a7.79,7.79,0,0,0-.9,1.4,2.93,2.93,0,0,0-.29,1,1.18,1.18,0,0,0,.08.55l.07.14.1.08a.72.72,0,0,0,.25.15,3.06,3.06,0,0,0,1.3.17,8.44,8.44,0,0,0,1.37-.22c.45-.11.9-.24,1.33-.39a6.14,6.14,0,0,0,.62-.24c.25-.12.13-.1,0-.32a7.86,7.86,0,0,0-1.57-1.72,6.56,6.56,0,0,0-1.4-.9A3.34,3.34,0,0,0,120,117.82Zm0,0a4,4,0,0,1,.63.14,5.4,5.4,0,0,1,1.51.81,7,7,0,0,1,.87.76,5.31,5.31,0,0,1,.8,1,.89.89,0,0,1,.13.41.6.6,0,0,1,0,.09c-.06.12-.07.08-.11.12a.83.83,0,0,1-.17.09,5.4,5.4,0,0,1-.66.23,14,14,0,0,1-1.37.3c-.47.07-.93.13-1.39.15a4,4,0,0,1-1.36-.12.91.91,0,0,1-.54-.42,1.18,1.18,0,0,1-.14-.65,2.58,2.58,0,0,1,.32-1.13,5.65,5.65,0,0,1,1-1.37c.29-.29.48-.44.48-.44h0Z"/><path class="cls-15" d="M136.26,133.09s2.29,1.7,3.67,1-.88-5.14-1.23-5.32S136.25,131.11,136.26,133.09Z"/><path class="cls-3" d="M136.27,133.08s.22.14.55.31a7.83,7.83,0,0,0,1.54.63,2.94,2.94,0,0,0,1.07.1,1.2,1.2,0,0,0,.52-.18l.13-.09.06-.11a.72.72,0,0,0,.1-.27,3.06,3.06,0,0,0-.07-1.31,8.3,8.3,0,0,0-.46-1.31,13.76,13.76,0,0,0-.62-1.24,6.22,6.22,0,0,0-.35-.56c-.16-.22-.12-.11-.33,0a7.82,7.82,0,0,0-1.41,1.86,6.47,6.47,0,0,0-.63,1.54A3.35,3.35,0,0,0,136.27,133.08Zm0,0a4.13,4.13,0,0,1,0-.65,5.39,5.39,0,0,1,.53-1.63,6.77,6.77,0,0,1,.58-1,5.3,5.3,0,0,1,.85-1,.89.89,0,0,1,.39-.2h.09c.13,0,.09.06.14.09a.88.88,0,0,1,.12.15,5.42,5.42,0,0,1,.35.61c.2.42.38.85.55,1.29s.29.89.4,1.34a3.94,3.94,0,0,1,.13,1.36.91.91,0,0,1-.31.61,1.18,1.18,0,0,1-.62.26,2.57,2.57,0,0,1-1.17-.11,5.71,5.71,0,0,1-1.54-.75c-.34-.24-.52-.39-.52-.39h0Z"/><path class="cls-15" d="M126.63,131.25s1,2.68,2.5,2.86,2.1-4.77,1.91-5.11S127.71,129.59,126.63,131.25Z"/><path class="cls-3" d="M126.65,131.25s.11.23.29.56a7.86,7.86,0,0,0,.94,1.38,3,3,0,0,0,.84.67,1.19,1.19,0,0,0,.54.14h.16l.12-.06a.73.73,0,0,0,.24-.17,3.05,3.05,0,0,0,.67-1.13,8.4,8.4,0,0,0,.33-1.34c.08-.46.13-.92.16-1.37a6.13,6.13,0,0,0,0-.66c0-.27,0-.16-.29-.16a7.85,7.85,0,0,0-2.2.77,6.46,6.46,0,0,0-1.37.93A3.48,3.48,0,0,0,126.65,131.25Zm0,0a3.92,3.92,0,0,1,.38-.53,5.38,5.38,0,0,1,1.34-1.07,6.86,6.86,0,0,1,1-.5,5.33,5.33,0,0,1,1.25-.35.89.89,0,0,1,.43,0l.07,0c.08.1,0,.1.07.15a.78.78,0,0,1,0,.2,5.34,5.34,0,0,1,0,.7,14,14,0,0,1-.26,1.38c-.12.46-.25.91-.4,1.34a4,4,0,0,1-.64,1.21.91.91,0,0,1-.6.34,1.18,1.18,0,0,1-.65-.12,2.58,2.58,0,0,1-.91-.74,5.71,5.71,0,0,1-.87-1.48c-.15-.38-.21-.61-.21-.61v0Z"/><path class="cls-15" d="M119.9,126.73s-.31,2.84,1,3.67,4-3.36,4-3.75S121.6,125.72,119.9,126.73Z"/><path class="cls-3" d="M119.91,126.74s0,.25,0,.63a7.76,7.76,0,0,0,.24,1.65,2.93,2.93,0,0,0,.46,1,1.19,1.19,0,0,0,.42.36l.15.06h.13a.73.73,0,0,0,.29,0,3.08,3.08,0,0,0,1.1-.72,8.49,8.49,0,0,0,.89-1.06c.27-.38.52-.77.75-1.16a6.45,6.45,0,0,0,.31-.59c.11-.25,0-.16-.19-.27a7.83,7.83,0,0,0-2.31-.27,6.51,6.51,0,0,0-1.65.23A3.4,3.4,0,0,0,119.91,126.74Zm0,0a3.75,3.75,0,0,1,.57-.31,5.39,5.39,0,0,1,1.67-.37,6.86,6.86,0,0,1,1.15,0,5.28,5.28,0,0,1,1.27.24.89.89,0,0,1,.37.23.44.44,0,0,1,0,.08c0,.13,0,.11,0,.17a.75.75,0,0,1-.07.18,5.36,5.36,0,0,1-.35.61c-.26.39-.54.76-.84,1.13s-.62.71-1,1a4,4,0,0,1-1.11.8.91.91,0,0,1-.69,0,1.18,1.18,0,0,1-.53-.4,2.56,2.56,0,0,1-.49-1.06,5.69,5.69,0,0,1-.13-1.71c0-.41.08-.64.08-.64v0Z"/><path class="cls-16" d="M114.32,145.76c-.61-11.63,8.7-18.37,19.27-20.21a30.83,30.83,0,0,1,15.86,1.23c5.1,1.83,9.85,4.64,15.11,6.05,9.6,2.59,16.24-1.87,22.38-8.79,4.38-4.94,9.06-8.47,16.14-7.13,6.45,1.22,11.34,6.13,15.71,10.68.63.66,1.63-.34,1-1-7.18-7.48-18.16-16-28.55-8.68-4.08,2.86-6.63,7.36-10.47,10.5-7.37,6-15.72,3.56-23.55.13-9.85-4.31-19.06-6.63-29.57-2.9-9,3.2-15.25,10.24-14.74,20.12,0,.91,1.47.91,1.42,0Z"/><path class="cls-16" d="M141.8,106.44c12.05-2.92,26.59-6.32,38.2-.13,12.54,6.69,12.32,21.24,16.7,33,2.75,7.41,8,12.88,16.42,11.69s16.11-7.58,20.1-14.93c.44-.8-.79-1.52-1.22-.72-4.35,8-15,16.78-24.76,13.94-11.31-3.27-11.48-21.2-14.89-30.34-8.1-21.7-32.72-18.34-50.92-13.93-.89.21-.51,1.58.38,1.37Z"/><path class="cls-16" d="M234.11,116.92c-11.95-9.78-31.36-13.09-46.31-11.12-6.82.9-14.05,3.31-18.39,9-5.27,6.86-3.65,14.81-2.15,22.65,1.28,6.71,3.2,15.91-4,19.91-8.9,4.93-16.52-4.49-21.79-10.4-.61-.68-1.61.32-1,1,6.2,7,15.53,17.09,25.28,9.46,7.33-5.73,3.35-17.52,2-25.08-1.79-9.83,1.31-18.52,10.87-22.65,8.61-3.71,18.81-3.42,27.89-2s19.33,4.24,26.65,10.24c.7.57,1.71-.42,1-1Z"/><path class="cls-16" d="M111.22,113.11c6.54-9.75,24.07-9.17,34.39-8.32,14.6,1.21,30.32,9,36.82,22.83,4.14,8.83,11,40.4,26.54,29.08.73-.53,0-1.76-.72-1.22-10.48,7.66-16.79-8.25-19.79-15.89-3.78-9.63-6.4-17.7-14.53-24.82-9.67-8.47-22.07-11.54-34.67-11.63-9.57-.07-23.31.4-29.26,9.27-.51.76.72,1.47,1.22.72Z"/><path class="cls-16" d="M138.89,137.45c4.17-7.52,13.37-11.35,21.4-13.12,10.75-2.36,21.68.1,32.31,1.94,9.34,1.61,19.09,3.78,28.62,3.31,6.92-.34,10.08-3,13-9.13.39-.82-.83-1.54-1.22-.72-2,4.15-4,7.28-8.84,8.11-5.87,1-12.25.05-18.06-.81-9.74-1.44-19.4-3.65-29.2-4.68-13.25-1.4-32,1.4-39.23,14.38-.44.8.78,1.51,1.22.72Z"/><path class="cls-17" d="M115.25,148s-1-3-1.91-2.79-.25,6.27-.08,6.63S115,150.29,115.25,148Z"/><path class="cls-3" d="M115.23,148l-.27-.57a12.25,12.25,0,0,0-.8-1.45c-.19-.26-.44-.61-.73-.65a.14.14,0,0,0-.16.07.85.85,0,0,0-.12.25,3.67,3.67,0,0,0-.14.61,11.12,11.12,0,0,0,0,2.71c.09.92.2,1.85.35,2.68a1,1,0,0,0,0,.13c-.07-.1,0,0,0,0s-.09,0-.06,0a.87.87,0,0,0,.2-.16,3.53,3.53,0,0,0,.37-.46,8.92,8.92,0,0,0,.56-.95,8.67,8.67,0,0,0,.61-1.54A5.45,5.45,0,0,0,115.23,148Zm0,0a5.66,5.66,0,0,1-.07.64,6.69,6.69,0,0,1-.49,1.63,6.1,6.1,0,0,1-.55,1,3.92,3.92,0,0,1-.4.5,1.07,1.07,0,0,1-.29.23.3.3,0,0,1-.21,0c-.08,0,0,0-.12-.11a1.09,1.09,0,0,1,0-.19,20.37,20.37,0,0,1-.21-2.73c0-.93,0-1.86,0-2.73a3.76,3.76,0,0,1,.09-.65,1,1,0,0,1,.13-.32.37.37,0,0,1,.35-.18c.52.08.71.49.92.76a7.54,7.54,0,0,1,.72,1.54l.19.62Z"/><path class="cls-17" d="M114.5,149.64s2.45,2,3.1,1.37-3.1-5.45-3.43-5.67S113.54,147.56,114.5,149.64Z"/><path class="cls-3" d="M114.51,149.63l.53.34a12.17,12.17,0,0,0,1.45.81,1.41,1.41,0,0,0,1,.16.14.14,0,0,0,.09-.14.84.84,0,0,0,0-.27,3.56,3.56,0,0,0-.2-.59,11,11,0,0,0-1.43-2.3c-.56-.73-1.14-1.47-1.71-2.09l-.09-.09c.11,0,0,0,0,0s.09,0,.07,0a.86.86,0,0,0-.08.24,3.54,3.54,0,0,0-.07.58,8.78,8.78,0,0,0,0,1.1,8.68,8.68,0,0,0,.3,1.63A5.75,5.75,0,0,0,114.51,149.63Zm0,0a5.81,5.81,0,0,1-.28-.58,6.72,6.72,0,0,1-.44-1.64,6.09,6.09,0,0,1-.06-1.14,3.87,3.87,0,0,1,.07-.63,1.07,1.07,0,0,1,.13-.35.3.3,0,0,1,.18-.12c.09,0,0,0,.16,0a1,1,0,0,1,.14.13,20.35,20.35,0,0,1,1.63,2.21c.5.79,1,1.56,1.44,2.32a3.61,3.61,0,0,1,.27.6,1,1,0,0,1,.06.34.37.37,0,0,1-.21.34,1.4,1.4,0,0,1-1.18-.16,7.48,7.48,0,0,1-1.42-.93l-.49-.42Z"/><path class="cls-17" d="M235.27,119.55s-1-3-1.91-2.8-.25,6.27-.08,6.63S235,121.82,235.27,119.55Z"/><path class="cls-3" d="M235.26,119.56,235,119a12.31,12.31,0,0,0-.8-1.46c-.19-.26-.44-.61-.73-.65a.14.14,0,0,0-.15.07.82.82,0,0,0-.12.25,3.7,3.7,0,0,0-.14.61,11.11,11.11,0,0,0,0,2.71c.09.92.2,1.85.35,2.68l0,.13c-.07-.1,0,0,0,0s-.09,0-.06,0a.82.82,0,0,0,.2-.16,3.66,3.66,0,0,0,.37-.46,9.08,9.08,0,0,0,.56-.95,8.61,8.61,0,0,0,.61-1.54A5.43,5.43,0,0,0,235.26,119.56Zm0,0a5.64,5.64,0,0,1-.07.64,6.68,6.68,0,0,1-.49,1.62,6,6,0,0,1-.55,1,3.85,3.85,0,0,1-.4.5,1,1,0,0,1-.29.23.31.31,0,0,1-.22,0c-.07,0,0,0-.12-.11a1,1,0,0,1,0-.19,20.54,20.54,0,0,1-.22-2.73c0-.93,0-1.86,0-2.73a3.87,3.87,0,0,1,.09-.65,1,1,0,0,1,.13-.32.37.37,0,0,1,.36-.18c.52.08.71.49.92.76a7.53,7.53,0,0,1,.72,1.54l.19.62Z"/><path class="cls-17" d="M234.52,121.17s2.45,2,3.1,1.37-3.1-5.45-3.43-5.67S233.56,119.09,234.52,121.17Z"/><path class="cls-3" d="M234.53,121.16l.53.34a12.42,12.42,0,0,0,1.45.81,1.42,1.42,0,0,0,1,.16.14.14,0,0,0,.09-.14.84.84,0,0,0,0-.27,3.67,3.67,0,0,0-.2-.59,11.19,11.19,0,0,0-1.43-2.3c-.56-.73-1.14-1.47-1.71-2.1l-.09-.09c.12,0,0,0,0,0s.08,0,.06,0a.86.86,0,0,0-.08.24,3.53,3.53,0,0,0-.07.58,8.82,8.82,0,0,0,0,1.1,8.66,8.66,0,0,0,.3,1.63A5.75,5.75,0,0,0,234.53,121.16Zm0,0a5.81,5.81,0,0,1-.28-.58,6.72,6.72,0,0,1-.44-1.64,6.09,6.09,0,0,1-.06-1.14,3.87,3.87,0,0,1,.07-.63,1,1,0,0,1,.13-.35.3.3,0,0,1,.18-.12c.09,0,0,0,.16,0a1,1,0,0,1,.14.13,20.46,20.46,0,0,1,1.63,2.21c.5.79,1,1.56,1.44,2.32a3.84,3.84,0,0,1,.27.6,1,1,0,0,1,.06.34.37.37,0,0,1-.21.34,1.41,1.41,0,0,1-1.18-.16,7.6,7.6,0,0,1-1.42-.93l-.49-.42Z"/><path class="cls-17" d="M221.11,130s-1-3-1.91-2.79-.25,6.27-.08,6.63S220.83,132.23,221.11,130Z"/><path class="cls-3" d="M221.1,130l-.27-.57a12.25,12.25,0,0,0-.8-1.45c-.19-.26-.44-.61-.73-.65a.14.14,0,0,0-.16.07.82.82,0,0,0-.12.25,3.49,3.49,0,0,0-.14.61,11.12,11.12,0,0,0,0,2.71c.09.92.2,1.85.35,2.68l0,.13c-.07-.1,0,0,0,0s-.09,0-.06,0a.85.85,0,0,0,.2-.16,3.51,3.51,0,0,0,.37-.46,8.9,8.9,0,0,0,.56-.95,8.74,8.74,0,0,0,.61-1.54A5.75,5.75,0,0,0,221.1,130Zm0,0a5.75,5.75,0,0,1-.07.64,6.74,6.74,0,0,1-.49,1.63,6,6,0,0,1-.55,1,3.83,3.83,0,0,1-.4.5,1.07,1.07,0,0,1-.29.23.3.3,0,0,1-.21,0c-.08,0,0,0-.12-.11a1,1,0,0,1,0-.19,20.37,20.37,0,0,1-.21-2.73c0-.93,0-1.86,0-2.73a3.76,3.76,0,0,1,.09-.65,1,1,0,0,1,.13-.32.37.37,0,0,1,.35-.18c.52.08.71.49.92.76a7.6,7.6,0,0,1,.72,1.54l.19.62Z"/><path class="cls-17" d="M220.36,131.57s2.45,2,3.1,1.37-3.1-5.45-3.43-5.67S219.4,129.5,220.36,131.57Z"/><path class="cls-3" d="M220.37,131.56l.53.34a12.26,12.26,0,0,0,1.45.81,1.41,1.41,0,0,0,1,.16.14.14,0,0,0,.1-.14.82.82,0,0,0,0-.27,3.65,3.65,0,0,0-.2-.59,11.13,11.13,0,0,0-1.43-2.3c-.56-.73-1.14-1.47-1.71-2.09l-.09-.09c.11,0,0,0,0,0s.08,0,.07,0a.87.87,0,0,0-.08.24,3.55,3.55,0,0,0-.07.58,8.58,8.58,0,0,0,.32,2.73A5.57,5.57,0,0,0,220.37,131.56Zm0,0a5.54,5.54,0,0,1-.28-.58,6.72,6.72,0,0,1-.44-1.64,6.1,6.1,0,0,1-.06-1.14,3.87,3.87,0,0,1,.07-.63,1,1,0,0,1,.13-.35.29.29,0,0,1,.18-.12c.09,0,0,0,.16,0a1.12,1.12,0,0,1,.14.13,20.58,20.58,0,0,1,1.63,2.21c.5.79,1,1.56,1.44,2.32a3.62,3.62,0,0,1,.27.6,1,1,0,0,1,.06.34.37.37,0,0,1-.21.34,1.4,1.4,0,0,1-1.18-.16,7.52,7.52,0,0,1-1.42-.93l-.49-.42Z"/><path class="cls-17" d="M140.8,107.69s2.63-1.74,2.24-2.54-6.13,1.3-6.44,1.56S138.54,108,140.8,107.69Z"/><path class="cls-3" d="M140.8,107.67l.49-.4a12.08,12.08,0,0,0,1.21-1.14c.2-.25.48-.58.45-.87a.14.14,0,0,0-.11-.13.85.85,0,0,0-.27-.06,3.62,3.62,0,0,0-.62,0,11.12,11.12,0,0,0-2.62.67c-.87.32-1.74.65-2.51,1l-.11.06c.07-.1,0,0,0,0s0-.09,0-.07a.84.84,0,0,0,.21.15,3.52,3.52,0,0,0,.53.25,8.87,8.87,0,0,0,1.06.31,8.76,8.76,0,0,0,1.64.21A5.62,5.62,0,0,0,140.8,107.67Zm0,0a5.53,5.53,0,0,1-.64.09,6.74,6.74,0,0,1-1.7-.08,6,6,0,0,1-1.11-.28,4,4,0,0,1-.58-.26,1,1,0,0,1-.29-.23.29.29,0,0,1-.06-.21c0-.08,0,0,.08-.14a1,1,0,0,1,.17-.09,20.52,20.52,0,0,1,2.6-.88c.9-.24,1.79-.5,2.65-.67a3.75,3.75,0,0,1,.65-.07,1,1,0,0,1,.34,0,.37.37,0,0,1,.26.3,1.4,1.4,0,0,1-.51,1.08,7.5,7.5,0,0,1-1.31,1.07l-.55.34Z"/><path class="cls-17" d="M139.06,107.36s-1.31,2.86-.56,3.34,4.52-4.35,4.65-4.73S140.83,105.92,139.06,107.36Z"/><path class="cls-3" d="M139.07,107.37l-.2.6a12.13,12.13,0,0,0-.43,1.61,1.41,1.41,0,0,0,.08,1,.14.14,0,0,0,.16.06.86.86,0,0,0,.26-.09,3.52,3.52,0,0,0,.52-.34,11.09,11.09,0,0,0,1.88-2c.57-.73,1.14-1.47,1.61-2.18l.06-.11c0,.12,0,0,0,0s.05.07,0,.06a.86.86,0,0,0-.26,0,3.63,3.63,0,0,0-.58.07,8.54,8.54,0,0,0-2.57,1A5.56,5.56,0,0,0,139.07,107.37Zm0,0a5.63,5.63,0,0,1,.49-.41,6.7,6.7,0,0,1,1.48-.83,6,6,0,0,1,1.09-.34,3.77,3.77,0,0,1,.63-.08,1.05,1.05,0,0,1,.37,0,.3.3,0,0,1,.16.15c0,.09,0,0,0,.16a1,1,0,0,1-.1.17,20.48,20.48,0,0,1-1.74,2.12c-.64.68-1.26,1.36-1.9,2a3.76,3.76,0,0,1-.52.41,1,1,0,0,1-.32.14.37.37,0,0,1-.38-.12,1.4,1.4,0,0,1-.13-1.18,7.57,7.57,0,0,1,.55-1.61l.29-.57Z"/><path class="cls-17" d="M136.49,139.76s2.63-1.74,2.24-2.54-6.13,1.3-6.44,1.56S134.23,140.05,136.49,139.76Z"/><path class="cls-3" d="M136.49,139.75l.49-.4a12.09,12.09,0,0,0,1.21-1.14c.2-.25.48-.58.45-.87a.14.14,0,0,0-.11-.13.84.84,0,0,0-.27-.06,3.62,3.62,0,0,0-.62,0,11.13,11.13,0,0,0-2.62.67c-.87.32-1.74.65-2.51,1l-.11.06c.07-.1,0,0,0,0s0-.09,0-.07a.84.84,0,0,0,.21.15,3.49,3.49,0,0,0,.53.25,8.52,8.52,0,0,0,2.7.52A5.64,5.64,0,0,0,136.49,139.75Zm0,0a5.53,5.53,0,0,1-.64.09,6.74,6.74,0,0,1-1.7-.08,6,6,0,0,1-1.11-.28,4,4,0,0,1-.58-.26,1,1,0,0,1-.29-.23.29.29,0,0,1-.06-.21c0-.08,0,0,.08-.14a1,1,0,0,1,.17-.09,20.51,20.51,0,0,1,2.6-.88c.9-.24,1.79-.5,2.65-.67a3.75,3.75,0,0,1,.65-.07,1,1,0,0,1,.34,0,.37.37,0,0,1,.26.3,1.4,1.4,0,0,1-.51,1.08,7.5,7.5,0,0,1-1.31,1.07l-.55.34Z"/><path class="cls-17" d="M134.75,139.43s-1.31,2.86-.56,3.34,4.52-4.35,4.65-4.73S136.52,138,134.75,139.43Z"/><path class="cls-3" d="M134.76,139.44l-.2.6a12.17,12.17,0,0,0-.43,1.61,1.41,1.41,0,0,0,.08,1,.14.14,0,0,0,.16.06.87.87,0,0,0,.26-.09,3.53,3.53,0,0,0,.52-.34,11.1,11.1,0,0,0,1.88-2c.57-.73,1.14-1.47,1.61-2.18l.06-.11c0,.12,0,0,0,0s.05.07,0,.06a.86.86,0,0,0-.26,0,3.64,3.64,0,0,0-.58.07,8.54,8.54,0,0,0-2.57,1A5.57,5.57,0,0,0,134.76,139.44Zm0,0a5.63,5.63,0,0,1,.49-.41,6.7,6.7,0,0,1,1.48-.83,6,6,0,0,1,1.09-.34,3.76,3.76,0,0,1,.63-.09,1.05,1.05,0,0,1,.37,0,.3.3,0,0,1,.16.15c0,.09,0,0,0,.16a1,1,0,0,1-.1.17,20.48,20.48,0,0,1-1.74,2.12c-.64.68-1.26,1.36-1.9,2a3.77,3.77,0,0,1-.52.41,1,1,0,0,1-.32.14.37.37,0,0,1-.38-.12,1.4,1.4,0,0,1-.13-1.18,7.57,7.57,0,0,1,.55-1.61l.29-.57Z"/><path class="cls-17" d="M109.55,114.24s2.63-1.74,2.24-2.54-6.13,1.3-6.44,1.56S107.28,114.52,109.55,114.24Z"/><path class="cls-3" d="M109.54,114.22l.49-.4a12.29,12.29,0,0,0,1.21-1.14c.2-.25.48-.58.45-.87a.14.14,0,0,0-.11-.13.84.84,0,0,0-.27-.06,3.63,3.63,0,0,0-.62,0,11.14,11.14,0,0,0-2.62.67c-.87.32-1.74.65-2.51,1l-.11.06c.07-.1,0,0,0,0s0-.09,0-.07a.84.84,0,0,0,.21.15,3.5,3.5,0,0,0,.53.25,8.89,8.89,0,0,0,1.05.31,8.77,8.77,0,0,0,1.65.21A5.62,5.62,0,0,0,109.54,114.22Zm0,0a5.3,5.3,0,0,1-.64.09,6.74,6.74,0,0,1-1.7-.08,6,6,0,0,1-1.11-.28,3.9,3.9,0,0,1-.58-.26,1,1,0,0,1-.29-.23.29.29,0,0,1-.06-.21c0-.08,0,0,.08-.14a1.12,1.12,0,0,1,.17-.09,20.49,20.49,0,0,1,2.59-.88c.9-.24,1.79-.5,2.65-.67a3.77,3.77,0,0,1,.65-.07,1,1,0,0,1,.34,0,.37.37,0,0,1,.26.3,1.4,1.4,0,0,1-.51,1.08,7.54,7.54,0,0,1-1.31,1.07l-.55.34Z"/><path class="cls-17" d="M107.8,113.91s-1.31,2.86-.56,3.34,4.52-4.35,4.65-4.73S109.58,112.46,107.8,113.91Z"/><path class="cls-3" d="M107.81,113.92l-.2.6a12.15,12.15,0,0,0-.43,1.61,1.4,1.4,0,0,0,.08,1,.14.14,0,0,0,.16.06.87.87,0,0,0,.26-.09,3.52,3.52,0,0,0,.52-.34,11.1,11.1,0,0,0,1.88-2c.57-.73,1.14-1.47,1.61-2.18l.06-.11c0,.12,0,0,0,0s.05.07,0,.06a.85.85,0,0,0-.26,0,3.64,3.64,0,0,0-.58.07,8.56,8.56,0,0,0-2.57,1A5.44,5.44,0,0,0,107.81,113.92Zm0,0a5.62,5.62,0,0,1,.49-.41,6.69,6.69,0,0,1,1.48-.83,6,6,0,0,1,1.09-.34,3.77,3.77,0,0,1,.63-.08,1.05,1.05,0,0,1,.37,0,.3.3,0,0,1,.16.15c0,.09,0,0,0,.16a1,1,0,0,1-.1.17,20.34,20.34,0,0,1-1.74,2.12c-.64.68-1.26,1.36-1.9,2a3.7,3.7,0,0,1-.52.41,1,1,0,0,1-.31.14.37.37,0,0,1-.38-.12,1.4,1.4,0,0,1-.13-1.18,7.59,7.59,0,0,1,.55-1.61l.29-.57Z"/><path class="cls-17" d="M139.14,145.74s1.84,2.55,2.63,2.14-1.55-6.08-1.81-6.38S138.76,143.48,139.14,145.74Z"/><path class="cls-3" d="M139.15,145.73l.42.47a12.5,12.5,0,0,0,1.18,1.17c.25.19.6.46.89.41a.14.14,0,0,0,.13-.11.85.85,0,0,0,0-.27,3.67,3.67,0,0,0,0-.62,11.14,11.14,0,0,0-.77-2.6c-.35-.85-.71-1.71-1.1-2.47l-.07-.11c.1.07,0,0,0,0s.09,0,.06,0a.86.86,0,0,0-.15.21,3.64,3.64,0,0,0-.23.54,9,9,0,0,0-.27,1.07,8.68,8.68,0,0,0-.14,1.65A5.65,5.65,0,0,0,139.15,145.73Zm0,0a5.51,5.51,0,0,1-.11-.63,6.69,6.69,0,0,1,0-1.7,6,6,0,0,1,.24-1.12,3.9,3.9,0,0,1,.24-.59,1.07,1.07,0,0,1,.22-.3.3.3,0,0,1,.2-.07c.09,0,0,0,.15.08a1,1,0,0,1,.1.17,20.43,20.43,0,0,1,1,2.56c.27.89.56,1.77.77,2.62a3.57,3.57,0,0,1,.1.65,1,1,0,0,1,0,.34.37.37,0,0,1-.29.27,1.4,1.4,0,0,1-1.1-.47,7.61,7.61,0,0,1-1.12-1.27l-.36-.54Z"/><path class="cls-17" d="M139.4,144s-2.91-1.2-3.36-.43,4.52,4.35,4.91,4.46S140.91,145.69,139.4,144Z"/><path class="cls-3" d="M139.39,144l-.61-.18a12.23,12.23,0,0,0-1.62-.37,1.41,1.41,0,0,0-1,.12.14.14,0,0,0-.05.16.85.85,0,0,0,.1.25,3.56,3.56,0,0,0,.36.51,11.14,11.14,0,0,0,2,1.8c.75.54,1.51,1.08,2.24,1.52l.12.06c-.12,0,0,0,0,0s-.07.05-.06,0a.87.87,0,0,0,0-.26,3.63,3.63,0,0,0-.09-.58,8.55,8.55,0,0,0-1.08-2.53A5.64,5.64,0,0,0,139.39,144Zm0,0a5.85,5.85,0,0,1,.43.48,6.66,6.66,0,0,1,.89,1.45,6,6,0,0,1,.39,1.08,4,4,0,0,1,.11.63,1.07,1.07,0,0,1,0,.37.3.3,0,0,1-.14.16c-.08,0,0,0-.16,0a1,1,0,0,1-.17-.09,20.7,20.7,0,0,1-2.19-1.65c-.7-.61-1.41-1.2-2-1.82a3.73,3.73,0,0,1-.43-.5,1,1,0,0,1-.15-.31.37.37,0,0,1,.1-.38,1.4,1.4,0,0,1,1.18-.18,7.53,7.53,0,0,1,1.63.49l.59.27Z"/><path class="cls-17" d="M209.27,154s-2.15,2.3-1.59,3,5.66-2.69,5.91-3S211.41,153.18,209.27,154Z"/><path class="cls-3" d="M209.27,154l-.38.5a12.48,12.48,0,0,0-.92,1.39c-.14.29-.33.67-.23.95a.14.14,0,0,0,.13.11.86.86,0,0,0,.27,0,3.66,3.66,0,0,0,.6-.16,11.17,11.17,0,0,0,2.4-1.26c.77-.51,1.54-1,2.21-1.55l.1-.09c-.05.11,0,0,0,0s0,.09,0,.06a.87.87,0,0,0-.24-.1,3.7,3.7,0,0,0-.58-.12,8.86,8.86,0,0,0-1.1-.06,8.76,8.76,0,0,0-1.65.18A5.71,5.71,0,0,0,209.27,154Zm0,0a5.86,5.86,0,0,1,.6-.23,6.73,6.73,0,0,1,1.67-.32,6,6,0,0,1,1.14,0,4,4,0,0,1,.63.12,1.05,1.05,0,0,1,.34.15.3.3,0,0,1,.11.19c0,.09,0,0,0,.16a1.13,1.13,0,0,1-.14.13,20.61,20.61,0,0,1-2.32,1.46c-.82.44-1.63.9-2.42,1.27a3.65,3.65,0,0,1-.62.22,1,1,0,0,1-.34,0,.37.37,0,0,1-.32-.23,1.4,1.4,0,0,1,.25-1.17,7.61,7.61,0,0,1,1-1.35l.46-.45Z"/><path class="cls-17" d="M211,153.91s.61-3.09-.23-3.38-3.39,5.28-3.43,5.67S209.65,155.72,211,153.91Z"/><path class="cls-3" d="M211,153.9l.06-.63a12.22,12.22,0,0,0,0-1.66c0-.32-.07-.75-.3-.93a.14.14,0,0,0-.17,0,.85.85,0,0,0-.23.15,3.65,3.65,0,0,0-.43.45,11.12,11.12,0,0,0-1.37,2.33c-.38.84-.77,1.69-1.06,2.49l0,.13c0-.12,0,0,0,0s-.07-.06,0-.05a.84.84,0,0,0,.25,0,3.65,3.65,0,0,0,.55-.2,9.12,9.12,0,0,0,1-.53,8.82,8.82,0,0,0,1.31-1A5.57,5.57,0,0,0,211,153.9Zm0,0a5.58,5.58,0,0,1-.39.51,6.72,6.72,0,0,1-1.25,1.15,6.09,6.09,0,0,1-1,.59,3.83,3.83,0,0,1-.6.23,1.06,1.06,0,0,1-.37,0,.3.3,0,0,1-.19-.11c0-.08,0,0,0-.16a1,1,0,0,1,.05-.19,20.58,20.58,0,0,1,1.2-2.46c.47-.81.91-1.62,1.39-2.35a3.71,3.71,0,0,1,.41-.52,1,1,0,0,1,.27-.21.37.37,0,0,1,.4,0,1.4,1.4,0,0,1,.4,1.12,7.45,7.45,0,0,1-.16,1.69l-.15.63Z"/><path class="cls-17" d="M233.61,133.3s-2.15,2.3-1.59,3,5.66-2.69,5.91-3S235.75,132.49,233.61,133.3Z"/><path class="cls-3" d="M233.62,133.31l-.38.5a12.34,12.34,0,0,0-.91,1.39c-.14.29-.33.67-.23.95a.14.14,0,0,0,.13.1.84.84,0,0,0,.27,0,3.73,3.73,0,0,0,.6-.16,11.16,11.16,0,0,0,2.4-1.26c.77-.51,1.54-1,2.21-1.55l.1-.09c-.05.11,0,0,0,0s0,.09,0,.06a.87.87,0,0,0-.24-.1A3.63,3.63,0,0,0,237,133a8.49,8.49,0,0,0-2.75.12A5.39,5.39,0,0,0,233.62,133.31Zm0,0a5.71,5.71,0,0,1,.6-.23,6.78,6.78,0,0,1,1.67-.32,6,6,0,0,1,1.14,0,3.86,3.86,0,0,1,.63.12,1.05,1.05,0,0,1,.34.15.29.29,0,0,1,.1.19c0,.09,0,0,0,.16a1.14,1.14,0,0,1-.14.13,20.41,20.41,0,0,1-2.32,1.46c-.82.44-1.63.9-2.42,1.27a3.77,3.77,0,0,1-.62.22,1,1,0,0,1-.34,0,.37.37,0,0,1-.32-.23,1.4,1.4,0,0,1,.25-1.17,7.55,7.55,0,0,1,1-1.35l.46-.45Z"/><path class="cls-17" d="M235.38,133.21s.61-3.09-.23-3.38-3.39,5.28-3.43,5.68S234,135,235.38,133.21Z"/><path class="cls-3" d="M235.37,133.21l.06-.63a12.26,12.26,0,0,0,0-1.66c0-.32-.07-.75-.3-.93a.14.14,0,0,0-.17,0,.85.85,0,0,0-.23.15,3.66,3.66,0,0,0-.43.45,11.08,11.08,0,0,0-1.37,2.33c-.38.84-.77,1.69-1.06,2.49a.88.88,0,0,0,0,.13c0-.12,0,0,0,0s-.07-.06,0-.05a.86.86,0,0,0,.25,0,3.52,3.52,0,0,0,.55-.2,8.86,8.86,0,0,0,1-.53,8.76,8.76,0,0,0,1.31-1A5.41,5.41,0,0,0,235.37,133.21Zm0,0a5.51,5.51,0,0,1-.38.51,6.72,6.72,0,0,1-1.25,1.15,6,6,0,0,1-1,.59,3.93,3.93,0,0,1-.6.23,1.08,1.08,0,0,1-.37,0,.3.3,0,0,1-.19-.11c0-.08,0,0,0-.16a1.13,1.13,0,0,1,.05-.19,20.63,20.63,0,0,1,1.2-2.46c.47-.81.91-1.62,1.39-2.35a3.71,3.71,0,0,1,.41-.52,1,1,0,0,1,.27-.21.37.37,0,0,1,.4,0,1.4,1.4,0,0,1,.4,1.12,7.58,7.58,0,0,1-.16,1.69l-.15.63Z"/><path class="cls-2" d="M144.84,44.86C110.38-13.25,75.93,53,35.38,99.92S.93,183.65.93,183.65c7.43,15.82,35.81,20,35.81,20C116.47,205.67,179.3,103,144.84,44.86ZM79.46,151.46c14.49-53.63,38.83-50.57,38.83-50.57C107.2,138.41,79.46,151.46,79.46,151.46Z"/><path class="cls-3" d="M144.72,44.93c-1.34-2.18-2.69-4.35-4.2-6.42a57.22,57.22,0,0,0-4.82-5.95c-3.47-3.7-7.53-7-12.32-8.71A21.41,21.41,0,0,0,116,22.62a23.42,23.42,0,0,0-7.37,1.32,44.2,44.2,0,0,0-13,7.55A107.75,107.75,0,0,0,84.54,41.9c-3.5,3.69-6.8,7.57-10.09,11.48-6.52,7.85-12.79,15.94-19.16,24q-4.77,6-9.67,12c-3.26,3.94-6.62,7.87-10,11.69s-6.7,7.78-9.61,11.94L23.76,116c-.37.52-.77,1-1.12,1.54l-1,1.6c-1.38,2.14-2.78,4.28-4.13,6.44l-3.74,6.68c-1.19,2.26-2.22,4.59-3.34,6.89-.58,1.14-1,2.34-1.5,3.52l-1.42,3.55c-.5,1.17-.83,2.41-1.25,3.61L5,153.47A101.83,101.83,0,0,0,1.83,168.4c-.21,1.26-.28,2.53-.4,3.79s-.16,2.54-.2,3.8a45.64,45.64,0,0,0,.34,7.54l-.05-.17a22.31,22.31,0,0,0,1.28,2.22,10.4,10.4,0,0,0,.74,1c.26.34.5.69.8,1l.85,1,.91.91c.63.59,1.26,1.18,1.94,1.71s1.37,1,2.07,1.55,1.44,1,2.19,1.4,1.51.86,2.27,1.27,1.55.79,2.34,1.15a69.78,69.78,0,0,0,9.8,3.62q2.51.73,5.07,1.32c1.69.39,3.43.74,5.11,1h-.13l6.94-.16c2.31-.18,4.61-.46,6.91-.68s4.55-.81,6.83-1.19c1.15-.16,2.25-.53,3.38-.8l3.36-.87c1.13-.25,2.21-.67,3.31-1l3.29-1.11A33.51,33.51,0,0,0,74,195.42l3.2-1.34a110.22,110.22,0,0,0,12.32-6.4c2-1.11,3.9-2.49,5.84-3.75s3.77-2.69,5.62-4.08c.91-.72,1.88-1.36,2.75-2.12l2.66-2.24c.88-.76,1.79-1.47,2.64-2.26l2.53-2.39,2.52-2.39,2.4-2.52,2.4-2.52,2.28-2.63,2.27-2.63c.75-.88,1.43-1.82,2.16-2.73,1.42-1.83,2.87-3.65,4.16-5.58s2.7-3.78,3.88-5.78,2.53-3.9,3.61-6a134.12,134.12,0,0,0,6.34-12.4c1.9-4.24,3.55-8.59,5-13a113.19,113.19,0,0,0,3.53-13.49c.38-2.29.92-4.57,1.1-6.89s.58-4.63.6-7l.14-3.5c0-1.16-.05-2.33-.07-3.5l-.12-3.5-.39-3.48c-.15-1.16-.22-2.33-.46-3.47l-.7-3.43a60.52,60.52,0,0,0-1.81-6.77c-.18-.56-.32-1.13-.53-1.67l-.66-1.62-1.32-3.25a12.21,12.21,0,0,0-.75-1.58L146.35,48Zm.24-.15,1.66,3.11.83,1.55a12.49,12.49,0,0,1,.77,1.59l1.35,3.25.68,1.63c.22.54.36,1.12.55,1.67a62.92,62.92,0,0,1,1.95,6.78l.77,3.44c.26,1.15.35,2.33.54,3.49l.5,3.5.23,3.53c.06,1.18.2,2.35.19,3.53l0,3.54c0,2.36-.21,4.71-.38,7.06s-.57,4.68-.87,7a115.17,115.17,0,0,1-3.1,13.83,119.35,119.35,0,0,1-4.76,13.36,136.85,136.85,0,0,1-6.19,12.77c-1.07,2.12-2.37,4.1-3.59,6.13s-2.59,4-3.92,5.92-2.76,3.85-4.2,5.73c-.73.93-1.42,1.9-2.18,2.81l-2.3,2.71-2.31,2.7L118.69,168l-2.45,2.57L113.65,173l-2.59,2.44c-.87.8-1.8,1.54-2.7,2.31-1.81,1.53-3.6,3.09-5.54,4.46S99,185.11,97,186.37s-3.93,2.67-6,3.79a112.93,112.93,0,0,1-12.69,6.45L75,197.95a35,35,0,0,1-3.33,1.25l-3.39,1.11c-1.13.36-2.25.78-3.41,1l-3.46.86c-1.16.26-2.29.63-3.47.79-2.35.38-4.68.84-7,1.12s-4.73.45-7.1.59l-7.12.05h-.13c-1.81-.3-3.54-.68-5.28-1.11s-3.46-.91-5.17-1.45a71.63,71.63,0,0,1-10-4c-.81-.39-1.6-.82-2.39-1.24s-1.57-.88-2.32-1.38-1.5-1-2.25-1.51S7.74,193,7.05,192.42s-1.35-1.2-2-1.84l-.94-1-.88-1c-.3-.34-.55-.72-.83-1.09a11.28,11.28,0,0,1-.76-1.13,23.34,23.34,0,0,1-1.32-2.4l0-.09v-.09A46.56,46.56,0,0,1,.07,176c.06-1.29.12-2.58.28-3.86s.22-2.57.45-3.84A102.82,102.82,0,0,1,4.14,153.2l1.23-3.65c.43-1.21.77-2.45,1.29-3.63l1.43-3.58c.48-1.19.92-2.4,1.5-3.55,1.11-2.31,2.14-4.67,3.32-7l3.67-6.78c2.7-4.37,5.31-8.8,8.37-12.95,2.86-4.31,6.19-8.19,9.34-12.23,3.3-4,6.5-7.9,9.67-11.93l9.41-12.12q4.68-6.08,9.45-12.12T72.57,51.8q5-5.88,10.4-11.41A105,105,0,0,1,94.59,30.15a45.84,45.84,0,0,1,13.68-7.34A24.51,24.51,0,0,1,116,21.67a22.25,22.25,0,0,1,7.63,1.53A33.37,33.37,0,0,1,136,32.31,76.13,76.13,0,0,1,145,44.78Z"/><path class="cls-3" d="M79.32,151.42c.54-2.79,1.17-5.55,1.84-8.3A41.93,41.93,0,0,1,82.37,139c.44-1.36.88-2.72,1.34-4.07a40.88,40.88,0,0,1,1.55-4L87,127a16.47,16.47,0,0,1,1-1.92l1-1.89c.34-.63.7-1.25,1.06-1.87a16.46,16.46,0,0,1,1.14-1.82l2.52-3.5a17.16,17.16,0,0,1,1.37-1.66l1.42-1.62c.49-.52.91-1.1,1.44-1.59l1.55-1.48c.52-.5,1-1,1.54-1.49s1.11-.9,1.66-1.35,1.08-.94,1.68-1.33l1.78-1.21c.3-.2.59-.41.89-.6l.95-.51c.63-.34,1.25-.72,1.9-1s1.33-.56,2-.85,1.38-.45,2.07-.68a15.67,15.67,0,0,1,4.45-.59l1,0-.29,1-1.13,4-.58,2-.3,1-.36,1-1.5,3.86a41.06,41.06,0,0,1-1.7,3.78c-.61,1.24-1.19,2.5-1.82,3.73L109.64,124a37.63,37.63,0,0,1-2.24,3.5l-1.17,1.72-.59.86-.65.81-2.61,3.24c-.91,1-1.86,2.05-2.81,3.07s-2,1.94-3,2.91-2.07,1.84-3.12,2.74-2.16,1.72-3.27,2.55S88,147,86.82,147.75s-2.35,1.44-3.57,2.08a33.26,33.26,0,0,1-3.73,1.77l-.25.1Zm.43-.33c1-.65,2-1.32,3-2s2.15-1.66,3.22-2.47,2.09-1.7,3.08-2.63,2-1.79,3-2.75,1.94-1.86,2.83-2.87,1.88-1.92,2.71-3l2.59-3.07,2.43-3.2c.83-1.05,1.54-2.19,2.31-3.28l1.14-1.65c.39-.55.7-1.14,1.06-1.7l2.11-3.42c.66-1.17,1.26-2.37,1.89-3.55a39.32,39.32,0,0,0,1.78-3.61l1.65-3.68c.61-1.21,1-2.51,1.5-3.75l1.47-3.78.69,1.06c-.25,0-.62,0-.93-.07l-1,0c-.67.05-1.35.15-2,.26s-1.34.29-2,.48-1.3.46-2,.7-1.25.6-1.88.9l-.93.47c-.3.18-.58.38-.87.57l-1.74,1.16c-.58.39-1.07.89-1.61,1.33s-1.06.91-1.58,1.37-.94,1-1.42,1.55L98.87,112c-.47.52-.84,1.12-1.25,1.68l-1.21,1.71a16.78,16.78,0,0,0-1.15,1.74l-2.12,3.6a16.28,16.28,0,0,0-1,1.82c-.32.62-.62,1.25-1,1.86-.64,1.24-1.35,2.43-1.94,3.7l-1.76,3.8c-.59,1.27-1.23,2.51-1.71,3.83s-1,2.59-1.58,3.88-1.12,2.57-1.57,3.92C81.72,146.09,80.77,148.6,79.75,151.1Z"/><path class="cls-3" d="M99.66,158.47s-.41.18-1.2.47a27.55,27.55,0,0,1-3.5,1,23.24,23.24,0,0,1-5.71.52,14.33,14.33,0,0,1-3.61-.61,9.75,9.75,0,0,1-3.71-2.09,9.65,9.65,0,0,1-2.44-4c-.09-.39-.18-.78-.26-1.18l-.11-.6,0-.6q0-.6-.07-1.21c0-.4,0-.8.07-1.2a29.55,29.55,0,0,1,2.73-9.42c1.33-3.08,3-6.09,4.53-9.2s3.25-6.21,5-9.31a83,83,0,0,1,5.57-9,56.84,56.84,0,0,1,6.72-7.94,18.37,18.37,0,0,1,1.9-1.71,19.69,19.69,0,0,1,2-1.51l1.06-.69c.35-.23.75-.4,1.13-.59s.75-.38,1.14-.53l1.2-.41a10.33,10.33,0,0,1,9.29,1.33,13,13,0,0,1,1.65,1.37,18.72,18.72,0,0,1,1.31,1.5,14.3,14.3,0,0,1,1.07,1.52c.33.5.6,1,.87,1.5a28,28,0,0,1,2.12,5.29,28.88,28.88,0,0,1,1,4.79l-.28.06s-.13-.42-.43-1.18-.72-1.89-1.38-3.27a35.86,35.86,0,0,0-2.66-4.73,20.56,20.56,0,0,0-2-2.54,16.32,16.32,0,0,0-1.23-1.18,11.59,11.59,0,0,0-1.42-1,9.34,9.34,0,0,0-1.57-.77,7.81,7.81,0,0,0-1.73-.35,9.37,9.37,0,0,0-1.83,0c-.31,0-.62.13-.94.2l-.47.1-.47.17-1,.35c-.32.13-.62.32-.94.48s-.64.3-.95.5l-.93.6a16.86,16.86,0,0,0-1.83,1.34c-.3.25-.62.46-.91.72l-.88.79a56.09,56.09,0,0,0-6.72,7.3c-1.09,1.32-2.12,2.7-3.16,4.08s-2.07,2.83-3.1,4.25-1.94,2.92-2.91,4.37-1.77,3-2.61,4.51A52.7,52.7,0,0,0,83.24,140a37.59,37.59,0,0,0-1.66,9,13.59,13.59,0,0,0,.35,4,7.19,7.19,0,0,0,1.69,3,10.22,10.22,0,0,0,5.81,2.55,29.23,29.23,0,0,0,5.38.17c1.51-.09,2.71-.23,3.52-.34s1.25-.19,1.25-.19Z"/><path class="cls-3" d="M121.13,107a7.06,7.06,0,0,1,.32.7,12.54,12.54,0,0,1,.62,2.09c.09.46.19,1,.27,1.54s.1,1.17.13,1.83a18.33,18.33,0,0,1,0,2.09l-.07,1.13-.18,1.17c-.17.79-.25,1.63-.5,2.46s-.51,1.69-.82,2.56a22.37,22.37,0,0,1-1.23,2.54,19.69,19.69,0,0,1-1.51,2.52c-.56.82-1.12,1.66-1.64,2.52s-1.18,1.66-1.72,2.53l-.84,1.3a12.94,12.94,0,0,1-.85,1.31q-.9,1.28-1.77,2.6a37.09,37.09,0,0,1-3.84,5c-.69.77-1.34,1.59-2.07,2.28l-2.17,2.08a38.36,38.36,0,0,1-4.31,3.7c-1.46,1.07-2.86,2-4.15,2.93A38.39,38.39,0,0,1,91,156c-1.12.62-2.11,1.13-2.93,1.54-1.63.83-2.6,1.24-2.6,1.24l-.15-.24s.75-.75,2.13-1.95c.69-.6,1.52-1.32,2.5-2.12s2.13-1.62,3.25-2.69,2.42-2.1,3.79-3.22c.67-.57,1.41-1.09,2.08-1.72s1.38-1.24,2.12-1.85l2.24-1.87c.77-.62,1.43-1.36,2.18-2,1.42-1.41,3.06-2.69,4.43-4.21q1.08-1.1,2.12-2.24a25.26,25.26,0,0,0,1.81-2.46,20,20,0,0,0,1.57-2.56c.43-.9.8-1.8,1.17-2.69a21.8,21.8,0,0,0,.91-2.66l.42-1.29a10.08,10.08,0,0,0,.4-1.25q.33-1.25.72-2.4c.28-.76.39-1.54.58-2.26l.28-1.07.18-1c.09-.67.28-1.31.33-1.92s.13-1.18.2-1.71l.09-1.46c0-.88,0-1.6,0-2.07a7,7,0,0,0,0-.75Z"/></g></g></svg>