<svg xmlns="http://www.w3.org/2000/svg" viewBox="0 0 555.81 190.46"><defs><style>.cls-1{fill:#1a1818;}.cls-2{fill:#fff671;}.cls-10,.cls-3{fill:#ce6007;}.cls-4{fill:#191311;}.cls-24,.cls-5,.cls-9{fill:#678f05;}.cls-10,.cls-17,.cls-20,.cls-5,.cls-7,.cls-8,.cls-9{stroke:#191311;}.cls-10,.cls-13,.cls-17,.cls-20,.cls-22,.cls-5,.cls-7,.cls-8,.cls-9{stroke-miterlimit:10;}.cls-13,.cls-20,.cls-5{stroke-width:0.8px;}.cls-6{fill:#385303;}.cls-7{fill:#b83a14;}.cls-22,.cls-7{stroke-width:0.27px;}.cls-8{fill:#80a212;}.cls-17,.cls-8{stroke-width:1.06px;}.cls-10,.cls-9{stroke-width:1.33px;}.cls-11{fill:#f3ec72;}.cls-12{fill:#e4a808;}.cls-13{fill:none;stroke:#000;}.cls-14{fill:#c09a07;}.cls-15{fill:#d1af25;}.cls-16{fill:#15120e;}.cls-17{fill:#4b6537;}.cls-18{fill:#2f3926;}.cls-19{fill:#f3ebcf;}.cls-20,.cls-21{fill:#a22c19;}.cls-22{fill:#849125;stroke:#15120e;}.cls-23{fill:#d17b07;}.cls-25{fill:#080808;}</style></defs><title>base</title><g id="Layer_2" data-name="Layer 2"><g id="Layer_1-2" data-name="Layer 1"><path class="cls-1" d="M4.7,29.76V0H18A6.3,6.3,0,0,1,22.6,2a6.41,6.41,0,0,1,1.95,4.66V8.25a6.2,6.2,0,0,1-1.65,4.58,8.16,8.16,0,0,1-4.94,2,6,6,0,0,1,4.94,2,7.07,7.07,0,0,1,1.65,4.62v1.63A6.4,6.4,0,0,1,22.6,27.8a6.3,6.3,0,0,1-4.64,2Zm6.63-16.55h3.29a3.21,3.21,0,0,0,2.36-1,3.17,3.17,0,0,0,1-2.32V6.63a3.32,3.32,0,0,0-3.33-3.33H11.33Zm0,13.25h3.29a3.18,3.18,0,0,0,2.36-1,3.23,3.23,0,0,0,1-2.34V19.84q0-3.29-3.33-3.29H11.33Z"/><path class="cls-1" d="M44.43,16.55V13.21a3.17,3.17,0,0,0-1-2.32,3.22,3.22,0,0,0-2.36-1H37.8q-2.94,0-3.29,3.29H31.17Q32,6.63,37.8,6.63h6.63a6.34,6.34,0,0,1,4.64,1.95A6.34,6.34,0,0,1,51,13.21V29.76H44.43V26.47q-.4,3.29-3.33,3.29H37.8a6.67,6.67,0,0,1-6.63-6.63,6.31,6.31,0,0,1,2-4.64,6.41,6.41,0,0,1,4.66-1.94Zm0,3.29H41.09a3.32,3.32,0,0,0-3.29,3.29,3.23,3.23,0,0,0,1,2.34,3.14,3.14,0,0,0,2.32,1,3.18,3.18,0,0,0,2.36-1,3.23,3.23,0,0,0,1-2.34Z"/><path class="cls-1" d="M74.19,13.21H70.9q-.44-3.29-3.14-3.29a4.16,4.16,0,0,0-2.62.69,2.46,2.46,0,0,0-.87,2q0,1.43,4.8,4,3.93,2.1,4.52,3.49a7.46,7.46,0,0,1,.6,3,6.64,6.64,0,0,1-6.63,6.63H64.27q-6.63,0-6.63-6.63H61q.4,3.33,3.1,3.33a4.23,4.23,0,0,0,2.66-.69,2.5,2.5,0,0,0,.87-2.08q0-1.39-4.8-4-3.93-2.1-4.54-3.49a7.25,7.25,0,0,1-.62-3,6.67,6.67,0,0,1,6.63-6.63h3.29Q73.79,6.63,74.19,13.21Z"/><path class="cls-1" d="M100.62,19.84H87.41v3.29a3.23,3.23,0,0,0,1,2.34,3.14,3.14,0,0,0,2.32,1H94q3.29,0,3.29-3.33h3.29q-.75,6.63-6.59,6.63H87.41a6.67,6.67,0,0,1-6.63-6.63V13.21a6.3,6.3,0,0,1,2-4.64,6.41,6.41,0,0,1,4.66-1.95H94a6.34,6.34,0,0,1,4.64,1.95,6.34,6.34,0,0,1,1.95,4.64ZM87.41,16.55H94V13.21a3.17,3.17,0,0,0-1-2.32,3.22,3.22,0,0,0-2.36-1,3.32,3.32,0,0,0-3.29,3.29Z"/></g><g id="Layer_3" data-name="Layer 3"><path class="cls-2" d="M154.68,154.31s0-1.33,0-1.33,0,1.33,0,1.33Z"/><path class="cls-3" d="M89,119.88c0,23.77-19.7,43-44,43s-44-19.27-44-43C1,104.18,8.71,91,21.55,83.46c1.14-.67,2.73,0,4-.17,1-.12.8-1.79,3-2.32,1.93-.46,3.5.65,5.32-.18,1-.47,2.39-2.43,4.22-3.42,2-1.08,4.55-.53,6.9-.53A41.82,41.82,0,0,1,75.18,89C83.48,97.34,89,107.36,89,119.88Z"/><path class="cls-4" d="M89.18,119.88l0,.79c0,.52,0,1.29-.1,2.3a44.5,44.5,0,0,1-1.41,8.64,45.51,45.51,0,0,1-5.37,12.56,45,45,0,0,1-5.16,6.76,42.39,42.39,0,0,1-7.21,6.19,43,43,0,0,1-9.23,4.74,44.17,44.17,0,0,1-10.84,2.43c-.47,0-1,.06-1.43.1l-.72,0c-.24,0-.48,0-.72,0H44.75l-.71,0-1.42-.08-1.5-.15-.75-.08-.74-.11-1.48-.22-1.47-.3-.74-.15-.73-.19-1.46-.38-1.45-.45-.73-.23-.72-.26-1.43-.53c-.94-.41-1.89-.78-2.81-1.24A47.86,47.86,0,0,1,7.75,143.8a43.1,43.1,0,0,1-3.21-5.58A45.1,45.1,0,0,1,.59,125.86c-.08-.54-.18-1.08-.25-1.62L.17,122.6C.1,122.06.09,121.51.06,121l0-.82v-.21s0-.11,0-.13v-2.11c0-.27,0-.53,0-.81l.05-.83.11-1.66,0-.42.05-.41.11-.82.21-1.64.32-1.62.16-.81.08-.41.11-.4.42-1.6c.07-.27.14-.53.22-.8l.27-.78.54-1.57c.18-.52.42-1,.62-1.53l.32-.76c.11-.25.21-.51.34-.76l.74-1.48.37-.74.42-.71.84-1.42c.14-.24.29-.47.45-.69l.47-.68c.32-.45.61-.91.94-1.35l1-1.29.51-.64c.17-.21.36-.41.54-.61l1.1-1.21c.36-.41.77-.77,1.15-1.16l1.17-1.13,1.24-1,.62-.52.31-.26.32-.24,1.3-1,.65-.48.67-.44,1.35-.87.34-.22.08-.05.19-.1.09,0,.12-.06.42-.16.34-.09.32-.06.3,0a9.75,9.75,0,0,1,1.9.06l.66.05h.38l-.14,0,.09,0h-.06a1.34,1.34,0,0,0-.35.16l-.08.06,0,0,0,0h0l.36-.54a5.25,5.25,0,0,1,.78-.89,4.72,4.72,0,0,1,1-.71A5.57,5.57,0,0,1,28,79.12l.13,0,.18,0,.18,0,.09,0,.16,0,.31,0a8.68,8.68,0,0,1,1.93.06c.54.07,1,.13,1.29.13A1.73,1.73,0,0,0,33,79L33,79s.12-.05-.06,0L33,79c.17-.08.07-.06.08,0s.23-.18.39-.33.65-.63,1-1,.78-.73,1.24-1.09c.23-.18.47-.36.73-.53l.4-.25.21-.12.17-.09.08,0,.16-.08.08,0,.13-.06.54-.2.47-.14.47-.1A10.93,10.93,0,0,1,41,74.71c1.11,0,2.1.06,3,.11l.66,0,.7,0,1.4,0c.45,0,1,.05,1.45.09s1,.06,1.47.12c1,.12,1.9.21,2.84.39l1.4.25,1.37.31.68.16.67.18,1.34.37,1.31.43c.43.14.86.29,1.28.46a39.8,39.8,0,0,1,9.21,4.91,42.85,42.85,0,0,1,7,6.41l.72.82.71.86.69.85.65.85.64.84c.21.28.4.57.6.85.39.56.79,1.11,1.14,1.68.73,1.11,1.37,2.23,2,3.32l.84,1.62.74,1.59.18.39.16.39.31.77.3.76c.1.25.17.5.26.75.17.5.35,1,.5,1.45l.41,1.4a40.14,40.14,0,0,1,1.47,8.63l.06.71c0,.22,0,.43,0,.62l0,1,0,.79Zm-.37,0,0-.78,0-1c0-.19,0-.4,0-.62l-.06-.7a34.36,34.36,0,0,0-1.72-8.46,35.69,35.69,0,0,0-2.43-5.64,39.5,39.5,0,0,0-3.94-6c-.38-.52-.81-1-1.23-1.52-.21-.25-.42-.51-.65-.76L78,93.64l-.7-.76-.73-.74-.74-.75-.8-.75-.79-.75-.82-.72c-.28-.24-.55-.49-.83-.72l-.87-.69c-.57-.47-1.2-.89-1.82-1.34l-.46-.33L69,85.8l-1-.62a42.12,42.12,0,0,0-8.68-4.08,42.72,42.72,0,0,0-10-2.09c-.44,0-.87-.06-1.3-.09s-.85-.06-1.33-.06l-1.41,0h-.71l-.76,0c-1,0-1.89-.12-2.7-.1a7,7,0,0,0-1.1.11l-.24.05-.22.06-.14,0h0l-.08,0-.16.08-.08,0h0l-.11.06-.22.14c-.15.09-.3.21-.45.33-.31.24-.63.52-1,.84s-.68.66-1.1,1a9,9,0,0,1-.75.61,5.26,5.26,0,0,1-.55.34l-.08,0-.23.1-.27.11a5.72,5.72,0,0,1-2.2.33,16.32,16.32,0,0,1-1.67-.19,5.13,5.13,0,0,0-1.06-.07h-.09l-.09,0-.18,0s-.15,0,0,0h0a1.79,1.79,0,0,0-.34.11,1,1,0,0,0-.43.37c-.1.14-.21.33-.5.7l-.11.14-.16.17-.17.16L27,84.7a2.64,2.64,0,0,1-.68.34l-.24.07-.09,0-.33,0h-1l-.86-.08A6.93,6.93,0,0,0,22.71,85h-.17l.06,0-.05,0-.09,0s-.16.08,0,0l-.08,0-.31.19-1.26.77-.63.39-.61.43-1.21.85a39,39,0,0,0-8.44,8.49l-.45.61a7.52,7.52,0,0,0-.43.62l-.82,1.29-.41.64-.37.67-.74,1.34c-.13.22-.23.46-.34.69L6,102.8c-.21.47-.45.92-.65,1.4l-.57,1.44-.28.72c-.09.24-.16.49-.24.74l-.48,1.47-.12.37-.1.38-.19.75L3,111.57l-.29,1.53-.15.77-.07.38,0,.38-.19,1.54-.1.77c0,.26,0,.53-.05.8L2,119.36l0,.4v.1a.52.52,0,0,0,0,.07v1c0,.52,0,1,0,1.57l.08,1.57c0,.52.1,1,.15,1.57a39.52,39.52,0,0,0,1.2,6.18,40.16,40.16,0,0,0,2.17,5.9c.2.48.45.95.69,1.41s.47.94.74,1.38l.79,1.35.85,1.31A39.77,39.77,0,0,0,17,152.25c.39.33.81.62,1.21.92s.81.61,1.24.88l1.26.83,1.3.77a39.68,39.68,0,0,0,5.36,2.59c.9.39,1.84.67,2.76,1l1.4.41.69.2.7.17,1.4.33,1.4.27.7.13.7.1,1.4.2,1.4.13.69.07.68,0,1.36.06h2.44l.34,0,1.36-.06c.45,0,.9-.07,1.34-.1s.89-.07,1.33-.13a46.48,46.48,0,0,0,18.8-6.42l.5-.29.48-.32,1-.63c.63-.42,1.24-.87,1.85-1.3s1.17-.91,1.74-1.37,1.11-.94,1.63-1.43a42.64,42.64,0,0,0,5.48-6c.37-.52.75-1,1.1-1.54l1-1.54c.61-1,1.19-2,1.68-3.05l.37-.74.33-.74.32-.73c.11-.24.21-.48.3-.72l.53-1.41c.17-.46.3-.92.45-1.36a37.16,37.16,0,0,0,1.63-8.49c.1-1,.09-1.77.11-2.29l0-.79Z"/><path class="cls-5" d="M27,78.75s1-2.42,5.67-2.05a7.17,7.17,0,0,0,5-1.47s1.95,6.71,25.88,7.6a42.78,42.78,0,0,1,11.88.89s17.55,2,26.94-4.24c0,0,6.38-3.38,8.24,3.09,0,0-10.1-28.1-36.87-28.89,0,0-24.73-2.3-36.43,19.68-.23.3-.12.28-.48.48-1.72,1-2.28,1.55-4.93,1.41,0,0-5,.11-6.07,2.68Z"/><path class="cls-6" d="M108.62,78.3l0,0-.09-.13-.16-.21-.24-.26a2.83,2.83,0,0,0-.32-.31l-.4-.36-.51-.37a5.38,5.38,0,0,0-.59-.4,15,15,0,0,0-1.44-.81L104,75a4.24,4.24,0,0,0-.45-.2l-.48-.19-1-.41c-.34-.14-.71-.25-1.08-.37-.74-.24-1.51-.54-2.35-.74l-1.27-.35-.65-.18L96,72.39l-2.8-.63c-1.94-.34-4-.74-6.12-1l-1.61-.23-.81-.12-.82-.09-3.34-.36c-1.12-.14-2.26-.21-3.4-.31l-3.43-.27c-2.3-.14-4.6-.26-6.86-.39h-.19s0,0,0,0H66l-.84,0-1.67.05c-1.1,0-2.19.11-3.27.19-2.14.17-4.21.38-6.16.65s-3.79.59-5.47,1-3.2.77-4.54,1.18-2.47.85-3.4,1.24-1.64.75-2.11,1l-.73.4.68-.47c.22-.16.51-.33.84-.54s.73-.43,1.18-.67a30.82,30.82,0,0,1,3.34-1.53A44.13,44.13,0,0,1,48.43,70c1.68-.47,3.53-.9,5.5-1.24,1-.18,2-.34,3-.49s2.11-.27,3.19-.38,2.19-.2,3.31-.28l1.69-.09.86,0h.9c2.28.11,4.59.21,6.91.34l3.46.3c1.15.1,2.3.18,3.43.34l3.37.42.83.11.82.14,1.62.27c2.15.31,4.21.82,6.16,1.24l2.81.76.67.19.65.22,1.27.43c.83.26,1.61.59,2.34.89.37.16.73.29,1.07.46l1,.49.47.23a4.44,4.44,0,0,1,.45.24l.83.49a15.39,15.39,0,0,1,1.4,1,5.61,5.61,0,0,1,.56.46l.48.42.37.4a2.92,2.92,0,0,1,.29.35l.21.29c.06.09.1.17.13.22l.07.14Z"/><path class="cls-7" d="M16.48,88.71s15.6,0,17.17-5.16a4.39,4.39,0,0,1,3.5-2A4.53,4.53,0,0,0,41,78.37c0-.56-2.44-.93-7.13,3.52s-2.47.71-8.33,2.49c-1.42.43-2.75-2.8-8.26,4.33"/><path class="cls-8" d="M26.79,84.69s-2.13,2.92.62,2.92.71-.35,2.66-1.46,4.17-2.08,3.46-2.88A2,2,0,0,0,31,82.92c-.35.44-3-4.25-4.08-5.32S25.1,76.09,25,75.39s-3.37,1.32-3.37,1.32,2.13,3.91,3.28,4.27S26.79,84.69,26.79,84.69Z"/><path class="cls-9" d="M108.34,129.84s26.49,2,35.29-13.08c0,0,3.82-6.52,1-15.55,0,0-1.39,2-11.53-.67-3.33-.87-8-.54-11.57-.09,0,0-20.64,4.49-16.85,19.08A26.63,26.63,0,0,0,108.34,129.84Z"/><path class="cls-9" d="M44.85,188.16s5.15-4.86,11.74-4.81S70,172.7,73.07,163c1.37-4.3-1.65-13-3.71-13.39-5.13-1-12.91,2.46-18.64,10.93C40.42,175.81,48.77,176.43,44.85,188.16Z"/><path class="cls-6" d="M47.33,184.57l1-1.17,1.19-1.34,1.52-1.75c1.11-1.28,2.39-2.79,3.72-4.43.67-.82,1.34-1.68,2-2.55.34-.43.67-.89,1-1.33s.67-.9,1-1.36c.65-.91,1.29-1.83,1.89-2.76.3-.46.6-.92.88-1.38s.55-.92.82-1.37A39.71,39.71,0,0,0,65,160c.17-.38.29-.77.42-1.13.07-.18.13-.35.19-.53l.15-.51c.21-.65.34-1.23.46-1.72.06-.24.1-.46.13-.65l.09-.48.08-.4,0,.41v.49a5.12,5.12,0,0,1,0,.67l-.05.83a3.6,3.6,0,0,1-.05.47l-.07.5-.08.54c0,.18-.08.37-.12.56-.09.39-.16.8-.29,1.21A25.9,25.9,0,0,1,65,163c-.37.92-.79,1.88-1.29,2.85-.24.48-.5,1-.78,1.45l-.41.73-.44.72c-.59,1-1.24,1.92-1.9,2.86-.34.47-.68.92-1,1.38s-.7.9-1.06,1.34-.71.87-1.08,1.28-.72.83-1.08,1.22c-.72.8-1.44,1.54-2.13,2.24s-1.37,1.34-2,1.91S50.52,182,50,182.49s-1,.83-1.4,1.14-.71.54-.92.7Z"/><path class="cls-9" d="M22,146.59a81.45,81.45,0,0,0,20.59-9.73s9.06-7.83,25.33,1.65l11.53,8.24S63.39,171.26,41.76,155C41.76,155,29.82,145.15,22,146.59Z"/><path class="cls-6" d="M29.41,146.11l.13.05.37.14.6.21.82.26,1,.28,1.21.29,1.39.28,1.55.26,1.69.2,1.81.14c.62,0,1.26,0,1.91,0s1.32,0,2,0l.51,0,.51,0,1-.09c.7,0,1.39-.17,2.09-.26l1.06-.15,1.05-.22c.7-.15,1.42-.27,2.11-.49l4.22-1.14c.7-.19,1.44-.32,2.15-.47s1.42-.25,2.11-.35c.35,0,.69-.11,1-.15l1-.09,1-.08,1,0,1,0,.93,0,.89.05.86.1a19.71,19.71,0,0,1,3,.57c.44.11.85.26,1.22.38s.71.27,1,.4a10.37,10.37,0,0,1,1.34.7,4,4,0,0,1,.44.3A5.06,5.06,0,0,0,75,147a12.75,12.75,0,0,0-1.4-.49c-.31-.09-.65-.17-1-.26s-.78-.16-1.22-.22-.9-.14-1.4-.16-1-.09-1.55-.09l-.83,0-.86,0-.89,0-.92.07-.94.08-1,.13-1,.13c-.33,0-.66.12-1,.18-1.35.22-2.68.58-4.07.93l-2.1.61-2.15.59c-.72.21-1.46.33-2.2.48l-1.1.21-1.1.14a21.18,21.18,0,0,1-2.19.21L45,149.6l-.53,0H42.9c-.35,0-.69,0-1,0-.67-.06-1.33-.1-2-.18s-1.26-.17-1.85-.27l-1.71-.36-1.55-.41-1.38-.44-1.19-.44-1-.42-.78-.37-.57-.3Z"/><path class="cls-6" d="M110.35,127s0-.16.14-.46.25-.74.48-1.28.52-1.2.91-1.93a24.77,24.77,0,0,1,1.43-2.39,25.26,25.26,0,0,1,2-2.62,24.9,24.9,0,0,1,2.63-2.62,24,24,0,0,1,3.21-2.35,26.83,26.83,0,0,1,3.68-1.85c.32-.12.64-.26,1-.37l1-.33,1-.28,1-.26,1.9-.49,1.81-.52c.59-.18,1.17-.39,1.74-.56s1.11-.4,1.65-.58,1-.43,1.53-.62,1-.43,1.4-.64a20.66,20.66,0,0,0,2.32-1.35c.34-.22.62-.46.9-.67l.37-.33a3.91,3.91,0,0,0,.33-.32,9,9,0,0,0,.88-1l.22-.29.08-.1-.22.43a7.64,7.64,0,0,1-.71,1.18,4.14,4.14,0,0,1-.29.37c-.11.13-.21.26-.34.4a10.74,10.74,0,0,1-.84.82,16.5,16.5,0,0,1-2.25,1.67c-.44.26-.9.54-1.39.8l-.75.38c-.26.13-.51.26-.78.38-.54.23-1.08.49-1.65.72s-1.16.45-1.76.67l-1.85.62c-.62.2-1.25.37-1.88.56l-1.89.55-.92.31c-.31.1-.6.24-.91.35a25.25,25.25,0,0,0-3.48,1.69,27.35,27.35,0,0,0-3.12,2.11,31.77,31.77,0,0,0-2.65,2.34c-.8.8-1.52,1.59-2.15,2.36s-1.18,1.5-1.64,2.16-.85,1.26-1.15,1.76-.53.9-.68,1.18Z"/><path class="cls-10" d="M134.49,131.66s-4.1,39.1-44.63,40.66c0,0-43.85.39-44.62-41.62Z"/><path class="cls-11" d="M134.49,126.81c1.75,15.42-19.92,32.56-44.69,32.56S45,145.86,45,128.45,65.08,96.94,89.86,96.94,132.67,110.81,134.49,126.81Z"/><path class="cls-4" d="M133.83,126.93c1.18,11.25-8.78,20.43-17.67,25.47-12.9,7.31-28.34,8.45-42.53,4.62-10.79-2.92-21.92-9.45-26.32-20.22-4.15-10.15.08-20.83,7.86-27.87,10.28-9.3,25-12.56,38.51-11.69,12.35.79,25.14,5.48,33.42,15a27.57,27.57,0,0,1,6.73,14.69c0,.12,1.33-.08,1.31-.25-1.27-10.66-9.25-18.91-18.38-23.78-11.57-6.16-25.49-7.33-38.24-5-11.23,2-22.81,7.25-29.57,16.79a24.43,24.43,0,0,0-4.6,13.92,23.93,23.93,0,0,0,4.75,14c7,9.72,19.31,14.58,30.77,16.25a59.49,59.49,0,0,0,37.76-6.76c8.84-5,18.66-14.27,17.5-25.41C135.13,126.57,133.81,126.75,133.83,126.93Z"/><path class="cls-12" d="M91.8,102.2s-.53,4.57-1.06,9.45c-.68,6.29-.88,12.77,5.18,7.31,0,0,9.84-8.51,14.49-11.3,0,0,3.59-1.46-2.48-3.75C107.93,103.9,93.39,96.74,91.8,102.2Z"/><path class="cls-13" d="M91.8,102.2s-.53,4.57-1.06,9.45c-.68,6.29-.88,12.77,5.18,7.31,0,0,9.84-8.51,14.49-11.3,0,0,3.59-1.46-2.48-3.75C107.93,103.9,93.39,96.74,91.8,102.2Z"/><path class="cls-12" d="M99.72,115.74s-11.25,9.72-1.28,8.39c0,0,15.29-3.32,23.27-8,0,0,4.12-.76-3.93-6.7,0,0-2.59-2.62-4.58-2.61C110.21,106.87,105.67,110.08,99.72,115.74Z"/><path class="cls-13" d="M99.72,115.74s-11.25,9.72-1.28,8.39c0,0,15.29-3.32,23.27-8,0,0,4.12-.76-3.93-6.7,0,0-2.59-2.62-4.58-2.61C110.21,106.87,105.67,110.08,99.72,115.74Z"/><path class="cls-12" d="M108.54,121.74s-20,4-4.67,5.45c1,.09,8.08.74,14.56,1.29s12.37,1,10.46-3.88c0,0-3-11.1-10.29-6.85Z"/><path class="cls-13" d="M108.54,121.74s-20,4-4.67,5.45c1,.09,8.08.74,14.56,1.29s12.37,1,10.46-3.88c0,0-3-11.1-10.29-6.85Z"/><path class="cls-12" d="M106,135.26s-22.29-9.75,3-7.36,20.87,1.55,18.08,8.64a33.25,33.25,0,0,0-2.26,4.3,3.85,3.85,0,0,1-6.56,1.2C116.08,139.82,106,135.26,106,135.26Z"/><path class="cls-13" d="M106,135.26s-22.29-9.75,3-7.36,20.87,1.55,18.08,8.64a33.25,33.25,0,0,0-2.26,4.3,3.85,3.85,0,0,1-6.56,1.2C116.08,139.82,106,135.26,106,135.26Z"/><path class="cls-12" d="M97,140.26s-11-15.64,6.37-6.43,19.37,9.7,16.26,12.23a75.22,75.22,0,0,0-8.07,5.14s-7.36,5.18-9.57-1.73S97.93,141.76,97,140.26Z"/><path class="cls-13" d="M97,140.26s-11-15.64,6.37-6.43,19.37,9.7,16.26,12.23a75.22,75.22,0,0,0-8.07,5.14s-7.36,5.18-9.57-1.73S97.93,141.76,97,140.26Z"/><path class="cls-12" d="M81,152.14c-.2.88-.61,2-.27,2.61,2,3.41,19.94-.13,19.94-.13C105.58,154,99,142.8,99,142.8c-2.59-2.34-5.46-8.52-5.46-8.52-6.15-6.83-8.07,4.18-8.89,6.85S82.93,143.94,81,152.14Z"/><path class="cls-13" d="M81,152.14c-.2.88-.61,2-.27,2.61,2,3.41,19.94-.13,19.94-.13C105.58,154,99,142.8,99,142.8c-2.59-2.34-5.46-8.52-5.46-8.52-6.15-6.83-8.07,4.18-8.89,6.85S82.93,143.94,81,152.14Z"/><path class="cls-12" d="M71.81,154.31c2.88,1,8,2.54,8.82-1.24A134.68,134.68,0,0,1,85,139.66c6.1-15.49-10.93-2.77-10.93-2.77s-20.81,10.5-11,14l.14,0A24.08,24.08,0,0,1,71.81,154.31Z"/><path d="M71.81,154.31c.89.28,1.79.53,2.7.73a11.43,11.43,0,0,0,2.75.31,4.75,4.75,0,0,0,1.34-.22,2.57,2.57,0,0,0,1.76-1.8c.11-.43.22-.9.33-1.35.21-.91.48-1.81.73-2.71s.55-1.79.82-2.68.58-1.78.88-2.66.6-1.77.92-2.65l1-2.63a20,20,0,0,0,.76-2.63,5.72,5.72,0,0,0,.06-2.58,1.81,1.81,0,0,0-.25-.51,1.38,1.38,0,0,0-.4-.35,2.21,2.21,0,0,0-1.15-.21,8.36,8.36,0,0,0-2.57.66A24.31,24.31,0,0,0,79,134.23c-.81.44-1.6.92-2.38,1.42s-1.55,1-2.29,1.56l0,0,0,0c-1.16.59-2.31,1.23-3.45,1.88s-2.25,1.34-3.35,2.06-2.16,1.48-3.18,2.29a15.46,15.46,0,0,0-2.74,2.72,4.32,4.32,0,0,0-.8,1.66,1.9,1.9,0,0,0,0,.87,1.88,1.88,0,0,0,.43.76,4.41,4.41,0,0,0,1.56,1l.44.18c.14.05.31.09.47.14l1,.26c.64.16,1.26.39,1.89.6l.47.16.46.18.92.37c.31.12.6.28.9.42l.45.21.43.24c.29.16.58.32.86.49S71.55,154.11,71.81,154.31Zm0,0q-.41-.27-.85-.51c-.29-.16-.58-.31-.88-.45l-.44-.21-.45-.19c-.3-.13-.6-.27-.91-.38l-.93-.34-.46-.16-.47-.14c-.63-.19-1.25-.39-1.89-.52l-1-.23c-.16,0-.32-.07-.48-.12l-.48-.17a4.82,4.82,0,0,1-1.74-1.09,2.34,2.34,0,0,1-.55-.93,2.38,2.38,0,0,1-.06-1.09,4.81,4.81,0,0,1,.85-1.89,16,16,0,0,1,2.78-2.9,36.69,36.69,0,0,1,3.19-2.39c1.1-.74,2.22-1.45,3.36-2.12s2.29-1.32,3.48-1.93l-.06,0c.76-.56,1.54-1.09,2.33-1.6s1.6-1,2.42-1.45a23,23,0,0,1,2.56-1.23,9.07,9.07,0,0,1,2.83-.71,3,3,0,0,1,1.56.32,2.15,2.15,0,0,1,.64.57,2.57,2.57,0,0,1,.36.74,6.22,6.22,0,0,1-.06,3,20.68,20.68,0,0,1-.82,2.73l-1,2.61c-.33.87-.65,1.74-1,2.62s-.62,1.75-.94,2.63-.6,1.76-.88,2.65-.56,1.77-.79,2.67c-.12.45-.23.89-.37,1.36a3,3,0,0,1-.78,1.25,3,3,0,0,1-1.28.71,5,5,0,0,1-1.42.18,11.62,11.62,0,0,1-2.78-.42C73.57,154.94,72.69,154.63,71.81,154.31Z"/><path class="cls-12" d="M69.24,129.18s25.08-4.43,8.15,5.18c0,0-8.6,5.23-14.45,9a6.76,6.76,0,0,1-8-.65S43.85,132.29,60,130.29,69.24,129.18,69.24,129.18Z"/><path class="cls-13" d="M69.24,129.18s25.08-4.43,8.15,5.18c0,0-8.6,5.23-14.45,9a6.76,6.76,0,0,1-8-.65S43.85,132.29,60,130.29,69.24,129.18,69.24,129.18Z"/><path class="cls-12" d="M71.37,119.39s19.63,6,4.21,8.76c0,0-15,1.56-20.61,3,0,0-6.2,3.37-4.7-4.92A41.74,41.74,0,0,0,51.74,122s.8-8.55,7-6.56Z"/><path class="cls-13" d="M71.37,119.39s19.63,6,4.21,8.76c0,0-15,1.56-20.61,3,0,0-6.2,3.37-4.7-4.92A41.74,41.74,0,0,0,51.74,122s.8-8.55,7-6.56Z"/><path class="cls-12" d="M81.49,115.55s8.85,12.52-5.73,5.12c0,0-8.89-3.32-13.56-4.43,0,0-9.75-1.42-4.16-4.9a30.71,30.71,0,0,1,5.56-3.4s7.65-8,11.06-1.72Z"/><path class="cls-13" d="M81.49,115.55s8.85,12.52-5.73,5.12c0,0-8.89-3.32-13.56-4.43,0,0-9.75-1.42-4.16-4.9a30.71,30.71,0,0,1,5.56-3.4s7.65-8,11.06-1.72Z"/><path class="cls-12" d="M81.3,114.78s6.2,12.67,9.1,1.28c0,0,.15-2.94.53-6.2.57-4.88,1-10.69-3.12-10.15,0,0-16.54.17-14,5.29Z"/><path class="cls-13" d="M81.3,114.78s6.2,12.67,9.1,1.28c0,0,.15-2.94.53-6.2.57-4.88,1-10.69-3.12-10.15,0,0-16.54.17-14,5.29Z"/><path class="cls-14" d="M514.41,106.25c0,27.26-22.59,49.36-50.46,49.36s-50.46-22.1-50.46-49.36c0-18,8.85-33.15,23.57-41.77,1.31-.77,3.13,0,4.58-.2,1.18-.14.92-2,3.46-2.66,2.21-.53,4,.74,6.1-.2,1.2-.54,2.74-2.79,4.84-3.92,2.3-1.24,5.22-.6,7.92-.6,13.19,0,25.31,4.68,34.61,14C508.08,80.4,514.41,91.89,514.41,106.25Z"/><path class="cls-4" d="M514.41,106.25l0,.9c0,.6,0,1.48-.12,2.63a48.24,48.24,0,0,1-4.18,16.52,48.09,48.09,0,0,1-4.08,7.33,50.68,50.68,0,0,1-14.31,14,52.25,52.25,0,0,1-10.31,5.18,53.25,53.25,0,0,1-12,2.82c-.53.06-1.06.09-1.6.14l-.8.07-.4,0h-.4l-1.62.05h-1.64l-1.63,0-1.66-.11-.83-.06-.83-.1-1.66-.19-1.66-.27-.83-.14-.83-.18-1.66-.36-1.65-.44-.83-.22-.82-.26-1.64-.53c-1.08-.42-2.18-.79-3.24-1.28l-.8-.35c-.27-.11-.54-.23-.8-.37l-1.58-.78c-.53-.26-1-.56-1.55-.84l-.78-.43c-.26-.14-.51-.31-.76-.46l-1.51-.94-1.48-1c-.5-.33-1-.7-1.45-1.06s-1-.71-1.42-1.11a50.37,50.37,0,0,1-9.82-10.73,48.49,48.49,0,0,1-6.37-13.35,47.33,47.33,0,0,1-1.6-7.3c-.08-.62-.17-1.24-.24-1.86l-.15-1.87c-.06-.62-.05-1.25-.08-1.87l0-.94v-.23s0-.11,0-.14v-.58l.06-1.84c0-.31,0-.61,0-.92l.09-.94.18-1.88,0-.47.07-.46.15-.92.3-1.85.41-1.82.21-.91.11-.46.13-.45.53-1.79c.09-.3.17-.6.27-.89l.32-.88.65-1.75c.1-.29.24-.57.36-.86l.38-.85.38-.85c.13-.28.24-.57.4-.84l.87-1.64.44-.82.49-.79,1-1.57c.16-.27.34-.52.52-.76l.54-.75c.36-.5.71-1,1.08-1.49l1.17-1.42.58-.71c.19-.24.41-.45.62-.67L426.3,72l.31-.33.33-.31.67-.62,1.33-1.24,1.4-1.15.7-.57.35-.28.37-.26,1.47-1,.73-.52.76-.47,1.52-.94.38-.23.09-.06.13-.07.21-.1.29-.11.26-.07a3.7,3.7,0,0,1,.51-.08,9.61,9.61,0,0,1,1.87.09l.84.08h.71l.11,0,.06,0s0,0,0,0a.37.37,0,0,0,.09-.07l0,0,.05-.07c.14-.18.3-.43.48-.69a4.43,4.43,0,0,1,.66-.74,3.93,3.93,0,0,1,.84-.56,4.7,4.7,0,0,1,.92-.33l.12,0,.13,0,.21,0,.11,0h.12l.25,0a8.22,8.22,0,0,1,1.83.09c.58.08,1.12.18,1.65.2a3.77,3.77,0,0,0,1.48-.2l.17-.07.06,0,.09,0a2.65,2.65,0,0,0,.3-.18,7.46,7.46,0,0,0,.61-.5c.41-.36.81-.76,1.22-1.15A11.89,11.89,0,0,1,456,57c.13-.06.24-.12.39-.17l.44-.16.43-.12.43-.09a10.71,10.71,0,0,1,1.71-.16c1.13,0,2.23.08,3.3.14l.8,0,.81,0,1.61,0c.53,0,1.07.06,1.61.1s1.07.07,1.6.13c1.06.14,2.11.23,3.14.43.52.09,1,.17,1.54.27l1.52.33.75.17.74.2,1.48.4,1.45.47.72.23c.24.08.47.17.7.26a47,47,0,0,1,10.27,5.26,50.51,50.51,0,0,1,8.06,6.89A63.22,63.22,0,0,1,505.58,79a48.65,48.65,0,0,1,6.87,13.86,42.5,42.5,0,0,1,1.82,9.81l.07.81c0,.25,0,.49,0,.71l0,1.11Zm0,0,0-.9,0-1.11c0-.22,0-.46,0-.71l-.07-.81a42.49,42.49,0,0,0-1.84-9.8l-.5-1.58c-.19-.53-.41-1.07-.62-1.63-.11-.28-.21-.56-.33-.84l-.37-.84-.38-.86-.2-.44-.22-.43a48.64,48.64,0,0,0-4.32-7.18,63.06,63.06,0,0,0-6.14-7.29,48.36,48.36,0,0,0-8.1-6.74A46.54,46.54,0,0,0,481,60c-.23-.08-.46-.17-.7-.25l-.71-.22-1.44-.44-1.47-.37-.74-.19-.75-.16-1.51-.31c-.51-.09-1-.16-1.53-.24-1-.18-2.06-.26-3.1-.38-.52-.05-1-.07-1.57-.11s-1-.08-1.59-.07l-1.61,0h-.81l-.82,0c-1.09,0-2.17-.13-3.24-.09a7.06,7.06,0,0,0-3,.67,11.08,11.08,0,0,0-2.52,2c-.4.38-.79.79-1.22,1.18a8.44,8.44,0,0,1-.69.58,4,4,0,0,1-.42.26l-.09.05-.13.06-.22.09a4.8,4.8,0,0,1-1.86.29c-.62,0-1.2-.11-1.75-.18a7.18,7.18,0,0,0-1.59-.06l-.18,0h-.09l-.11,0-.21,0-.08,0-.09,0a3.61,3.61,0,0,0-.7.27,2.83,2.83,0,0,0-1.07,1c-.15.22-.29.46-.51.74l-.08.1-.1.11a1.44,1.44,0,0,1-.24.21,1.38,1.38,0,0,1-.35.18l-.15,0-.11,0-.18,0h-.85l-.9-.07a8.59,8.59,0,0,0-1.63-.06,2.48,2.48,0,0,0-.35.06l-.16,0-.13,0-.19.09-.06,0-.09.06-.37.23-1.47.94-.73.47-.71.52-1.41,1-.35.26-.34.28-.68.56-1.35,1.13-1.28,1.22-.64.61c-.11.1-.22.2-.32.31l-.3.33-1.2,1.3c-.2.22-.41.43-.6.66l-.56.69L423.83,77c-.36.47-.69,1-1,1.45a45.45,45.45,0,0,0-6.3,12.87L416,93.07l-.13.43-.1.44-.2.88-.39,1.77-.28,1.79-.14.9-.07.45,0,.45-.17,1.79-.08.9c0,.3,0,.61,0,.92l-.06,1.84v.58a.86.86,0,0,0,0,.09v.23l0,.91c0,.6,0,1.21.07,1.81l.14,1.81c.06.6.15,1.2.22,1.8a47.48,47.48,0,0,0,4.11,13.81c.24.55.52,1.08.8,1.61s.54,1.07.85,1.58l.9,1.55,1,1.5a50.13,50.13,0,0,0,21.18,17.86c1,.49,2.1.87,3.15,1.3l1.6.55.8.27.81.23,1.61.46,1.63.38.81.19.82.15,1.63.29,1.63.22.81.11.81.07,1.62.13,1.63.06.81,0h.8l1.6,0h.4l.4,0,.79-.05c.53,0,1.05-.06,1.58-.12a52.62,52.62,0,0,0,11.93-2.61,51.82,51.82,0,0,0,10.3-5l.58-.36.56-.39,1.12-.77c.74-.52,1.43-1.07,2.14-1.6s1.35-1.12,2-1.68,1.27-1.15,1.86-1.74a50.23,50.23,0,0,0,6.13-7.29,48.16,48.16,0,0,0,8.36-23.78c.11-1.15.1-2,.12-2.63Z"/><path class="cls-15" d="M431.24,74.56s17.9-.05,19.7-5.92a5,5,0,0,1,4-2.29,5.19,5.19,0,0,0,4.42-3.66c0-.65-2.79-1.07-8.18,4s-2.83.82-9.56,2.86c-1.63.49-3.15-3.22-9.48,5"/><path class="cls-16" d="M431.24,74.51c1.78-.16,3.55-.34,5.32-.57.88-.11,1.76-.24,2.64-.38s1.75-.3,2.61-.47,1.72-.39,2.57-.62c.42-.11.84-.24,1.26-.38s.83-.27,1.23-.44a10.78,10.78,0,0,0,2.28-1.18,4.1,4.1,0,0,0,1.56-1.91v0h0a5.13,5.13,0,0,1,2.12-1.78,5.27,5.27,0,0,1,1.31-.43,6.79,6.79,0,0,1,.68-.1l.65-.09a4.68,4.68,0,0,0,2.23-1.2,5.9,5.9,0,0,0,.82-1,3.71,3.71,0,0,0,.52-1.11.62.62,0,0,0,0-.11h0s0,0,0,0v-.05s0,.06,0,.05a.55.55,0,0,0-.13-.05,1.54,1.54,0,0,0-.54,0,4.73,4.73,0,0,0-1.19.33A12.38,12.38,0,0,0,455,64.25a24.3,24.3,0,0,0-2.06,1.61c-.66.57-1.29,1.19-1.94,1.81-.33.31-.66.62-1,.92a9.1,9.1,0,0,1-1.14.85,4,4,0,0,1-.7.35,2.29,2.29,0,0,1-.87.14,3.71,3.71,0,0,1-.77-.13l-.62-.15a6.62,6.62,0,0,0-2.45.05c-.42.08-.84.17-1.26.28l-.32.08h-.12l-.08,0h-.25a2.44,2.44,0,0,1-.82-.14,7.94,7.94,0,0,0-1.21-.35,2.85,2.85,0,0,0-1.15.06A6.54,6.54,0,0,0,436,70.9a19.15,19.15,0,0,0-2,1.75c-.63.63-1.22,1.29-1.82,2l-.08-.06c.5-.74,1-1.46,1.6-2.16a16.35,16.35,0,0,1,1.86-2A6.94,6.94,0,0,1,438,68.91a3.73,3.73,0,0,1,1.5-.16,7.51,7.51,0,0,1,1.37.32,1.53,1.53,0,0,0,.49.07h.08l.08,0h0l.33-.1c.44-.14.88-.25,1.34-.35a7.7,7.7,0,0,1,2.86-.11c.48.08.94.25,1.23.26a1.14,1.14,0,0,0,.44-.07,2.87,2.87,0,0,0,.49-.25,16,16,0,0,0,2-1.59c.65-.59,1.32-1.21,2-1.79a21.9,21.9,0,0,1,2.21-1.61A11.63,11.63,0,0,1,457,62.27a5.42,5.42,0,0,1,1.41-.28,2.15,2.15,0,0,1,.78.09.85.85,0,0,1,.43.3.56.56,0,0,1,.09.2.36.36,0,0,1,0,0v0c0,.08,0,0,0,.05h0a1.24,1.24,0,0,1,0,.22,4.18,4.18,0,0,1-.68,1.26,6.34,6.34,0,0,1-1,1,5.72,5.72,0,0,1-1.15.77l-.31.15-.33.12a5.23,5.23,0,0,1-.68.19l-.67.09a4.6,4.6,0,0,0-.64.1,4.94,4.94,0,0,0-1.22.42,4.6,4.6,0,0,0-1.06.73,3.9,3.9,0,0,0-.79,1l0,0a4.13,4.13,0,0,1-.63,1.28,5.74,5.74,0,0,1-1,1,8.44,8.44,0,0,1-1.14.81,12.3,12.3,0,0,1-1.23.64,17.62,17.62,0,0,1-2.58.92c-.87.25-1.76.43-2.65.6s-1.78.28-2.68.39-1.79.17-2.69.23l-1.35.06-1.35,0c-.9,0-1.79,0-2.69-.08Z"/><path class="cls-17" d="M518,123.47s26.49,2,35.29-13.08c0,0,3.83-7.62,1-15.55,0,0-1.6,2.67-11.53-.67-1.37-.46-8-.54-11.57-.09,0,0-20.64,4.49-16.85,19.08A26.63,26.63,0,0,0,518,123.47Z"/><path class="cls-17" d="M454.47,181.78s5.15-4.86,11.74-4.81,13.39-10.65,16.48-20.33c1.37-4.3-1.65-13-3.71-13.39-5.13-1-12.91,2.46-18.64,10.93C450,169.43,458.38,170.06,454.47,181.78Z"/><path class="cls-18" d="M456.95,178.2s.4-.4,1.1-1.11,1.67-1.74,2.82-3c.58-.63,1.19-1.31,1.84-2s1.31-1.51,2-2.32,1.36-1.67,2.06-2.54c.35-.44.68-.88,1-1.33s.67-.91,1-1.37c.66-.92,1.3-1.84,1.9-2.78q.45-.7.87-1.4c.29-.46.55-.93.81-1.39.52-.92,1-1.83,1.39-2.7s.76-1.72,1.05-2.51c.16-.39.26-.78.39-1.15.06-.18.12-.36.17-.54l.13-.51c.08-.33.18-.64.23-.94l.16-.8c.05-.24.08-.46.1-.65l.06-.49.05-.41v.9a5.34,5.34,0,0,1,0,.66l-.09.82c0,.3-.1.62-.16,1l-.1.53c0,.18-.09.36-.13.56-.1.38-.19.78-.33,1.19a26.31,26.31,0,0,1-.94,2.61c-.38.91-.81,1.85-1.32,2.8-.25.47-.51,1-.79,1.43l-.42.72-.45.71c-.6,1-1.24,1.9-1.9,2.83-.33.46-.68.92-1,1.37s-.69.9-1,1.34-.7.87-1.06,1.29-.71.83-1.06,1.23c-.7.81-1.41,1.56-2.09,2.27s-1.33,1.36-1.95,2-1.19,1.13-1.7,1.6-1,.86-1.35,1.19C457.4,177.85,456.95,178.2,456.95,178.2Z"/><path class="cls-17" d="M431.61,140.22a81.45,81.45,0,0,0,20.59-9.73s9.06-7.83,25.33,1.65l11.53,8.24s-16.06,24.51-37.69,8.24C451.38,148.62,439.44,138.78,431.61,140.22Z"/><path class="cls-18" d="M439,139.74l.49.21.59.23.81.29,1,.32,1.21.33,1.39.32,1.55.29,1.69.24,1.82.17c.63,0,1.27.05,1.93.08.33,0,.66,0,1,0l1,0H454l.52,0,1-.08c.7,0,1.41-.16,2.12-.25l1.07-.15,1.07-.22c.71-.15,1.43-.27,2.13-.48l2.12-.57,2.11-.59c.7-.2,1.42-.33,2.12-.48s1.4-.26,2.09-.37c.34-.05.68-.11,1-.15l1-.1,1-.09,1,0,.94,0,.92,0,.88,0,.85.08a20.17,20.17,0,0,1,3,.5c.44.1.84.24,1.22.34s.71.24,1,.36a10.38,10.38,0,0,1,1.35.65,4.45,4.45,0,0,1,.45.28,4.48,4.48,0,0,0-.47-.24,12.78,12.78,0,0,0-1.39-.54c-.3-.1-.65-.19-1-.3s-.78-.19-1.22-.26-.9-.17-1.4-.2-1-.12-1.57-.13l-.84,0h-1.77l-.93.06-1,.06-1,.12-1,.12c-.33,0-.67.11-1,.17-1.36.21-2.72.56-4.12.9l-2.11.6-2.14.59c-.71.21-1.45.33-2.18.48l-1.09.21-1.09.14c-.73.09-1.44.2-2.16.22l-1.07.06-.53,0h-1.56c-.34,0-.68,0-1,0-.67-.05-1.32-.08-2-.14s-1.25-.15-1.84-.24l-1.71-.32-1.55-.37-1.38-.4-1.2-.41-1-.39-.79-.34-.57-.28Z"/><path class="cls-18" d="M520,120.66s.05-.16.16-.45.28-.73.53-1.26a27.45,27.45,0,0,1,7.14-9.33,24.63,24.63,0,0,1,3.19-2.29,26.43,26.43,0,0,1,3.63-1.81c.32-.12.63-.25,1-.36l1-.32,1-.28,1-.26,1.89-.51,1.82-.55c.59-.19,1.17-.4,1.74-.59s1.11-.42,1.65-.62,1-.45,1.53-.65.95-.46,1.4-.68a19.91,19.91,0,0,0,2.31-1.43c.33-.23.61-.48.88-.71l.36-.35a4,4,0,0,0,.32-.33,9.11,9.11,0,0,0,.84-1.07l.27-.4s-.09.14-.24.42A7.67,7.67,0,0,1,552.5,98a4.13,4.13,0,0,1-.3.36l-.35.38c-.26.25-.53.53-.85.78a16.82,16.82,0,0,1-2.27,1.6c-.44.24-.9.51-1.39.76s-1,.49-1.53.72-1.08.47-1.65.69-1.15.43-1.75.64l-1.84.6c-.62.19-1.25.36-1.89.54l-1,.27-.95.28-.94.32c-.31.11-.61.24-.92.36a26.08,26.08,0,0,0-6.67,3.91,29.65,29.65,0,0,0-2.65,2.41,31.89,31.89,0,0,0-2.11,2.43,30.16,30.16,0,0,0-2.68,4c-.28.51-.49.92-.63,1.21S520,120.66,520,120.66Z"/><path class="cls-14" d="M551.6,133.16s-4.1,39.1-44.63,40.66c0,0-43.85.39-44.62-41.62Z"/><path class="cls-4" d="M551.6,132.5a43.56,43.56,0,0,1-2.22,9.22,49.24,49.24,0,0,1-10.69,18.12c-9.6,10.16-24.32,14.73-38,12.81-14.16-2-27.92-9.11-34.28-22.47a45.33,45.33,0,0,1-4-18.54q0,.62,0,1.24l31,.33,48.41.52,9.83.11s0-1.33,0-1.33l-31-.33-48.41-.52-9.83-.11s0,1.13,0,1.24c.21,9.68,2.81,19.25,9.19,26.71,4.86,5.69,11.48,9.57,18.5,12a57.58,57.58,0,0,0,14.87,2.95,45.35,45.35,0,0,0,20-3.7c13.7-5.75,22.66-18.7,26-32.87a33.14,33.14,0,0,0,.73-4C551.65,133.39,551.55,132.94,551.6,132.5Z"/><path class="cls-19" d="M551.6,128.31c1.75,15.42-19.92,32.56-44.69,32.56S462.11,147.36,462.11,130,482.2,98.44,507,98.44,549.79,112.31,551.6,128.31Z"/><path class="cls-4" d="M550.95,128.43c1.17,11.25-8.78,20.43-17.67,25.47-12.9,7.31-28.34,8.45-42.53,4.62-10.79-2.92-21.92-9.45-26.32-20.22-4.15-10.15.08-20.83,7.86-27.87,10.28-9.3,25-12.56,38.51-11.69,12.35.79,25.14,5.48,33.42,15a27.57,27.57,0,0,1,6.73,14.69c0,.12,1.33-.08,1.31-.25C551,117.52,543,109.27,533.87,104.4c-11.57-6.16-25.49-7.33-38.24-5-11.23,2-22.81,7.25-29.57,16.79a24.43,24.43,0,0,0-4.6,13.92,23.93,23.93,0,0,0,4.75,14c7,9.72,19.31,14.58,30.77,16.25a59.49,59.49,0,0,0,37.76-6.76c8.84-5,18.66-14.27,17.5-25.41C552.24,128.07,550.93,128.25,550.95,128.43Z"/><path class="cls-20" d="M509,103s-.57,4.69-1.13,9.7c-.73,6.45-.93,13.11,5.5,7.5,0,0,10.44-8.74,15.38-11.6,0,0,3.81-1.5-2.63-3.84C526.16,104.76,510.73,97.41,509,103Z"/><path class="cls-20" d="M517.45,116.91s-11.93,10-1.35,8.62c0,0,16.22-3.41,24.68-8.19,0,0,4.37-.78-4.17-6.88,0,0-2.75-2.69-4.86-2.68C528.58,107.8,523.76,111.1,517.45,116.91Z"/><path class="cls-20" d="M526.81,123.07s-21.17,4.12-5,5.6c1,.09,8.57.76,15.45,1.32s13.12,1,11.1-4c0,0-3.21-11.4-10.91-7Z"/><path class="cls-20" d="M524.13,137s-23.64-10,3.16-7.56,22.15,1.59,19.18,8.87a33.8,33.8,0,0,0-2.4,4.41,4.15,4.15,0,0,1-7,1.23C534.81,141.64,524.13,137,524.13,137Z"/><path class="cls-20" d="M514.51,142.09s-11.72-16.06,6.75-6.6,20.55,10,17.26,12.56a80.29,80.29,0,0,0-8.56,5.28s-7.8,5.32-10.16-1.77S515.55,143.63,514.51,142.09Z"/><path class="cls-20" d="M497.62,154.28c-.22.9-.64,2.1-.28,2.68,2.16,3.5,21.16-.14,21.16-.14,5.17-.68-1.86-12.14-1.86-12.14-2.75-2.4-5.79-8.75-5.79-8.75-6.52-7-8.56,4.29-9.44,7S499.64,145.87,497.62,154.28Z"/><path class="cls-21" d="M487.84,156.51c3.06,1,8.45,2.61,9.36-1.27a135.19,135.19,0,0,1,4.64-13.77c6.47-15.91-11.6-2.84-11.6-2.84S468.15,149.41,478.57,153l.14,0C484.83,154.33,487.84,156.51,487.84,156.51Z"/><path class="cls-4" d="M487.84,156.51c.93.28,1.87.54,2.82.74a12.77,12.77,0,0,0,2.87.33,5.58,5.58,0,0,0,1.41-.19,3.14,3.14,0,0,0,1.21-.64,2.74,2.74,0,0,0,.73-1.14,3.07,3.07,0,0,0,.1-.33l.09-.35.18-.71c.22-.94.51-1.88.78-2.82s.59-1.86.88-2.79.62-1.85.95-2.76.65-1.84,1-2.75l1-2.73a19.76,19.76,0,0,0,.8-2.74,8.8,8.8,0,0,0,.17-1.38,3.41,3.41,0,0,0-.17-1.29,1.39,1.39,0,0,0-.76-.83,2.66,2.66,0,0,0-1.25-.16,9.56,9.56,0,0,0-2.69.71,26.58,26.58,0,0,0-2.6,1.22c-.85.45-1.68.94-2.5,1.44s-1.63,1-2.41,1.59l0,0h0c-1.23.61-2.44,1.26-3.65,1.93s-2.39,1.37-3.55,2.11-2.29,1.52-3.37,2.35a16.19,16.19,0,0,0-2.93,2.81,4.3,4.3,0,0,0-.85,1.74,1.86,1.86,0,0,0,0,.91,2,2,0,0,0,.49.78,4.92,4.92,0,0,0,1.68,1l.47.18.49.13,1,.27c.67.16,1.33.4,2,.61l.5.16.49.19,1,.38c.32.13.63.28.95.42l.47.22.46.24c.31.16.61.32.91.51S487.56,156.31,487.84,156.51Zm0,0q-.44-.28-.9-.52c-.3-.17-.61-.32-.93-.46l-.47-.22-.48-.2c-.32-.13-.63-.27-1-.39l-1-.34-.49-.17-.5-.14c-.66-.19-1.31-.4-2-.54l-1-.23-.51-.12-.51-.17a5.32,5.32,0,0,1-1.85-1.09,2.47,2.47,0,0,1-.62-.95,2.35,2.35,0,0,1-.09-1.14,4.79,4.79,0,0,1,.9-2,12.39,12.39,0,0,1,1.4-1.59c.5-.49,1-1,1.57-1.39a39.18,39.18,0,0,1,3.39-2.45c1.16-.76,2.35-1.48,3.56-2.17s2.42-1.35,3.67-2l-.06,0c.8-.57,1.62-1.11,2.45-1.63s1.68-1,2.54-1.48a25.37,25.37,0,0,1,2.68-1.25,10.3,10.3,0,0,1,2.93-.75,3.4,3.4,0,0,1,1.61.23,2.17,2.17,0,0,1,1.16,1.26,4.08,4.08,0,0,1,.22,1.58,9.5,9.5,0,0,1-.2,1.51,20.47,20.47,0,0,1-.87,2.84l-1.06,2.72c-.35.91-.7,1.81-1,2.72s-.67,1.82-1,2.73-.65,1.83-.94,2.75-.6,1.84-.84,2.78l-.19.7-.1.35a3.18,3.18,0,0,1-.12.36,3.11,3.11,0,0,1-.88,1.26,3.45,3.45,0,0,1-1.36.66,5.85,5.85,0,0,1-1.48.15,13,13,0,0,1-2.9-.44C489.68,157.15,488.76,156.84,487.84,156.51Z"/><path class="cls-20" d="M485.11,130.72s26.61-4.55,8.65,5.32c0,0-9.12,5.37-15.33,9.26a7.36,7.36,0,0,1-8.46-.66s-11.81-10.74,5.36-12.79S485.11,130.72,485.11,130.72Z"/><path class="cls-20" d="M487.37,120.66s20.83,6.21,4.47,9c0,0-15.94,1.61-21.86,3.06,0,0-6.58,3.46-5-5.05a42,42,0,0,0,1.55-4.37s.85-8.78,7.38-6.74Z"/><path class="cls-20" d="M498.11,116.72s9.39,12.86-6.08,5.26c0,0-9.44-3.41-14.39-4.55,0,0-10.34-1.46-4.42-5a32.77,32.77,0,0,1,5.89-3.49s8.11-8.22,11.73-1.76Z"/><path class="cls-20" d="M497.9,115.93s6.57,13,9.66,1.32c0,0,.15-3,.56-6.36.61-5,1.06-11-3.31-10.43,0,0-17.55.18-14.89,5.43Z"/><path class="cls-22" d="M444.58,68.85s.66,2.92,4,1.06.8-2.66,0-3.32S444.45,66.59,444.58,68.85Z"/><path class="cls-23" d="M220.28,119.44s-14,6.71-7.16,17.44,18.78,3.88,25.79-1.79c0,0,55.16-41.14,69.32-48.9s5.07-10-5.07-4.77Z"/><path d="M220.33,119.55s-.22.1-.63.33-1,.59-1.77,1.1a20.54,20.54,0,0,0-2.61,2.12,14.18,14.18,0,0,0-2.73,3.58,10,10,0,0,0-.89,2.48,8.32,8.32,0,0,0-.08,2.86,10.28,10.28,0,0,0,.93,3l.38.72.44.71.11.18,0,0,0,0,.06.09.26.35a8.11,8.11,0,0,0,.54.69,10.15,10.15,0,0,0,5.95,3.73,11.23,11.23,0,0,0,3.83.06,19.07,19.07,0,0,0,3.95-1.09,28.49,28.49,0,0,0,3.9-1.91,43.06,43.06,0,0,0,3.81-2.49c.63-.45,1.25-.93,1.87-1.42l.47-.37.15-.12.12-.09.24-.18,1-.73c1.32-1,2.65-2,4-3,5.45-4,11.28-8,17.33-12.21s12.26-8.55,18.54-13L289,98.22l2.38-1.71,2.4-1.7,2.4-1.71,2.42-1.68c.81-.56,1.61-1.13,2.42-1.68l2.46-1.63,1.23-.82,1.26-.78c.85-.51,1.68-1,2.52-1.53a28.81,28.81,0,0,0,4.61-3.23,8.62,8.62,0,0,0,.89-.93,2.18,2.18,0,0,0,.46-.82c0-.08,0-.06,0,0s0,0-.11-.07a2.7,2.7,0,0,0-1-.22,10.71,10.71,0,0,0-2.59.19,20.93,20.93,0,0,0-2.64.68,27.25,27.25,0,0,0-2.57,1c-.42.18-.83.38-1.24.58l-.61.31-.12.06-.08,0-.16.08-.32.15-10.14,4.74c-3.33,1.56-6.61,3.07-9.82,4.54l-4.77,2.19-4.67,2.1c-6.14,2.77-11.95,5.39-17.36,7.7-2.7,1.17-5.3,2.25-7.77,3.3l-7,3c-2.2.93-4.26,1.8-6.16,2.62l-2.73,1.17-2.48,1.09c-3.14,1.37-5.6,2.47-7.28,3.23Zm-.1-.22,2.56-1.18c1.67-.77,4.11-1.92,7.2-3.41l2.44-1.17,2.67-1.31q2.79-1.36,6-3l6.82-3.38c2.4-1.19,4.92-2.46,7.57-3.73,5.28-2.59,11-5.29,17.16-8.13l4.64-2.16L282,89.7c3.22-1.47,6.5-3,9.85-4.48l10.21-4.59.6-.27.66-.32c.44-.21.89-.41,1.35-.6a29.44,29.44,0,0,1,2.8-1,23.12,23.12,0,0,1,2.94-.7,12.4,12.4,0,0,1,3.16-.16,4.6,4.6,0,0,1,1.81.52,2.28,2.28,0,0,1,.92.93,2.12,2.12,0,0,1,.17,1.37,3.21,3.21,0,0,1-.39,1,5.45,5.45,0,0,1-.52.73,9.83,9.83,0,0,1-1.14,1.14A21.93,21.93,0,0,1,312,85c-.85.54-1.7,1-2.58,1.52s-1.71.94-2.55,1.41l-1.27.71-1.25.76L301.84,91c-.83.51-1.65,1-2.48,1.57-6.61,4.19-13.09,8.61-19.38,13.07s-12.38,9-18.22,13.47-11.44,8.83-16.83,12.87c-1.34,1-2.68,2-4,3l-1,.73-.24.18-.12.09,0,0-.06,0-.48.39c-.64.51-1.3,1-2,1.46a33.78,33.78,0,0,1-8.3,4.44,18.8,18.8,0,0,1-4.4,1A12.82,12.82,0,0,1,220,143a10.61,10.61,0,0,1-3.74-1.8l-.77-.63-.7-.68-.63-.72c-.21-.24-.39-.5-.58-.75a13.11,13.11,0,0,1-2.6-6.3,8.89,8.89,0,0,1,.24-3,10.41,10.41,0,0,1,1-2.57,15.27,15.27,0,0,1,2.9-3.59,22.68,22.68,0,0,1,2.66-2.11c.76-.52,1.38-.88,1.79-1.11s.64-.34.64-.34Z"/><path class="cls-23" d="M241.79,132.27s-12.5,9.23-3.74,18.48,19.18.27,25-6.61c0,0,46.42-50.8,58.87-61.08S325,72.29,316,79.32Z"/><path d="M241.86,132.37s-.19.14-.56.45-.89.77-1.53,1.42a20.55,20.55,0,0,0-2.16,2.57,14.18,14.18,0,0,0-2,4,10,10,0,0,0-.41,2.6,8.31,8.31,0,0,0,.46,2.82,10.28,10.28,0,0,0,1.47,2.73l.51.64.57.61.14.15,0,0,0,0,.08.07.32.3a8.19,8.19,0,0,0,.66.58,10.15,10.15,0,0,0,6.54,2.54,11.23,11.23,0,0,0,3.77-.66,19,19,0,0,0,3.67-1.81,28.47,28.47,0,0,0,3.47-2.61,43.19,43.19,0,0,0,3.28-3.16c.53-.56,1-1.15,1.57-1.74l.39-.45.13-.14.1-.11.21-.22.83-.9c1.11-1.2,2.23-2.43,3.39-3.66,4.6-4.92,9.57-10,14.72-15.26s10.43-10.71,15.76-16.29l8-8.44,2-2.13,2-2.12,2-2.13,2.06-2.1c.69-.7,1.37-1.41,2.06-2.1l2.11-2.07,1.05-1,1.1-1c.73-.66,1.45-1.35,2.19-2a28.81,28.81,0,0,0,3.92-4,8.66,8.66,0,0,0,.7-1.08,2.19,2.19,0,0,0,.29-.89c0-.08,0-.06,0,0s0,0-.12,0a2.7,2.7,0,0,0-1,0,10.72,10.72,0,0,0-2.51.68,20.91,20.91,0,0,0-2.47,1.16A27.19,27.19,0,0,0,318.46,79c-.38.26-.75.53-1.11.8l-.54.42-.11.08-.07.05-.14.1-.29.21-9.06,6.57c-3,2.16-5.92,4.26-8.79,6.31l-4.27,3-4.19,2.95c-5.51,3.88-10.72,7.54-15.6,10.83-2.43,1.66-4.78,3.21-7,4.7l-6.33,4.23c-2,1.32-3.85,2.57-5.56,3.73l-2.46,1.66-2.23,1.54c-2.83,1.94-5,3.48-6.54,4.54Zm-.14-.19,2.29-1.64c1.49-1.07,3.67-2.66,6.43-4.7l2.18-1.61,2.38-1.79q2.48-1.86,5.34-4l6.06-4.61c2.14-1.62,4.37-3.34,6.73-5.09,4.7-3.54,9.85-7.28,15.32-11.22l4.15-3,4.27-3c2.88-2.05,5.82-4.15,8.83-6.26l9.16-6.43.54-.38.59-.44c.4-.29.8-.57,1.21-.84a29.52,29.52,0,0,1,2.56-1.52,23.13,23.13,0,0,1,2.75-1.24,12.39,12.39,0,0,1,3.07-.75,4.59,4.59,0,0,1,1.87.17,2.28,2.28,0,0,1,1.08.74,2.12,2.12,0,0,1,.43,1.32,3.21,3.21,0,0,1-.2,1,5.45,5.45,0,0,1-.37.81,9.84,9.84,0,0,1-.91,1.34,21.91,21.91,0,0,1-2.08,2.23c-.73.69-1.48,1.34-2.25,2s-1.5,1.24-2.24,1.86l-1.11.93-1.09,1-2.17,2c-.72.66-1.43,1.34-2.14,2-5.7,5.36-11.24,10.92-16.57,16.49s-10.47,11.17-15.35,16.66-9.58,10.83-14.1,15.81c-1.12,1.25-2.26,2.47-3.35,3.68l-.82.9-.2.22-.1.11,0,0-.05.06-.4.47c-.54.62-1.09,1.22-1.65,1.81a33.78,33.78,0,0,1-7.31,5.93,18.81,18.81,0,0,1-4.14,1.82,12.83,12.83,0,0,1-4.34.52,10.61,10.61,0,0,1-4-1.06l-.88-.47-.82-.53-.76-.58c-.25-.19-.48-.42-.71-.63a13.1,13.1,0,0,1-3.74-5.7,8.88,8.88,0,0,1-.34-3,10.41,10.41,0,0,1,.51-2.71,15.27,15.27,0,0,1,2.17-4.07,22.68,22.68,0,0,1,2.22-2.58c.65-.65,1.19-1.12,1.55-1.43s.57-.45.57-.45Z"/><path class="cls-23" d="M299.56,111s30.29,10.5,43.41,16.61,20.13,10.88,0,7.9c0,0-97.09-14.34-113.15-17.74,0,0-21.91-2.24-20.42-14.46,0,0-1.34-17.44,23.4-12.07Z"/><path d="M299.6,110.92l22.33,7.8c1.86.64,3.72,1.32,5.57,2l2.79,1c.93.33,1.85.69,2.77,1l2.77,1c.92.35,1.85.69,2.76,1.08l2.75,1.14,1.37.57.69.29.67.3c1.8.82,3.6,1.66,5.38,2.56.89.45,1.77.92,2.65,1.42a26.51,26.51,0,0,1,2.59,1.66,8.25,8.25,0,0,1,1.27,1.14,2.85,2.85,0,0,1,.6,1,2,2,0,0,1,.08.43,1.68,1.68,0,0,1-.27,1l-.15.19-.08.09-.07.07a2.77,2.77,0,0,1-1.07.55,6.26,6.26,0,0,1-.88.18,14,14,0,0,1-1.6.1c-1,0-2-.05-3-.13s-2-.19-3-.31c-2-.23-3.93-.56-5.88-.87s-3.89-.61-5.84-.94q-5.83-1-11.66-1.95l-11.66-2c-3.88-.66-7.78-1.28-11.67-1.91l-5.84-.91-2.92-.46-2.92-.44-5.84-.88-5.85-.85L253,122.57l-11.7-1.75c-1.95-.28-3.9-.62-5.85-1l-5.85-1,.11,0c-.62-.06-1.19-.14-1.77-.23s-1.16-.19-1.74-.3l-1.73-.36-.86-.2-.86-.22c-.57-.16-1.14-.31-1.7-.49l-.85-.27-.84-.29-.84-.31-.83-.34c-.55-.24-1.1-.48-1.63-.76-.27-.13-.54-.27-.8-.42s-.53-.29-.79-.45l-.78-.49-.75-.54c-.26-.17-.49-.39-.73-.58s-.24-.19-.36-.3l-.34-.33a7.94,7.94,0,0,1-.66-.68l-.32-.36-.16-.18-.14-.19c-.19-.26-.39-.51-.56-.79l-.49-.84-.4-.9c-.13-.3-.21-.63-.31-.94a6.73,6.73,0,0,1-.21-1c0-.16-.06-.32-.08-.49l0-.49a11.88,11.88,0,0,1,0-2v.24c0-.23,0-.39,0-.58s0-.36,0-.54c0-.36,0-.71.08-1.06a16.06,16.06,0,0,1,.38-2.08c.1-.34.18-.69.3-1l.18-.5.21-.49c.13-.33.31-.65.46-1s.35-.63.54-.93a12.68,12.68,0,0,1,1.33-1.71,9.57,9.57,0,0,1,.77-.76,9.09,9.09,0,0,1,.83-.69,9.36,9.36,0,0,1,.89-.61,10.58,10.58,0,0,1,.93-.54c.32-.16.63-.33,1-.47l1-.39a18.15,18.15,0,0,1,2-.57l.51-.11.25-.06.26,0,1-.15.51-.06.51,0c.34,0,.68-.06,1-.06h1c.34,0,.68,0,1,0l1,0,.5,0,.5.05,1,.1.5.05.49.08c.66.11,1.32.19,2,.32l2,.39h.09l4.17,1.26,4.16,1.27,4.16,1.28,4.15,1.3,4.15,1.31,4.14,1.33,8.29,2.67,8.29,2.67,8.29,2.64,8.31,2.58Zm-.07.23-8.35-2.43-8.38-2.36-8.4-2.3-8.4-2.27-8.4-2.27-4.2-1.14-4.19-1.16L245,96l-4.19-1.19-4.18-1.2-4.18-1.21.09,0-1.87-.35c-.62-.12-1.25-.19-1.87-.28l-.47-.07-.47,0-.94-.09-.47,0-.47,0-.93,0c-.31,0-.62,0-.93,0l-.93,0c-.31,0-.61,0-.92.07s-.62,0-.91.09l-.9.13-.23,0-.22,0-.44.1a15.61,15.61,0,0,0-1.72.48l-.82.33c-.27.11-.53.26-.79.38a8,8,0,0,0-.75.44,7,7,0,0,0-.71.49,6.73,6.73,0,0,0-.66.55,7.15,7.15,0,0,0-.61.6,10.13,10.13,0,0,0-1.06,1.35c-.15.25-.3.49-.44.75s-.27.51-.37.79a12.14,12.14,0,0,0-.58,1.65,13.57,13.57,0,0,0-.34,1.74c0,.29-.06.59-.08.88s0,.29,0,.43,0,.3,0,.39v.24a9.48,9.48,0,0,0,0,1.5l0,.37c0,.12,0,.24.06.36a4.6,4.6,0,0,0,.15.72c.08.23.13.48.22.7l.29.68.37.65c.13.21.29.41.43.62l.11.16.13.15.25.29a6,6,0,0,0,.54.56l.28.27.3.26c.21.17.39.35.62.5l.65.47.68.44c.23.15.47.28.7.41s.48.27.72.39c.48.26,1,.48,1.49.72l.77.32.78.3.79.28.79.27c.53.18,1.07.33,1.61.49l.81.22.82.2,1.65.37c.55.11,1.11.22,1.66.31s1.12.18,1.65.24H230l5.78,1.11c1.93.37,3.85.76,5.79,1.09l11.63,2.1c3.88.69,7.76,1.36,11.64,2s7.76,1.36,11.65,2l5.83.95,5.84.91c3.89.63,7.79,1.17,11.69,1.76s7.8,1.11,11.71,1.63l11.72,1.54L335,133.4l5.86.8c2,.27,3.89.54,5.83.77a48.61,48.61,0,0,0,5.75.4,12,12,0,0,0,1.34-.08,4.28,4.28,0,0,0,.57-.11c.16,0,.29-.12.25-.09h0l0,0,0,0a.47.47,0,0,0-.07.15.44.44,0,0,0,0,.16s0,.07,0,.06a1.15,1.15,0,0,0-.17-.24,6.32,6.32,0,0,0-.93-.83,25.25,25.25,0,0,0-2.36-1.56c-.83-.49-1.68-1-2.53-1.43-1.71-.93-3.46-1.81-5.22-2.67s-3.55-1.65-5.33-2.49c-.88-.42-1.79-.8-2.69-1.19L332.57,124c-.9-.39-1.8-.79-2.71-1.16l-2.73-1.13c-1.82-.75-3.63-1.52-5.47-2.23l-5.5-2.17-5.53-2.09C307,113.77,303.24,112.45,299.52,111.14Z"/><path class="cls-23" d="M245.32,69.5s2.39-12.07,23,0c0,0,61.27,33.69,75.28,39.65,0,0,40,18,20.81,14.46,0,0-90.73-5.52-119-44.27A15.81,15.81,0,0,1,245.32,69.5Z"/><path d="M245.21,69.48a7.05,7.05,0,0,1,2.54-3.83,7.61,7.61,0,0,1,2-1.11l.55-.18.57-.14a5.17,5.17,0,0,1,.57-.11c.19,0,.38-.07.58-.08a15.69,15.69,0,0,1,4.63.29l.57.11.56.14c.37.1.75.18,1.12.3l1.11.34,1.09.39c.37.12.72.28,1.08.42s.72.28,1.07.44c.7.32,1.41.62,2.1,1l1,.51c.35.17.68.36,1,.54l1,.54,1,.52,8.17,4.2,4.08,2.1L285.82,78q4.07,2.12,8.12,4.29c2.71,1.43,5.39,2.91,8.09,4.36L310.08,91l8,4.45c2.68,1.49,5.36,3,8,4.43s5.38,2.92,8.11,4.31l2,1.05,2.05,1,2.06,1,2.08,1,2.09,1,2.08,1,4.16,1.95c2.77,1.32,5.53,2.64,8.27,4s5.48,2.77,8.11,4.42a17.69,17.69,0,0,1,1.93,1.38,5.76,5.76,0,0,1,.46.44,2.57,2.57,0,0,1,.44.61,1.22,1.22,0,0,1,.13.56,1,1,0,0,1-.31.69,1.34,1.34,0,0,1-.46.28,2.33,2.33,0,0,1-.38.1,6,6,0,0,1-1.29.07c-.41,0-.8,0-1.19-.08-.78-.08-1.55-.2-2.32-.32h.09c-2.73-.14-5.44-.34-8.15-.57s-5.42-.52-8.12-.83q-8.11-1-16.15-2.35c-5.36-.93-10.71-2-16-3.19-2.66-.61-5.31-1.24-7.94-1.95s-5.26-1.45-7.87-2.23-5.2-1.66-7.78-2.56-5.13-1.88-7.66-2.9l-1.89-.78-1.88-.82c-.63-.27-1.25-.56-1.87-.84s-1.24-.57-1.86-.87c-2.47-1.17-4.89-2.46-7.27-3.8s-4.7-2.8-7-4.35-4.45-3.18-6.55-4.93L254.81,90c-.52-.44-1-.92-1.51-1.38s-1-.94-1.48-1.42l-.73-.72-.7-.74a59.61,59.61,0,0,1-5.22-6.29l0,0v0c-.07-.21-.14-.41-.19-.61s-.1-.41-.15-.62-.09-.41-.12-.62-.08-.41-.1-.62-.06-.42-.08-.63,0-.42-.05-.63l0-.63v-.63c0-.21,0-.42,0-.63s0-.42,0-.63l.06-.63c0-.21.06-.42.09-.62s.06-.42.11-.62l.14-.62c0-.21.11-.41.16-.61l.17-.61Zm.23.06-.16.6c-.05.2-.12.4-.15.6l-.13.61c0,.2-.07.41-.1.61s-.07.41-.09.61l-.06.62c0,.21,0,.41,0,.62s0,.41,0,.62V75l0,.62c0,.21,0,.41.06.62s.05.41.08.61.07.41.11.61.09.4.14.6.1.4.17.59.13.39.2.57l0,0a51.5,51.5,0,0,0,5.38,6l.73.7.75.68c.5.45,1,.91,1.52,1.33s1,.87,1.56,1.28l1.6,1.24c2.16,1.61,4.4,3.11,6.7,4.51.58.34,1.15.7,1.73,1l1.75,1c1.18.64,2.37,1.28,3.57,1.89,2.39,1.23,4.83,2.38,7.29,3.47s4.95,2.12,7.46,3.1,5,1.91,7.59,2.77,5.13,1.67,7.7,2.47,5.18,1.52,7.78,2.22,5.22,1.37,7.85,2c5.25,1.27,10.54,2.39,15.85,3.38,2.66.5,5.32,1,8,1.39s5.34.84,8,1.23,5.36.74,8,1.07,5.38.63,8.06.86h.09c.74.15,1.48.29,2.22.39.37.05.73.09,1.09.12a4.94,4.94,0,0,0,1,0c.13,0,.26-.08.21,0a.29.29,0,0,0-.08.18c0,.05,0,0,0,0a1.42,1.42,0,0,0-.23-.32,4.52,4.52,0,0,0-.36-.36,16.66,16.66,0,0,0-1.76-1.34c-1.25-.85-2.56-1.63-3.88-2.39s-2.66-1.5-4-2.21q-4.06-2.14-8.2-4.12l-4.15-2-2.09-1-2.09-.94-2.1-.95L338,107l-2.08-1-2.07-1-8.26-4c-2.74-1.36-5.5-2.71-8.23-4.09s-5.47-2.76-8.2-4.16-5.44-2.82-8.15-4.26L297,86.32q-2-1.08-4-2.19-4-2.2-8-4.46l-4-2.26-4-2.29L269,70.49l-1-.59-1-.59c-.33-.19-.65-.4-1-.58l-1-.56c-.66-.38-1.35-.7-2-1.05-.34-.17-.69-.32-1-.48s-.69-.32-1-.46a25.53,25.53,0,0,0-4.32-1.43,15.31,15.31,0,0,0-4.5-.41,7.94,7.94,0,0,0-4.19,1.5,6.77,6.77,0,0,0-2.46,3.67Z"/><path class="cls-23" d="M247.71,96.93s-22.51-3.88-17.14-15.5c4.13-9,16-6,32.05.89,0,0,33.69,15.5,38,16.85s34.14,14.16,40.55,17.51,41.14,18.11,11.18,12.15a355.37,355.37,0,0,1-52.8-15.72C273.8,102.89,261,100,247.71,96.93Z"/><path d="M247.68,97l-.83-.16c-.55-.11-1.37-.3-2.42-.57s-2.35-.64-3.84-1.17a33.45,33.45,0,0,1-5-2.17,18.56,18.56,0,0,1-2.7-1.79,10.77,10.77,0,0,1-2.44-2.64,7.08,7.08,0,0,1-1.13-3.8,9.15,9.15,0,0,1,1.06-4.13,9.66,9.66,0,0,1,2.93-3.55,10.33,10.33,0,0,1,2.15-1.16,12.13,12.13,0,0,1,2.4-.65l.31-.05.31,0,.63-.07c.42,0,.84-.06,1.26-.05s.85,0,1.27,0,.85.05,1.28.09a35.21,35.21,0,0,1,5.14.9,81,81,0,0,1,10.42,3.4c.88.35,1.76.69,2.64,1.07l1.33.56.33.14.17.07.19.09.66.3,5.34,2.47c7.22,3.35,14.78,7,22.66,10.65q3,1.38,6,2.7l1.52.64.76.3.78.29,1.56.59c.52.2,1,.39,1.56.61,4.16,1.72,8.32,3.47,12.52,5.26q3.15,1.33,6.32,2.69c2.11.9,4.24,1.79,6.35,2.72l3.19,1.36c1.06.45,2.12.93,3.18,1.39l1.59.7c.53.23,1.06.47,1.59.72,1,.5,2.13,1,3.15,1.49,2.07,1,4.2,1.92,6.3,2.88s4.22,1.92,6.31,2.91,4.16,2,6.2,3.17a28.69,28.69,0,0,1,3,1.91,9.28,9.28,0,0,1,.74.62,3.72,3.72,0,0,1,.75.92,1.61,1.61,0,0,1,.09.19,1.67,1.67,0,0,1,.08.23,1.7,1.7,0,0,1,.05.29,1.57,1.57,0,0,1,0,.35,1.49,1.49,0,0,1-.29.68,1.71,1.71,0,0,1-.42.38,2.45,2.45,0,0,1-.69.3,4.41,4.41,0,0,1-.55.11,11.12,11.12,0,0,1-1.9.06c-.6,0-1.19-.07-1.77-.13-1.16-.12-2.3-.28-3.43-.46s-2.25-.38-3.36-.59l-.83-.16-.84-.17-1.65-.35c-2.2-.46-4.37-1-6.53-1.48-1.08-.24-2.15-.52-3.21-.78l-3.18-.79-1.58-.4-1.57-.42-3.11-.85-3.08-.85-3-.91-6-1.8-5.75-2c-3.8-1.24-7.42-2.66-10.94-4s-6.85-2.72-10.07-4c-1.61-.67-3.19-1.26-4.73-1.87l-4.52-1.77-4.33-1.59c-1.41-.51-2.77-1-4.11-1.47-2.67-.9-5.16-1.77-7.51-2.45l-3.36-1-3.08-.85c-2-.54-3.7-1-5.23-1.37l-3.88-.95Zm.05-.23,3.25.74,3.9.91,2.47.57c.88.2,1.81.44,2.8.67l3.11.76,3.41.88c2.38.59,4.91,1.34,7.64,2.1,1.37.37,2.75.82,4.19,1.26l4.43,1.37,4.64,1.54c1.58.53,3.21,1.06,4.84,1.67l5,1.82,2.56,1,2.62.94c1.76.63,3.54,1.28,5.34,1.95s3.67,1.26,5.55,1.89l5.73,1.88,5.91,1.79,3,.91,3.06.85,3.08.87,1.55.44,1.57.41,3.15.83c1.06.27,2.11.57,3.18.82,2.13.52,4.28,1.06,6.45,1.55l1.63.37.81.18.82.17c1.09.22,2.19.43,3.29.62s2.2.36,3.3.49c.55.06,1.1.11,1.63.15a9.24,9.24,0,0,0,1.52,0l.29,0c.08,0,.13,0,.1,0a.44.44,0,0,0-.1.1.62.62,0,0,0-.12.29c0,.22,0,.26,0,.23a1.89,1.89,0,0,0-.34-.4,7.22,7.22,0,0,0-.57-.49,28.17,28.17,0,0,0-2.76-1.82c-1.94-1.16-4-2.23-6-3.28s-4.1-2.09-6.18-3.11-4.15-2-6.23-3.12c-1-.55-2.05-1-3.08-1.57-.51-.26-1-.51-1.55-.76l-1.56-.75c-2.08-1-4.18-2-6.27-2.94q-6.3-2.87-12.59-5.56c-2.09-.91-4.19-1.77-6.28-2.63-1-.43-2.08-.87-3.12-1.28l-3.12-1.22c-.51-.21-1-.38-1.57-.57l-1.57-.56-.79-.27-.79-.29-1.56-.6c-2.06-.82-4.08-1.66-6.09-2.49-8-3.34-15.75-6.64-23-9.91-1.82-.81-3.6-1.63-5.36-2.43l-.66-.3-.08,0-.05,0-.17-.07-.33-.14-1.32-.55-2.61-1.07a100.27,100.27,0,0,0-10.11-3.54,39.07,39.07,0,0,0-4.87-1c-.4-.05-.8-.11-1.19-.14s-.79-.06-1.18-.07-.77,0-1.16,0l-.57,0-.28,0-.28,0a10.72,10.72,0,0,0-2.15.46,9,9,0,0,0-1.91.9,8.49,8.49,0,0,0-2.73,3,8.23,8.23,0,0,0-1.16,3.68,6.3,6.3,0,0,0,.87,3.45,10.19,10.19,0,0,0,2.21,2.58,18.11,18.11,0,0,0,2.59,1.81,30.61,30.61,0,0,0,4.88,2.26c1.47.54,2.76.92,3.8,1.2s1.86.46,2.4.58l.83.16h0Z"/><path class="cls-24" d="M214,65.33s16.84-.7,30.59,7c0,0,.82-5.17,3.88-7,0,0-1.59-.89-2-.7s-1.58,1.14-1.58,1.14L229.74,57v2.58s-11.6-1.59-15-1.39l.2,2.29-1.79.5v1.59h4l.2,1.59h-3.18Z"/><path d="M214,65.27c.64,0,1.28-.09,1.92-.09s1.33,0,2,0,1.33,0,2,.05l2,.12,2,.19c.66.07,1.32.16,2,.25s1.31.2,2,.31l1,.17,1,.21c.65.14,1.3.27,1.95.43l1.93.51c.32.08.64.18,1,.28l1,.3c.63.21,1.27.41,1.88.66l1.86.74c.61.27,1.21.56,1.81.84l.9.42.88.48,1.75,1-.36.17c.07-.35.15-.68.25-1s.19-.66.3-1c.05-.16.11-.33.18-.49s.12-.32.19-.48c.13-.32.28-.63.43-.94.07-.16.16-.3.25-.46a4.77,4.77,0,0,1,.27-.45c.1-.14.18-.3.29-.43l.32-.42c.11-.13.23-.26.35-.39a3.29,3.29,0,0,1,.38-.37,3.37,3.37,0,0,1,.41-.34l.44-.3v.29a10,10,0,0,0-.9-.44l-.46-.17-.23-.06h-.21s0,0,0,0l0,0-.11.07-.21.14-.2.15-.2.15-.79.63-.11.09-.13-.07-3.84-2.12c-1.28-.71-2.56-1.4-3.84-2.11l-3.82-2.14-3.81-2.16.78-.45,0,2.58v.61l-.62-.08-3.73-.45-3.73-.43c-.62-.07-1.24-.15-1.86-.2l-1.86-.18-1.86-.14c-.31,0-.61,0-.92,0l-.91,0,.46-.53.16,2.29,0,.38-.35.09-1.8.46.3-.4,0,1.59-.38-.38,4,.11h.25l0,.23c.05.53.11,1.06.15,1.6l0,.26h-.24l-3.18-.12.11-.09Zm-.13.11.15-1.26V64h.1l3.18-.12-.22.25c-.09-.53-.16-1.06-.25-1.58l.27.24-4,.11h-.37v-.39l0-1.59v-.31l.31-.09,1.78-.53-.33.47-.24-2.28-.05-.52h1.48c.32,0,.65,0,1,0l1.9.09,1.88.15c.63,0,1.25.12,1.88.18s1.25.12,1.88.2l1.87.22q1.87.23,3.74.5l-.62.54,0-2.58v-.91l.77.46,3.77,2.23L237.52,61c1.25.75,2.49,1.52,3.74,2.28L245,65.58l-.24,0,.83-.61.21-.15.21-.15.21-.14.11-.07,0,0,.06,0,.11,0a1.1,1.1,0,0,1,.31,0l.26.07.49.19c.32.14.62.3.92.47l.24.13-.23.16-.41.28a3.09,3.09,0,0,0-.38.31,3.05,3.05,0,0,0-.36.34c-.11.12-.23.24-.33.37l-.3.4c-.1.13-.18.28-.27.42a4.48,4.48,0,0,0-.25.43c-.08.15-.16.29-.23.45l-.21.46-.19.47c-.06.16-.11.32-.17.48s-.11.32-.16.48c-.1.32-.19.65-.26,1s-.14.66-.19,1l0,.32-.31-.15-1.78-.85-.89-.42-.91-.37c-.61-.24-1.21-.5-1.82-.73l-1.86-.64c-.61-.23-1.24-.41-1.87-.6l-.94-.29c-.31-.1-.63-.2-.94-.27l-1.9-.51c-.63-.17-1.28-.3-1.92-.45l-1-.22-1-.19c-.64-.12-1.29-.27-1.94-.36l-1.95-.31-2-.27-2-.23-2-.18c-.66-.05-1.31-.11-2-.14s-1.32-.07-2-.08Z"/><path class="cls-24" d="M231.56,79.7S207.91,68.11,203,63.34l-.7,1.29,10.83,7.65s-11-3.88-12.62-3.78v2.19l6.86,3.38-8,.53.5,2s10.14-.4,13.32,1.59l-13.81.45v1.74s28.06,2.39,30.38,5.27C229.74,85.6,230,81.42,231.56,79.7Z"/><path d="M231.48,79.72c-1.23-.55-2.46-1.13-3.67-1.71s-2.48-1.18-3.71-1.79q-3.69-1.84-7.34-3.75l-1.82-1-1.81-1-1.8-1-1.78-1c-.59-.36-1.18-.71-1.77-1.08s-1.17-.74-1.74-1.12-1.14-.78-1.7-1.2a17.78,17.78,0,0,1-1.62-1.36l.75-.11-.7,1.29-.14-.6,2.69,1.94,2.68,2,5.35,3.92,1.54,1.13-1.79-.66L210,71.42l-3.12-1.06q-1.56-.52-3.14-1l-.79-.23-.79-.21c-.27-.06-.53-.13-.8-.17l-.4-.07-.38,0,.16-.17v2.19l-.1-.16,3.44,1.67,3.45,1.64.84.4-.94.08-8,.65.34-.46.52,2-.4-.3c1.14,0,2.27-.06,3.41-.06s2.27,0,3.41.12a31.34,31.34,0,0,1,3.41.4l.85.17.85.22c.28.09.57.18.85.29a6.21,6.21,0,0,1,.83.41l1.5.88-1.76.07-6.91.27c-2.3.09-4.6.16-6.91.24l.55-.57v1.74l-.52-.57q3.87.36,7.73.8t7.7,1q1.92.28,3.84.6c1.28.21,2.55.45,3.82.72s2.54.55,3.79.91c.63.18,1.25.37,1.87.61a8,8,0,0,1,.91.41,2.79,2.79,0,0,1,.84.64l-.37.12c0-.53.12-1.05.21-1.57a15.15,15.15,0,0,1,.36-1.54c0-.13.07-.25.12-.38s.08-.25.13-.38l.14-.37c.05-.12.11-.24.16-.36a3.67,3.67,0,0,1,.18-.35,3.11,3.11,0,0,1,.2-.34c.08-.11.14-.22.23-.33Zm.17,0-.28.36c-.08.1-.14.22-.2.33a3,3,0,0,0-.18.34,3.51,3.51,0,0,0-.16.35c-.1.24-.18.48-.26.73s-.07.25-.11.37-.07.25-.1.38a14.79,14.79,0,0,0-.28,1.53c-.07.51-.12,1-.14,1.54l0,.51-.36-.39a2.43,2.43,0,0,0-.72-.49,8.84,8.84,0,0,0-.87-.35c-.6-.21-1.22-.38-1.84-.53-1.24-.31-2.51-.55-3.78-.77s-2.54-.41-3.82-.6-2.55-.36-3.83-.52c-2.56-.32-5.13-.6-7.69-.85s-5.14-.51-7.71-.73l-.52,0V78l.55,0c2.3-.07,4.6-.16,6.91-.21l6.91-.18-.26.95a5.2,5.2,0,0,0-.68-.34c-.24-.1-.49-.19-.75-.27l-.78-.21-.81-.17c-1.08-.21-2.19-.33-3.3-.43s-2.23-.15-3.35-.19-2.25,0-3.36,0h-.33l-.07-.31-.47-2-.1-.44.44,0,8.06-.41-.09.48-3.41-1.74-3.42-1.71-.1-.05V68.33h.16l.44,0,.41.08c.28,0,.54.12.81.19l.8.21.8.22c1.06.3,2.11.63,3.16,1l3.15,1,3.14,1-.24.47-5.48-3.74L204.8,66.9,202.07,65l-.34-.23.19-.37.69-1.3.29-.54.46.43a17,17,0,0,0,1.54,1.27c.54.41,1.1.79,1.66,1.17s1.13.76,1.71,1.12,1.16.72,1.74,1.08l1.76,1.05,1.77,1c1.18.69,2.38,1.36,3.57,2q3.58,2,7.21,4l3.62,2Z"/><path class="cls-24" d="M240.71,145.46s-22.46,13.77-29.1,15.32l.72,1.28,12.26-5s-9.18,7.24-10,8.63l1.85,1.17,6.53-4-3.87,7.08,1.92.63s5.1-8.77,8.48-10.39l-7,11.91L224,173s12.15-15.9,20.72-22.83a3.26,3.26,0,0,0,0-4.3A3.81,3.81,0,0,0,240.71,145.46Z"/><path d="M240.74,145.51l-3.52,2.14-3.52,2.13q-3.52,2.15-7.08,4.23c-1.19.69-2.38,1.38-3.58,2s-2.41,1.32-3.64,2c-.61.32-1.23.63-1.85.92s-1.25.59-1.88.87-1.27.55-1.93.8a17.8,17.8,0,0,1-2,.64l.3-.69.71,1.28-.59-.2,3.08-1.23,3.09-1.21,6.17-2.42,1.87-.74-1.59,1.22-2.61,2c-.87.67-1.72,1.37-2.57,2.06s-1.69,1.4-2.51,2.13l-.61.55-.6.56c-.19.19-.4.37-.58.58l-.27.3-.22.31-.06-.22,1.85,1.16h-.18l3.25-2c1.09-.66,2.16-1.35,3.24-2l.74-.46-.41.78-3.77,7.13-.2-.5,1.93.6-.45.17c.56-1,1.16-2,1.77-2.91s1.25-1.89,1.93-2.81A31.06,31.06,0,0,1,226.6,162c.19-.21.4-.42.6-.63s.42-.41.64-.6.45-.38.7-.56a6.16,6.16,0,0,1,.79-.48l1.52-.78-.87,1.49-3.48,6q-1.73,3-3.49,6l-.18-.77,1.47.93-.76.13c.79-1,1.59-2,2.4-3s1.63-2,2.45-3,1.66-2,2.5-2.95l1.28-1.45c.42-.49.86-1,1.3-1.44s.87-1,1.31-1.42.88-.94,1.33-1.4l1.35-1.38,1.38-1.36c.46-.46.93-.9,1.4-1.34s.93-.89,1.42-1.31,1-.86,1.46-1.28l1.5-1.22h0a2.84,2.84,0,0,0,.32-.42,3.17,3.17,0,0,0,.42-1,2,2,0,0,0,0-.27,1.41,1.41,0,0,0,0-.27,3.07,3.07,0,0,0,0-.54c0-.09,0-.18-.05-.27a1.37,1.37,0,0,0-.07-.26l-.09-.26c0-.08-.08-.16-.12-.25s-.08-.17-.13-.24l-.15-.23-.08-.11,0-.05,0-.05-.1-.1-.1-.08a2.41,2.41,0,0,0-.48-.25l-.26-.09-.27-.07a5.47,5.47,0,0,0-.54-.1,4.86,4.86,0,0,0-.55,0,3.79,3.79,0,0,0-.55,0l-.27,0-.27.07a1.66,1.66,0,0,0-.48.24Zm0-.12a1.71,1.71,0,0,1,.46-.23l.28-.07.28,0a3.9,3.9,0,0,1,.57,0,5.07,5.07,0,0,1,.57,0,5.59,5.59,0,0,1,.56.1l.28.07.27.09a2.53,2.53,0,0,1,.51.27l.12.09.1.1,0,0,0,.06.08.12.17.23c.05.08.09.17.14.25s.1.17.13.25l.1.27a1.5,1.5,0,0,1,.08.27c0,.09.05.19.06.28a3.23,3.23,0,0,1,0,.58,1.56,1.56,0,0,1,0,.29,2.17,2.17,0,0,1,0,.29,3.53,3.53,0,0,1-.16.56,4.12,4.12,0,0,1-.25.52,3,3,0,0,1-.33.48h0l-1.44,1.28c-.47.43-.93.89-1.39,1.33s-.91.91-1.36,1.36-.9.92-1.33,1.39L238,157l-1.28,1.44c-.43.48-.84,1-1.27,1.45s-.84,1-1.26,1.46q-1.25,1.47-2.49,2.94l-2.45,3q-1.22,1.49-2.41,3c-.8,1-1.59,2-2.37,3l-.32.41-.44-.28-1.46-.93-.46-.29.28-.47q1.75-3,3.53-5.94l3.54-5.93.65.71a5.2,5.2,0,0,0-.65.39c-.21.15-.42.32-.63.49s-.4.36-.6.55-.39.39-.58.59c-.75.81-1.46,1.67-2.14,2.56s-1.32,1.8-2,2.73q-.47.7-.92,1.41c-.3.47-.6.95-.89,1.42l-.16.27-.29-.1-1.91-.66-.4-.14.2-.36,4-7,.33.31c-1.1.65-2.2,1.29-3.29,2l-3.27,2-.09.06-.09-.06-1.84-1.18-.15-.09.09-.12.26-.36.29-.31c.19-.21.39-.39.59-.59l.6-.57.61-.55c.41-.37.83-.73,1.24-1.09l1.25-1.08,2.53-2.13,2.54-2.11.28.48-6.09,2.62-3,1.31-3.06,1.29-.38.16-.21-.36L211.2,161l-.3-.54.61-.16a17,17,0,0,0,1.9-.61c.63-.24,1.26-.5,1.88-.77s1.25-.55,1.86-.84l1.85-.88,1.84-.91,1.84-.92c1.22-.62,2.44-1.25,3.66-1.89q3.64-1.92,7.24-3.93,1.79-1,3.57-2l3.53-2.11Z"/><path class="cls-24" d="M211.23,95.84a3.53,3.53,0,0,0-3.61,1.49S192.52,87.09,180.9,85.6l-.7,1.29s12.12,3.28,13.42,5.47c0,0-12.52-1.29-14.81-3.28l-.7,2.39s11.93,2,14.81,4.17l-15.9-.7v1.79s13.79,1.29,17.53,2.68H175.83v1.29s30.52,2.18,33.57,5C209.4,105.67,208.73,97.91,211.23,95.84Z"/><path d="M211.11,95.88a4.16,4.16,0,0,0-.9,0l-.25,0-.25.05-.24.07-.24.09-.23.1-.22.12-.21.14a1.26,1.26,0,0,0-.19.16l-.18.17L208,97a4.41,4.41,0,0,0-.28.41l-.09.13-.12-.08c-1-.66-2.08-1.29-3.14-1.9l-1.59-.91c-.53-.31-1.07-.6-1.6-.89s-1.07-.58-1.62-.86-1.08-.57-1.63-.84l-1.64-.81-1.66-.77c-.55-.26-1.12-.49-1.68-.73l-.84-.36L191.3,89c-.57-.22-1.13-.46-1.7-.66l-1.72-.6c-.29-.11-.58-.19-.87-.28l-.87-.26-.87-.26-.88-.21-.88-.21-.44-.11-.45-.08-1.78-.3.47-.24-.69,1.29-.29-.68c1.19.32,2.36.67,3.52,1s2.33.74,3.48,1.16,2.3.86,3.42,1.37l.84.4c.28.14.55.29.82.45a8.84,8.84,0,0,1,.8.53,3.08,3.08,0,0,1,.73.77l.43.69-.81-.1c-1.27-.15-2.53-.33-3.79-.52s-2.52-.41-3.77-.65-2.5-.51-3.74-.85l-.92-.27-.92-.31c-.3-.12-.6-.24-.9-.38a4.19,4.19,0,0,1-.85-.53l.32-.09-.72,2.38-.14-.23c1.27.23,2.54.47,3.8.73s2.52.54,3.78.84,2.5.64,3.74,1l.92.31c.31.11.61.22.91.35l.45.19.44.21a6.27,6.27,0,0,1,.85.52l.53.38-.66,0L177,95.33l.4-.38,0,1.79-.37-.4q4.43.39,8.85.94l2.21.3c.74.1,1.47.23,2.2.34l1.1.2c.37.06.73.15,1.1.22s.73.17,1.1.26c.18,0,.37.1.55.16l.56.18,3.15,1-3.33,0-9.36,0h-9.36l.57-.57v1.29l-.52-.56,4.25.35c1.42.13,2.83.25,4.25.39,2.83.29,5.66.6,8.48.95s5.64.73,8.45,1.23c1.4.25,2.8.52,4.19.86.7.17,1.39.35,2.07.58.34.12.68.24,1,.38a3.8,3.8,0,0,1,1,.59l-.42.21c-.06-.87-.06-1.73,0-2.59a25.75,25.75,0,0,1,.19-2.58,13.65,13.65,0,0,1,.55-2.53c.06-.21.15-.41.23-.61a6.33,6.33,0,0,1,.29-.58l.17-.28.19-.26L211,96Zm.24-.08-.3.29-.2.24-.18.26-.15.28a6.22,6.22,0,0,0-.25.58c-.07.2-.14.4-.2.6a13.39,13.39,0,0,0-.44,2.5c-.08.84-.1,1.7-.1,2.55q0,.64,0,1.27c0,.42,0,.85.09,1.27l.06.61-.48-.4a3.38,3.38,0,0,0-.85-.47c-.32-.13-.65-.24-1-.34-.67-.2-1.35-.36-2-.51-1.38-.29-2.78-.52-4.18-.73q-4.2-.61-8.44-1.06c-2.82-.3-5.64-.56-8.47-.8l-4.24-.35-4.24-.32-.52,0V98.85h9.93l9.36,0-.18,1-.5-.16a5.24,5.24,0,0,0-.51-.15c-.35-.09-.7-.19-1.06-.26l-1.07-.23-1.08-.2c-.73-.12-1.45-.25-2.18-.36l-2.19-.32q-4.38-.62-8.79-1.08l-.37,0v-.36l0-1.79v-.41l.4,0,15.89.88-.13.36a5.89,5.89,0,0,0-.79-.49l-.43-.21-.44-.19c-.29-.13-.59-.24-.89-.35l-.91-.32c-1.22-.4-2.46-.74-3.71-1.05s-2.5-.59-3.76-.85-2.53-.5-3.79-.7l-.2,0,.05-.19.68-2.39.08-.29.24.19a3.8,3.8,0,0,0,.77.46,9.06,9.06,0,0,0,.86.35l.9.28.91.24c1.23.3,2.47.53,3.72.74s2.51.39,3.77.55,2.52.3,3.78.42l-.38.59a2.42,2.42,0,0,0-.54-.52,8.08,8.08,0,0,0-.73-.46c-.51-.29-1.06-.54-1.6-.78-1.1-.48-2.23-.9-3.38-1.3s-2.3-.78-3.45-1.13-2.33-.7-3.49-1l-.58-.16.28-.52.7-1.29.16-.3.31.05,1.84.32.46.08.45.11.9.22.9.22.89.28.89.28c.3.09.59.18.88.29l1.74.64c.58.22,1.14.47,1.71.7l.85.36.84.38c.56.26,1.12.5,1.67.78l1.65.82,1.63.86c.55.28,1.08.59,1.62.88s1.07.6,1.6.91,1.06.62,1.59.94,1,.64,1.57,1c1,.66,2.06,1.33,3.07,2l-.21,0a4.6,4.6,0,0,1,.33-.43l.18-.2.21-.18a1.38,1.38,0,0,1,.22-.16l.23-.14.24-.12.25-.1.26-.08.26-.06.26,0,.26,0a4.21,4.21,0,0,1,1.05.07Z"/><path class="cls-24" d="M211.33,132.3s-5.71,0-32.64,10.74v1.79s18.39-6.86,19.88-6.26c0,0-18.39,8.45-18.19,9.25l-.2,3.38,2-.6.1,3.48s14.11-8.15,17.09-8.05c0,0-6.86,9.94-16.2,15.21l1.79,3.08,4.77-3.48.7.4,5.76-4.87s-8,12-9.94,15.11l2.29,1s23.29-27.78,28.34-31.63c0,0,1.6-4.46,0-6.78C215.93,132.69,212.45,132.3,211.33,132.3Z"/><path d="M211.33,132.36a15.83,15.83,0,0,0-2.11.34l-1.05.22-1,.27-2.08.55-2.05.64-2.05.64-2,.7-2,.71c-.67.24-1.36.46-2,.72l-4,1.52-2,.76c-.67.25-1.34.52-2,.79-2.66,1.07-5.31,2.16-8,3.22l.26-.39,0,1.79-.59-.41c1.63-.63,3.26-1.22,4.9-1.82s3.28-1.18,4.93-1.74,3.31-1.11,5-1.62c.84-.25,1.68-.5,2.53-.72.43-.11.86-.21,1.3-.3.22,0,.44-.08.68-.11l.37,0h.21l.12,0,.16,0,1,.35-1,.44q-4.66,2.09-9.29,4.26c-1.54.73-3.08,1.46-4.6,2.22-.76.38-1.52.76-2.27,1.16-.37.2-.75.4-1.11.62-.18.11-.36.22-.53.33l-.24.18-.1.09,0,0s0,0,0,0a.09.09,0,0,0,0-.07v.06l-.22,3.38-.24-.19,2-.59.22-.06v.22l.09,3.48-.25-.14q2.07-1.17,4.14-2.32t4.19-2.23c1.41-.72,2.83-1.43,4.27-2.08.72-.33,1.45-.64,2.2-.93q.56-.21,1.14-.38a4.75,4.75,0,0,1,1.24-.21h.46l-.26.38c-.54.78-1.1,1.52-1.68,2.26s-1.17,1.46-1.78,2.17l-.92,1.06c-.31.35-.63.69-.95,1s-.64.68-1,1-.65.68-1,1l-1,1-1,.94c-.34.32-.71.61-1.07.92s-.71.61-1.09.89l-1.12.86c-.38.28-.77.54-1.16.81l-.58.4-.6.37-1.21.74.17-.61,1.81,3.07-.68-.14,4.75-3.5.26-.19.28.16.7.39-.57.05,5.75-4.89,2.78-2.36-2,3.06-4.94,7.57-5,7.55-.25-.83,2.29,1-.66.16Q191.53,168,195,164l3.49-4c1.17-1.33,2.35-2.66,3.53-4,.59-.66,1.18-1.32,1.78-2l1.79-2,1.8-2c.6-.65,1.21-1.29,1.81-1.94s1.21-1.29,1.83-1.93,1.22-1.28,1.85-1.91,1.25-1.26,1.9-1.87c.33-.3.64-.62,1-.91l1-.86,0,.06a13.21,13.21,0,0,0,.44-1.54c.06-.26.11-.52.15-.79s.08-.53.1-.8,0-.53,0-.8a7.88,7.88,0,0,0,0-.8,5.58,5.58,0,0,0-.14-.78,4.5,4.5,0,0,0-.26-.75l-.2-.34,0-.09-.06-.07-.13-.16-.29-.25c-.11-.07-.22-.15-.33-.21a6.7,6.7,0,0,0-1.49-.58l-.78-.19-.79-.14a12.7,12.7,0,0,0-1.6-.14Zm0-.11a12.86,12.86,0,0,1,1.62.13l.8.13.79.18a6.83,6.83,0,0,1,1.52.59c.12.06.23.15.35.22a3.82,3.82,0,0,1,.32.27l.13.15.07.08.05.09.21.36a4.66,4.66,0,0,1,.28.77,5.72,5.72,0,0,1,.16.81,8,8,0,0,1,0,.82c0,.27,0,.55,0,.82s-.05.54-.09.81-.09.54-.14.8a15.3,15.3,0,0,1-.41,1.58v0l0,0-1,.87c-.33.29-.63.62-.94.93-.63.62-1.23,1.27-1.84,1.91s-1.2,1.3-1.79,2l-.89,1-.88,1c-.58.67-1.17,1.32-1.75,2l-1.74,2-3.45,4-6.88,8.09q-3.44,4-6.84,8.12l-.27.33-.39-.17L186,172l-.62-.27.37-.56,5-7.55,5-7.54.78.69-5.78,4.85-.27.23-.3-.17-.69-.4.54,0-4.79,3.46-.42.31-.26-.45-1.77-3.09-.22-.38.38-.23,1.19-.71.59-.36.57-.39c.38-.26.77-.51,1.14-.78l1.11-.83c.38-.27.73-.57,1.09-.86s.73-.57,1.07-.88l1-.91,1-.94c.34-.31.67-.64,1-1s.66-.65,1-1,.65-.66,1-1l.94-1c.61-.7,1.22-1.4,1.8-2.12s1.16-1.45,1.7-2.2l.19.38a4.37,4.37,0,0,0-1.1.17c-.37.1-.74.22-1.11.35-.74.26-1.47.56-2.19.88-1.44.64-2.86,1.33-4.27,2s-2.81,1.45-4.2,2.2-2.77,1.52-4.14,2.31l-.24.14v-.28L182,150.6l.22.16-2,.61-.25.08v-.26l.18-3.38v.06a.38.38,0,0,1,0-.15.41.41,0,0,1,0-.08.49.49,0,0,1,.07-.1l.14-.13.27-.2.55-.36c.37-.23.74-.44,1.11-.65.75-.42,1.5-.82,2.26-1.22,1.51-.79,3-1.56,4.56-2.32q4.58-2.28,9.21-4.47l0,.79h-.15l-.28,0-.61.11c-.41.09-.83.19-1.24.3-.83.22-1.66.47-2.49.73q-2.48.79-4.95,1.63l-4.93,1.72-4.91,1.76-.6.21v-.62l0-1.79v-.29l.26-.1c2.68-1,5.38-2,8.07-3,.67-.25,1.34-.5,2-.73l2-.71,4.07-1.41c.68-.24,1.37-.44,2-.66l2.05-.66,2-.66,2.07-.6,2.07-.6,2.08-.54,1-.27,1.06-.22a15.85,15.85,0,0,1,2.13-.33Z"/><path class="cls-25" d="M216.87,126.3l.18,0c.12,0,.3-.07.53-.1a8.22,8.22,0,0,1,.83-.07,9.1,9.1,0,0,1,2.37.22,8.3,8.3,0,0,1,1.4.44,7.66,7.66,0,0,1,1.42.76,7.39,7.39,0,0,1,1.29,1.11,6.58,6.58,0,0,1,1,1.42c.06.13.13.25.19.38l.14.39a5.46,5.46,0,0,1,.23.78,7,7,0,0,1,.17,1.49,5.21,5.21,0,0,1,0,.68,5.35,5.35,0,0,1-.07.63l-.11.56c0,.18-.09.34-.14.5a6.1,6.1,0,0,1-.28.78c-.09.21-.17.38-.22.49l-.08.17,0-.19c0-.12,0-.3,0-.53s0-.49-.07-.8-.07-.64-.11-1c0-.18-.06-.37-.09-.56a5.43,5.43,0,0,0-.12-.58,8.91,8.91,0,0,0-.36-1.19,7,7,0,0,0-.56-1.15,6.54,6.54,0,0,0-.77-1,5.79,5.79,0,0,0-.46-.47c-.16-.15-.33-.29-.5-.43a10.56,10.56,0,0,0-1.09-.74c-.37-.22-.75-.42-1.12-.6s-.74-.33-1.08-.47c-.68-.27-1.28-.48-1.71-.63Z"/><path class="cls-25" d="M229.36,94.52l.13.2c.08.13.2.32.34.57s.3.56.46.93.33.78.5,1.25.32,1,.45,1.53a16.08,16.08,0,0,1,.33,1.76,14.23,14.23,0,0,1,.13,1.93,13.7,13.7,0,0,1-.14,2c0,.34-.12.67-.19,1,0,.17-.09.33-.13.49s-.09.33-.15.49l-.17.48c-.06.16-.13.31-.2.46s-.13.3-.21.45l-.24.43a8.93,8.93,0,0,1-1.08,1.51,8.4,8.4,0,0,1-1.21,1.12l-.29.23-.3.19c-.2.12-.38.24-.56.33-.37.18-.68.33-1,.43s-.49.16-.64.21l-.22.07.17-.16c.12-.1.28-.25.49-.43s.44-.44.72-.69l.41-.45.22-.24.21-.27a6.52,6.52,0,0,0,.43-.56c.13-.21.29-.39.41-.62a10.84,10.84,0,0,0,.73-1.42l.16-.38c.05-.13.09-.27.14-.4s.17-.54.26-.82.13-.57.21-.85.11-.58.15-.88.09-.59.11-.89l0-.45,0-.45c0-.3,0-.59,0-.89s0-.59,0-.87c0-.57,0-1.13-.07-1.67s-.08-1-.12-1.51c-.09-.94-.19-1.73-.26-2.29Z"/><path class="cls-25" d="M241.54,80a4.15,4.15,0,0,1,.2.5,8.3,8.3,0,0,1,.33,1.37,9.12,9.12,0,0,1,.08,2A8.07,8.07,0,0,1,242,85a7.87,7.87,0,0,1-.33,1.15c-.07.19-.16.37-.24.56s-.18.36-.29.53a4.51,4.51,0,0,1-.33.5,4.16,4.16,0,0,1-.37.45A5.06,5.06,0,0,1,238,89.68c-.24,0-.44.09-.61.11-.34,0-.54,0-.54,0l.45-.28.49-.33L238,89l.15-.11.15-.13a6.43,6.43,0,0,0,.61-.59,6.58,6.58,0,0,0,.57-.72,7.25,7.25,0,0,0,.5-.84,8.56,8.56,0,0,0,.41-.93c.12-.32.23-.65.32-1,0-.17.08-.33.13-.5l.11-.5c.14-.66.24-1.28.32-1.83l.1-.75.07-.59Z"/><path class="cls-25" d="M259.12,68.38a4.1,4.1,0,0,1,.19.5,8.29,8.29,0,0,1,.31,1.37,9.14,9.14,0,0,1,0,2,8.11,8.11,0,0,1-.17,1.13,7.89,7.89,0,0,1-.35,1.15c-.07.19-.16.37-.25.56s-.19.36-.3.53a4.48,4.48,0,0,1-.34.49,4.24,4.24,0,0,1-.38.45A5.07,5.07,0,0,1,255.39,78c-.24,0-.44.08-.61.1-.34,0-.54,0-.54,0l.45-.27.49-.32.28-.21.15-.11.15-.13a6.41,6.41,0,0,0,.61-.58,6.59,6.59,0,0,0,.58-.71,7.19,7.19,0,0,0,.51-.83,8.52,8.52,0,0,0,.42-.93c.13-.32.24-.65.34-1,.05-.16.09-.33.14-.5l.12-.49c.15-.65.26-1.28.35-1.83l.12-.75.08-.59Z"/><path class="cls-25" d="M239.23,140.83l.21-.11c.14-.07.34-.18.6-.29a13.09,13.09,0,0,1,2.27-.75,11.84,11.84,0,0,1,3.43-.31,8.11,8.11,0,0,1,2,.37,6.19,6.19,0,0,1,2,1l.06,0,.06.06.09.08.19.18.21.21.19.21a5.69,5.69,0,0,1,.64.9,6.39,6.39,0,0,1,.74,2,8.94,8.94,0,0,1,.17,1.86,14.17,14.17,0,0,1-.11,1.61c-.12,1-.29,1.76-.41,2.32-.05.28-.11.5-.14.65l-.05.23-.05-.23c0-.15-.08-.37-.12-.65s-.1-.63-.15-1l-.15-1.3a16.11,16.11,0,0,0-.57-3.05,7.46,7.46,0,0,0-.29-.74,6.07,6.07,0,0,0-.39-.69,5.26,5.26,0,0,0-.49-.63l-.14-.15-.13-.13-.17-.15-.09-.08,0,0h0l0,0a5.18,5.18,0,0,0-1.38-.79,9,9,0,0,0-1.6-.44,18.8,18.8,0,0,0-3.12-.26c-.94,0-1.74,0-2.31,0Z"/></g></g></svg>