<svg xmlns="http://www.w3.org/2000/svg" viewBox="0 0 228.79 309.16"><defs><style>.cls-1{fill:#d6ebe6;}.cls-2{fill:#f0e2d3;}.cls-3{fill:#1a1818;}.cls-4{fill:#fdf5f9;}.cls-5{fill:#c1639e;}.cls-6{fill:#170d0c;}.cls-6,.cls-7,.cls-8{fill-rule:evenodd;}.cls-7{fill:none;stroke:#1a1818;stroke-miterlimit:10;stroke-width:3px;}.cls-8{fill:#203270;}</style></defs><title>malteadaVainilla</title><g id="Layer_2" data-name="Layer 2"><g id="Layer_3" data-name="Layer 3"><circle class="cls-1" cx="114.4" cy="125.62" r="114.4"/><path class="cls-2" d="M109.53,240.79c0-.15.06-.3.1-.45.72-2.66,21.76-26.57,21.76-26.57,22.24-28.34,20.13-102.52,20.13-102.52,1.43-4.28,4-26.58,4-26.58-11-3-102.8.89-110.93.45s-6.16.53-6.16.53S41,109,41.95,115.89s1.43,2.66.72,6.64c0,.28,1.63,31.11,4.3,53.59,2.87,24.13,38.74,64.07,38.74,64.07a4.11,4.11,0,0,1,.29.47C93.92,240.83,102.29,242.73,109.53,240.79Z"/><path d="M109.42,240.69a2.31,2.31,0,0,1,.08-.49,3.41,3.41,0,0,1,.24-.53c.18-.33.37-.65.57-1,.4-.62.82-1.23,1.25-1.83.85-1.2,1.75-2.37,2.65-3.53,1.8-2.32,3.64-4.62,5.48-6.9,3.67-4.57,7.52-9.08,11.24-13.52a62.12,62.12,0,0,0,8-15.29,130.52,130.52,0,0,0,5-16.71A249.34,249.34,0,0,0,149,146.31c1-11.64,1.5-23.36,1.47-35v-.2l.06-.18a58.64,58.64,0,0,0,1.41-6.39c.4-2.19.75-4.4,1.1-6.61.69-4.42,1.34-8.86,1.93-13.29l.43.63a44.49,44.49,0,0,0-7.18-.86c-2.44-.16-4.89-.24-7.34-.29q-7.35-.17-14.71-.08c-9.81.1-19.63.29-29.44.65L67.25,85.78c-4.91.21-9.81.36-14.73.51-2.47.06-4.9.15-7.42.13-1.3,0-2.45-.1-3.66-.1-.59,0-1.19,0-1.74,0a5.84,5.84,0,0,0-.73.09l-.07,0s0,0,.21-.13a1.22,1.22,0,0,0,.2-.21,1.24,1.24,0,0,0,.21-.47,1.21,1.21,0,0,0-.18-1c-.22-.27-.21-.22-.33-.29l.75,1.06,2.45,20.68c.43,3.43.84,6.91,1.35,10.28.13.83.28,1.67.47,2.4.05.17.1.35.15.48s0,.12.08.18a2.35,2.35,0,0,1,.24.64,2.17,2.17,0,0,1,0,.56l0,.3-.06.37-.12.64-.11.63a1.26,1.26,0,0,0,0,.14l0,0s0,0,0,.14l.07,1.29.16,2.59c.88,13.84,1.9,27.69,3.22,41.48l.54,5.17.29,2.57c.1.82.23,1.64.4,2.45a53.91,53.91,0,0,0,3,9.65,125,125,0,0,0,9.63,18.2,296.74,296.74,0,0,0,24.66,33.36l0,0h0l.33.56L86,240c4,.17,7.89.74,11.8,1.08a55.54,55.54,0,0,0,5.86.24q1.47,0,2.92-.18c.48-.06,1-.14,1.45-.2Zm.22.21c-.49.14-1,.29-1.51.41s-1,.2-1.46.28q-1.47.23-3,.33a55.35,55.35,0,0,1-5.94,0c-4-.18-7.88-.59-11.77-.6h-.35l-.22-.35-.25-.39,0,.06c-4.7-5.16-9.16-10.5-13.49-16s-8.44-11.11-12.25-17a127.45,127.45,0,0,1-10.17-18.42,54.62,54.62,0,0,1-3.37-10.15c-.19-.88-.34-1.78-.46-2.69l-.31-2.6-.58-5.19q-1.11-10.39-1.89-20.79c-.52-6.94-1-13.87-1.37-20.83l-.13-2.61-.06-1.32a4.83,4.83,0,0,1,0-1l.12-.65.12-.64,0-.27a.08.08,0,0,1,0,0,.88.88,0,0,0,0,.24c.11.35.05.15,0,0s-.13-.29-.17-.42-.16-.51-.23-.76a27.37,27.37,0,0,1-.51-2.71c-.49-3.51-.86-6.93-1.25-10.4L37.07,85.79l.74,1.06a1.79,1.79,0,0,1-.68-.58,1.46,1.46,0,0,1,0-1.74,1.45,1.45,0,0,1,.28-.29,1.92,1.92,0,0,1,.63-.33l.37-.1a8.28,8.28,0,0,1,1.1-.12c.67,0,1.31,0,1.94,0,1.24,0,2.54.11,3.7.17,2.39.06,4.86,0,7.31,0l14.72-.2,29.46-.36c9.82-.07,19.64-.24,29.46-.25,4.91,0,9.82,0,14.74.07,2.46,0,4.91.1,7.38.21a45,45,0,0,1,7.44.77l.48.11-.05.53c-.45,4.47-.91,8.93-1.43,13.39-.27,2.23-.54,4.46-.85,6.69a58.43,58.43,0,0,1-1.25,6.78l.06-.38c.19,5.91.19,11.79,0,17.68s-.49,11.77-1,17.64a239.71,239.71,0,0,1-5.42,34.95A120.58,120.58,0,0,1,141,198.43,63.87,63.87,0,0,1,132.27,214l-11.72,13.17c-1.94,2.2-3.87,4.41-5.76,6.65q-1.42,1.68-2.8,3.38c-.46.57-.91,1.15-1.34,1.73-.21.29-.42.59-.61.9a3.11,3.11,0,0,0-.24.46Z"/><path class="cls-3" d="M36.19,74.77a1.69,1.69,0,0,1,1.08-1.63,7,7,0,0,1,1.86-.57,19.35,19.35,0,0,1,3.82-.18c2.53.12,5.06.07,7.59.07,5.07,0,10.13-.13,15.2-.23l30.4-.63c10.13-.2,20.27-.35,30.41-.38,5.07,0,10.14,0,15.22.12q3.81.08,7.63.28c1.28.08,2.55.16,3.84.29a25.67,25.67,0,0,1,3.95.63l.93.23-.11,1q-1.09,9.45-2.28,18.88c-.4,3.15-.81,6.29-1.26,9.44l-.71,4.72c-.14.79-.25,1.57-.41,2.37l-.23,1.2-.31,1.26.06-.42c.09,7.45-.23,14.84-.71,22.24s-1.21,14.78-2.24,22.12a212.84,212.84,0,0,1-4.18,21.86,132.43,132.43,0,0,1-7,21.16,80.68,80.68,0,0,1-5.21,9.9c-.47.8-1.05,1.56-1.57,2.34l-.8,1.16-.89,1.08-3.51,4.28c-4.66,5.72-9.31,11.46-13.7,17.37-1.08,1.48-2.19,3-3.13,4.5a7.77,7.77,0,0,0-.58,1.09,10,10,0,0,0-.25,1.29,9.18,9.18,0,0,0,0,2.61c.13.81.42,1.74,1,1.91.79.3,1.74.59,2.6,1a11.8,11.8,0,0,1,4.53,3.5,13.23,13.23,0,0,1,2.33,5.21,6.83,6.83,0,0,1,0,2.94,6.56,6.56,0,0,1-1.31,2.64,13,13,0,0,1-4.6,3.36c-.85.41-1.72.76-2.59,1.09l-1.29.49-.62.25-.27.13c-.08,0-.14.1-.11.05l.08-.27,0,12.75-.41-.5q6.7,1.31,13.33,2.84c4.43,1,8.84,2.09,13.24,3.25s8.77,2.43,13.09,3.92c2.16.75,4.3,1.56,6.4,2.52a18.62,18.62,0,0,1,6,3.87l.18.19v.32l0,3.67v.6l-.56.18a190.42,190.42,0,0,1-30.24,6.57c-2.55.35-5.11.74-7.67,1l-3.85.39-1.92.2-1.93.13-7.72.5-7.73.23a254,254,0,0,1-30.91-1.29c-5.15-.4-10.24-1.25-15.35-2-2.56-.31-5.08-.89-7.62-1.36l-7.6-1.47-1.12-.22,0-1.18-.17-5.26,0-.92L37,295a114.38,114.38,0,0,1,11.52-5.23c3.9-1.54,7.87-2.94,11.89-4.13s8.08-2.29,12.2-3.1,8.27-1.47,12.45-2L83.63,282c.32-2.66.6-5.34.81-8,.11-1.34.19-2.67.24-4a26.66,26.66,0,0,0-.06-3.8,1.8,1.8,0,0,0-.06-.35l0-.15v-.07h0s0,0-.15-.15a7.06,7.06,0,0,0-1.45-.69,17,17,0,0,1-4-1.93,7.15,7.15,0,0,1-2.83-4.17A11.66,11.66,0,0,1,76,254l0,.17a7.51,7.51,0,0,1,.34-1.7A8.22,8.22,0,0,1,77,251a7.22,7.22,0,0,1,2.3-2.49,8.36,8.36,0,0,1,3.08-1.19,15.66,15.66,0,0,1,1.57-.16l1.52,0-1.61,1.15a18.67,18.67,0,0,0,.34-2,15.86,15.86,0,0,0,.13-2,6.62,6.62,0,0,0-.73-3.4l.1.13c-4.7-5.77-9.14-11.67-13.37-17.76s-8.25-12.3-12-18.72a135.51,135.51,0,0,1-9.74-20,62.46,62.46,0,0,1-3-10.81c-.15-.93-.26-1.87-.38-2.81L45,168.14l-.48-5.52c-1.21-14.71-2.06-29.44-2.72-44.17l-.13-2.76-.06-1.38c0-.46-.06-.92,0-1.45l.24-1.36a5.11,5.11,0,0,0,.09-.62c0-.06-.12-.32-.2-.55a16.89,16.89,0,0,1-.59-2.75L39.45,96.63Zm.29-.06,3.46,21.85,1.71,10.92a16.36,16.36,0,0,0,.59,2.64,2.47,2.47,0,0,1,.24.75,5,5,0,0,1-.09.74L42.16,113c0,.39,0,.85,0,1.31l.07,1.38.16,2.76c1,14.71,2.13,29.41,3.68,44.05l.61,5.49L47,170.7c.14.89.27,1.78.43,2.66a60.47,60.47,0,0,0,3.18,10.38,145.63,145.63,0,0,0,9.92,19.52A319.45,319.45,0,0,0,86,239.1l.06.08,0,0a7.52,7.52,0,0,1,1,2.58,12.39,12.39,0,0,1,.24,2.49,18.83,18.83,0,0,1-.14,2.39,21.25,21.25,0,0,1-.41,2.36l-.28,1.19-1.33,0-1.18,0c-.37,0-.76,0-1.12.12A5.35,5.35,0,0,0,81,251a4.14,4.14,0,0,0-1.32,1.44,5.11,5.11,0,0,0-.41.95,4.93,4.93,0,0,0-.2.94v.17a8.7,8.7,0,0,0,0,3.41,4,4,0,0,0,1.64,2.4A14.38,14.38,0,0,0,84,261.87,9.46,9.46,0,0,1,86.23,263a3.51,3.51,0,0,1,1.14,1.39l.1.24c0,.07,0,.12,0,.18l.08.34a4.24,4.24,0,0,1,.12.65,29,29,0,0,1,.1,4.32c-.05,1.39-.13,2.76-.24,4.12-.21,2.73-.48,5.43-.8,8.16l-.14,1.22-1.25.16c-4.07.52-8.14,1.1-12.15,2s-8,1.82-12,3-7.84,2.49-11.67,4a112.08,112.08,0,0,0-11.19,5l.77-1.35.14,5.26-1.15-1.4,7.51,1.5c2.51.48,5,1.07,7.53,1.39,5.05.74,10.09,1.62,15.18,2,2.54.24,5.08.57,7.62.75l7.65.46c2.55.2,5.1.2,7.66.26s5.11.17,7.66.07a256.58,256.58,0,0,0,30.58-2,188.71,188.71,0,0,0,30-6l-.56.78,0-3.67.18.51a17.51,17.51,0,0,0-5.37-3.53c-2-1-4.11-1.78-6.23-2.55-4.24-1.54-8.58-2.85-12.93-4.07s-8.75-2.34-13.17-3.37-8.84-2-13.28-2.9l-.41-.08v-.42l0-12.75v-.17l.08-.1a1.33,1.33,0,0,1,.44-.36l.35-.17.67-.27,1.3-.48c.86-.32,1.7-.66,2.52-1a12.07,12.07,0,0,0,4.29-3.09c2.37-2.76.91-6.9-1.08-9.64a10.79,10.79,0,0,0-4.17-3.17c-.82-.37-1.65-.61-2.59-1a1.83,1.83,0,0,1-.75-.52,2.92,2.92,0,0,1-.44-.71,5.68,5.68,0,0,1-.42-1.46,10.21,10.21,0,0,1,0-2.91,11,11,0,0,1,.27-1.42,7.7,7.7,0,0,1,.69-1.37c1-1.62,2.08-3.1,3.16-4.61,2.18-3,4.44-5.92,6.7-8.84l6.81-8.74,3.44-4.34.85-1.07.75-1.13c.49-.76,1-1.49,1.48-2.28a79.22,79.22,0,0,0,4.93-9.77,130.88,130.88,0,0,0,6.54-21c.85-3.57,1.52-7.18,2.17-10.8s1.16-7.25,1.64-10.9a329.82,329.82,0,0,0,2.74-44v-.18l.06-.24.26-1,.23-1.13c.16-.75.28-1.54.42-2.3l.75-4.67c.48-3.12.92-6.25,1.35-9.39q1.29-9.4,2.46-18.83l.81,1.23a27.45,27.45,0,0,0-3.54-.61c-1.23-.16-2.49-.26-3.74-.37q-3.76-.28-7.55-.44c-5-.22-10.11-.36-15.17-.46-10.13-.2-20.26-.25-30.39-.27s-20.27,0-30.4.1l-15.2.12c-2.53,0-5.07,0-7.61-.09a19.09,19.09,0,0,0-3.76.16,6.67,6.67,0,0,0-1.77.53C36.88,73.67,36.39,74.17,36.48,74.71Z"/><path class="cls-4" d="M147.7.75S152.64-1,156,2.66l-29.5,90.08-7.65-3.51Z"/><path class="cls-3" d="M147.59.64a.28.28,0,0,1,.09-.05h0l.07,0,.14,0,.27-.09.55-.15a10,10,0,0,1,1.14-.2,8.41,8.41,0,0,1,2.33,0,7.52,7.52,0,0,1,4.21,2.15l.23.23-.1.36c-2.1,7.62-4.39,15.18-6.73,22.73S145,40.63,142.3,48s-5.5,14.82-8,22.32-4.79,15.05-7,22.64l-.26.88-.9-.38-7.76-3.26-.89-.37.3-1,3.4-11.21,3.51-11.19c2.34-7.47,4.71-14.93,7.24-22.31s5.07-14.72,7.66-22l4-10.84C144.89,7.75,146.22,4.16,147.59.64Zm.21.21c-1,3.85-2.11,7.64-3.17,11.43l-3.26,11.28c-2.22,7.46-4.44,14.89-6.77,22.24s-4.71,14.65-7.19,21.94l-3.7,10.93L119.9,89.57l-.59-1.35L126.85,92l-1.15.5c2.69-7.43,5.34-14.87,7.73-22.4s4.52-15.14,6.76-22.72,4.69-15.09,7.22-22.57,5.2-14.92,8-22.31l.13.59A6.52,6.52,0,0,0,152.06.88a8.93,8.93,0,0,0-2.14-.25,9.59,9.59,0,0,0-1.09.06l-.54.08L148,.82l-.13,0-.07,0h0S147.76.9,147.8.85Z"/><polygon class="cls-5" points="146.44 5.04 153.61 0.82 147.71 0.72 146.44 5.04"/><path class="cls-3" d="M146.48,5c1.39-1,2.49-1.82,3.58-2.52a14.05,14.05,0,0,1,1.7-.83,11.31,11.31,0,0,0,1.76-1l.09.33c-1,.05-2,.2-3,.22s-2,.07-3,0l.51-.38a15.53,15.53,0,0,1-.77,1.9C147.12,3.43,146.79,4.16,146.48,5Zm-.06.08c.11-.6.19-1.3.29-2.08A20.63,20.63,0,0,1,147.2.57l.1-.37h.41c1,0,2,.07,3,.13s2,.24,2.95.32l.62.05L153.7,1a12.64,12.64,0,0,0-1.82,1.13A20.07,20.07,0,0,1,150,3.38C148.7,4.08,147.41,4.64,146.41,5.08Z"/><path class="cls-5" d="M140.89,20.72l11.27-8.36L147.87,27s-9.68,5.39-11.4,8.14Z"/><path class="cls-3" d="M140.77,20.63a45.8,45.8,0,0,1,4.94-4.89,57.72,57.72,0,0,1,5.68-4.42l3.31-2.19-1.3,3.59c-.87,2.4-2.07,4.69-2.91,7.1a46.25,46.25,0,0,0-1.83,7.41l0,.23-.35.26-2.82,2.08-2.82,2c-.92.69-1.83,1.38-2.7,2.09-.42.36-.83.73-1.21,1.08a8.26,8.26,0,0,0-.9,1L132,43.67l2.88-9c.79-2.48,1.71-4.91,2.67-7.27.48-1.18,1-2.34,1.51-3.48S140.18,21.68,140.77,20.63Zm.25.17c-.15,1.35-.34,2.65-.56,3.92s-.44,2.52-.7,3.74c-.51,2.45-1.07,4.82-1.75,7.15l-2.9-1.32a8.5,8.5,0,0,1,1.45-1.63A17.59,17.59,0,0,1,138,31.47c1-.72,2-1.36,3-2s2.06-1.2,3.13-1.73,2.16-1,3.26-1.48l-.39.49a46.23,46.23,0,0,0,2.46-7.23c.59-2.48.82-5.06,1.38-7.54l2,1.4a52.4,52.4,0,0,1-5.59,3.94A57.78,57.78,0,0,1,141,20.8Z"/><path class="cls-5" d="M142.44,41.61s-11.16,8.14-11.31,8.66l-3.73,12.8s10-7.31,10.81-7.06Z"/><path class="cls-3" d="M142.36,41.74c0,.13.14.09,0,.17l-.14.17-.29.33-.59.65c-.41.42-.81.84-1.23,1.24-.83.82-1.68,1.59-2.55,2.34s-1.74,1.5-2.63,2.21-1.83,1.43-2.65,2l-.15.11a.5.5,0,0,0,.14-.32v0l0,0,0,.1-.08.2-.34.8-.71,1.59c-.48,1.06-.91,2.13-1.3,3.21a41.43,41.43,0,0,0-1.63,6.71l-1.24-.87c.81-.74,1.6-1.48,2.43-2.19s1.68-1.39,2.54-2,1.74-1.32,2.65-1.95c.45-.32.91-.63,1.4-.94.25-.15.5-.3.78-.45s.29-.15.49-.24a2.86,2.86,0,0,1,.38-.13l.28-.06a2.08,2.08,0,0,1,.83.06l-2,1.08a43.21,43.21,0,0,1,2.49-6.34c.5-1.1,1.05-2.25,1.59-3.5S141.84,43.16,142.36,41.74Zm.17-.25c-.18,1-.35,2.05-.51,3.22s-.32,2.4-.52,3.7a59.28,59.28,0,0,1-1.73,8.06l-2,1.09a1.21,1.21,0,0,0,.63.05h.08c.09,0,0,0,0,0l-.24.11-.63.34c-.44.24-.9.5-1.35.77l-2.74,1.66c-.91.56-1.83,1.13-2.77,1.67l-2.83,1.58-2.11,1.18.87-2.05a41.43,41.43,0,0,0,2.23-6.53c.25-1.12.46-2.26.62-3.41l.26-1.72.15-.86,0-.21,0-.11v-.08l0-.09a2.28,2.28,0,0,1,.42-.65l.18-.18a20.66,20.66,0,0,1,2.73-2.29c.93-.69,1.9-1.32,2.87-2s2-1.22,3-1.77c.5-.29,1-.54,1.55-.8l.8-.37.41-.18.21-.08S142.44,41.44,142.53,41.49Z"/><polygon class="cls-5" points="122.97 77.18 133.97 69.4 129.51 84.63 118.84 91.35 122.97 77.18"/><path class="cls-3" d="M122.85,77.09a42.92,42.92,0,0,1,4.82-4.61,55.49,55.49,0,0,1,5.55-4.14l3.22-2-1.22,3.46c-.44,1.25-1,2.46-1.53,3.68s-1.05,2.45-1.49,3.7A39.59,39.59,0,0,0,131.14,81c-.29,1.29-.51,2.6-.74,3.92l0,.24-.36.29c-.82.67-1.65,1.32-2.5,2s-1.71,1.23-2.57,1.83c-1.73,1.2-3.45,2.41-5.24,3.52l-3.62,2.23,1.21-4c.73-2.44,1.61-4.84,2.52-7.16.45-1.17.94-2.31,1.44-3.42S122.28,78.12,122.85,77.09Zm.24.17c-.12,1.34-.29,2.61-.48,3.86s-.39,2.47-.62,3.67c-.46,2.4-1,4.73-1.61,7L118,90c1.77-1.14,3.6-2.17,5.43-3.21q1.37-.78,2.76-1.54c.93-.49,1.88-1,2.84-1.41l-.4.53c.52-1.23,1-2.45,1.49-3.7a39.41,39.41,0,0,0,1.17-3.79c.31-1.29.55-2.59.74-3.91s.4-2.64.7-3.93l2,1.43a50,50,0,0,1-5.45,3.63A55.75,55.75,0,0,1,123.09,77.26Z"/><path class="cls-3" d="M84.91,239.92A10.91,10.91,0,0,1,88,239.3a9.61,9.61,0,0,1,2.95.17,22.58,22.58,0,0,0,2.93.92,7.23,7.23,0,0,0,3-.28c.5-.12,1-.3,1.48-.39s1-.16,1.47-.24a23.09,23.09,0,0,1,2.94-.31,20.81,20.81,0,0,1,3,.2,14.12,14.12,0,0,1,3.07.71l0,.3a14,14,0,0,1-5.9,2,15.62,15.62,0,0,1-3-.05,13.09,13.09,0,0,1-3-.56,8.8,8.8,0,0,0-3-.4c-1,.05-2,.49-3.06.61a9.17,9.17,0,0,1-5.9-1.75Z"/><path class="cls-3" d="M85.44,279.74a2.51,2.51,0,0,1,1-1.13,1.35,1.35,0,0,1,1.16-.16c.4.18.79.65,1.17.73a1.37,1.37,0,0,0,1.14-.35,2.79,2.79,0,0,1,1.16-.57,2.7,2.7,0,0,1,1.17-.14,3.37,3.37,0,0,1,2.18,1.61l0,.3a4.19,4.19,0,0,1-1.19.94,2.93,2.93,0,0,1-1.12.35A2.73,2.73,0,0,1,91,281.1a3,3,0,0,1-1.09-.62,1.24,1.24,0,0,0-1.11-.33c-.37.1-.72.59-1.08.8a1.26,1.26,0,0,1-1.09,0,3,3,0,0,1-1.19-.9Z"/><path class="cls-3" d="M108.32,279.44a2.45,2.45,0,0,1-.88,1.06.91.91,0,0,1-.92.13c-.32-.18-.65-.65-1-.72s-.62.09-.91.38a2.25,2.25,0,0,1-.9.64,1.89,1.89,0,0,1-.92.23,2.14,2.14,0,0,1-.95-.37,3.59,3.59,0,0,1-1-1v-.3a3.56,3.56,0,0,1,.88-1.08,2.13,2.13,0,0,1,.91-.47,1.89,1.89,0,0,1,.94.14,2.27,2.27,0,0,1,1,.55,1,1,0,0,0,.94.29c.3-.11.59-.6.89-.81a.91.91,0,0,1,.93,0,2.46,2.46,0,0,1,1,1Z"/><path class="cls-2" d="M155.37,85.75c3.49-1.92-33.24,21.35-117-.11"/><path d="M155.3,85.62l.21-.14c-.12-.28.27.34.19.3l0,0-.05,0-.1.07-.4.27c-.27.17-.53.34-.81.5-.55.32-1.1.63-1.66.91-1.12.57-2.27,1.11-3.43,1.59a65.94,65.94,0,0,1-7.12,2.51,81.14,81.14,0,0,1-14.78,2.91c-5,.48-10,.4-15,.51l-15,.36a139.69,139.69,0,0,1-15-.43c-5-.38-10-.94-14.92-1.75a169.62,169.62,0,0,1-29-7.53l.07-.29c9.88,1.53,19.64,3.25,29.44,4.66,4.89.74,9.79,1.47,14.7,2.09s9.84,1.14,14.78,1.61a97.31,97.31,0,0,0,14.88.31,131.87,131.87,0,0,0,14.73-2c4.87-.82,9.72-1.62,14.54-2.68q3.61-.8,7.18-1.76c1.19-.34,2.38-.67,3.55-1,.59-.19,1.18-.37,1.76-.58l.87-.31.43-.17.1,0,0,0h0c0-.05.31.57.17.3l-.2.08Z"/><path class="cls-3" d="M38.45,74.94l14.42,1.53,3.6.37c1.2.15,2.39.28,3.59.39,2.4.21,4.78.55,7.18.82,4.78.64,9.56,1.42,14.39,1.75,2.41.12,4.83.2,7.24.22s4.83-.15,7.24-.25c1.21-.07,2.41-.11,3.62-.2s2.41-.19,3.61-.27c2.41-.19,4.81-.24,7.21-.45,4.8-.41,9.6-.73,14.39-1.23,2.4-.2,4.8-.34,7.2-.6s4.79-.48,7.2-.69,4.8-.49,7.2-.74,4.82-.48,7.25-.65l.06.29a161.53,161.53,0,0,1-28.6,5.56l-3.63.35-1.82.16-1.82.08-7.29.28c-2.43.1-4.86,0-7.29,0s-4.86-.12-7.28-.29-4.85-.26-7.27-.37-4.84-.23-7.26-.27c-4.84-.16-9.71,0-14.57-.24a123.21,123.21,0,0,1-14.47-1.76,97.69,97.69,0,0,1-14.16-3.54Z"/><path class="cls-6" d="M45.77,153.6c-1.43-6.94,6.7-18.42,8.61-7.17,1,4.54-.24,9.09.48,13.39.72,4.78,1.67,9.57,2.63,14.35a76.18,76.18,0,0,0,7.17,20.33c3.59,6.7,5.34,17.38,12.28,21.21,10,5.26,5.18-15,4.7-20.25-.72-7.89,2.87-16,2.39-23.91-.48-6.7-2.13-26.42-2.85-32.88-.24-3.59-.72-7.78,1.44-10.65,2.15-2.63,4.78-6.94,7.89-4.54,3.59,2.63,2.87,13.87,2.87,17.94,0,5.26-.74,26.07-.74,31.33,0,11-1.67,22.48,1.67,33,1.2,3.59,4.78,6.7,9.09,6,5-.72,4.78-7.41,5.5-11.48.48-4.54,0-11.72,2.15-15.78,3.35-6,5.74,1.67,5.26,5.5-.24,5-9.09,25.35,2.63,19.61,10.52-5,12.92-20.09,15.31-30.37,2.63-11.72,2.87-23.91,4.3-35.87.48-3.59.72-8.37,5.5-9.33,3.83-.72,5,3.11,5.74,6.46,1.44,7.41-4.3,11.48-6,17.94-2.39,8.37-2.63,17.94-4.07,26.55-1.43,9.57-4.78,16.74-8.85,25.35-3.59,7.65-10.63,15.91-16.37,21.89-4.78,4.78-7,8.3-16.9,8.84-5.34.29-11.54-3-15.68-6.81-6-5.52-10.81-13.71-15.15-20.81-5-8.23-12-16.26-14.83-25.83-2.15-7.89-2-14.35-3.4-22.48-.48-3.83-1.27-10.63-2.94-14.22"/><path class="cls-3" d="M41.87,109.92a6.33,6.33,0,0,1,3.94.43,7.32,7.32,0,0,1,1.73,1.09A9.63,9.63,0,0,1,49,112.91l.11.14v.28c.28,5.74.47,11.48.63,17.21S50,142,49.9,147.75a134.54,134.54,0,0,0,.68,17.19,58.79,58.79,0,0,0,1.5,8.42c.17.69.39,1.35.62,2s.5,1.24.83,1.91l1.9,3.87c2.57,5.13,5.1,10.26,7.83,15.28s5.59,10,8.51,14.86,6,9.69,9.24,14.42,6.61,9.34,10.05,14l-.22.2a135.25,135.25,0,0,1-11.67-12.8,163.27,163.27,0,0,1-10.07-14.13,166.62,166.62,0,0,1-8.44-15.16c-2.57-5.18-5-10.45-7-15.83l-1.55-4a22.07,22.07,0,0,1-.72-2.11c-.18-.72-.37-1.43-.49-2.15-.55-2.87-.88-5.73-1.19-8.6l-1.77-17.2a161.76,161.76,0,0,1-.78-17.26c0-5.76.14-11.51.53-17.27l.13.42a8.82,8.82,0,0,0-1.05-1.42,6.84,6.84,0,0,0-1.35-1.13,6,6,0,0,0-1.64-.73,5.48,5.48,0,0,0-1.81-.24Z"/><path class="cls-3" d="M48.29,113.19a22.13,22.13,0,0,1,3.49-2.07,31.7,31.7,0,0,1,3.77-1.58,26.67,26.67,0,0,1,8.13-1.39,21.33,21.33,0,0,1,8.25,1.49,24.11,24.11,0,0,1,7.16,4.43l.46.38,0,.66C79.29,125,78.31,135,78.68,145s1.49,19.89,2.44,29.78c.48,4.95,1.09,9.88,1.76,14.8.32,2.46.67,4.91,1,7.36s.75,4.89,1.16,7.33q1.21,7.33,3.11,14.48c.29,1.21.68,2.37,1,3.55s.8,2.33,1.23,3.49.93,2.28,1.42,3.42a14.89,14.89,0,0,0,.84,1.65l.88,1.64-.24.18a37,37,0,0,1-4.11-6.34c-.56-1.13-1.14-2.26-1.6-3.44s-1-2.33-1.4-3.52a104.49,104.49,0,0,1-4.1-14.54c-1-4.92-1.85-9.88-2.44-14.86s-1-10-1.31-15c-.68-10-.4-20-.64-30s-1.17-20-.92-30l.44,1A23.83,23.83,0,0,0,71,112l-.86-.39c-.29-.11-.6-.19-.9-.28-.6-.17-1.2-.4-1.81-.53l-1.87-.34c-.62-.11-1.26-.11-1.9-.18a28.76,28.76,0,0,0-7.69.64,34.45,34.45,0,0,0-7.48,2.5Z"/><path class="cls-3" d="M102.93,232.49a42,42,0,0,0,2.73-6.81l.57-1.74.5-1.77c.33-1.18.69-2.34,1-3.54l.88-3.56.77-3.59c.54-2.39,1-4.81,1.39-7.22,1.57-9.67,3.49-19.35,4.41-29.18.25-2.45.33-4.92.44-7.38.06-1.23.1-2.46.13-3.7s.1-2.46.05-3.7c-.08-4.94-.14-9.87-.31-14.79l-.25-7.39c-.08-2.46-.07-4.93-.22-7.39l-.36-7.38-.27-7.38.41,1a15.6,15.6,0,0,0-1.67-1.5,22.9,22.9,0,0,0-1.93-1.37,22.63,22.63,0,0,0-2.09-1.15l-1.08-.52c-.36-.16-.74-.29-1.11-.44a27.59,27.59,0,0,0-9.46-1.76l-2.45.09c-.82,0-1.63.19-2.45.28a35.53,35.53,0,0,0-4.86,1,24.41,24.41,0,0,0-2.38.77l-2.39.81c-1.54.68-3.07,1.38-4.64,2l-.15-.26q2.16-1.36,4.38-2.67c1.55-.72,3.07-1.56,4.7-2.15a37.3,37.3,0,0,1,5-1.52c.86-.17,1.7-.44,2.57-.53l2.63-.27a28.26,28.26,0,0,1,10.52,1.38c.42.15.85.28,1.27.44l1.23.55a25.65,25.65,0,0,1,2.39,1.25,26,26,0,0,1,2.25,1.52q.55.4,1.07.86a11.81,11.81,0,0,1,1.06,1l.39.41,0,.58.23,7.42.14,7.42c.07,5,0,9.9-.14,14.85,0,2.47-.24,4.95-.36,7.42l-.42,7.41c-.16,2.47-.37,4.93-.5,7.4-.06,1.23-.15,2.47-.2,3.7s-.1,2.47-.2,3.7c-.15,2.47-.28,4.94-.35,7.42s-.32,4.94-.48,7.42l-.27,3.71c-.13,1.23-.31,2.46-.46,3.7-.36,2.46-.66,4.93-1.21,7.36s-.94,4.88-1.63,7.28l-1,3.61-1.14,3.56c-.36,1.19-.81,2.36-1.27,3.52l-.68,1.74c-.25.58-.51,1.14-.77,1.71s-.52,1.13-.8,1.69l-.88,1.66a22,22,0,0,1-2,3.15Z"/><path class="cls-3" d="M115.89,115.74q1.74-1.14,3.53-2.23a17.9,17.9,0,0,1,1.83-1l1.87-1,.95-.47,1-.38,2-.77a15.44,15.44,0,0,1,2.05-.6c.7-.16,1.38-.4,2.1-.5a16.55,16.55,0,0,1,8.81.61,5.38,5.38,0,0,1,1,.49c.34.19.69.37,1,.56a12.92,12.92,0,0,1,1.8,1.49,10.58,10.58,0,0,1,1.49,1.81,9.06,9.06,0,0,1,1.08,2.2l0,.1v.12c1.07,10.71-.11,21.3-.86,31.84-.21,2.64-.46,5.27-.72,7.91l-.4,4-.5,4a134.91,134.91,0,0,1-3,15.67,133.37,133.37,0,0,1-5,15.22,97.26,97.26,0,0,1-7.2,14.34,83.15,83.15,0,0,1-21.35,23.61l-.19-.23c1.78-2,3.75-3.71,5.4-5.76.86-1,1.77-1.94,2.58-3l2.42-3.09c.41-.51.8-1,1.17-1.58l1.13-1.6c.76-1.06,1.53-2.11,2.21-3.23l2.11-3.29,1.94-3.39c.68-1.11,1.26-2.28,1.86-3.43s1.23-2.29,1.75-3.49,1.12-2.35,1.68-3.53l1.54-3.59a134.09,134.09,0,0,0,5.31-14.73c2.93-10,5.48-20.32,6.34-30.84s0-21.12-.9-31.45l0,.22a8.73,8.73,0,0,0-.76-1.51,7.92,7.92,0,0,0-1.11-1.41,10.27,10.27,0,0,0-1.36-1.18l-.79-.45a3.69,3.69,0,0,0-.82-.4,15,15,0,0,0-7.52-.86c-.66,0-1.31.22-2,.33a15.76,15.76,0,0,0-2,.42l-2,.55-1,.28-1,.37-1.93.7a17.66,17.66,0,0,0-1.91.77Q118,115.19,116,116Z"/><path class="cls-7" d="M145.15,116.35s1.54-4.79,6.39-3.83"/><path class="cls-8" d="M74.64,46.78c-.65,0,6.09-.59,5.45-.54-1.17.1-2.35.25-3.52.37-.23,0-.46,0-.69,0a8.25,8.25,0,0,1-1.69.14,1.71,1.71,0,0,0-.55.06A4.4,4.4,0,0,1,72.4,47c-.79,0-1.57.06-2.35.12a.67.67,0,0,1-.62-.21c-.05-.25-.26-.38-.44-.51a.75.75,0,0,0-1.27.59,1.36,1.36,0,0,1-.76.27.76.76,0,0,0-.59.19c.36.05.55.31.82.42s.18.22.16.38c-.59,0-1.22-.15-1.83.22a1.4,1.4,0,0,0,.57.14,4,4,0,0,0,1.6.08,1.6,1.6,0,0,1,.4,1.13.12.12,0,0,0,0,0,.61.61,0,0,0,0,.57,1.67,1.67,0,0,0,.19,1,.74.74,0,0,0,0,.49q.13,1.49.27,3a4.8,4.8,0,0,0,.27,1.3,1.41,1.41,0,0,1,0,.91,4.35,4.35,0,0,0-.08.5,4,4,0,0,0,.12,1.14c.17,2.19.4,4.37.49,6.57,0,.26,1.22,22.25,1.16,22.5-1.29.08-2.54.45-3.83.58a.13.13,0,0,0-.2-.07,1.13,1.13,0,0,0-.71.1,5.38,5.38,0,0,1-.23-.89c-.13-1.31-1.47-24.36-1.65-25.66-.08-.52,0-1.06-.08-1.56-.18-1-.22-1.92-.31-2.88a2.18,2.18,0,0,1,0-.69,1.78,1.78,0,0,0-.07-.81,5.73,5.73,0,0,1-.27-2.09,11.44,11.44,0,0,0,0-1.84.9.9,0,0,0-.18-.61l0-.29c.12-.08.16-.17,0-.27a1.74,1.74,0,0,0-.1-.68l0,0,0,0c.14-.15.1-.28,0-.41s0-.08,0-.12a2.23,2.23,0,0,0,0-.55,10,10,0,0,1-.1-1c0-.32,0-.49-.32-.6,0-.23-.05-.45-.33-.47a.77.77,0,0,0-.69.76l-1.28.12c-1.21.08-2.42.22-3.63.24-.89,0-1.77.17-2.66.13a5.37,5.37,0,0,0-.83.06c-.11,0-.23,0-.21.19s.12.18.23.18l.6,0a1.14,1.14,0,0,1,.46,0c.3.11.35.26.15.51s-.34.32-.36.57l0,0a.26.26,0,0,0-.27.27l-.33.17c-.11,0-.25.07-.26.22s.13.19.24.23a.78.78,0,0,1,.44.55c.07.23,0,.3-.22.34s-.39-.06-.42.17.23.2.37.26a3,3,0,0,0,.48.16c.77.2.91.39.84,1.14a1,1,0,0,0-.3.34,1.09,1.09,0,0,1-1,.45,2.3,2.3,0,0,1-.85-.18.59.59,0,0,0-.66,0,.61.61,0,0,0-.13.72c0,.12,0,.25.09.36a1.76,1.76,0,0,1-.77,2.12,3.59,3.59,0,0,0-.63.53.78.78,0,0,1-.83.25l-.18,0c-.49-.1-.58,0-.49.48a9.07,9.07,0,0,1,.12,1.33.63.63,0,0,1-.27.55c-.33.27-.54.66-.89.92a1.22,1.22,0,0,0-.23.22,2.08,2.08,0,0,1-2,.61,1.72,1.72,0,0,1-1.14-.78,2,2,0,0,1-.33-.66l-.82-2.25a1.85,1.85,0,0,0-.39-.67,2.24,2.24,0,0,1-.55-1.25c-.08-.52.1-.73.64-.75.27,0,.36-.1.36-.35a.46.46,0,0,0,0-.18,2.53,2.53,0,0,1,0-1.7c.11-.46.2-.93.32-1.39a9.51,9.51,0,0,1,.37-1.08c.1-.26,0-.56.23-.78s0-.06,0-.09c-.3-.55-.12-.89.48-1.09s1-.36,1.55-.5c-.43-.23-.44-.28-.2-.63a6.93,6.93,0,0,1,2.6-2.28,10.48,10.48,0,0,0,1.13-.72c.82-.57,1.68-1.08,2.46-1.71a6.58,6.58,0,0,0,1.31-1.23c.13-.19.29-.38.05-.61,0-.32-.1-.41-.34-.41A1,1,0,0,0,53,41a28.24,28.24,0,0,1-2.67,1.36,2,2,0,0,1-1,.23.53.53,0,0,1-.46-.82,2.62,2.62,0,0,1,.8-1,3.93,3.93,0,0,0,1.07-1.25c.08-.14.09-.27-.08-.34a1.82,1.82,0,0,1-.68-.54.36.36,0,0,0-.53-.06l-.16.09a1.12,1.12,0,0,1-1.52-.28c-.15-.17-.29-.36-.45-.53s-.35-.21-.45.1a1.91,1.91,0,0,0-.06.27c-.05.32-.09.64-.16,1a1.41,1.41,0,0,1-1.41,1.22,4,4,0,0,1-.83-.07,1.39,1.39,0,0,1-.92-.63,1.45,1.45,0,0,1-.22-.79,3.54,3.54,0,0,0-.2-1c-.06-.16-.19-.17-.27,0a6.3,6.3,0,0,0-.3.62c-.17.37-.3.75-.49,1.1a2.73,2.73,0,0,1-.65,1,2.41,2.41,0,0,1-1.54.51,1.36,1.36,0,0,1-1.21-.7,1.58,1.58,0,0,1-.16-.76c0-.07,0-.16-.1-.19s-.11,0-.16.08a1.94,1.94,0,0,0-.16.17,2,2,0,0,1-2.38.69,1.31,1.31,0,0,1-1-1.51c0-.12,0-.24.05-.36s-.07-.2-.21-.14l-.34.15a2.11,2.11,0,0,1-1.53.1,5.35,5.35,0,0,1-.63-.27h0a1.33,1.33,0,0,0-.33-.56l0-.12a10.87,10.87,0,0,1,.19-1.19l.17-.22a.67.67,0,0,0,.87-.46,12.82,12.82,0,0,1,1-1.86,9.48,9.48,0,0,1,.8-1.21.64.64,0,0,1,.34-.23A7.76,7.76,0,0,0,36.5,32c.42-.19.89-.31,1.33-.48a11.28,11.28,0,0,0,2.28-1,.29.29,0,0,1,.17,0,5.66,5.66,0,0,0,1.38-.23c.21,0,.45,0,.62-.14a1.24,1.24,0,0,1,1.22-.12c.46.12.91.29,1.36.41.82.21,1.66.29,2.47.53a6.91,6.91,0,0,0,1.2.33c.58.07,1.11.33,1.7.4a3.57,3.57,0,0,1,.86.12,6.88,6.88,0,0,0,1,.24c.47.12.94.27,1.4.43a1,1,0,0,0,.53.09.9.9,0,0,1,.58,0c.33.24.51,0,.7-.15s.21-.39,0-.58a5.23,5.23,0,0,1-.46-.44,1.91,1.91,0,0,0-1.08-.73,3.16,3.16,0,0,0-.92-.24.23.23,0,0,0-.25-.08,5.56,5.56,0,0,0-1-.26c-.06-.11-.18-.1-.28-.14a5.7,5.7,0,0,1-.67-.31.69.69,0,0,1-.21-1,1.43,1.43,0,0,1,.53-.44,5.68,5.68,0,0,1,1-.5,3.43,3.43,0,0,1,3,.35,6.63,6.63,0,0,0,.6.34.38.38,0,0,0,.43,0,1.83,1.83,0,0,0,.05.36.29.29,0,0,0,.35.22.28.28,0,0,0,.23-.3c0-.66.18-1.31.23-2,.07-1,.14-2,.29-2.93a3.59,3.59,0,0,1,1.38-2.65.83.83,0,0,0,.13-.13,10.29,10.29,0,0,0,1-1.41,17.14,17.14,0,0,0,1-1.91.77.77,0,0,1,.65-.52.42.42,0,0,0,.3-.19.4.4,0,0,1,.31-.18c.36,0,.62-.3,1-.27,0,0,.07-.05.11-.08a3,3,0,0,0,1.57-.23.24.24,0,0,0,.21.15,1.55,1.55,0,0,0,.68-.08,1.59,1.59,0,0,1,1.24.17c.07,0,.15.07.16.15,0,.41.41.67.45,1.08a1.32,1.32,0,0,0-.25.51.36.36,0,0,0-.21.16c-.18.22-.14.33.14.35a2.83,2.83,0,0,1,1,.34,1.19,1.19,0,0,1,.74.86,1.76,1.76,0,0,0,.37.82v.14h0a2.65,2.65,0,0,1-1,.6c-.45.14-.52.36-.28.76a1.07,1.07,0,0,0,.14.18,1.22,1.22,0,0,1,.29.76,4,4,0,0,1-.07.73l-.1.14a.13.13,0,0,0-.1.11l-.12.1a2.26,2.26,0,0,1-1.12.17c-.35,0-.54.15-.46.51a4.37,4.37,0,0,1,0,1.73L66,27a3.08,3.08,0,0,1-1.18.16c-.21,0-.46,0-.55.22a.63.63,0,0,0,.21.63,2,2,0,0,0,.34.31.88.88,0,0,1,.36.93c0,.11,0,.21-.05.32s0,.26.1.33a.34.34,0,0,0,.35-.06,1.83,1.83,0,0,0,.47-.51,7.48,7.48,0,0,1,1.49-1.56,5.32,5.32,0,0,1,1.35-.68c1.08-.4,2.18-.75,3.28-1.1a3.17,3.17,0,0,1,2.33.21c.39.18.75.42,1.12.63a1.45,1.45,0,0,0,1.33.08c.41-.16.83-.34,1.23-.53.61-.28,1.25-.53,1.88-.76a4.34,4.34,0,0,1,3.11.17A4.8,4.8,0,0,0,84,26a9.91,9.91,0,0,0,1.54.6c1,.63,2.21.86,3.27,1.41a1.44,1.44,0,0,0,.31.09c.16.31.52.42.69.72a1.93,1.93,0,0,0,.23.29A20.49,20.49,0,0,1,90.71,33c.07.81.13,1.62.22,2.43a9.28,9.28,0,0,1,0,1.14c-.14.07-.16.22-.22.33a1.4,1.4,0,0,1-.75.65,3,3,0,0,1-.63.13h-.37a6.4,6.4,0,0,1-2.42-.46,2.41,2.41,0,0,1-.85-1.65.54.54,0,0,0,0-.14.36.36,0,0,0-.66-.16c-.09.1-.21.18-.23.33a1.25,1.25,0,0,1-1.6,0,1.2,1.2,0,0,1-.35-.73c0-.3-.11-.61-.18-.9s-.17-.3-.37-.11a3.14,3.14,0,0,1-.51.4.75.75,0,0,1-1-.16L80.63,34c-.37-.46-.37-.46-.84-.08a1.23,1.23,0,0,1-.64.23c-.36,0-.4.09-.38.44s.08.61.09.92a1.44,1.44,0,0,1-.22,1,1.3,1.3,0,0,1-2.11,0,4.2,4.2,0,0,1-.3-.52c-.06-.11-.11-.22-.17-.33a.32.32,0,0,0-.35-.17c-.18,0-.18.19-.18.33a4.89,4.89,0,0,1-.06.92,2,2,0,0,1-1.06,1.44,1.65,1.65,0,0,1-2.21-.62c-.13-.21-.24-.43-.36-.65s-.17-.27-.35-.25a.43.43,0,0,0-.38.35,1.39,1.39,0,0,0,0,.37,2.42,2.42,0,0,1-1.07,2c-.13.1-.35.16-.29.37s.26.23.42.25a9.39,9.39,0,0,0,1.06,0L73.37,40a1.11,1.11,0,0,0,.5-.08h.23a.9.9,0,0,0,.57.1.26.26,0,0,0,.4,0h.24a.19.19,0,0,0,.25.09l.15,0a.19.19,0,0,0,.21.05l.22,0a.5.5,0,0,0,.58.2c.05,0,.1.06.16,0a.26.26,0,0,0,.27.16.05.05,0,0,0,0,.05c0,.2.14.31.36.22L79.21,42a.19.19,0,0,0,.22.2l.26.16c0,.2.14.29.35.23l.11,0a.65.65,0,0,0,.31.33c.82.46,1.56,1,2.33,1.57a1.51,1.51,0,0,1,.73,1,.45.45,0,0,0,.42.44c.15,0,.3,0,.46.07a.76.76,0,0,1,.67.61,7.1,7.1,0,0,1,.23,1.27,2.59,2.59,0,0,0,.09.68,4.14,4.14,0,0,1,.08,1.74.85.85,0,0,1-.84.81l-.5.09a.42.42,0,0,1-.31,0,16.9,16.9,0,0,1-1.9-.93,1,1,0,0,0-.52-.18.45.45,0,0,0-.54.32,1.75,1.75,0,0,0-.16.76A1.09,1.09,0,0,1,80,52.26a2.66,2.66,0,0,1-2.31,0,.23.23,0,0,0-.15-.12.88.88,0,0,0-.16-.44c.05-.21.12-.43-.12-.59,0-.23.19-.25.3-.36s.2-.36-.06-.52A1.48,1.48,0,0,0,76.6,50l-2.94.2c.07-.19-.27-.09-.2-.29.14,0,.3-.05.45-.06a6.89,6.89,0,0,0,1.76-.31.86.86,0,0,1,.36,0,1.89,1.89,0,0,0,1.22-.31.41.41,0,0,0,.24-.53c-.05-.26-.22-.3-.45-.25a15.63,15.63,0,0,0-2.05,0c-.77.06-1.53.28-2.31.28a1.54,1.54,0,0,0-.16-.53c.1-.43.4-.56.81-.6a7.75,7.75,0,0,1,2.2,0,1.29,1.29,0,0,0,1.22-.38,1,1,0,0,1,.62-.36l1.75-.14a1,1,0,0,1,.45.09,1.33,1.33,0,0,0,.9,0c.5-.15-.83-.33-.39-.62M41.33,34.45a.33.33,0,0,0,0,.26c.1.35.25.47.55.48a.7.7,0,0,0,.68-.44.57.57,0,0,0-.11-.67A.71.71,0,0,0,41.33,34.45Zm45.49-6.25L83.9,27a13.41,13.41,0,0,0-1.53-.63c-.13,0-.32-.17-.41,0s.09.31.23.41l.12.07c.61.39,1.33.53,2,.87a1.14,1.14,0,0,0,.41.05c.12,0,.26,0,.34.11a1.68,1.68,0,0,0,.88.46,3.32,3.32,0,0,1,.75.34,6.36,6.36,0,0,0,1.35.58,1.34,1.34,0,0,0,.68,0c.15,0,.17-.11.09-.23s-.13-.17-.26-.13a1,1,0,0,0-.48-.33A11,11,0,0,0,86.83,28.19ZM74.5,41a2.31,2.31,0,0,0,.27-.06c.15-.05.33-.13.31-.29s-.23-.19-.41-.19l-1.42,0-1.75.05c-.13,0-.25.07-.21.23s.14.26.3.14.48.11.71.11.45-.32.75-.16A3.49,3.49,0,0,0,74.5,41ZM58.19,35.08a.58.58,0,0,0-.64-.53.66.66,0,0,0-.59.74.54.54,0,0,0,.65.49A.65.65,0,0,0,58.19,35.08Zm13.49-2.76a.6.6,0,0,0-.68-.54.67.67,0,0,0-.6.74A.56.56,0,0,0,71,33,.71.71,0,0,0,71.67,32.33ZM57.81,40.25a.69.69,0,0,0-.67.67.59.59,0,0,0,.65.55.67.67,0,0,0,.64-.7A.55.55,0,0,0,57.81,40.25Zm9.42-6.55a.59.59,0,0,0-.6-.57.61.61,0,0,0-.63.68.55.55,0,0,0,.64.56A.61.61,0,0,0,67.23,33.7Zm8.57-5.81c.08,0,.15,0,.16-.14a.13.13,0,0,0-.1-.14,1.47,1.47,0,0,1-.61-.29,3.47,3.47,0,0,0-.89-.54c-.13-.07-.31-.16-.4,0s.06.31.22.4.15,0,.21.08a3.65,3.65,0,0,1,1.15.54A.32.32,0,0,0,75.79,27.89Zm-20,1.65a6,6,0,0,0-1.73-1.17A1.6,1.6,0,0,0,55.81,29.54Zm4.61,14.72a.66.66,0,0,0-.62.61.45.45,0,0,0,.54.36c.32,0,.59-.3.57-.55A.44.44,0,0,0,60.42,44.25ZM46.85,60.62a.35.35,0,0,0-.27.45c0,.23.18.37.35.33a.42.42,0,0,0,.29-.46A.33.33,0,0,0,46.85,60.62ZM68,19.74c.07,0,.13,0,.13-.09s-.1-.2-.23-.21a.1.1,0,0,0-.11.11A.2.2,0,0,0,68,19.74Z"/><path class="cls-8" d="M74.64,46.78c-.65,0,6.09-.59,5.45-.54-1.17.1-2.35.25-3.52.37-.23,0-.46,0-.69,0a8.25,8.25,0,0,1-1.69.14,1.71,1.71,0,0,0-.55.06A4.4,4.4,0,0,1,72.4,47c-.79,0-1.57.06-2.35.12a.67.67,0,0,1-.62-.21c-.05-.25-.26-.38-.44-.51a.75.75,0,0,0-1.27.59,1.36,1.36,0,0,1-.76.27.76.76,0,0,0-.59.19c.36.05.55.31.82.42s.18.22.16.38c-.59,0-1.22-.15-1.83.22a1.4,1.4,0,0,0,.57.14,4,4,0,0,0,1.6.08,1.6,1.6,0,0,1,.4,1.13.12.12,0,0,0,0,0,.61.61,0,0,0,0,.57,1.67,1.67,0,0,0,.19,1,.74.74,0,0,0,0,.49q.13,1.49.27,3a4.8,4.8,0,0,0,.27,1.3,1.41,1.41,0,0,1,0,.91,4.35,4.35,0,0,0-.08.5,4,4,0,0,0,.12,1.14c.17,2.19.4,4.37.49,6.57,0,.26,1.22,22.25,1.16,22.5-1.29.08-2.54.45-3.83.58a.13.13,0,0,0-.2-.07,1.13,1.13,0,0,0-.71.1,5.38,5.38,0,0,1-.23-.89c-.13-1.31-1.47-24.36-1.65-25.66-.08-.52,0-1.06-.08-1.56-.18-1-.22-1.92-.31-2.88a2.18,2.18,0,0,1,0-.69,1.78,1.78,0,0,0-.07-.81,5.73,5.73,0,0,1-.27-2.09,11.44,11.44,0,0,0,0-1.84.9.9,0,0,0-.18-.61l0-.29c.12-.08.16-.17,0-.27a1.74,1.74,0,0,0-.1-.68l0,0,0,0c.14-.15.1-.28,0-.41s0-.08,0-.12a2.23,2.23,0,0,0,0-.55,10,10,0,0,1-.1-1c0-.32,0-.49-.32-.6,0-.23-.05-.45-.33-.47a.77.77,0,0,0-.69.76l-1.28.12c-1.21.08-2.42.22-3.63.24-.89,0-1.77.17-2.66.13a5.37,5.37,0,0,0-.83.06c-.11,0-.23,0-.21.19s.12.18.23.18l.6,0a1.14,1.14,0,0,1,.46,0c.3.11.35.26.15.51s-.34.32-.36.57l0,0a.26.26,0,0,0-.27.27l-.33.17c-.11,0-.25.07-.26.22s.13.19.24.23a.78.78,0,0,1,.44.55c.07.23,0,.3-.22.34s-.39-.06-.42.17.23.2.37.26a3,3,0,0,0,.48.16c.77.2.91.39.84,1.14a1,1,0,0,0-.3.34,1.09,1.09,0,0,1-1,.45,2.3,2.3,0,0,1-.85-.18.59.59,0,0,0-.66,0,.61.61,0,0,0-.13.72c0,.12,0,.25.09.36a1.76,1.76,0,0,1-.77,2.12,3.59,3.59,0,0,0-.63.53.78.78,0,0,1-.83.25l-.18,0c-.49-.1-.58,0-.49.48a9.07,9.07,0,0,1,.12,1.33.63.63,0,0,1-.27.55c-.33.27-.54.66-.89.92a1.22,1.22,0,0,0-.23.22,2.08,2.08,0,0,1-2,.61,1.72,1.72,0,0,1-1.14-.78,2,2,0,0,1-.33-.66l-.82-2.25a1.85,1.85,0,0,0-.39-.67,2.24,2.24,0,0,1-.55-1.25c-.08-.52.1-.73.64-.75.27,0,.36-.1.36-.35a.46.46,0,0,0,0-.18,2.53,2.53,0,0,1,0-1.7c.11-.46.2-.93.32-1.39a9.51,9.51,0,0,1,.37-1.08c.1-.26,0-.56.23-.78s0-.06,0-.09c-.3-.55-.12-.89.48-1.09s1-.36,1.55-.5c-.43-.23-.44-.28-.2-.63a6.93,6.93,0,0,1,2.6-2.28,10.48,10.48,0,0,0,1.13-.72c.82-.57,1.68-1.08,2.46-1.71a6.58,6.58,0,0,0,1.31-1.23c.13-.19.29-.38.05-.61,0-.32-.1-.41-.34-.41A1,1,0,0,0,53,41a28.24,28.24,0,0,1-2.67,1.36,2,2,0,0,1-1,.23.53.53,0,0,1-.46-.82,2.62,2.62,0,0,1,.8-1,3.93,3.93,0,0,0,1.07-1.25c.08-.14.09-.27-.08-.34a1.82,1.82,0,0,1-.68-.54.36.36,0,0,0-.53-.06l-.16.09a1.12,1.12,0,0,1-1.52-.28c-.15-.17-.29-.36-.45-.53s-.35-.21-.45.1a1.91,1.91,0,0,0-.06.27c-.05.32-.09.64-.16,1a1.41,1.41,0,0,1-1.41,1.22,4,4,0,0,1-.83-.07,1.39,1.39,0,0,1-.92-.63,1.45,1.45,0,0,1-.22-.79,3.54,3.54,0,0,0-.2-1c-.06-.16-.19-.17-.27,0a6.3,6.3,0,0,0-.3.62c-.17.37-.3.75-.49,1.1a2.73,2.73,0,0,1-.65,1,2.41,2.41,0,0,1-1.54.51,1.36,1.36,0,0,1-1.21-.7,1.58,1.58,0,0,1-.16-.76c0-.07,0-.16-.1-.19s-.11,0-.16.08a1.94,1.94,0,0,0-.16.17,2,2,0,0,1-2.38.69,1.31,1.31,0,0,1-1-1.51c0-.12,0-.24.05-.36s-.07-.2-.21-.14l-.34.15a2.11,2.11,0,0,1-1.53.1,5.35,5.35,0,0,1-.63-.27h0a1.33,1.33,0,0,0-.33-.56l0-.12a10.87,10.87,0,0,1,.19-1.19l.17-.22a.67.67,0,0,0,.87-.46,12.82,12.82,0,0,1,1-1.86,9.48,9.48,0,0,1,.8-1.21.64.64,0,0,1,.34-.23A7.76,7.76,0,0,0,36.5,32c.42-.19.89-.31,1.33-.48a11.28,11.28,0,0,0,2.28-1,.29.29,0,0,1,.17,0,5.66,5.66,0,0,0,1.38-.23c.21,0,.45,0,.62-.14a1.24,1.24,0,0,1,1.22-.12c.46.12.91.29,1.36.41.82.21,1.66.29,2.47.53a6.91,6.91,0,0,0,1.2.33c.58.07,1.11.33,1.7.4a3.57,3.57,0,0,1,.86.12,6.88,6.88,0,0,0,1,.24c.47.12.94.27,1.4.43a1,1,0,0,0,.53.09.9.9,0,0,1,.58,0c.33.24.51,0,.7-.15s.21-.39,0-.58a5.23,5.23,0,0,1-.46-.44,1.91,1.91,0,0,0-1.08-.73,3.16,3.16,0,0,0-.92-.24.23.23,0,0,0-.25-.08,5.56,5.56,0,0,0-1-.26c-.06-.11-.18-.1-.28-.14a5.7,5.7,0,0,1-.67-.31.69.69,0,0,1-.21-1,1.43,1.43,0,0,1,.53-.44,5.68,5.68,0,0,1,1-.5,3.43,3.43,0,0,1,3,.35,6.63,6.63,0,0,0,.6.34.38.38,0,0,0,.43,0,1.83,1.83,0,0,0,.05.36.29.29,0,0,0,.35.22.28.28,0,0,0,.23-.3c0-.66.18-1.31.23-2,.07-1,.14-2,.29-2.93a3.59,3.59,0,0,1,1.38-2.65.83.83,0,0,0,.13-.13,10.29,10.29,0,0,0,1-1.41,17.14,17.14,0,0,0,1-1.91.77.77,0,0,1,.65-.52.42.42,0,0,0,.3-.19.4.4,0,0,1,.31-.18c.36,0,.62-.3,1-.27,0,0,.07-.05.11-.08a3,3,0,0,0,1.57-.23.24.24,0,0,0,.21.15,1.55,1.55,0,0,0,.68-.08,1.59,1.59,0,0,1,1.24.17c.07,0,.15.07.16.15,0,.41.41.67.45,1.08a1.32,1.32,0,0,0-.25.51.36.36,0,0,0-.21.16c-.18.22-.14.33.14.35a2.83,2.83,0,0,1,1,.34,1.19,1.19,0,0,1,.74.86,1.76,1.76,0,0,0,.37.82v.14h0a2.65,2.65,0,0,1-1,.6c-.45.14-.52.36-.28.76a1.07,1.07,0,0,0,.14.18,1.22,1.22,0,0,1,.29.76,4,4,0,0,1-.07.73l-.1.14a.13.13,0,0,0-.1.11l-.12.1a2.26,2.26,0,0,1-1.12.17c-.35,0-.54.15-.46.51a4.37,4.37,0,0,1,0,1.73L66,27a3.08,3.08,0,0,1-1.18.16c-.21,0-.46,0-.55.22a.63.63,0,0,0,.21.63,2,2,0,0,0,.34.31.88.88,0,0,1,.36.93c0,.11,0,.21-.05.32s0,.26.1.33a.34.34,0,0,0,.35-.06,1.83,1.83,0,0,0,.47-.51,7.48,7.48,0,0,1,1.49-1.56,5.32,5.32,0,0,1,1.35-.68c1.08-.4,2.18-.75,3.28-1.1a3.17,3.17,0,0,1,2.33.21c.39.18.75.42,1.12.63a1.45,1.45,0,0,0,1.33.08c.41-.16.83-.34,1.23-.53.61-.28,1.25-.53,1.88-.76a4.34,4.34,0,0,1,3.11.17A4.8,4.8,0,0,0,84,26a9.91,9.91,0,0,0,1.54.6c1,.63,2.21.86,3.27,1.41a1.44,1.44,0,0,0,.31.09c.16.31.52.42.69.72a1.93,1.93,0,0,0,.23.29A20.49,20.49,0,0,1,90.71,33c.07.81.13,1.62.22,2.43a9.28,9.28,0,0,1,0,1.14c-.14.07-.16.22-.22.33a1.4,1.4,0,0,1-.75.65,3,3,0,0,1-.63.13h-.37a6.4,6.4,0,0,1-2.42-.46,2.41,2.41,0,0,1-.85-1.65.54.54,0,0,0,0-.14.36.36,0,0,0-.66-.16c-.09.1-.21.18-.23.33a1.25,1.25,0,0,1-1.6,0,1.2,1.2,0,0,1-.35-.73c0-.3-.11-.61-.18-.9s-.17-.3-.37-.11a3.14,3.14,0,0,1-.51.4.75.75,0,0,1-1-.16L80.63,34c-.37-.46-.37-.46-.84-.08a1.23,1.23,0,0,1-.64.23c-.36,0-.4.09-.38.44s.08.61.09.92a1.44,1.44,0,0,1-.22,1,1.3,1.3,0,0,1-2.11,0,4.2,4.2,0,0,1-.3-.52c-.06-.11-.11-.22-.17-.33a.32.32,0,0,0-.35-.17c-.18,0-.18.19-.18.33a4.89,4.89,0,0,1-.06.92,2,2,0,0,1-1.06,1.44,1.65,1.65,0,0,1-2.21-.62c-.13-.21-.24-.43-.36-.65s-.17-.27-.35-.25a.43.43,0,0,0-.38.35,1.39,1.39,0,0,0,0,.37,2.42,2.42,0,0,1-1.07,2c-.13.1-.35.16-.29.37s.26.23.42.25a9.39,9.39,0,0,0,1.06,0L73.37,40a1.11,1.11,0,0,0,.5-.08h.23a.9.9,0,0,0,.57.1.26.26,0,0,0,.4,0h.24a.19.19,0,0,0,.25.09l.15,0a.19.19,0,0,0,.21.05l.22,0a.5.5,0,0,0,.58.2c.05,0,.1.06.16,0a.26.26,0,0,0,.27.16.05.05,0,0,0,0,.05c0,.2.14.31.36.22L79.21,42a.19.19,0,0,0,.22.2l.26.16c0,.2.14.29.35.23l.11,0a.65.65,0,0,0,.31.33c.82.46,1.56,1,2.33,1.57a1.51,1.51,0,0,1,.73,1,.45.45,0,0,0,.42.44c.15,0,.3,0,.46.07a.76.76,0,0,1,.67.61,7.1,7.1,0,0,1,.23,1.27,2.59,2.59,0,0,0,.09.68,4.14,4.14,0,0,1,.08,1.74.85.85,0,0,1-.84.81l-.5.09a.42.42,0,0,1-.31,0,16.9,16.9,0,0,1-1.9-.93,1,1,0,0,0-.52-.18.45.45,0,0,0-.54.32,1.75,1.75,0,0,0-.16.76A1.09,1.09,0,0,1,80,52.26a2.66,2.66,0,0,1-2.31,0,.23.23,0,0,0-.15-.12.88.88,0,0,0-.16-.44c.05-.21.12-.43-.12-.59,0-.23.19-.25.3-.36s.2-.36-.06-.52A1.48,1.48,0,0,0,76.6,50l-2.94.2c.07-.19-.27-.09-.2-.29.14,0,.3-.05.45-.06a6.89,6.89,0,0,0,1.76-.31.86.86,0,0,1,.36,0,1.89,1.89,0,0,0,1.22-.31.41.41,0,0,0,.24-.53c-.05-.26-.22-.3-.45-.25a15.63,15.63,0,0,0-2.05,0c-.77.06-1.53.28-2.31.28a1.54,1.54,0,0,0-.16-.53c.1-.43.4-.56.81-.6a7.75,7.75,0,0,1,2.2,0,1.29,1.29,0,0,0,1.22-.38,1,1,0,0,1,.62-.36l1.75-.14a1,1,0,0,1,.45.09,1.33,1.33,0,0,0,.9,0c.5-.15-.83-.33-.39-.62M41.33,34.45a.33.33,0,0,0,0,.26c.1.35.25.47.55.48a.7.7,0,0,0,.68-.44.57.57,0,0,0-.11-.67A.71.71,0,0,0,41.33,34.45Zm45.49-6.25L83.9,27a13.41,13.41,0,0,0-1.53-.63c-.13,0-.32-.17-.41,0s.09.31.23.41l.12.07c.61.39,1.33.53,2,.87a1.14,1.14,0,0,0,.41.05c.12,0,.26,0,.34.11a1.68,1.68,0,0,0,.88.46,3.32,3.32,0,0,1,.75.34,6.36,6.36,0,0,0,1.35.58,1.34,1.34,0,0,0,.68,0c.15,0,.17-.11.09-.23s-.13-.17-.26-.13a1,1,0,0,0-.48-.33A11,11,0,0,0,86.83,28.19ZM74.5,41a2.31,2.31,0,0,0,.27-.06c.15-.05.33-.13.31-.29s-.23-.19-.41-.19l-1.42,0-1.75.05c-.13,0-.25.07-.21.23s.14.26.3.14.48.11.71.11.45-.32.75-.16A3.49,3.49,0,0,0,74.5,41ZM58.19,35.08a.58.58,0,0,0-.64-.53.66.66,0,0,0-.59.74.54.54,0,0,0,.65.49A.65.65,0,0,0,58.19,35.08Zm13.49-2.76a.6.6,0,0,0-.68-.54.67.67,0,0,0-.6.74A.56.56,0,0,0,71,33,.71.71,0,0,0,71.67,32.33ZM57.81,40.25a.69.69,0,0,0-.67.67.59.59,0,0,0,.65.55.67.67,0,0,0,.64-.7A.55.55,0,0,0,57.81,40.25Zm9.42-6.55a.59.59,0,0,0-.6-.57.61.61,0,0,0-.63.68.55.55,0,0,0,.64.56A.61.61,0,0,0,67.23,33.7Zm8.57-5.81c.08,0,.15,0,.16-.14a.13.13,0,0,0-.1-.14,1.47,1.47,0,0,1-.61-.29,3.47,3.47,0,0,0-.89-.54c-.13-.07-.31-.16-.4,0s.06.31.22.4.15,0,.21.08a3.65,3.65,0,0,1,1.15.54A.32.32,0,0,0,75.79,27.89Zm-20,1.65a6,6,0,0,0-1.73-1.17A1.6,1.6,0,0,0,55.81,29.54Zm4.61,14.72a.66.66,0,0,0-.62.61.45.45,0,0,0,.54.36c.32,0,.59-.3.57-.55A.44.44,0,0,0,60.42,44.25ZM46.85,60.62a.35.35,0,0,0-.27.45c0,.23.18.37.35.33a.42.42,0,0,0,.29-.46A.33.33,0,0,0,46.85,60.62ZM68,19.74c.07,0,.13,0,.13-.09s-.1-.2-.23-.21a.1.1,0,0,0-.11.11A.2.2,0,0,0,68,19.74Z"/></g></g></svg>