<svg xmlns="http://www.w3.org/2000/svg" viewBox="0 0 228.79 309.16"><defs><style>.cls-1{fill:#d6ebe6;}.cls-2,.cls-6{fill:#9f504a;}.cls-3{fill:#1a1818;}.cls-4{fill:#fdf5f9;}.cls-5{fill:#c1639e;}.cls-6{stroke:#000;}.cls-6,.cls-8{stroke-miterlimit:10;stroke-width:3px;}.cls-7{fill:#170d0c;}.cls-10,.cls-7,.cls-8,.cls-9{fill-rule:evenodd;}.cls-8{fill:none;stroke:#1a1818;}.cls-9{fill:#203270;}.cls-10{fill:#abab14;}</style></defs><title>malteadaChoco</title><g id="Layer_2" data-name="Layer 2"><g id="Layer_3" data-name="Layer 3"><circle class="cls-1" cx="114.4" cy="122.77" r="114.4"/><path class="cls-2" d="M115.26,240.79c0-.15.06-.3.1-.45.72-2.66,21.76-26.57,21.76-26.57,22.24-28.34,20.13-102.52,20.13-102.52,1.43-4.28,4-26.58,4-26.58-11-3-102.8.89-110.93.45s-6.16.53-6.16.53,2.58,23.39,3.53,30.25,1.44,2.66.72,6.64c0,.28,1.63,31.12,4.3,53.59,2.87,24.13,38.74,64.07,38.74,64.07a3.94,3.94,0,0,1,.29.47C99.65,240.83,108,242.73,115.26,240.79Z"/><path d="M115.16,240.69a1.62,1.62,0,0,1,.09-.47l.24-.53a10.85,10.85,0,0,1,.57-1c.39-.64.83-1.22,1.25-1.83.86-1.2,1.74-2.37,2.65-3.53q2.7-3.48,5.48-6.9c3.66-4.58,7.52-9.07,11.24-13.53a63.73,63.73,0,0,0,8-15.29,125.55,125.55,0,0,0,5-16.71,259.19,259.19,0,0,0,5.09-34.62q.76-8.73,1.18-17.5c.28-5.84.46-11.71.42-17.53v-.17l0-.16a59.28,59.28,0,0,0,1.39-6.42c.39-2.2.73-4.41,1.07-6.62.66-4.42,1.31-8.86,1.86-13.3l.42.62a46.34,46.34,0,0,0-7.18-.86c-2.44-.15-4.89-.22-7.34-.28-4.9-.12-9.81-.13-14.71-.08-9.81.1-19.63.29-29.44.66L73,85.78c-4.91.2-9.81.36-14.73.51-2.47.06-4.89.15-7.43.12-1.28,0-2.45-.1-3.65-.09-.6,0-1.18,0-1.74,0a6.89,6.89,0,0,0-.73.09l-.07,0,.06,0,0,0,.12-.09a1,1,0,0,0,.2-.22l.08-.14a1.1,1.1,0,0,0,.11-.3,1.19,1.19,0,0,0-.19-1,.77.77,0,0,0-.33-.3l.74,1.06L48,106.15c.43,3.43.82,6.91,1.28,10.3.13.83.28,1.67.47,2.4,0,.17.1.35.15.48s0,.12.08.18a2.33,2.33,0,0,1,.24.64,2.17,2.17,0,0,1,0,.56l0,.29-.06.37-.12.64-.11.63a1.24,1.24,0,0,0,0,.14l0,0s0,0,0,.14l.07,1.29.16,2.59c.88,13.84,1.9,27.69,3.23,41.48l.54,5.17.29,2.57c.14.82.22,1.64.4,2.45a54.45,54.45,0,0,0,3,9.65,126,126,0,0,0,9.62,18.2A297.39,297.39,0,0,0,92,239.74l0,0h0l.33.56-.57-.35c4,.17,7.89.75,11.8,1.08a55.53,55.53,0,0,0,5.86.24q1.46,0,2.92-.18c.49-.06,1-.14,1.45-.2Zm.22.21c-.49.14-1,.29-1.51.41s-1,.2-1.46.28q-1.47.23-3,.33a55.11,55.11,0,0,1-5.94,0c-4-.18-7.88-.59-11.77-.6h-.35l-.22-.35-.25-.39,0,.06c-4.7-5.16-9.16-10.5-13.49-16s-8.43-11.12-12.25-17A128.63,128.63,0,0,1,55,189.28a55,55,0,0,1-3.36-10.15c-.2-.88-.31-1.79-.46-2.68l-.31-2.6-.58-5.19q-1.11-10.39-1.89-20.79c-.52-6.94-1-13.87-1.37-20.83l-.13-2.61-.06-1.32a4.83,4.83,0,0,1,0-1l.12-.65.12-.63,0-.27a.07.07,0,0,1,0,0,.87.87,0,0,0,0,.24c.11.35.05.15,0,0s-.13-.29-.17-.42-.16-.51-.23-.76a27.07,27.07,0,0,1-.51-2.72c-.44-3.49-.79-6.92-1.19-10.39L42.81,85.79l.74,1.06a1.83,1.83,0,0,1-.69-.58,1.47,1.47,0,0,1-.23-1.17,1.59,1.59,0,0,1,.12-.35,1.19,1.19,0,0,1,.12-.19,1.87,1.87,0,0,1,.28-.3,1,1,0,0,1,.21-.15l.15-.08.27-.11.38-.1a9.15,9.15,0,0,1,1.1-.12c.67,0,1.31,0,1.94,0,1.25,0,2.54.11,3.71.16,2.37.07,4.86,0,7.3,0l14.72-.21,29.46-.36c9.82-.07,19.64-.24,29.46-.25,4.91,0,9.82,0,14.74.08,2.46,0,4.92.12,7.38.21a46.57,46.57,0,0,1,7.43.77l.48.1-.06.52c-.48,4.46-1,8.92-1.5,13.38-.28,2.23-.56,4.46-.88,6.68a58.37,58.37,0,0,1-1.27,6.75l0-.33a314.65,314.65,0,0,1-.85,35.31,231.29,231.29,0,0,1-5.38,35,122.47,122.47,0,0,1-5.27,17A65.46,65.46,0,0,1,138,214L126.3,227.19q-2.92,3.29-5.76,6.65c-.95,1.12-1.88,2.25-2.8,3.38-.44.58-.92,1.14-1.33,1.74a10.67,10.67,0,0,0-.6.89l-.25.46C115.48,240.47,115.44,240.71,115.37,240.9Z"/><path class="cls-3" d="M41.92,74.77A1.69,1.69,0,0,1,43,73.14a7,7,0,0,1,1.86-.57,19.34,19.34,0,0,1,3.82-.18c2.53.12,5.06.07,7.59.07,5.07,0,10.13-.13,15.2-.23l30.4-.63c10.13-.2,20.27-.35,30.41-.38,5.07,0,10.15,0,15.23.12q3.81.08,7.63.28c1.28.08,2.55.16,3.84.29a25.69,25.69,0,0,1,3.95.63l.93.23-.12,1q-1.08,9.45-2.28,18.88c-.4,3.15-.81,6.29-1.26,9.44l-.71,4.72c-.14.79-.25,1.57-.41,2.37l-.23,1.2-.31,1.26.06-.42c.09,7.45-.23,14.84-.71,22.24s-1.21,14.78-2.24,22.12a213,213,0,0,1-4.18,21.86,132.48,132.48,0,0,1-7,21.16,80.83,80.83,0,0,1-5.21,9.9c-.47.8-1.05,1.56-1.57,2.34l-.8,1.16L136,213.1l-3.51,4.28c-4.66,5.72-9.31,11.46-13.7,17.37-1.08,1.48-2.19,3-3.13,4.5a7.87,7.87,0,0,0-.58,1.09,9.94,9.94,0,0,0-.25,1.29,9.18,9.18,0,0,0,0,2.61c.13.81.42,1.74,1,1.91.79.3,1.74.59,2.6,1a11.81,11.81,0,0,1,4.53,3.5,13.25,13.25,0,0,1,2.33,5.21,6.83,6.83,0,0,1,0,2.94,6.55,6.55,0,0,1-1.31,2.64,13,13,0,0,1-4.6,3.36c-.85.41-1.72.76-2.59,1.09l-1.29.49-.62.25-.28.13c-.08,0-.14.1-.11.05l.08-.27,0,12.75-.41-.5q6.7,1.31,13.33,2.84c4.43,1,8.84,2.09,13.24,3.25s8.77,2.43,13.09,3.92c2.16.75,4.3,1.56,6.4,2.52a18.64,18.64,0,0,1,6,3.87l.18.19v.32l0,3.67v.6l-.56.18a190.42,190.42,0,0,1-30.24,6.57c-2.55.35-5.1.74-7.67,1l-3.85.39-1.92.2-1.93.13-7.72.5-7.73.23a254,254,0,0,1-30.91-1.29c-5.15-.4-10.24-1.25-15.35-2-2.56-.31-5.08-.89-7.62-1.36l-7.6-1.47-1.12-.22,0-1.18-.17-5.26,0-.92.8-.43a114.38,114.38,0,0,1,11.52-5.23c3.9-1.54,7.87-2.94,11.89-4.13s8.08-2.28,12.21-3.1,8.27-1.47,12.45-2L89.37,282c.32-2.66.6-5.34.81-8q.16-2,.24-4a26.63,26.63,0,0,0-.06-3.8,1.68,1.68,0,0,0-.06-.35l0-.15v-.07h0s0,0-.15-.15a7.06,7.06,0,0,0-1.45-.69,17,17,0,0,1-4-1.93,7.15,7.15,0,0,1-2.83-4.17,11.66,11.66,0,0,1-.06-4.66l0,.17a7.51,7.51,0,0,1,.34-1.7,8.15,8.15,0,0,1,.66-1.53,7.22,7.22,0,0,1,2.3-2.49,8.36,8.36,0,0,1,3.08-1.19c.53-.11,1-.11,1.57-.16l1.52,0-1.61,1.15a18.93,18.93,0,0,0,.34-2,15.67,15.67,0,0,0,.13-2,6.62,6.62,0,0,0-.73-3.4l.1.13c-4.7-5.77-9.14-11.67-13.37-17.76s-8.25-12.3-12-18.72a135.5,135.5,0,0,1-9.74-20,62.58,62.58,0,0,1-3-10.81c-.15-.93-.26-1.87-.38-2.81l-.26-2.76-.48-5.52c-1.21-14.71-2.06-29.44-2.72-44.17l-.13-2.76-.06-1.38c0-.46-.06-.92,0-1.45l.24-1.36a5.31,5.31,0,0,0,.09-.62c0-.06-.13-.32-.2-.55a16.89,16.89,0,0,1-.6-2.75L45.19,96.63Zm.29-.06,3.46,21.85,1.71,10.92a16.49,16.49,0,0,0,.59,2.64,2.47,2.47,0,0,1,.24.75,5.23,5.23,0,0,1-.09.75L47.9,113c0,.39,0,.85,0,1.31l.07,1.38.16,2.76c1,14.71,2.13,29.41,3.68,44.05l.61,5.49.32,2.74c.14.89.27,1.78.43,2.66a60.57,60.57,0,0,0,3.18,10.38,145.56,145.56,0,0,0,9.92,19.52A319.48,319.48,0,0,0,91.78,239.1l.06.08,0,0a7.57,7.57,0,0,1,1,2.58,12.46,12.46,0,0,1,.24,2.49,18.49,18.49,0,0,1-.14,2.39,21.49,21.49,0,0,1-.41,2.36l-.28,1.19-1.33,0-1.18,0c-.37,0-.76,0-1.12.12a5.32,5.32,0,0,0-1.92.73,4.15,4.15,0,0,0-1.32,1.44,5,5,0,0,0-.41.95,4.86,4.86,0,0,0-.2.94v.17a8.68,8.68,0,0,0,0,3.41,4,4,0,0,0,1.64,2.4,14.38,14.38,0,0,0,3.31,1.55A9.43,9.43,0,0,1,92,263a3.53,3.53,0,0,1,1.14,1.39l.1.24c0,.07,0,.12,0,.18l.08.34a4.36,4.36,0,0,1,.12.65,28.94,28.94,0,0,1,.1,4.32c-.05,1.38-.13,2.76-.24,4.12-.21,2.73-.48,5.43-.8,8.16l-.14,1.22-1.25.16c-4.07.52-8.14,1.1-12.15,2s-8,1.83-12,3-7.84,2.49-11.67,4a112.08,112.08,0,0,0-11.19,5l.77-1.35.14,5.26-1.15-1.4,7.51,1.5c2.51.48,5,1.07,7.53,1.39,5.05.74,10.09,1.62,15.18,2,2.54.24,5.08.57,7.63.75l7.65.46c2.55.2,5.1.2,7.66.26s5.11.17,7.66.07a256.55,256.55,0,0,0,30.58-2,188.68,188.68,0,0,0,30-6l-.56.78,0-3.67.18.51a17.55,17.55,0,0,0-5.37-3.53c-2-1-4.11-1.78-6.23-2.55-4.24-1.54-8.58-2.85-12.93-4.07s-8.75-2.34-13.17-3.37-8.84-2-13.28-2.9l-.41-.08v-.42l0-12.75v-.17l.08-.1a1.34,1.34,0,0,1,.44-.36l.35-.17.67-.27,1.3-.48c.86-.32,1.7-.66,2.52-1a12.08,12.08,0,0,0,4.29-3.09c2.38-2.76.91-6.9-1.08-9.64a10.8,10.8,0,0,0-4.17-3.17c-.82-.37-1.65-.61-2.59-1a1.84,1.84,0,0,1-.75-.52,2.92,2.92,0,0,1-.44-.71,5.71,5.71,0,0,1-.42-1.46,10.2,10.2,0,0,1,0-2.91,11,11,0,0,1,.27-1.42,7.71,7.71,0,0,1,.69-1.37c1-1.62,2.08-3.1,3.16-4.61,2.18-3,4.44-5.91,6.7-8.84l6.81-8.74,3.44-4.34.85-1.07.75-1.13c.49-.76,1-1.49,1.48-2.28a79,79,0,0,0,4.93-9.77,130.89,130.89,0,0,0,6.54-21c.85-3.57,1.52-7.18,2.17-10.79s1.16-7.25,1.63-10.9a330,330,0,0,0,2.74-44v-.18l.06-.24.26-1,.23-1.13c.16-.75.28-1.54.42-2.3l.75-4.67c.48-3.12.92-6.25,1.35-9.39q1.29-9.4,2.46-18.83l.81,1.23a27.59,27.59,0,0,0-3.54-.61c-1.23-.16-2.48-.25-3.73-.37q-3.76-.28-7.55-.44c-5-.22-10.11-.35-15.17-.46-10.13-.2-20.26-.25-30.39-.27s-20.27,0-30.4.1l-15.2.12c-2.53,0-5.07,0-7.61-.09a19.08,19.08,0,0,0-3.76.16,6.67,6.67,0,0,0-1.77.53C42.62,73.67,42.13,74.17,42.22,74.71Z"/><path class="cls-4" d="M153.43.75s4.94-1.75,8.29,1.91L132.23,92.73l-7.65-3.51Z"/><path class="cls-3" d="M153.33.64a.29.29,0,0,1,.09-.05h0l.07,0,.14,0,.27-.09.55-.15a10.27,10.27,0,0,1,1.14-.2A8.41,8.41,0,0,1,158,.1a7.52,7.52,0,0,1,4.21,2.15l.23.23-.1.36c-2.1,7.62-4.39,15.18-6.73,22.73S150.78,40.63,148,48s-5.5,14.82-8,22.32S135.26,85.42,133,93l-.26.88-.9-.38-7.76-3.27-.89-.37.3-1,3.4-11.21,3.51-11.19c2.34-7.47,4.71-14.93,7.24-22.3s5.07-14.72,7.66-22l4-10.84C150.62,7.75,152,4.16,153.33.64Zm.21.21c-1,3.85-2.11,7.64-3.17,11.43l-3.26,11.28c-2.22,7.46-4.44,14.89-6.77,22.24s-4.71,14.65-7.19,21.93l-3.7,10.93-3.81,10.91L125,88.22,132.58,92l-1.15.5c2.69-7.43,5.34-14.87,7.73-22.4s4.52-15.14,6.76-22.72,4.69-15.09,7.22-22.57,5.2-14.92,8-22.31l.13.59A6.52,6.52,0,0,0,157.8.88a8.88,8.88,0,0,0-2.14-.25,9.6,9.6,0,0,0-1.09.06L154,.77l-.27.05-.13,0-.07,0h0S153.5.9,153.54.85Z"/><polygon class="cls-5" points="152.18 5.04 159.35 0.82 153.44 0.72 152.18 5.04"/><path class="cls-3" d="M152.21,5c1.39-1,2.49-1.82,3.58-2.52a14.19,14.19,0,0,1,1.7-.84,11.16,11.16,0,0,0,1.76-1l.09.33c-1,.05-2,.2-3,.22s-2,.07-3,0l.51-.38a15.53,15.53,0,0,1-.77,1.9C152.86,3.43,152.53,4.16,152.21,5Zm-.06.08c.1-.6.19-1.3.29-2.08a20.45,20.45,0,0,1,.49-2.43L153,.2h.42c1,0,2,.07,3,.13s2,.24,2.95.32l.62.05-.54.28a12.87,12.87,0,0,0-1.82,1.13,19.81,19.81,0,0,1-1.88,1.28C154.44,4.08,153.15,4.64,152.15,5.08Z"/><path class="cls-5" d="M146.63,20.72l11.27-8.36L153.6,27s-9.68,5.39-11.4,8.14Z"/><path class="cls-3" d="M146.5,20.63a45.71,45.71,0,0,1,4.94-4.89,57.55,57.55,0,0,1,5.68-4.42l3.31-2.19-1.3,3.59c-.87,2.4-2.07,4.69-2.91,7.1a46.36,46.36,0,0,0-1.83,7.41l0,.23-.35.26-2.82,2.08-2.82,2c-.92.69-1.83,1.38-2.7,2.09-.42.36-.83.72-1.21,1.08a8.35,8.35,0,0,0-.9,1l-5.78,7.68,2.88-9c.79-2.48,1.71-4.91,2.67-7.27q.72-1.78,1.51-3.48C145.37,22.79,145.91,21.68,146.5,20.63Zm.25.17c-.15,1.35-.34,2.65-.56,3.92s-.44,2.51-.7,3.74c-.51,2.45-1.07,4.82-1.75,7.15l-2.9-1.32a8.47,8.47,0,0,1,1.45-1.63,17.74,17.74,0,0,1,1.48-1.19c1-.72,2-1.37,3-2s2.06-1.2,3.13-1.73,2.16-1,3.26-1.48l-.39.49a46.35,46.35,0,0,0,2.46-7.23c.59-2.48.82-5.06,1.38-7.54l2,1.4a52.13,52.13,0,0,1-5.59,3.94A57.78,57.78,0,0,1,146.75,20.8Z"/><path class="cls-5" d="M148.18,41.61S137,49.75,136.88,50.27l-3.73,12.8s10-7.31,10.82-7.06Z"/><path class="cls-3" d="M148.1,41.74c0,.13.14.09,0,.17l-.14.17-.29.33-.59.65c-.41.42-.8.84-1.23,1.24-.82.82-1.68,1.59-2.55,2.34s-1.74,1.5-2.63,2.21-1.83,1.43-2.65,2l-.15.11a.5.5,0,0,0,.14-.32v0l0,0,0,.1-.08.2-.33.8-.71,1.59c-.48,1.06-.91,2.13-1.31,3.21a41.54,41.54,0,0,0-1.63,6.71l-1.24-.87c.81-.74,1.6-1.48,2.43-2.19s1.68-1.39,2.54-2,1.74-1.32,2.64-1.95c.45-.32.91-.63,1.4-.94.25-.15.5-.3.78-.45s.29-.15.49-.24a2.87,2.87,0,0,1,.38-.13l.28-.06a2.08,2.08,0,0,1,.83.06l-2,1.09a43.31,43.31,0,0,1,2.49-6.34c.5-1.1,1.05-2.25,1.59-3.5S147.58,43.16,148.1,41.74Zm.17-.25c-.18,1-.35,2.05-.51,3.22s-.32,2.4-.52,3.7a59.3,59.3,0,0,1-1.73,8.06l-2,1.09a1.21,1.21,0,0,0,.63.05h.08c.09,0,0,0,0,0l-.24.11-.63.34c-.44.24-.9.5-1.35.77l-2.74,1.66c-.91.56-1.83,1.13-2.77,1.66l-2.83,1.58L131.5,64.9l.88-2.05a41.5,41.5,0,0,0,2.23-6.53c.25-1.12.46-2.26.63-3.41l.26-1.72.15-.85,0-.21,0-.11v-.08l0-.09a2.22,2.22,0,0,1,.42-.64l.17-.18a20.8,20.8,0,0,1,2.74-2.29c.93-.69,1.9-1.32,2.87-2s2-1.22,3-1.77c.5-.29,1-.54,1.55-.8l.8-.37.41-.18.2-.09S148.18,41.44,148.27,41.49Z"/><polygon class="cls-5" points="128.71 77.18 139.71 69.4 135.24 84.63 124.58 91.35 128.71 77.18"/><path class="cls-3" d="M128.59,77.09a43,43,0,0,1,4.82-4.61A55.33,55.33,0,0,1,139,68.34l3.22-2L141,69.77c-.44,1.25-1,2.46-1.53,3.68s-1.05,2.45-1.49,3.7A39.63,39.63,0,0,0,136.88,81c-.29,1.29-.51,2.6-.74,3.92l0,.24-.36.29c-.82.67-1.65,1.32-2.49,2s-1.71,1.23-2.58,1.83c-1.73,1.2-3.45,2.41-5.24,3.52l-3.62,2.23,1.21-4c.73-2.44,1.61-4.84,2.52-7.16.45-1.17.94-2.31,1.44-3.42S128,78.12,128.59,77.09Zm.24.17c-.12,1.34-.29,2.61-.48,3.86s-.39,2.47-.62,3.67c-.46,2.4-1,4.73-1.61,7L123.72,90c1.77-1.14,3.6-2.17,5.43-3.21q1.37-.78,2.76-1.54c.93-.49,1.88-1,2.84-1.41l-.4.53c.52-1.23,1-2.45,1.49-3.7A39.6,39.6,0,0,0,137,76.88c.31-1.29.55-2.59.74-3.91s.4-2.64.7-3.93l2,1.43A49.94,49.94,0,0,1,135,74.1,55.48,55.48,0,0,1,128.83,77.26Z"/><path class="cls-3" d="M90.64,239.92a10.91,10.91,0,0,1,3.07-.62,9.57,9.57,0,0,1,2.95.17,22.62,22.62,0,0,0,2.93.92,7.22,7.22,0,0,0,3-.28c.5-.12,1-.3,1.48-.39s1-.16,1.47-.24a23.12,23.12,0,0,1,2.94-.31,20.67,20.67,0,0,1,3,.2,14.12,14.12,0,0,1,3.07.71l0,.3a14,14,0,0,1-5.9,2,15.62,15.62,0,0,1-3-.05,13.09,13.09,0,0,1-3-.56,8.77,8.77,0,0,0-3-.4c-1,.05-2,.49-3.06.61a9.18,9.18,0,0,1-5.9-1.75Z"/><path class="cls-3" d="M91.17,279.74a2.52,2.52,0,0,1,1-1.13,1.34,1.34,0,0,1,1.16-.15c.4.18.79.64,1.17.73a1.37,1.37,0,0,0,1.14-.35,2.79,2.79,0,0,1,1.16-.57,2.68,2.68,0,0,1,1.16-.14,3.37,3.37,0,0,1,2.18,1.61l0,.3A4.19,4.19,0,0,1,99,281a2.92,2.92,0,0,1-1.12.35,2.74,2.74,0,0,1-1.08-.23,3,3,0,0,1-1.09-.62,1.24,1.24,0,0,0-1.11-.33c-.37.1-.72.59-1.08.8a1.26,1.26,0,0,1-1.09,0,3,3,0,0,1-1.19-.9Z"/><path class="cls-3" d="M114.06,279.44a2.45,2.45,0,0,1-.88,1.06.91.91,0,0,1-.92.13c-.32-.18-.65-.65-1-.72s-.62.09-.91.38a2.24,2.24,0,0,1-.9.64,1.89,1.89,0,0,1-.92.23,2.14,2.14,0,0,1-.95-.37,3.61,3.61,0,0,1-1-1v-.3a3.59,3.59,0,0,1,.88-1.08,2.13,2.13,0,0,1,.91-.47,1.89,1.89,0,0,1,.94.14,2.27,2.27,0,0,1,1,.55,1,1,0,0,0,.94.29c.3-.11.59-.6.89-.81a.91.91,0,0,1,.93,0,2.46,2.46,0,0,1,1,1Z"/><path class="cls-6" d="M161.11,85.75c3.49-1.92-33.24,21.35-117-.11"/><path class="cls-3" d="M44.19,74.94l14.42,1.53,3.6.37c1.19.15,2.39.28,3.59.39,2.4.21,4.78.55,7.18.82,4.78.64,9.56,1.42,14.39,1.75,2.41.12,4.83.2,7.24.22s4.83-.15,7.25-.25c1.21-.07,2.41-.11,3.62-.2s2.41-.19,3.61-.27c2.41-.19,4.81-.24,7.21-.45,4.8-.41,9.6-.73,14.39-1.23,2.4-.2,4.8-.34,7.2-.6s4.79-.48,7.2-.69,4.8-.49,7.2-.74,4.82-.48,7.25-.65l.06.29A161.56,161.56,0,0,1,131,80.79l-3.63.35-1.82.16-1.82.08-7.29.28c-2.43.1-4.86,0-7.29,0s-4.86-.12-7.28-.29S97,81.14,94.58,81s-4.84-.23-7.26-.27c-4.84-.16-9.71,0-14.57-.24a123.2,123.2,0,0,1-14.47-1.76,97.75,97.75,0,0,1-14.16-3.54Z"/><path class="cls-7" d="M51.51,153.6c-1.44-6.94,6.7-18.42,8.61-7.17,1,4.54-.24,9.09.48,13.39.72,4.78,1.67,9.57,2.63,14.35A76.21,76.21,0,0,0,70.4,194.5c3.59,6.7,5.34,17.38,12.28,21.21,10,5.26,5.18-15,4.7-20.25-.72-7.89,2.87-16,2.39-23.91-.48-6.7-2.13-26.42-2.85-32.88-.24-3.59-.72-7.78,1.44-10.64,2.15-2.63,4.78-6.94,7.89-4.54,3.59,2.63,2.87,13.87,2.87,17.94,0,5.26-.74,26.07-.74,31.33,0,11-1.67,22.48,1.67,33,1.2,3.59,4.78,6.7,9.09,6,5-.72,4.78-7.41,5.5-11.48.48-4.54,0-11.72,2.15-15.78,3.35-6,5.74,1.67,5.26,5.5-.24,5-9.09,25.35,2.63,19.61,10.52-5,12.92-20.09,15.31-30.37,2.63-11.72,2.87-23.92,4.3-35.87.48-3.59.72-8.37,5.5-9.33,3.83-.72,5,3.11,5.74,6.46,1.43,7.41-4.3,11.48-6,17.94-2.39,8.37-2.63,17.94-4.07,26.55-1.43,9.57-4.78,16.74-8.85,25.35-3.59,7.65-10.63,15.91-16.37,21.89-4.78,4.78-7,8.3-16.9,8.84-5.34.29-11.54-3-15.68-6.81-6-5.52-10.81-13.71-15.15-20.81-5-8.23-12-16.26-14.83-25.83-2.15-7.89-2-14.35-3.4-22.48-.48-3.83-1.27-10.63-2.94-14.22"/><path class="cls-3" d="M47.61,109.91a6.33,6.33,0,0,1,3.94.43,7.25,7.25,0,0,1,1.73,1.09,9.64,9.64,0,0,1,1.42,1.48l.11.14v.28c.28,5.74.47,11.48.63,17.21s.25,11.47.18,17.21a134.34,134.34,0,0,0,.68,17.19,58.51,58.51,0,0,0,1.5,8.42c.17.69.39,1.35.62,2a20.74,20.74,0,0,0,.84,1.9l1.9,3.87c2.58,5.13,5.1,10.25,7.83,15.28s5.59,10,8.51,14.86,6,9.69,9.23,14.42,6.61,9.34,10.05,14l-.22.2a135.35,135.35,0,0,1-11.67-12.8,163.16,163.16,0,0,1-10.07-14.13,166.74,166.74,0,0,1-8.44-15.16c-2.57-5.18-5-10.45-7-15.83l-1.55-4c-.26-.65-.51-1.4-.72-2.11s-.37-1.44-.49-2.15c-.55-2.87-.88-5.73-1.19-8.6l-1.77-17.2a162.31,162.31,0,0,1-.78-17.26c0-5.76.14-11.51.53-17.27l.13.42a8.89,8.89,0,0,0-1-1.42,6.85,6.85,0,0,0-1.35-1.13,6.08,6.08,0,0,0-1.64-.73,5.51,5.51,0,0,0-1.81-.24Z"/><path class="cls-3" d="M54,113.19a22.08,22.08,0,0,1,3.49-2.07,31.6,31.6,0,0,1,3.77-1.58,26.67,26.67,0,0,1,8.13-1.39,21.33,21.33,0,0,1,8.25,1.49,24.11,24.11,0,0,1,7.16,4.43l.46.38,0,.66C85,125,84,135,84.42,145s1.5,19.89,2.44,29.78c.48,4.95,1.09,9.88,1.76,14.8q.48,3.69,1,7.36c.33,2.46.75,4.89,1.16,7.33q1.2,7.33,3.11,14.48c.29,1.21.68,2.37,1,3.55s.8,2.33,1.23,3.49.93,2.28,1.42,3.42a14.57,14.57,0,0,0,.84,1.65l.88,1.64-.24.18A36.94,36.94,0,0,1,95,226.32c-.56-1.13-1.14-2.26-1.6-3.44s-1-2.33-1.4-3.52a104.5,104.5,0,0,1-4.1-14.54c-1-4.92-1.85-9.88-2.44-14.86s-1-10-1.31-15c-.68-10-.4-20-.64-30s-1.17-20-.92-30l.44,1A23.8,23.8,0,0,0,76.7,112l-.86-.39c-.3-.11-.6-.19-.9-.28-.6-.17-1.2-.4-1.81-.53l-1.87-.34c-.62-.11-1.26-.11-1.9-.18a28.77,28.77,0,0,0-7.69.64,34.45,34.45,0,0,0-7.48,2.5Z"/><path class="cls-3" d="M108.67,232.49a42,42,0,0,0,2.73-6.81l.57-1.74.5-1.77c.33-1.18.69-2.34,1-3.54l.88-3.56.77-3.59c.54-2.39,1-4.81,1.39-7.22,1.57-9.67,3.49-19.35,4.41-29.18.25-2.45.33-4.92.44-7.38.06-1.23.1-2.46.13-3.7s.1-2.46.05-3.7c-.08-4.94-.14-9.87-.31-14.79L121,138.1c-.08-2.46-.07-4.93-.22-7.39l-.36-7.38-.27-7.38.41,1a15.62,15.62,0,0,0-1.67-1.5,22.93,22.93,0,0,0-1.93-1.37,22.37,22.37,0,0,0-2.09-1.15l-1.08-.52c-.37-.16-.74-.29-1.11-.44a27.6,27.6,0,0,0-9.46-1.76l-2.45.09c-.82,0-1.63.19-2.45.28a35.56,35.56,0,0,0-4.86,1,24.48,24.48,0,0,0-2.38.77l-2.39.81c-1.54.68-3.07,1.38-4.64,2l-.15-.26q2.16-1.36,4.38-2.67c1.55-.72,3.07-1.56,4.7-2.15a37.27,37.27,0,0,1,5-1.52c.85-.17,1.7-.44,2.57-.53l2.63-.27a28.26,28.26,0,0,1,10.52,1.38c.42.15.85.28,1.27.44l1.23.55a24,24,0,0,1,4.65,2.76q.55.4,1.07.86a11.79,11.79,0,0,1,1.06,1l.39.41,0,.58.23,7.42.14,7.42c.07,5,0,9.9-.14,14.85,0,2.47-.24,4.95-.36,7.42l-.42,7.41c-.16,2.47-.36,4.93-.5,7.4-.07,1.23-.15,2.47-.2,3.7s-.1,2.47-.2,3.7c-.15,2.47-.28,4.94-.35,7.42s-.32,4.94-.48,7.42l-.27,3.71c-.13,1.23-.31,2.46-.46,3.7-.36,2.46-.66,4.93-1.21,7.36s-.94,4.88-1.63,7.28l-.95,3.61-1.14,3.56c-.36,1.19-.81,2.36-1.27,3.52l-.68,1.74c-.24.58-.51,1.14-.77,1.71s-.52,1.13-.8,1.69l-.88,1.66a22,22,0,0,1-2,3.15Z"/><path class="cls-3" d="M121.63,115.74q1.74-1.14,3.53-2.23a18.11,18.11,0,0,1,1.83-1l1.87-1,.95-.47,1-.38,2-.77a15.44,15.44,0,0,1,2.05-.6c.7-.16,1.38-.4,2.1-.5a16.55,16.55,0,0,1,8.81.61,5.41,5.41,0,0,1,1,.49c.34.19.69.37,1,.56a12.87,12.87,0,0,1,1.8,1.49,10.62,10.62,0,0,1,1.49,1.81,9.06,9.06,0,0,1,1.08,2.2l0,.1v.12c1.07,10.71-.11,21.3-.86,31.84-.21,2.64-.46,5.27-.72,7.91l-.4,4-.5,4a134.72,134.72,0,0,1-3,15.67,133.39,133.39,0,0,1-5,15.22,97.16,97.16,0,0,1-7.2,14.34,83.13,83.13,0,0,1-21.35,23.61l-.19-.23c1.79-2,3.75-3.71,5.41-5.76.85-1,1.77-1.94,2.58-3l2.42-3.09c.41-.51.8-1,1.17-1.58l1.13-1.6c.76-1.06,1.54-2.11,2.21-3.23L130,211l1.94-3.39c.68-1.11,1.26-2.28,1.86-3.43s1.23-2.29,1.75-3.49,1.12-2.35,1.68-3.53l1.54-3.59a134.49,134.49,0,0,0,5.31-14.73c2.93-10,5.48-20.32,6.34-30.84s0-21.12-.9-31.45l0,.22a8.71,8.71,0,0,0-.75-1.51,8,8,0,0,0-1.11-1.41,10.28,10.28,0,0,0-1.36-1.18l-.79-.45a3.69,3.69,0,0,0-.82-.4,15,15,0,0,0-7.52-.86c-.66,0-1.31.22-2,.33a15.73,15.73,0,0,0-2,.42l-2,.55-1,.28-1,.37-1.93.7a17.83,17.83,0,0,0-1.91.77q-1.87.86-3.79,1.67Z"/><path class="cls-8" d="M150.88,116.35s1.54-4.79,6.39-3.83"/><path class="cls-9" d="M80.38,46.78c-.65,0,6.09-.59,5.45-.54-1.17.1-2.35.25-3.52.37-.23,0-.46,0-.69,0a8.24,8.24,0,0,1-1.69.14,1.74,1.74,0,0,0-.55.06,4.4,4.4,0,0,1-1.23.15c-.78,0-1.57.06-2.35.13a.67.67,0,0,1-.62-.21c-.05-.25-.26-.38-.44-.51a.75.75,0,0,0-1.27.59,1.38,1.38,0,0,1-.76.27.76.76,0,0,0-.59.19c.35.05.55.31.82.43s.18.22.17.38c-.6,0-1.22-.15-1.83.22a1.36,1.36,0,0,0,.57.14,4.07,4.07,0,0,0,1.6.08,1.59,1.59,0,0,1,.4,1.12.1.1,0,0,0,0,0,.61.61,0,0,0,0,.57,1.68,1.68,0,0,0,.19,1,.76.76,0,0,0,0,.49q.13,1.49.27,3a4.84,4.84,0,0,0,.27,1.31,1.42,1.42,0,0,1,0,.91,4.56,4.56,0,0,0-.08.5,4,4,0,0,0,.12,1.14c.17,2.19.4,4.37.49,6.57,0,.26,1.22,22.25,1.16,22.5-1.29.08-2.54.45-3.83.58a.12.12,0,0,0-.2-.07,1.14,1.14,0,0,0-.71.1,5.37,5.37,0,0,1-.23-.89c-.13-1.31-1.47-24.36-1.65-25.66-.08-.52,0-1.05-.08-1.56-.18-1-.22-1.92-.31-2.88a2.15,2.15,0,0,1,0-.69A1.79,1.79,0,0,0,69.2,56a5.69,5.69,0,0,1-.27-2.09,11.58,11.58,0,0,0,0-1.84.9.9,0,0,0-.18-.61c0-.1,0-.19,0-.29s.16-.17,0-.27a1.74,1.74,0,0,0-.1-.68l0,0,0,0c.14-.15.11-.28,0-.41s0-.08,0-.12a2.22,2.22,0,0,0,0-.55,10,10,0,0,1-.1-1c0-.32,0-.49-.32-.6,0-.23-.05-.45-.33-.47a.77.77,0,0,0-.69.76l-1.28.12c-1.21.08-2.42.22-3.63.23-.89,0-1.77.17-2.66.13a5.5,5.5,0,0,0-.83.06c-.11,0-.23,0-.21.19s.12.18.23.18l.6,0a1.12,1.12,0,0,1,.46,0c.3.11.35.26.15.51s-.34.32-.36.58l0,0a.26.26,0,0,0-.27.27l-.33.17c-.11,0-.25.07-.26.22s.13.19.24.23a.77.77,0,0,1,.44.55c.07.23,0,.3-.22.34s-.39-.06-.42.17.23.2.37.26a3,3,0,0,0,.48.16c.77.2.91.39.84,1.14a1,1,0,0,0-.3.34,1.09,1.09,0,0,1-1,.45,2.28,2.28,0,0,1-.85-.18.6.6,0,0,0-.66,0,.61.61,0,0,0-.13.72,3.47,3.47,0,0,0,.09.36,1.76,1.76,0,0,1-.78,2.12,3.58,3.58,0,0,0-.63.53.78.78,0,0,1-.83.25l-.18,0c-.49-.1-.58,0-.49.48a9.06,9.06,0,0,1,.12,1.33.63.63,0,0,1-.27.55c-.33.27-.54.67-.89.92a1.18,1.18,0,0,0-.23.22,2.09,2.09,0,0,1-2,.61,1.73,1.73,0,0,1-1.14-.78,2.09,2.09,0,0,1-.33-.66c-.27-.75-.55-1.5-.82-2.25a1.86,1.86,0,0,0-.39-.67,2.24,2.24,0,0,1-.55-1.25c-.09-.52.1-.73.64-.75.27,0,.36-.1.36-.35a.48.48,0,0,0,0-.18,2.52,2.52,0,0,1,0-1.7c.11-.46.2-.93.31-1.39a9.44,9.44,0,0,1,.37-1.08c.1-.26,0-.56.23-.78s0-.06,0-.09c-.3-.55-.12-.89.48-1.09s1-.36,1.55-.51c-.43-.23-.44-.28-.2-.63a6.92,6.92,0,0,1,2.6-2.28,10.41,10.41,0,0,0,1.13-.72c.82-.57,1.68-1.08,2.46-1.71a6.59,6.59,0,0,0,1.31-1.23c.13-.19.29-.38.05-.61,0-.32-.1-.41-.34-.41a1,1,0,0,0-.47.16A28.26,28.26,0,0,1,56,42.36a2,2,0,0,1-1,.23.53.53,0,0,1-.46-.82,2.63,2.63,0,0,1,.81-1,4,4,0,0,0,1.07-1.25c.08-.14.09-.27-.08-.34a1.83,1.83,0,0,1-.68-.54.36.36,0,0,0-.53-.06l-.16.09a1.12,1.12,0,0,1-1.52-.28c-.15-.17-.29-.36-.44-.53s-.35-.2-.45.1a1.9,1.9,0,0,0-.06.27c-.05.32-.09.64-.16,1a1.41,1.41,0,0,1-1.41,1.21,4,4,0,0,1-.83-.07,1.4,1.4,0,0,1-.92-.63,1.45,1.45,0,0,1-.22-.79,3.57,3.57,0,0,0-.2-1c-.06-.16-.19-.17-.27,0a6.64,6.64,0,0,0-.3.62c-.16.37-.3.75-.49,1.1a2.71,2.71,0,0,1-.65,1,2.41,2.41,0,0,1-1.54.51,1.36,1.36,0,0,1-1.21-.7,1.6,1.6,0,0,1-.16-.76c0-.07,0-.16-.1-.19s-.11,0-.16.07l-.16.17a2,2,0,0,1-2.38.69,1.31,1.31,0,0,1-1-1.51c0-.12,0-.24.05-.36s-.07-.2-.21-.14l-.34.15a2.11,2.11,0,0,1-1.53.1,5.6,5.6,0,0,1-.63-.27h0a1.33,1.33,0,0,0-.33-.56l0-.12a10.58,10.58,0,0,1,.19-1.19l.17-.22a.66.66,0,0,0,.87-.46,13,13,0,0,1,1-1.85,9.32,9.32,0,0,1,.8-1.21.64.64,0,0,1,.34-.23,7.78,7.78,0,0,0,1.5-.54c.42-.19.89-.31,1.33-.48a11.35,11.35,0,0,0,2.28-1,.29.29,0,0,1,.17,0,5.68,5.68,0,0,0,1.38-.23c.21,0,.45,0,.62-.14a1.23,1.23,0,0,1,1.22-.12c.46.12.91.29,1.37.41.82.21,1.66.29,2.47.53a7,7,0,0,0,1.19.33c.58.07,1.11.33,1.7.4a3.52,3.52,0,0,1,.86.12,7.16,7.16,0,0,0,1,.24c.47.12.94.27,1.41.43a1.06,1.06,0,0,0,.53.09.9.9,0,0,1,.58,0c.33.24.51,0,.7-.15s.21-.39,0-.58a5.1,5.1,0,0,1-.47-.44,1.91,1.91,0,0,0-1.08-.73,3.13,3.13,0,0,0-.92-.24.24.24,0,0,0-.25-.08,5.55,5.55,0,0,0-1-.26c-.06-.11-.18-.1-.28-.14a5.86,5.86,0,0,1-.67-.31.69.69,0,0,1-.21-1,1.42,1.42,0,0,1,.53-.44,5.68,5.68,0,0,1,1-.5,3.42,3.42,0,0,1,3,.35,6.5,6.5,0,0,0,.6.34.38.38,0,0,0,.43,0,1.91,1.91,0,0,0,.05.36.29.29,0,0,0,.35.22.28.28,0,0,0,.23-.3c0-.66.18-1.31.22-2,.07-1,.14-2,.29-2.93a3.59,3.59,0,0,1,1.38-2.65.83.83,0,0,0,.13-.14,10.28,10.28,0,0,0,1-1.41,17.21,17.21,0,0,0,1-1.91.77.77,0,0,1,.65-.52.41.41,0,0,0,.3-.18.41.41,0,0,1,.31-.18c.36,0,.62-.3,1-.27,0,0,.07-.05.11-.08a3,3,0,0,0,1.57-.23.24.24,0,0,0,.21.15,1.52,1.52,0,0,0,.68-.08,1.6,1.6,0,0,1,1.24.17c.07,0,.15.07.16.15,0,.41.4.67.45,1.08a1.35,1.35,0,0,0-.25.51.36.36,0,0,0-.21.16c-.18.22-.14.33.14.35a2.81,2.81,0,0,1,1,.34,1.19,1.19,0,0,1,.74.86,1.76,1.76,0,0,0,.37.82v.14h0a2.64,2.64,0,0,1-1,.6c-.45.14-.52.36-.28.76a1,1,0,0,0,.14.18,1.23,1.23,0,0,1,.29.76,4,4,0,0,1-.07.73l-.09.14a.13.13,0,0,0-.1.11l-.12.1a2.23,2.23,0,0,1-1.12.17c-.35,0-.54.16-.46.51a4.35,4.35,0,0,1,0,1.73l-.24.33a3.13,3.13,0,0,1-1.18.16c-.21,0-.47,0-.55.22a.63.63,0,0,0,.21.63,2,2,0,0,0,.34.31.88.88,0,0,1,.36.93c0,.1,0,.21-.05.32s0,.26.1.33a.34.34,0,0,0,.35-.06,1.8,1.8,0,0,0,.47-.51,7.51,7.51,0,0,1,1.49-1.56,5.32,5.32,0,0,1,1.35-.68c1.08-.4,2.18-.75,3.28-1.1a3.17,3.17,0,0,1,2.33.21c.39.18.75.42,1.12.63a1.45,1.45,0,0,0,1.33.08c.41-.17.83-.34,1.23-.53.62-.29,1.25-.53,1.88-.76a4.33,4.33,0,0,1,3.11.17,4.82,4.82,0,0,0,.88.25,9.69,9.69,0,0,0,1.54.6c1,.63,2.21.86,3.26,1.41a1.44,1.44,0,0,0,.31.09c.16.31.52.42.69.72a2,2,0,0,0,.23.29A20.4,20.4,0,0,1,96.45,33c.07.81.13,1.62.22,2.42a9.27,9.27,0,0,1,0,1.14c-.14.07-.16.21-.22.33a1.41,1.41,0,0,1-.75.65,3,3,0,0,1-.63.13h-.37a6.38,6.38,0,0,1-2.42-.46,2.41,2.41,0,0,1-.85-1.65.5.5,0,0,0,0-.14.36.36,0,0,0-.66-.16c-.09.1-.21.18-.23.33a1.25,1.25,0,0,1-1.6,0,1.21,1.21,0,0,1-.35-.73c0-.3-.11-.61-.18-.9s-.17-.3-.37-.11a3.06,3.06,0,0,1-.51.4.75.75,0,0,1-1-.16L86.37,34c-.37-.45-.37-.46-.84-.08a1.24,1.24,0,0,1-.64.23c-.36,0-.39.09-.38.44s.08.61.09.92a1.44,1.44,0,0,1-.22,1,1.3,1.3,0,0,1-2.11,0A4.2,4.2,0,0,1,82,36c-.06-.11-.11-.22-.17-.32a.32.32,0,0,0-.35-.17c-.18,0-.18.19-.18.33a4.93,4.93,0,0,1-.06.92,2,2,0,0,1-1.06,1.44,1.65,1.65,0,0,1-2.21-.62c-.13-.21-.24-.43-.36-.65s-.17-.27-.35-.25a.43.43,0,0,0-.38.35,1.43,1.43,0,0,0,0,.36,2.42,2.42,0,0,1-1.06,2c-.13.1-.35.16-.29.37s.25.23.42.25a9.33,9.33,0,0,0,1.06,0c.72,0,1.44,0,2.17-.06a1.11,1.11,0,0,0,.5-.08h.23a.91.91,0,0,0,.57.1.26.26,0,0,0,.4,0H81a.19.19,0,0,0,.25.09l.15,0a.19.19,0,0,0,.21.05l.22,0a.5.5,0,0,0,.58.2.18.18,0,0,0,.16,0,.25.25,0,0,0,.27.16.06.06,0,0,0,0,.06c0,.2.14.31.36.22L85,42a.19.19,0,0,0,.22.2l.26.16c0,.2.14.29.35.23l.11,0a.65.65,0,0,0,.31.33c.82.46,1.56,1,2.33,1.57a1.51,1.51,0,0,1,.73,1,.45.45,0,0,0,.42.44c.15,0,.3,0,.46.07a.76.76,0,0,1,.67.61A7.21,7.21,0,0,1,91,47.91a2.55,2.55,0,0,0,.09.68,4.15,4.15,0,0,1,.08,1.74.85.85,0,0,1-.84.81l-.5.09a.42.42,0,0,1-.31,0,16.74,16.74,0,0,1-1.9-.93,1,1,0,0,0-.52-.18.45.45,0,0,0-.54.32,1.76,1.76,0,0,0-.16.76,1.09,1.09,0,0,1-.66,1.08,2.66,2.66,0,0,1-2.31,0,.23.23,0,0,0-.15-.12.89.89,0,0,0-.16-.44c.06-.22.12-.43-.12-.59,0-.23.19-.25.3-.36s.2-.36-.06-.52a1.48,1.48,0,0,0-.93-.21l-2.94.2c.07-.19-.27-.09-.2-.29.15,0,.3-.05.45-.06a6.93,6.93,0,0,0,1.76-.31.86.86,0,0,1,.36,0A1.9,1.9,0,0,0,83,49.2a.41.41,0,0,0,.24-.53c-.05-.26-.22-.3-.45-.25a16,16,0,0,0-2.05,0c-.77.06-1.53.28-2.31.28a1.57,1.57,0,0,0-.16-.54c.1-.43.4-.56.81-.6a7.85,7.85,0,0,1,2.2,0,1.3,1.3,0,0,0,1.22-.38,1,1,0,0,1,.62-.36c.58,0,1.16-.09,1.75-.14a1,1,0,0,1,.45.09,1.33,1.33,0,0,0,.9,0c.5-.15-.83-.33-.39-.62M47.07,34.45a.33.33,0,0,0,0,.26c.1.35.25.47.55.48a.71.71,0,0,0,.68-.44.57.57,0,0,0-.12-.67A.71.71,0,0,0,47.07,34.45Zm45.49-6.25L89.64,27a13.59,13.59,0,0,0-1.53-.63c-.13,0-.32-.17-.41,0s.09.31.23.4l.12.07c.61.39,1.33.52,2,.87a1.12,1.12,0,0,0,.41.05c.12,0,.26,0,.34.11a1.68,1.68,0,0,0,.88.46,3.41,3.41,0,0,1,.75.34,6.39,6.39,0,0,0,1.35.58,1.36,1.36,0,0,0,.68,0c.15,0,.17-.11.09-.23s-.13-.17-.27-.13a1,1,0,0,0-.48-.33A11,11,0,0,0,92.57,28.19ZM80.24,41a2.28,2.28,0,0,0,.27-.06c.15-.05.33-.13.31-.29s-.23-.19-.41-.19l-1.42,0-1.75.05c-.13,0-.25.07-.21.23s.14.26.3.14.48.11.71.11.45-.32.75-.16A3.5,3.5,0,0,0,80.24,41ZM63.92,35.08a.58.58,0,0,0-.64-.53.66.66,0,0,0-.59.74.54.54,0,0,0,.65.49A.65.65,0,0,0,63.92,35.08Zm13.49-2.76a.6.6,0,0,0-.68-.54.67.67,0,0,0-.59.75.56.56,0,0,0,.64.51A.7.7,0,0,0,77.41,32.32ZM63.55,40.25a.69.69,0,0,0-.67.67.59.59,0,0,0,.65.55.67.67,0,0,0,.64-.7A.55.55,0,0,0,63.55,40.25ZM73,33.7a.59.59,0,0,0-.6-.57.61.61,0,0,0-.63.68.55.55,0,0,0,.64.56A.61.61,0,0,0,73,33.7Zm8.56-5.81c.08,0,.15,0,.16-.14a.14.14,0,0,0-.1-.14,1.44,1.44,0,0,1-.61-.29,3.52,3.52,0,0,0-.89-.54c-.13-.07-.31-.16-.4,0s.06.31.22.4.15,0,.21.08a3.64,3.64,0,0,1,1.15.54A.32.32,0,0,0,81.53,27.89Zm-20,1.65a6,6,0,0,0-1.73-1.17A1.6,1.6,0,0,0,61.55,29.54Zm4.61,14.72a.66.66,0,0,0-.62.61.46.46,0,0,0,.54.36c.32,0,.59-.3.57-.55A.44.44,0,0,0,66.16,44.25ZM52.59,60.62a.35.35,0,0,0-.27.45c0,.23.18.37.35.33a.42.42,0,0,0,.29-.46A.33.33,0,0,0,52.59,60.62ZM73.75,19.74c.07,0,.13,0,.13-.09s-.1-.2-.23-.21a.1.1,0,0,0-.11.11A.2.2,0,0,0,73.75,19.74Z"/><path class="cls-10" d="M80.38,46.78c-.65,0,6.09-.59,5.45-.54-1.17.1-2.35.25-3.52.37-.23,0-.46,0-.69,0a8.24,8.24,0,0,1-1.69.14,1.74,1.74,0,0,0-.55.06,4.4,4.4,0,0,1-1.23.15c-.78,0-1.57.06-2.35.13a.67.67,0,0,1-.62-.21c-.05-.25-.26-.38-.44-.51a.75.75,0,0,0-1.27.59,1.38,1.38,0,0,1-.76.27.76.76,0,0,0-.59.19c.35.05.55.31.82.43s.18.22.17.38c-.6,0-1.22-.15-1.83.22a1.36,1.36,0,0,0,.57.14,4.07,4.07,0,0,0,1.6.08,1.59,1.59,0,0,1,.4,1.12.1.1,0,0,0,0,0,.61.61,0,0,0,0,.57,1.68,1.68,0,0,0,.19,1,.76.76,0,0,0,0,.49q.13,1.49.27,3a4.84,4.84,0,0,0,.27,1.31,1.42,1.42,0,0,1,0,.91,4.56,4.56,0,0,0-.08.5,4,4,0,0,0,.12,1.14c.17,2.19.4,4.37.49,6.57,0,.26,1.22,22.25,1.16,22.5-1.29.08-2.54.45-3.83.58a.12.12,0,0,0-.2-.07,1.14,1.14,0,0,0-.71.1,5.37,5.37,0,0,1-.23-.89c-.13-1.31-1.47-24.36-1.65-25.66-.08-.52,0-1.05-.08-1.56-.18-1-.22-1.92-.31-2.88a2.15,2.15,0,0,1,0-.69A1.79,1.79,0,0,0,69.2,56a5.69,5.69,0,0,1-.27-2.09,11.58,11.58,0,0,0,0-1.84.9.9,0,0,0-.18-.61c0-.1,0-.19,0-.29s.16-.17,0-.27a1.74,1.74,0,0,0-.1-.68l0,0,0,0c.14-.15.11-.28,0-.41s0-.08,0-.12a2.22,2.22,0,0,0,0-.55,10,10,0,0,1-.1-1c0-.32,0-.49-.32-.6,0-.23-.05-.45-.33-.47a.77.77,0,0,0-.69.76l-1.28.12c-1.21.08-2.42.22-3.63.23-.89,0-1.77.17-2.66.13a5.5,5.5,0,0,0-.83.06c-.11,0-.23,0-.21.19s.12.18.23.18l.6,0a1.12,1.12,0,0,1,.46,0c.3.11.35.26.15.51s-.34.32-.36.58l0,0a.26.26,0,0,0-.27.27l-.33.17c-.11,0-.25.07-.26.22s.13.19.24.23a.77.77,0,0,1,.44.55c.07.23,0,.3-.22.34s-.39-.06-.42.17.23.2.37.26a3,3,0,0,0,.48.16c.77.2.91.39.84,1.14a1,1,0,0,0-.3.34,1.09,1.09,0,0,1-1,.45,2.28,2.28,0,0,1-.85-.18.6.6,0,0,0-.66,0,.61.61,0,0,0-.13.72,3.47,3.47,0,0,0,.09.36,1.76,1.76,0,0,1-.78,2.12,3.58,3.58,0,0,0-.63.53.78.78,0,0,1-.83.25l-.18,0c-.49-.1-.58,0-.49.48a9.06,9.06,0,0,1,.12,1.33.63.63,0,0,1-.27.55c-.33.27-.54.67-.89.92a1.18,1.18,0,0,0-.23.22,2.09,2.09,0,0,1-2,.61,1.73,1.73,0,0,1-1.14-.78,2.09,2.09,0,0,1-.33-.66c-.27-.75-.55-1.5-.82-2.25a1.86,1.86,0,0,0-.39-.67,2.24,2.24,0,0,1-.55-1.25c-.09-.52.1-.73.64-.75.27,0,.36-.1.36-.35a.48.48,0,0,0,0-.18,2.52,2.52,0,0,1,0-1.7c.11-.46.2-.93.31-1.39a9.44,9.44,0,0,1,.37-1.08c.1-.26,0-.56.23-.78s0-.06,0-.09c-.3-.55-.12-.89.48-1.09s1-.36,1.55-.51c-.43-.23-.44-.28-.2-.63a6.92,6.92,0,0,1,2.6-2.28,10.41,10.41,0,0,0,1.13-.72c.82-.57,1.68-1.08,2.46-1.71a6.59,6.59,0,0,0,1.31-1.23c.13-.19.29-.38.05-.61,0-.32-.1-.41-.34-.41a1,1,0,0,0-.47.16A28.26,28.26,0,0,1,56,42.36a2,2,0,0,1-1,.23.53.53,0,0,1-.46-.82,2.63,2.63,0,0,1,.81-1,4,4,0,0,0,1.07-1.25c.08-.14.09-.27-.08-.34a1.83,1.83,0,0,1-.68-.54.36.36,0,0,0-.53-.06l-.16.09a1.12,1.12,0,0,1-1.52-.28c-.15-.17-.29-.36-.44-.53s-.35-.2-.45.1a1.9,1.9,0,0,0-.06.27c-.05.32-.09.64-.16,1a1.41,1.41,0,0,1-1.41,1.21,4,4,0,0,1-.83-.07,1.4,1.4,0,0,1-.92-.63,1.45,1.45,0,0,1-.22-.79,3.57,3.57,0,0,0-.2-1c-.06-.16-.19-.17-.27,0a6.64,6.64,0,0,0-.3.62c-.16.37-.3.75-.49,1.1a2.71,2.71,0,0,1-.65,1,2.41,2.41,0,0,1-1.54.51,1.36,1.36,0,0,1-1.21-.7,1.6,1.6,0,0,1-.16-.76c0-.07,0-.16-.1-.19s-.11,0-.16.07l-.16.17a2,2,0,0,1-2.38.69,1.31,1.31,0,0,1-1-1.51c0-.12,0-.24.05-.36s-.07-.2-.21-.14l-.34.15a2.11,2.11,0,0,1-1.53.1,5.6,5.6,0,0,1-.63-.27h0a1.33,1.33,0,0,0-.33-.56l0-.12a10.58,10.58,0,0,1,.19-1.19l.17-.22a.66.66,0,0,0,.87-.46,13,13,0,0,1,1-1.85,9.32,9.32,0,0,1,.8-1.21.64.64,0,0,1,.34-.23,7.78,7.78,0,0,0,1.5-.54c.42-.19.89-.31,1.33-.48a11.35,11.35,0,0,0,2.28-1,.29.29,0,0,1,.17,0,5.68,5.68,0,0,0,1.38-.23c.21,0,.45,0,.62-.14a1.23,1.23,0,0,1,1.22-.12c.46.12.91.29,1.37.41.82.21,1.66.29,2.47.53a7,7,0,0,0,1.19.33c.58.07,1.11.33,1.7.4a3.52,3.52,0,0,1,.86.12,7.16,7.16,0,0,0,1,.24c.47.12.94.27,1.41.43a1.06,1.06,0,0,0,.53.09.9.9,0,0,1,.58,0c.33.24.51,0,.7-.15s.21-.39,0-.58a5.1,5.1,0,0,1-.47-.44,1.91,1.91,0,0,0-1.08-.73,3.13,3.13,0,0,0-.92-.24.24.24,0,0,0-.25-.08,5.55,5.55,0,0,0-1-.26c-.06-.11-.18-.1-.28-.14a5.86,5.86,0,0,1-.67-.31.69.69,0,0,1-.21-1,1.42,1.42,0,0,1,.53-.44,5.68,5.68,0,0,1,1-.5,3.42,3.42,0,0,1,3,.35,6.5,6.5,0,0,0,.6.34.38.38,0,0,0,.43,0,1.91,1.91,0,0,0,.05.36.29.29,0,0,0,.35.22.28.28,0,0,0,.23-.3c0-.66.18-1.31.22-2,.07-1,.14-2,.29-2.93a3.59,3.59,0,0,1,1.38-2.65.83.83,0,0,0,.13-.14,10.28,10.28,0,0,0,1-1.41,17.21,17.21,0,0,0,1-1.91.77.77,0,0,1,.65-.52.41.41,0,0,0,.3-.18.41.41,0,0,1,.31-.18c.36,0,.62-.3,1-.27,0,0,.07-.05.11-.08a3,3,0,0,0,1.57-.23.24.24,0,0,0,.21.15,1.52,1.52,0,0,0,.68-.08,1.6,1.6,0,0,1,1.24.17c.07,0,.15.07.16.15,0,.41.4.67.45,1.08a1.35,1.35,0,0,0-.25.51.36.36,0,0,0-.21.16c-.18.22-.14.33.14.35a2.81,2.81,0,0,1,1,.34,1.19,1.19,0,0,1,.74.86,1.76,1.76,0,0,0,.37.82v.14h0a2.64,2.64,0,0,1-1,.6c-.45.14-.52.36-.28.76a1,1,0,0,0,.14.18,1.23,1.23,0,0,1,.29.76,4,4,0,0,1-.07.73l-.09.14a.13.13,0,0,0-.1.11l-.12.1a2.23,2.23,0,0,1-1.12.17c-.35,0-.54.16-.46.51a4.35,4.35,0,0,1,0,1.73l-.24.33a3.13,3.13,0,0,1-1.18.16c-.21,0-.47,0-.55.22a.63.63,0,0,0,.21.63,2,2,0,0,0,.34.31.88.88,0,0,1,.36.93c0,.1,0,.21-.05.32s0,.26.1.33a.34.34,0,0,0,.35-.06,1.8,1.8,0,0,0,.47-.51,7.51,7.51,0,0,1,1.49-1.56,5.32,5.32,0,0,1,1.35-.68c1.08-.4,2.18-.75,3.28-1.1a3.17,3.17,0,0,1,2.33.21c.39.18.75.42,1.12.63a1.45,1.45,0,0,0,1.33.08c.41-.17.83-.34,1.23-.53.62-.29,1.25-.53,1.88-.76a4.33,4.33,0,0,1,3.11.17,4.82,4.82,0,0,0,.88.25,9.69,9.69,0,0,0,1.54.6c1,.63,2.21.86,3.26,1.41a1.44,1.44,0,0,0,.31.09c.16.31.52.42.69.72a2,2,0,0,0,.23.29A20.4,20.4,0,0,1,96.45,33c.07.81.13,1.62.22,2.42a9.27,9.27,0,0,1,0,1.14c-.14.07-.16.21-.22.33a1.41,1.41,0,0,1-.75.65,3,3,0,0,1-.63.13h-.37a6.38,6.38,0,0,1-2.42-.46,2.41,2.41,0,0,1-.85-1.65.5.5,0,0,0,0-.14.36.36,0,0,0-.66-.16c-.09.1-.21.18-.23.33a1.25,1.25,0,0,1-1.6,0,1.21,1.21,0,0,1-.35-.73c0-.3-.11-.61-.18-.9s-.17-.3-.37-.11a3.06,3.06,0,0,1-.51.4.75.75,0,0,1-1-.16L86.37,34c-.37-.45-.37-.46-.84-.08a1.24,1.24,0,0,1-.64.23c-.36,0-.39.09-.38.44s.08.61.09.92a1.44,1.44,0,0,1-.22,1,1.3,1.3,0,0,1-2.11,0A4.2,4.2,0,0,1,82,36c-.06-.11-.11-.22-.17-.32a.32.32,0,0,0-.35-.17c-.18,0-.18.19-.18.33a4.93,4.93,0,0,1-.06.92,2,2,0,0,1-1.06,1.44,1.65,1.65,0,0,1-2.21-.62c-.13-.21-.24-.43-.36-.65s-.17-.27-.35-.25a.43.43,0,0,0-.38.35,1.43,1.43,0,0,0,0,.36,2.42,2.42,0,0,1-1.06,2c-.13.1-.35.16-.29.37s.25.23.42.25a9.33,9.33,0,0,0,1.06,0c.72,0,1.44,0,2.17-.06a1.11,1.11,0,0,0,.5-.08h.23a.91.91,0,0,0,.57.1.26.26,0,0,0,.4,0H81a.19.19,0,0,0,.25.09l.15,0a.19.19,0,0,0,.21.05l.22,0a.5.5,0,0,0,.58.2.18.18,0,0,0,.16,0,.25.25,0,0,0,.27.16.06.06,0,0,0,0,.06c0,.2.14.31.36.22L85,42a.19.19,0,0,0,.22.2l.26.16c0,.2.14.29.35.23l.11,0a.65.65,0,0,0,.31.33c.82.46,1.56,1,2.33,1.57a1.51,1.51,0,0,1,.73,1,.45.45,0,0,0,.42.44c.15,0,.3,0,.46.07a.76.76,0,0,1,.67.61A7.21,7.21,0,0,1,91,47.91a2.55,2.55,0,0,0,.09.68,4.15,4.15,0,0,1,.08,1.74.85.85,0,0,1-.84.81l-.5.09a.42.42,0,0,1-.31,0,16.74,16.74,0,0,1-1.9-.93,1,1,0,0,0-.52-.18.45.45,0,0,0-.54.32,1.76,1.76,0,0,0-.16.76,1.09,1.09,0,0,1-.66,1.08,2.66,2.66,0,0,1-2.31,0,.23.23,0,0,0-.15-.12.89.89,0,0,0-.16-.44c.06-.22.12-.43-.12-.59,0-.23.19-.25.3-.36s.2-.36-.06-.52a1.48,1.48,0,0,0-.93-.21l-2.94.2c.07-.19-.27-.09-.2-.29.15,0,.3-.05.45-.06a6.93,6.93,0,0,0,1.76-.31.86.86,0,0,1,.36,0A1.9,1.9,0,0,0,83,49.2a.41.41,0,0,0,.24-.53c-.05-.26-.22-.3-.45-.25a16,16,0,0,0-2.05,0c-.77.06-1.53.28-2.31.28a1.57,1.57,0,0,0-.16-.54c.1-.43.4-.56.81-.6a7.85,7.85,0,0,1,2.2,0,1.3,1.3,0,0,0,1.22-.38,1,1,0,0,1,.62-.36c.58,0,1.16-.09,1.75-.14a1,1,0,0,1,.45.09,1.33,1.33,0,0,0,.9,0c.5-.15-.83-.33-.39-.62M47.07,34.45a.33.33,0,0,0,0,.26c.1.35.25.47.55.48a.71.71,0,0,0,.68-.44.57.57,0,0,0-.12-.67A.71.71,0,0,0,47.07,34.45Zm45.49-6.25L89.64,27a13.59,13.59,0,0,0-1.53-.63c-.13,0-.32-.17-.41,0s.09.31.23.4l.12.07c.61.39,1.33.52,2,.87a1.12,1.12,0,0,0,.41.05c.12,0,.26,0,.34.11a1.68,1.68,0,0,0,.88.46,3.41,3.41,0,0,1,.75.34,6.39,6.39,0,0,0,1.35.58,1.36,1.36,0,0,0,.68,0c.15,0,.17-.11.09-.23s-.13-.17-.27-.13a1,1,0,0,0-.48-.33A11,11,0,0,0,92.57,28.19ZM80.24,41a2.28,2.28,0,0,0,.27-.06c.15-.05.33-.13.31-.29s-.23-.19-.41-.19l-1.42,0-1.75.05c-.13,0-.25.07-.21.23s.14.26.3.14.48.11.71.11.45-.32.75-.16A3.5,3.5,0,0,0,80.24,41ZM63.92,35.08a.58.58,0,0,0-.64-.53.66.66,0,0,0-.59.74.54.54,0,0,0,.65.49A.65.65,0,0,0,63.92,35.08Zm13.49-2.76a.6.6,0,0,0-.68-.54.67.67,0,0,0-.59.75.56.56,0,0,0,.64.51A.7.7,0,0,0,77.41,32.32ZM63.55,40.25a.69.69,0,0,0-.67.67.59.59,0,0,0,.65.55.67.67,0,0,0,.64-.7A.55.55,0,0,0,63.55,40.25ZM73,33.7a.59.59,0,0,0-.6-.57.61.61,0,0,0-.63.68.55.55,0,0,0,.64.56A.61.61,0,0,0,73,33.7Zm8.56-5.81c.08,0,.15,0,.16-.14a.14.14,0,0,0-.1-.14,1.44,1.44,0,0,1-.61-.29,3.52,3.52,0,0,0-.89-.54c-.13-.07-.31-.16-.4,0s.06.31.22.4.15,0,.21.08a3.64,3.64,0,0,1,1.15.54A.32.32,0,0,0,81.53,27.89Zm-20,1.65a6,6,0,0,0-1.73-1.17A1.6,1.6,0,0,0,61.55,29.54Zm4.61,14.72a.66.66,0,0,0-.62.61.46.46,0,0,0,.54.36c.32,0,.59-.3.57-.55A.44.44,0,0,0,66.16,44.25ZM52.59,60.62a.35.35,0,0,0-.27.45c0,.23.18.37.35.33a.42.42,0,0,0,.29-.46A.33.33,0,0,0,52.59,60.62ZM73.75,19.74c.07,0,.13,0,.13-.09s-.1-.2-.23-.21a.1.1,0,0,0-.11.11A.2.2,0,0,0,73.75,19.74Z"/><path class="cls-3" d="M48.54,295c9.38,1.73,18.78,2.63,28.2,3.74,2.36.26,4.71.59,7.07.91s4.74.46,7.11.62,4.76.09,7.14.06q1.78,0,3.57-.11c1.19-.07,2.38-.18,3.56-.28,9.5-.73,18.94-1.67,28.4-2.56,4.73-.41,9.45-.95,14.21-1.26,4.73-.49,9.48-.9,14.27-1.14l.05.3q-7,1.8-14,3.18c-4.72.8-9.45,1.55-14.2,2.1-2.38.22-4.77.45-7.16.61l-3.58.25-3.59.13c-2.39.08-4.79.17-7.18.21s-4.79-.12-7.18-.18l-3.59-.09c-1.2-.07-2.39-.11-3.58-.15s-2.39,0-3.58-.07-2.39,0-3.58,0c-2.39,0-4.78,0-7.18.07s-4.8,0-7.2-.08-4.79-.35-7.17-.66-4.76-.66-7.11-1.18a64.71,64.71,0,0,1-13.81-4.11Z"/></g></g></svg>