<svg xmlns="http://www.w3.org/2000/svg" viewBox="0 0 564.9 58.2"><defs><style>.cls-1{fill:#fad034;}.cls-2{fill:#6dc3d2;}.cls-3{fill:#1a1818;}</style></defs><title>catalogo</title><g id="Layer_2" data-name="Layer 2"><g id="Layer_1-2" data-name="Layer 1"><circle class="cls-1" cx="100.97" cy="29.1" r="29.1"/><circle class="cls-2" cx="29.1" cy="29.1" r="29.1"/><circle class="cls-1" cx="249.52" cy="29.1" r="29.1"/><circle class="cls-2" cx="177.65" cy="29.1" r="29.1"/><circle class="cls-1" cx="391.96" cy="29.1" r="29.1"/><circle class="cls-2" cx="320.08" cy="29.1" r="29.1"/><circle class="cls-1" cx="535.8" cy="29.1" r="29.1"/><circle class="cls-2" cx="463.93" cy="29.1" r="29.1"/><path class="cls-3" d="M535.85,52.07a15.61,15.61,0,0,1-2.09-.15,8.11,8.11,0,0,1-2.23-.64,8.16,8.16,0,0,1-3.93-3.77,14.16,14.16,0,0,1-1.25-3.64,24.77,24.77,0,0,1-.47-5.17V24.5a24,24,0,0,1,.48-5.17,14,14,0,0,1,1.28-3.61,8.09,8.09,0,0,1,1.82-2.33,7.94,7.94,0,0,1,2.13-1.32,8.7,8.7,0,0,1,2.21-.6,16.19,16.19,0,0,1,2-.14,17,17,0,0,1,2,.13A8.62,8.62,0,0,1,540,12a7.92,7.92,0,0,1,2.12,1.29A7.82,7.82,0,0,1,544,15.63a14,14,0,0,1,1.28,3.63,24.58,24.58,0,0,1,.48,5.24V38.68a23.17,23.17,0,0,1-.49,5.12,14.67,14.67,0,0,1-1.29,3.63,8.29,8.29,0,0,1-1.84,2.39A9.14,9.14,0,0,1,540,51.24a8,8,0,0,1-2.17.67A13,13,0,0,1,535.85,52.07Zm0-4.57a3.72,3.72,0,0,0,1.56-.3,2.46,2.46,0,0,0,1.1-1.05,6.19,6.19,0,0,0,.66-2,17.93,17.93,0,0,0,.22-3.11V22.84a19.34,19.34,0,0,0-.22-3.21,6.69,6.69,0,0,0-.66-2.07,2.57,2.57,0,0,0-1.1-1.11,3.49,3.49,0,0,0-1.56-.33,3.63,3.63,0,0,0-1.59.33,2.61,2.61,0,0,0-1.12,1.11,6.47,6.47,0,0,0-.67,2.07,19.34,19.34,0,0,0-.22,3.21V41.05a17.93,17.93,0,0,0,.22,3.11,6,6,0,0,0,.67,2,2.51,2.51,0,0,0,1.13,1.05A3.87,3.87,0,0,0,535.85,47.5Z"/><path class="cls-3" d="M29.7,49.57a14.71,14.71,0,0,1-2-.15,8,8,0,0,1-2.18-.64,8.05,8.05,0,0,1-2.09-1.39A8.3,8.3,0,0,1,21.65,45a14.52,14.52,0,0,1-1.22-3.64A25.39,25.39,0,0,1,20,36.19V22a24.56,24.56,0,0,1,.47-5.17,14.29,14.29,0,0,1,1.24-3.61,7.89,7.89,0,0,1,1.78-2.33,8,8,0,0,1,2.09-1.32A8.29,8.29,0,0,1,27.69,9a15.22,15.22,0,0,1,2-.14,10.44,10.44,0,0,1,4,.67,6.6,6.6,0,0,1,2.58,1.83A6.91,6.91,0,0,1,37.63,14,12.77,12.77,0,0,1,38,17.32a20.31,20.31,0,0,1-.13,2.38q-.13,1.09-.39,2.4H32.6v-2a12.82,12.82,0,0,0-.73-4.95,2.31,2.31,0,0,0-2.13-1.64,3.17,3.17,0,0,0-1.48.33,2.57,2.57,0,0,0-1.05,1.11A6.92,6.92,0,0,0,26.57,17a19.33,19.33,0,0,0-.22,3.21V38.49a22.88,22.88,0,0,0,.18,3.12,6.12,6.12,0,0,0,.57,2,2.38,2.38,0,0,0,1,1.07A3.51,3.51,0,0,0,29.7,45a2.48,2.48,0,0,0,1.13-.27,2.61,2.61,0,0,0,.95-.84,4.64,4.64,0,0,0,.66-1.45,7.74,7.74,0,0,0,.25-2.07V36.42h5.55v3.7q0,4.83-2.2,7.13A8.43,8.43,0,0,1,29.7,49.57Z"/><path class="cls-3" d="M99.44,9.19h7l7.41,40h-6.14L106.59,42H99.28l-1.05,7.17H92.06Zm6.45,28.29-2.81-19.95h-.26L100,37.48Z"/><path class="cls-3" d="M174.3,14h-6.45V9.19H186.8V14h-6.42V49.22H174.3Z"/><path class="cls-3" d="M245.36,13.38h7l7.41,40h-6.14l-1.1-7.17H245.2l-1.05,7.17H238Zm6.45,28.29L249,21.73h-.26L245.9,41.67Zm-5.39-31.62L253.94,5l3,3.91-8.09,3.89Z"/><path class="cls-3" d="M316,11.68H322V46.93h8.27v4.78H316Z"/><path class="cls-3" d="M392.21,52.07a15.61,15.61,0,0,1-2.09-.15,8.11,8.11,0,0,1-2.23-.64A8.15,8.15,0,0,1,384,47.5a14.17,14.17,0,0,1-1.25-3.64,24.77,24.77,0,0,1-.47-5.17V24.5a23.92,23.92,0,0,1,.48-5.17A14,14,0,0,1,384,15.73a8.09,8.09,0,0,1,1.82-2.33A7.94,7.94,0,0,1,388,12.07a8.7,8.7,0,0,1,2.21-.6,16.19,16.19,0,0,1,2-.14,17,17,0,0,1,2,.13,8.63,8.63,0,0,1,2.18.56,7.92,7.92,0,0,1,2.12,1.29,7.84,7.84,0,0,1,1.83,2.32,14,14,0,0,1,1.28,3.63,24.58,24.58,0,0,1,.48,5.24V38.68a23.18,23.18,0,0,1-.49,5.12,14.66,14.66,0,0,1-1.29,3.63,8.28,8.28,0,0,1-1.84,2.39,9.14,9.14,0,0,1-2.13,1.41,8,8,0,0,1-2.17.67A13,13,0,0,1,392.21,52.07Zm0-4.57a3.72,3.72,0,0,0,1.56-.3,2.46,2.46,0,0,0,1.1-1.05,6.21,6.21,0,0,0,.66-2,18,18,0,0,0,.22-3.11V22.84a19.45,19.45,0,0,0-.22-3.21,6.71,6.71,0,0,0-.66-2.07,2.57,2.57,0,0,0-1.1-1.11,3.49,3.49,0,0,0-1.56-.33,3.63,3.63,0,0,0-1.59.33,2.61,2.61,0,0,0-1.12,1.11,6.45,6.45,0,0,0-.67,2.07,19.22,19.22,0,0,0-.22,3.21V41.05a17.82,17.82,0,0,0,.22,3.11,6,6,0,0,0,.67,2,2.51,2.51,0,0,0,1.13,1.05A3.87,3.87,0,0,0,392.21,47.5Z"/><path class="cls-3" d="M463,49.58a10.39,10.39,0,0,1-1.64-.15,6.86,6.86,0,0,1-1.93-.64,8.17,8.17,0,0,1-2-1.39A8.64,8.64,0,0,1,455.78,45a15,15,0,0,1-1.23-3.66,24.77,24.77,0,0,1-.47-5.17V22a23.43,23.43,0,0,1,.49-5.17,13.64,13.64,0,0,1,1.31-3.61,8,8,0,0,1,1.89-2.33A8.49,8.49,0,0,1,460,9.56a9.24,9.24,0,0,1,2.27-.6,16.9,16.9,0,0,1,2.09-.14,11.14,11.14,0,0,1,4.11.67,7.12,7.12,0,0,1,2.72,1.83,6.92,6.92,0,0,1,1.5,2.71,11.52,11.52,0,0,1,.46,3.28,17.23,17.23,0,0,1-.15,2.38q-.15,1.09-.41,2.4h-4.85v-1.9q0-6.59-3.54-6.59a3.9,3.9,0,0,0-1.66.33A2.71,2.71,0,0,0,461.34,15a6.09,6.09,0,0,0-.69,2.07,19.34,19.34,0,0,0-.22,3.21V38.47a18.14,18.14,0,0,0,.22,3.12,5.82,5.82,0,0,0,.68,2,2.63,2.63,0,0,0,1.15,1.07,4,4,0,0,0,1.65.32,2.87,2.87,0,0,0,1.73-.53,4,4,0,0,0,1.2-1.44,7.69,7.69,0,0,0,.69-2.16,15.3,15.3,0,0,0,.22-2.7V32.92h-3.12v-4h9V49.21h-4l-.66-3.8a8.18,8.18,0,0,1-2.64,3.2A6.3,6.3,0,0,1,463,49.58Z"/></g></g></svg>