<svg xmlns="http://www.w3.org/2000/svg" viewBox="0 0 564.9 58.2"><defs><style>.cls-1{fill:#fad034;}.cls-2{fill:#6dc3d2;}.cls-3{fill:#1a1818;}</style></defs><title>contacto</title><g id="Layer_2" data-name="Layer 2"><g id="Layer_1-2" data-name="Layer 1"><circle class="cls-1" cx="100.97" cy="29.1" r="29.1"/><circle class="cls-2" cx="29.1" cy="29.1" r="29.1"/><circle class="cls-1" cx="249.53" cy="29.1" r="29.1"/><circle class="cls-2" cx="177.65" cy="29.1" r="29.1"/><circle class="cls-1" cx="391.96" cy="29.1" r="29.1"/><circle class="cls-2" cx="320.08" cy="29.1" r="29.1"/><circle class="cls-1" cx="535.8" cy="29.1" r="29.1"/><circle class="cls-2" cx="463.93" cy="29.1" r="29.1"/><path class="cls-3" d="M535.85,52.07a15.6,15.6,0,0,1-2.09-.15,8.11,8.11,0,0,1-2.23-.64,8.16,8.16,0,0,1-3.93-3.77,14.2,14.2,0,0,1-1.25-3.64,24.84,24.84,0,0,1-.47-5.17V24.5a24,24,0,0,1,.48-5.17,13.92,13.92,0,0,1,1.28-3.61,8.09,8.09,0,0,1,1.82-2.33,7.94,7.94,0,0,1,2.13-1.32,8.73,8.73,0,0,1,2.21-.6,16.18,16.18,0,0,1,2-.14,17,17,0,0,1,2,.13A8.65,8.65,0,0,1,540,12a7.94,7.94,0,0,1,2.12,1.29A7.8,7.8,0,0,1,544,15.63a13.94,13.94,0,0,1,1.28,3.63,24.64,24.64,0,0,1,.48,5.24V38.68a23.11,23.11,0,0,1-.49,5.12,14.62,14.62,0,0,1-1.29,3.63,8.3,8.3,0,0,1-1.84,2.39A9.16,9.16,0,0,1,540,51.24a8,8,0,0,1-2.17.67A13.06,13.06,0,0,1,535.85,52.07Zm0-4.57a3.73,3.73,0,0,0,1.56-.3,2.47,2.47,0,0,0,1.1-1.05,6.19,6.19,0,0,0,.66-2,17.94,17.94,0,0,0,.22-3.11V22.84a19.35,19.35,0,0,0-.22-3.21,6.69,6.69,0,0,0-.66-2.07,2.57,2.57,0,0,0-1.1-1.11,3.5,3.5,0,0,0-1.56-.33,3.63,3.63,0,0,0-1.59.33,2.61,2.61,0,0,0-1.12,1.11,6.47,6.47,0,0,0-.67,2.07,19.33,19.33,0,0,0-.22,3.21V41.05a17.92,17.92,0,0,0,.22,3.11,6,6,0,0,0,.67,2,2.51,2.51,0,0,0,1.13,1.05A3.86,3.86,0,0,0,535.85,47.5Z"/><path class="cls-3" d="M29.7,49.57a14.7,14.7,0,0,1-2-.15,8,8,0,0,1-2.18-.64,8,8,0,0,1-2.09-1.39A8.32,8.32,0,0,1,21.65,45a14.56,14.56,0,0,1-1.22-3.64A25.38,25.38,0,0,1,20,36.19V22a24.56,24.56,0,0,1,.47-5.17,14.3,14.3,0,0,1,1.24-3.61,7.89,7.89,0,0,1,1.78-2.33,8,8,0,0,1,2.09-1.32A8.25,8.25,0,0,1,27.69,9a15.22,15.22,0,0,1,2-.14,10.44,10.44,0,0,1,4,.67,6.59,6.59,0,0,1,2.58,1.83A6.91,6.91,0,0,1,37.63,14,12.76,12.76,0,0,1,38,17.32a20.11,20.11,0,0,1-.13,2.38q-.13,1.09-.39,2.4H32.6v-2a12.82,12.82,0,0,0-.73-4.95,2.31,2.31,0,0,0-2.13-1.64,3.17,3.17,0,0,0-1.48.33,2.57,2.57,0,0,0-1.06,1.11A7,7,0,0,0,26.57,17a19.33,19.33,0,0,0-.22,3.21V38.49a22.86,22.86,0,0,0,.18,3.12,6.12,6.12,0,0,0,.57,2,2.38,2.38,0,0,0,1,1.07A3.51,3.51,0,0,0,29.7,45a2.48,2.48,0,0,0,1.13-.27,2.61,2.61,0,0,0,.95-.84,4.64,4.64,0,0,0,.66-1.45,7.75,7.75,0,0,0,.25-2.07V36.42h5.55v3.7q0,4.83-2.2,7.13A8.43,8.43,0,0,1,29.7,49.57Z"/><path class="cls-3" d="M101.92,49.47a15.61,15.61,0,0,1-2.09-.15,8.11,8.11,0,0,1-2.23-.64,8.16,8.16,0,0,1-3.93-3.77,14.17,14.17,0,0,1-1.25-3.64A24.77,24.77,0,0,1,92,36.08V21.9a24,24,0,0,1,.48-5.17,14,14,0,0,1,1.28-3.61,8.09,8.09,0,0,1,1.82-2.33,8,8,0,0,1,2.13-1.32,8.74,8.74,0,0,1,2.21-.6,16.19,16.19,0,0,1,2-.14,17,17,0,0,1,2,.13,8.63,8.63,0,0,1,2.18.56,7.92,7.92,0,0,1,2.12,1.29A7.82,7.82,0,0,1,110,13a13.94,13.94,0,0,1,1.28,3.63,24.58,24.58,0,0,1,.48,5.24V36.08a23.18,23.18,0,0,1-.49,5.12A14.66,14.66,0,0,1,110,44.84a8.28,8.28,0,0,1-1.84,2.39A9.14,9.14,0,0,1,106,48.63a8,8,0,0,1-2.17.67A13,13,0,0,1,101.92,49.47Zm0-4.57a3.72,3.72,0,0,0,1.56-.3,2.46,2.46,0,0,0,1.1-1.05,6.19,6.19,0,0,0,.66-2,17.93,17.93,0,0,0,.22-3.11V20.24a19.34,19.34,0,0,0-.22-3.21,6.69,6.69,0,0,0-.66-2.07,2.57,2.57,0,0,0-1.1-1.11,3.49,3.49,0,0,0-1.56-.33,3.63,3.63,0,0,0-1.59.33A2.61,2.61,0,0,0,99.21,15,6.47,6.47,0,0,0,98.54,17a19.33,19.33,0,0,0-.22,3.21V38.45a17.92,17.92,0,0,0,.22,3.11,6,6,0,0,0,.67,2,2.51,2.51,0,0,0,1.13,1.05A3.87,3.87,0,0,0,101.92,44.9Z"/><path class="cls-3" d="M167.87,9.08h4.92l9.7,26.79h.14q-.07-.94-.19-2.09t-.21-2.61q-.09-1.46-.16-3.32T182,23.68V9.08h5.44v40h-5L172.81,23h-.19q.07,1.05.19,2.29t.21,2.89q.1,1.66.16,3.88t.07,5.26V49.11h-5.39Z"/><path class="cls-3" d="M247.1,13.86h-6.45V9.08H259.6v4.78h-6.42V49.11H247.1Z"/><path class="cls-3" d="M316.58,9.19h7l7.41,40h-6.14L323.73,42h-7.31l-1.05,7.17H309.2ZM323,37.48l-2.81-19.95H320l-2.84,19.95Z"/><path class="cls-3" d="M391.45,49.47a14.71,14.71,0,0,1-2-.15,8,8,0,0,1-2.18-.64,8.08,8.08,0,0,1-2.08-1.39,8.26,8.26,0,0,1-1.76-2.38,14.51,14.51,0,0,1-1.22-3.64,25.31,25.31,0,0,1-.46-5.17V21.9a24.56,24.56,0,0,1,.47-5.17,14.33,14.33,0,0,1,1.24-3.61,7.86,7.86,0,0,1,1.78-2.33,8,8,0,0,1,2.09-1.32,8.26,8.26,0,0,1,2.14-.6,15.23,15.23,0,0,1,2-.14,10.44,10.44,0,0,1,4,.67A6.6,6.6,0,0,1,398,11.23a6.93,6.93,0,0,1,1.38,2.71,12.8,12.8,0,0,1,.41,3.28,20.13,20.13,0,0,1-.13,2.38q-.13,1.09-.39,2.4h-4.92V20a12.82,12.82,0,0,0-.73-4.95,2.31,2.31,0,0,0-2.13-1.64,3.16,3.16,0,0,0-1.48.33A2.56,2.56,0,0,0,389,14.81a7,7,0,0,0-.65,2.07,19.45,19.45,0,0,0-.22,3.21V38.38a23.09,23.09,0,0,0,.17,3.12,6.14,6.14,0,0,0,.58,2,2.37,2.37,0,0,0,1,1.07,3.51,3.51,0,0,0,1.56.32,2.47,2.47,0,0,0,1.12-.27,2.59,2.59,0,0,0,1-.84,4.62,4.62,0,0,0,.66-1.45,7.79,7.79,0,0,0,.25-2.07V36.32H400V40q0,4.83-2.2,7.13A8.43,8.43,0,0,1,391.45,49.47Z"/><path class="cls-3" d="M459.12,13.86h-6.45V9.08h18.94v4.78h-6.42V49.11h-6.07Z"/></g></g></svg>