<svg xmlns="http://www.w3.org/2000/svg" viewBox="0 0 493.03 58.2"><defs><style>.cls-1{fill:#fad034;}.cls-2{fill:#6dc3d2;}.cls-3{fill:#1a1818;}</style></defs><title>eventos</title><g id="Layer_2" data-name="Layer 2"><g id="Layer_1-2" data-name="Layer 1"><circle class="cls-1" cx="100.97" cy="29.1" r="29.1"/><circle class="cls-2" cx="29.1" cy="29.1" r="29.1"/><circle class="cls-1" cx="249.53" cy="29.1" r="29.1"/><circle class="cls-2" cx="177.65" cy="29.1" r="29.1"/><circle class="cls-1" cx="391.96" cy="29.1" r="29.1"/><circle class="cls-2" cx="320.08" cy="29.1" r="29.1"/><circle class="cls-2" cx="463.93" cy="29.1" r="29.1"/><path class="cls-3" d="M171.64,9.08h14.83V13.4h-8.77V24.22h6.77v4.32h-6.77V40.92h9v4.32H171.64Z"/><path class="cls-3" d="M21.64,9.08H36.47V13.4H27.71V24.22h6.77v4.32H27.71V40.92h9v4.32H21.64Z"/><path class="cls-3" d="M89.34,9.08h6.21L100,40.79h.26l4.43-31.71h6.19l-7.29,40H96.6Z"/><path class="cls-3" d="M239.74,9.46h4.92l9.7,26.79h.14q-.07-.94-.19-2.09t-.21-2.61q-.09-1.46-.16-3.32t-.07-4.17V9.46h5.44v40h-5L244.69,23.4h-.19q.07,1.05.19,2.29t.21,2.89q.09,1.66.16,3.88t.07,5.26V49.49h-5.39Z"/><path class="cls-3" d="M317.72,13.86h-6.45V9.08h18.94v4.78h-6.42V49.11h-6.07Z"/><path class="cls-3" d="M392.05,49.84a15.6,15.6,0,0,1-2.09-.15,8.12,8.12,0,0,1-2.23-.64,8.17,8.17,0,0,1-3.93-3.77,14.2,14.2,0,0,1-1.25-3.64,24.7,24.7,0,0,1-.47-5.17V22.28a24,24,0,0,1,.48-5.17,14,14,0,0,1,1.28-3.61,8.11,8.11,0,0,1,1.82-2.33,8,8,0,0,1,2.13-1.32,8.74,8.74,0,0,1,2.21-.6,16.19,16.19,0,0,1,2-.14,17,17,0,0,1,2,.13,8.61,8.61,0,0,1,2.18.56,7.92,7.92,0,0,1,2.12,1.29,7.8,7.8,0,0,1,1.83,2.32A13.9,13.9,0,0,1,401.44,17a24.58,24.58,0,0,1,.48,5.24V36.46a23.11,23.11,0,0,1-.49,5.12,14.67,14.67,0,0,1-1.29,3.63,8.3,8.3,0,0,1-1.84,2.39A9.1,9.1,0,0,1,396.17,49a8,8,0,0,1-2.17.67A13,13,0,0,1,392.05,49.84Zm0-4.57a3.72,3.72,0,0,0,1.56-.3,2.45,2.45,0,0,0,1.1-1.05,6.16,6.16,0,0,0,.66-2,17.92,17.92,0,0,0,.22-3.11V20.61a19.33,19.33,0,0,0-.22-3.21,6.65,6.65,0,0,0-.66-2.07,2.56,2.56,0,0,0-1.1-1.11,3.49,3.49,0,0,0-1.56-.33,3.62,3.62,0,0,0-1.59.33,2.61,2.61,0,0,0-1.12,1.11,6.47,6.47,0,0,0-.67,2.07,19.45,19.45,0,0,0-.22,3.21V38.83a18,18,0,0,0,.22,3.11,6,6,0,0,0,.67,2A2.5,2.5,0,0,0,390.46,45,3.86,3.86,0,0,0,392.05,45.27Z"/><path class="cls-3" d="M455.87,41a17.23,17.23,0,0,1,.15-2.38q.15-1.09.46-2.36h4.71V38.2a18.23,18.23,0,0,0,.2,2.86,6.7,6.7,0,0,0,.66,2.1,3.14,3.14,0,0,0,1.22,1.29,3.71,3.71,0,0,0,1.86.43,3.51,3.51,0,0,0,2.65-.95,3.85,3.85,0,0,0,.91-2.78,10.67,10.67,0,0,0-.13-1.72,7.19,7.19,0,0,0-.45-1.56,10.65,10.65,0,0,0-.86-1.63,21.3,21.3,0,0,0-1.38-1.91l-6.33-7.52a18.89,18.89,0,0,1-2.6-4.35,12,12,0,0,1-.91-4.68,10.38,10.38,0,0,1,.62-3.66,8.16,8.16,0,0,1,1.79-2.87,8,8,0,0,1,2.89-1.87,10.73,10.73,0,0,1,3.9-.67,11.36,11.36,0,0,1,4.42.75,7.55,7.55,0,0,1,2.82,2A7.14,7.14,0,0,1,474,14.17a11,11,0,0,1,.43,3,13.25,13.25,0,0,1-.2,2.38q-.2,1.09-.46,2.4h-4.69v-1.9a10.52,10.52,0,0,0-.91-4.89,3.13,3.13,0,0,0-3-1.7,3.24,3.24,0,0,0-2.55.95,3.69,3.69,0,0,0-.84,2.54,8.22,8.22,0,0,0,.13,1.52,6,6,0,0,0,.38,1.25,7.3,7.3,0,0,0,.6,1.11q.35.54.8,1.13l7.05,8.53a24.36,24.36,0,0,1,3,4.82,11.85,11.85,0,0,1,1,4.89,10.49,10.49,0,0,1-.67,3.84A8,8,0,0,1,472.13,47a8.47,8.47,0,0,1-3,1.84,11.45,11.45,0,0,1-4,.64,12.1,12.1,0,0,1-4.51-.73,7.55,7.55,0,0,1-2.86-1.92,6.85,6.85,0,0,1-1.5-2.72A11.33,11.33,0,0,1,455.87,41Z"/></g></g></svg>