<svg xmlns="http://www.w3.org/2000/svg" viewBox="0 0 243.05 243.39"><defs><style>.cls-1{fill:#fff;}</style></defs><title>logoPies</title><g id="Layer_2" data-name="Layer 2"><g id="Layer_1-2" data-name="Layer 1"><path class="cls-1" d="M123.83,243.23c3.85-.51,7.73-.84,11.53-1.58,5.67-1.12,11.29-2.5,16.91-3.84,1-.23,1.82-.84,2.77-1.17,2.61-.9,5.32-1.53,7.83-2.64q7.34-3.23,14.48-6.9a80.13,80.13,0,0,0,9.29-5.5,100.26,100.26,0,0,0,10-7.91,137,137,0,0,0,9.61-9.87,63.42,63.42,0,0,0,4.7-6.38c2.76-4,5.52-7.95,8.17-12a58.4,58.4,0,0,0,4.72-8.09c2.48-5.63,4.72-11.37,6.9-17.13,1.46-3.86,2.61-7.83,4-11.72.46-1.3.29-2.87,2-3.74a3,3,0,0,0,.55-2.86c-.78-1-.41-1.68-.19-2.48.79-2.8,1.78-5.56,2.44-8.39.82-3.52,1.42-7.09,2-10.65.67-3.84,1.41-7.68,1.14-11.61,0-.42,0-.85,0-1.28.1-3.55.48-7.13.23-10.66a107,107,0,0,0-1.8-14.06c-.76-3.71-2.24-7.27-3.43-10.88-.43-1.31-1-2.57-1.4-3.9-.55-2-.81-4.17-1.47-6.18a5.38,5.38,0,0,0-1.94-2.12c-1.26-1-2.92-1.6-3.9-2.79-1.61-2-2.74-4.28-4.34-6.3s-2.2-4.39-4.23-5.93a16.44,16.44,0,0,1-2-1.45c-2.17-2.24-4.22-4.6-6.42-6.81a57.82,57.82,0,0,0-5.19-4.63c-2.37-1.86-4.89-3.51-7.29-5.33-1-.73-1.69-1.79-2.69-2.44a76.07,76.07,0,0,0-7.74-4.64c-4.94-2.43-9.9-4.89-15-6.82a131.1,131.1,0,0,0-14.36-4.14c-6.18-1.54-12.4-2.94-18.63-4.26-3.89-.82-7.82-1.42-11.74-2.06-2-.34-4.15-.38-6.16-.86a59.16,59.16,0,0,0-16.7-1.1A73.1,73.1,0,0,0,91.25,2.38C86.69,3.6,82.2,4.91,78.1,7.31c-.55.32-1.12.61-1.68.9-4.39,2.23-8.83,4.38-13.16,6.72S54.94,19.57,50.85,22a75.61,75.61,0,0,0-9.3,6.06,52.32,52.32,0,0,0-7.85,8.08c-2.74,3.49-5.06,7.33-7.47,11.08s-4.61,7.48-7,11.15c-.33.5-1.27.68-2,.86a12.86,12.86,0,0,0-2.85.57A10.93,10.93,0,0,0,12,62a8.74,8.74,0,0,0-1.8,2.21c-1.06,2.36-2,4.78-2.87,7.2-.76,2.08-1.5,4.18-2.07,6.32-1,3.68-2,7.37-2.75,11.11-.61,3-.86,6.11-1.25,9.17-.35,2.78-.88,5.56-1,8.36-.18,5.82-.58,11.66.28,17.47.47,3.21.58,6.49,1.19,9.67.94,4.94,2.08,9.85,3.31,14.72a111.13,111.13,0,0,0,3.44,11.79,82.14,82.14,0,0,0,8.92,17.52c1.73,2.56,3,5.42,5,7.83,1.35,1.62,2.31,3.58,3.73,5.14q5.21,5.71,10.7,11.15c2.68,2.64,5.52,5.13,8.39,7.57,2.58,2.19,5.29,4.24,8,6.32,2.84,2.21,5.63,4.48,8.57,6.54s5.77,3.71,8.65,5.57a72.85,72.85,0,0,0,7.09,4.58c6.11,3,12.22,6.07,18.86,7.81a79.59,79.59,0,0,0,9.45,2.16A85.21,85.21,0,0,0,123.83,243.23Z"/><path d="M123.83,243.23a85.21,85.21,0,0,1-18-1,79.59,79.59,0,0,1-9.45-2.16c-6.64-1.74-12.75-4.81-18.86-7.81a72.85,72.85,0,0,1-7.09-4.58c-2.88-1.86-5.85-3.6-8.65-5.57s-5.73-4.34-8.57-6.54c-2.67-2.08-5.38-4.13-8-6.32-2.87-2.44-5.72-4.92-8.39-7.57q-5.5-5.43-10.7-11.15c-1.42-1.55-2.37-3.51-3.73-5.14-2-2.41-3.28-5.27-5-7.83a82.14,82.14,0,0,1-8.92-17.52A111.13,111.13,0,0,1,5,148.28c-1.23-4.88-2.36-9.78-3.31-14.72-.61-3.18-.71-6.46-1.19-9.67-.86-5.82-.46-11.65-.28-17.47.09-2.79.61-5.57,1-8.36.39-3.06.64-6.15,1.25-9.17.75-3.74,1.75-7.43,2.75-11.11.58-2.14,1.31-4.24,2.07-6.32.89-2.43,1.82-4.85,2.87-7.2A8.74,8.74,0,0,1,12,62a10.93,10.93,0,0,1,2.43-2.23,12.86,12.86,0,0,1,2.85-.57c.7-.18,1.64-.35,2-.86,2.41-3.67,4.64-7.46,7-11.15S31,39.65,33.7,36.16a52.32,52.32,0,0,1,7.85-8.08A75.61,75.61,0,0,1,50.85,22c4.08-2.45,8.21-4.83,12.4-7.08S72,10.44,76.42,8.21c.57-.29,1.14-.58,1.68-.9,4.1-2.41,8.59-3.71,13.15-4.93A73.1,73.1,0,0,1,106.48.13a59.16,59.16,0,0,1,16.7,1.1c2,.47,4.12.52,6.16.86,3.92.64,7.85,1.24,11.74,2.06,6.23,1.32,12.45,2.71,18.63,4.26a131.1,131.1,0,0,1,14.36,4.14c5.15,1.93,10.1,4.39,15,6.82A76.07,76.07,0,0,1,196.87,24c1,.65,1.73,1.71,2.69,2.44,2.4,1.81,4.92,3.47,7.29,5.33A57.82,57.82,0,0,1,212,36.41c2.2,2.21,4.25,4.57,6.42,6.81a16.44,16.44,0,0,0,2,1.45c2,1.54,2.74,4,4.23,5.93s2.73,4.34,4.34,6.3c1,1.19,2.63,1.81,3.9,2.79a5.38,5.38,0,0,1,1.94,2.12c.66,2,.92,4.13,1.47,6.18.36,1.33,1,2.58,1.4,3.9,1.19,3.62,2.67,7.18,3.43,10.88A107,107,0,0,1,243,96.82c.24,3.53-.13,7.1-.23,10.66,0,.43-.06.86,0,1.28.27,3.93-.47,7.77-1.14,11.61-.62,3.56-1.23,7.13-2,10.65-.66,2.83-1.65,5.59-2.44,8.39-.23.8-.6,1.51.19,2.48a3,3,0,0,1-.55,2.86c-1.68.87-1.51,2.43-2,3.74-1.37,3.89-2.52,7.87-4,11.72-2.18,5.75-4.41,11.5-6.9,17.13a58.4,58.4,0,0,1-4.72,8.09c-2.64,4.05-5.41,8-8.17,12a63.42,63.42,0,0,1-4.7,6.38,137,137,0,0,1-9.61,9.88,100.26,100.26,0,0,1-10,7.91,80.13,80.13,0,0,1-9.29,5.5q-7.13,3.66-14.48,6.9c-2.51,1.11-5.22,1.74-7.83,2.64-.94.33-1.81.94-2.77,1.17-5.62,1.34-11.24,2.72-16.91,3.84C131.56,242.39,127.68,242.72,123.83,243.23Zm-3.12-7.1c1.82-.14,3.15-.2,4.46-.36,4.44-.55,8.89-1,13.29-1.76a81.24,81.24,0,0,0,9.08-2.37c2.95-.88,5.88-1.83,8.75-2.91,4.24-1.6,8.5-3.2,12.61-5.1a99.33,99.33,0,0,0,9.16-5.14,77.95,77.95,0,0,0,13.31-9.95c3.17-3,6.21-6.18,9.18-9.39a42.61,42.61,0,0,0,3.05-4.25c2.36-3.29,4.81-6.52,7.08-9.86,1.43-2.1,2.66-4.34,3.9-6.56,2-3.51,4-7,5.76-10.61,1.21-2.47,2-5.13,3-7.7s2.19-5.27,3.09-8,1.68-5.7,2.36-8.58c1.78-7.54,4.42-14.85,5.64-22.55,1-6.21,1.9-12.38,1.37-18.68-.13-1.59-.36-3.17-.45-4.76a47.71,47.71,0,0,0-.2-5.54c-.69-3.92-1.71-7.77-2.45-11.68-1.14-6.05-4.27-11.23-7.14-16.51-1-1.78-2.78-3.09-3.93-4.8a59,59,0,0,0-7.32-9.42c-2.11-2.07-4-4.37-6.14-6.39-3.26-3.09-6.65-6-10-9-.67-.59-1.54-.94-2.23-1.5-1.18-1-2.22-2.13-3.47-3-1.59-1.1-3.56-1.73-5-3-2.31-2.11-5.16-3.18-7.83-4.54a67.68,67.68,0,0,0-7.86-3.06c-2.09-.75-4.21-1.41-6.34-2.06-2.51-.76-5-1.54-7.57-2.16-3.09-.76-6.22-1.32-9.32-2.06-5.68-1.36-11.3-3-17-4.11a146,146,0,0,0-15-2.08c-3.91-.36-7.86-.27-11.79-.3a26.27,26.27,0,0,0-4.42.35c-2,.33-4,.77-6,1.27-3.07.78-6.15,1.55-9.16,2.54a47.64,47.64,0,0,0-5,2.34c-2.88,1.33-5.81,2.54-8.63,4-3.5,1.79-6.94,3.69-10.34,5.67-2.38,1.38-4.7,2.88-6.94,4.46-3.69,2.6-7.78,4.86-10.8,8.1-3.83,4.09-6.86,9-10.06,13.61-2.48,3.61-4.74,7.37-7,11.14a50.19,50.19,0,0,0-5.64,13.92c-.51,2.21-1.46,4.5,0,6.79a1.45,1.45,0,0,1-.44,1.31c-1.91,1.38-3.25,1.26-5-.39a19.09,19.09,0,0,1-1.31-1.59c-.6-.7-1.2-.82-1.48.21a77,77,0,0,0-1.92,7.68c-.8,4.86-1.49,9.75-2,14.65A90.05,90.05,0,0,0,8,114.95a177.13,177.13,0,0,0,1.59,17.92c.58,4.14,1.89,8.18,2.88,12.26a117.19,117.19,0,0,0,4.82,15.42c2,5.08,4.92,9.6,7.56,14.3a72.4,72.4,0,0,0,4.65,6.86c1.71,2.36,3.39,4.76,5.31,6.93,2.25,2.54,4.73,4.89,7.15,7.28,1.83,1.81,3.7,3.57,5.58,5.32.5.46,1.13.79,1.65,1.23,3.25,2.71,6.41,5.54,9.77,8.11,2.42,1.85,5.12,3.34,7.68,5,.22.14.37.37.58.53,1.13.88,2.21,1.83,3.41,2.6,3.73,2.41,7.44,4.89,11.3,7.07,3,1.72,6.27,3.1,9.47,4.51,1.78.79,3.72,1.22,5.52,2,5.17,2.21,10.63,3,16.15,3.46C115.76,236,118.48,236,120.71,236.13Z"/><path class="cls-1" d="M120.71,236.13c-2.23-.1-5-.14-7.65-.37-5.52-.47-11-1.25-16.15-3.46-1.79-.77-3.73-1.2-5.52-2-3.2-1.41-6.43-2.79-9.47-4.51-3.87-2.19-7.57-4.66-11.3-7.07-1.2-.77-2.28-1.72-3.41-2.6-.21-.16-.36-.39-.58-.53-2.57-1.66-5.26-3.16-7.68-5-3.36-2.57-6.51-5.4-9.77-8.11-.53-.44-1.16-.76-1.65-1.23-1.88-1.75-3.75-3.51-5.58-5.32-2.42-2.39-4.9-4.74-7.15-7.28-1.92-2.18-3.61-4.57-5.31-6.93a72.4,72.4,0,0,1-4.65-6.86c-2.64-4.7-5.56-9.22-7.56-14.3a117.19,117.19,0,0,1-4.82-15.42c-1-4.08-2.3-8.12-2.88-12.26A177.13,177.13,0,0,1,8,114.95a90.05,90.05,0,0,1,.69-12.52c.5-4.9,1.19-9.79,2-14.65a77,77,0,0,1,1.92-7.68c.28-1,.88-.91,1.48-.21a19.09,19.09,0,0,0,1.31,1.59c1.74,1.65,3.07,1.77,5,.39a1.45,1.45,0,0,0,.44-1.31c-1.43-2.29-.48-4.59,0-6.79a50.19,50.19,0,0,1,5.64-13.92c2.23-3.77,4.49-7.53,7-11.14C36.64,44,39.67,39.19,43.5,35.09c3-3.24,7.12-5.5,10.8-8.1,2.25-1.58,4.56-3.08,6.94-4.46,3.4-2,6.84-3.88,10.34-5.67,2.82-1.44,5.76-2.65,8.63-4a47.64,47.64,0,0,1,5-2.34c3-1,6.09-1.76,9.16-2.54,2-.51,4-.94,6-1.27a26.27,26.27,0,0,1,4.42-.35c3.93,0,7.88-.07,11.79.3a146,146,0,0,1,15,2.08c5.72,1.14,11.35,2.75,17,4.11,3.09.74,6.23,1.3,9.32,2.06,2.55.63,5.06,1.4,7.57,2.16,2.13.64,4.25,1.31,6.34,2.06a67.68,67.68,0,0,1,7.86,3.06c2.68,1.36,5.52,2.43,7.83,4.54,1.4,1.28,3.37,1.91,5,3,1.25.86,2.28,2,3.47,3,.69.56,1.56.92,2.23,1.5,3.37,3,6.76,5.93,10,9,2.15,2,4,4.32,6.14,6.39a59,59,0,0,1,7.32,9.42c1.15,1.71,3,3,3.93,4.8,2.87,5.27,6,10.46,7.14,16.51.74,3.91,1.76,7.76,2.45,11.68a47.71,47.71,0,0,1,.2,5.54c.09,1.59.31,3.17.45,4.76.53,6.3-.38,12.47-1.37,18.68-1.22,7.7-3.86,15-5.64,22.55-.68,2.89-1.44,5.77-2.36,8.58s-2.05,5.31-3.09,8-1.8,5.24-3,7.7c-1.77,3.61-3.79,7.1-5.76,10.61-1.24,2.22-2.47,4.46-3.9,6.56-2.28,3.34-4.72,6.58-7.08,9.86a42.61,42.61,0,0,1-3.05,4.25c-3,3.21-6,6.37-9.18,9.39a77.95,77.95,0,0,1-13.31,9.95,99.33,99.33,0,0,1-9.16,5.14c-4.11,1.9-8.37,3.5-12.61,5.1-2.87,1.09-5.81,2-8.75,2.91a81.24,81.24,0,0,1-9.08,2.37c-4.4.77-8.85,1.21-13.29,1.76C123.86,235.93,122.53,236,120.71,236.13Zm-3-59.36.46.18c-.08,1.35-.24,2.7-.2,4a2.66,2.66,0,0,0,.7,1.91,2.17,2.17,0,0,0,2,0,3.3,3.3,0,0,0,.9-2.09c.31-2.75.28-5.56.77-8.27.4-2.17,1.51-4.19,2.06-6.34a2.17,2.17,0,0,1,2.34-1.87c.42,0,.84-.14,1.26-.18,2.51-.25,5.17-1.12,7.51-.6a41.09,41.09,0,0,0,11.68.88,8.56,8.56,0,0,0,7.47-6.89c.13-1.06.39-2.1.5-3.15.62-5.79-1.09-9.48-7.59-9.81a71.89,71.89,0,0,1-8.07-1.3l0-.61a14.87,14.87,0,0,1,2.06-1c2.73-.89,5.53-1.56,8.19-2.62a10.83,10.83,0,0,0,3.11-2.53c.92-.89,1.54-2.16,2.58-2.82a15.87,15.87,0,0,0,5.71-6.06,4.75,4.75,0,0,0-.28-5.28,3.59,3.59,0,0,0-2.45-1.26,45.75,45.75,0,0,0-5.1.37,8.08,8.08,0,0,1-1.48-.17,5.54,5.54,0,0,1,.5-1.74c.87-1.23,1.9-2.35,2.82-3.55a12.63,12.63,0,0,0,2.55-10c-.31-1.93-1.24-3.86-1.12-5.74A57.52,57.52,0,0,0,155.73,88c-.41-2.73-.74-5.48-1.09-8.22-.51-4-1-8-1.49-12a58.59,58.59,0,0,0-1-6.73c-.36-1.46-2.11-1.56-3-.36A23,23,0,0,1,147.38,63c-2.52,2.58-5.1,5.11-7.93,7.94-.11-1.73-.59-2.73-1.95-2.49S136,68.06,135.73,67a51.47,51.47,0,0,0-2-6c-.56-1.36-1.84-1.62-2.67-.81a37.8,37.8,0,0,0-7.38,10.21,8.56,8.56,0,0,1-.79,1.07,10,10,0,0,1-.64-1.14c-1.26-3.27-2.42-6.57-3.79-9.79A4.89,4.89,0,0,0,116.31,58c-1.33-.57-1.89.87-2.41,1.81-2.36,4.21-4.64,8.45-7,12.67a27.72,27.72,0,0,1-1.67,2.33c-.81-1.61-1.47-2.86-2.06-4.13-1.33-2.88-2.57-5.81-4-8.64a2.39,2.39,0,0,0-1.9-.87c-.37,0-1,.91-1,1.46-.25,2.38-.17,4.8-.53,7.16A194.4,194.4,0,0,0,94,98.67c0,3.41.38,6.82.62,10.23.09,1.25-.38,1.67-1.66,1.69a8.61,8.61,0,0,0-3.69.68c-2.9,1.48-5.22,7.28-4.58,10.92a10.72,10.72,0,0,0,8.06,9.12,2.4,2.4,0,0,1,2,2.42,37.41,37.41,0,0,1-.27,9.18c-.19,1.35,0,2.75-.11,4.13-.26,4.67-.57,9.33-.8,14a5.31,5.31,0,0,0,.47,1.66,45.69,45.69,0,0,1,1.58,5.22c.35,1.92.29,3.91.5,5.85a2.45,2.45,0,0,0,2.81,2.17c1.44-.23,1.57-1.22,1.33-2.41,0-.12.1-.27.35-.89a13.47,13.47,0,0,1,.61,2,11.29,11.29,0,0,1,.1,2.88c-.46,3.06,2.63,2.64,3.87,4a1.7,1.7,0,0,0,1.1.46,1.59,1.59,0,0,0,1-.42c.71-.62,1.23-.66,1.81.22a1.34,1.34,0,0,0,2.28.28c.36-.31,1.07-.17,1.61-.29.77-.18,1.76-.18,2.23-.67a14.37,14.37,0,0,0,1.79-2.93C117.24,177.74,117.49,177.25,117.75,176.77Zm64.51,11.94c-.4,1.91-.6,3.38-1,4.78-.38,1.2-.73,2.77-1.62,3.36a3.94,3.94,0,0,1-4.66-.28,10.46,10.46,0,0,1-3.43-6,3.32,3.32,0,0,1,1.26-3.69c1-.7,2.08-1.26,3.05-2,.32-.24.39-.8.58-1.22-1-.39-1.95-1.17-2.86-1.09-2.44.23-6.42,4.27-5.79,7.41.52,2.58,1.21,5.09,3.06,7,1.22,1.28,2.51,2.85,4.08,3.36a8.2,8.2,0,0,0,8.49-1.61,1.6,1.6,0,0,1,1.21-.24c.75,1.37,2.18,1.23,3.35,1.57,2.74.78,4.86-.15,6.38-2.59a3.75,3.75,0,0,1,.74-.74c.57-.5,1.14-1,1.72-1.47-.57-.64-1-1.54-1.74-1.87-4-1.84-7.11-5-10.59-7.56a35.8,35.8,0,0,0-5.13-3.05c-.33-.17-1.14.34-1.55.72a1.29,1.29,0,0,0-.21,1.24,12,12,0,0,0,2,2C180.57,187.59,181.63,188.27,182.26,188.72Zm-49.38,24.55-.62.29a16.63,16.63,0,0,1-1.43-1.53c-1.12-1.54-2.14-3.13-3.26-4.66a70.69,70.69,0,0,1-4.44-6c-.81-1.4-2-2.06-3.19-1.82a4.15,4.15,0,0,0-2.33,2.28,27.07,27.07,0,0,0-2.34,6.76,45.3,45.3,0,0,0-.33,9.09,3.13,3.13,0,0,0,2.1,2.19c1.19.16,1.84-1,1.83-2.32,0-.32,0-.64,0-1,0-2-.1-4-.05-6.07a11.77,11.77,0,0,1,1.93-5.71c1.19,1.65,2.15,3,3.17,4.37,1.61,2.11,3.27,4.18,4.91,6.27a41.93,41.93,0,0,0,3.67,4.57,4,4,0,0,0,2.89.65c.41,0,.82-1.2,1-1.92a6.51,6.51,0,0,0,0-1.91c-.13-3.13-.15-6.27-.42-9.38s-.73-6-1.22-8.94a2,2,0,0,0-1.23-1.24c-1.79-.61-3,.84-2.52,3s1,4.25,1.27,6.4S132.68,211.05,132.88,213.26ZM191.34,63.85c1.38-.48,3-1,4.56-1.6a6.06,6.06,0,0,0,3.19-8.56,1.63,1.63,0,0,1,.39-2.46,4.73,4.73,0,0,0,1.35-2.43c.6-2.36-2.25-6.35-3.87-7a35.54,35.54,0,0,0-4.06-1.15,9.21,9.21,0,0,1-2.19-.39,1.35,1.35,0,0,0-2,.41,18.16,18.16,0,0,0-1.24,1.86c-2,3.61-3.93,7.25-5.95,10.84a3.71,3.71,0,0,1-1.36,1.28c-1.94,1.13-2.19,1.9-.72,3.64C182.41,61.9,186.78,62.53,191.34,63.85Zm5.72,109.25c.92.34,1.44.55,2,.71,2.37.74,4.72,1.56,7.13,2.11a2.37,2.37,0,0,0,2-1,2.45,2.45,0,0,0-.47-2.2,46.4,46.4,0,0,0-4.56-4.18q-4.19-3.43-8.52-6.68a5.91,5.91,0,0,0-2.46-1c-.37-.07-1,.39-1.25.77a1.2,1.2,0,0,0,.22,1.14c1.7,1.5,3.46,2.93,5.21,4.37,1.11.91,2.24,1.78,3.36,2.67l-.25.41c-.9-.22-1.81-.43-2.71-.67-1.26-.34-2.5-.7-3.48.6a3.65,3.65,0,0,0-.23,3.92c1,2.27,2.2,4.47,3.24,6.73.51,1.1.88,2.26,1.31,3.4l-.38.28c-1-.7-2.06-1.38-3.06-2.11-2.4-1.75-4.76-3.55-7.2-5.24-.35-.24-1.39-.14-1.51.1a4,4,0,0,0-.38,2.17c.05.43.59.87,1,1.18,2.66,2,5.28,4.05,8.07,5.84a14.77,14.77,0,0,0,4.82,1.89c2.46.53,3.68-1.09,2.7-3.37-1.41-3.27-2.91-6.5-4.32-9.77A9.6,9.6,0,0,1,197.05,173.1ZM33.78,112.28c-2.57-1.72-5.47-.88-7.21,2.07-1.38,2.34-1.05,4.82-1.17,7.29a3.48,3.48,0,0,0,1.83,3.6,2.29,2.29,0,0,1,1,1.19,2,2,0,0,0,2.36,1.45c2.07-.13,4.13-.4,6.19-.46,3.45-.1,5.78-2.4,8.31-4.23.41-.3.27-1.39.33-2.12a6.74,6.74,0,0,1,.11-2c1.2-2.66.44-5.23-.28-7.76a4.32,4.32,0,0,0-6.25-2.8A45.63,45.63,0,0,0,33.78,112.28ZM214.23,87.66c-.3,3-.52,5.66-.84,8.25-.13,1.07.79,3,1.76,3,1.3,0,1.79-.94,2.07-2a3.9,3.9,0,0,0,.14-.95c0-2.45,0-4.9,0-7.34,0-.59.16-1.5.54-1.7,1.57-.82,3.25-1.42,5.17-2.21a26.77,26.77,0,0,0,0,3c.35,2.74.77,5.47,1.19,8.19.19,1.24.77,2.5,2.08,2.43s1.46-1.48,1.56-2.62a4.39,4.39,0,0,0,0-1.12c-.45-2.64-.87-5.29-1.41-7.92a3.58,3.58,0,0,0-1-1.87,4.29,4.29,0,0,1-1.66-2,1.82,1.82,0,0,0-2.62-1.08c-1.46.57-2.89,1.26-4.37,1.77-2.36.81-4.77,1.45-7.12,2.27a10.5,10.5,0,0,0-3.08,1.62,2.48,2.48,0,0,0-.8,2c.72,3.28,1.49,6.51.82,9.91a1.79,1.79,0,0,0,1.84,2.27,2.7,2.7,0,0,0,2-1.55,12.62,12.62,0,0,0,.36-4.37c-.12-1.68-.64-3.33-.86-5a1.68,1.68,0,0,1,.55-1.39A34.45,34.45,0,0,1,214.23,87.66Zm-53-52.56,2-1.08a18.86,18.86,0,0,0,3.13-1.8c2.85-2.43,3.2-4.82,1.36-7.76a7.58,7.58,0,0,0-9-2.88c-2,.74-4,1.35-4.61,4-.68,3-2,5.82-2.89,8.76a49.43,49.43,0,0,0-1.31,5.74c-.17.95-.14,2.17,1.11,2.3a2.1,2.1,0,0,0,2.42-1.8c.31-1.52.61-3,1-4.53.45-1.73,1.17-1.89,2.54-.67,2.26,2,2.91,4.87,4,7.51a17.42,17.42,0,0,0,.73,1.91,1.53,1.53,0,0,0,2.42.62,2.25,2.25,0,0,0,.38-2C163.43,40.66,162.31,37.95,161.21,35.1ZM161,215.38a9.08,9.08,0,0,0,1.59.27,1.74,1.74,0,0,0,1.58-2.58c-1.87-4.15-3.65-8.35-5.57-12.47-1.41-3-2.91-4.09-5.93-3.54a16.82,16.82,0,0,1-5,0c-2.09-.26-2.89,0-3.17,1.85s1.07,2,2.23,2c2.22.11,4.46,0,6.68,0a2,2,0,0,1,1.46.58,28.3,28.3,0,0,1,1.49,3.49c-2.46.38-4.68.7-6.89,1.07-1.16.19-2.33.61-2.23,2s1.19,1.8,2.41,1.89a5.25,5.25,0,0,0,1.26-.15c1.89-.33,3.77-.72,5.67-1,.56-.07,1.5.11,1.7.48.77,1.48,1.31,3.08,2,4.81a21.38,21.38,0,0,0-2.7-.37c-2.58,0-5.15.08-7.73.08-1.69,0-3,.7-3,1.71s1.34,2,3,2h.32l8.3-.32C159.74,217.24,160.79,216.9,161,215.38ZM136.68,28a24.16,24.16,0,0,0,3.15-1.35c1.3-.79,2.61-1.65,2.75-3.44a6.83,6.83,0,0,0-6-6.91,7.51,7.51,0,0,1-2.15-.42c-2-.75-2.82-.43-3.34,1.65-1.37,5.52-2.7,11-4,16.58a6.72,6.72,0,0,0,.21,2.65,1.37,1.37,0,0,0,1.94,1.11,2.57,2.57,0,0,0,1.45-1.51c.3-1.45.16-3,.44-4.44a21.31,21.31,0,0,1,1.19-3.34,24.3,24.3,0,0,1,2.75,2.86c1.38,2,2.55,4.11,3.86,6.14a2.42,2.42,0,0,0,3.28.5c.72-.54.82-1.39.11-1.69-1.33-.56-1.77-1.74-2.42-2.76C138.8,31.86,137.82,30,136.68,28ZM50.57,44.53c.16,2.46.38,2.66,2.77,2.74a2.19,2.19,0,0,1,1,.5c2.63,1.76,5.23,3.58,7.89,5.29a27.78,27.78,0,0,0,4.38,2.32,1.59,1.59,0,0,0,2-2.37,5.18,5.18,0,0,0-1.89-1.36c-2.76-1.56-5.6-3-8.29-4.68-1.23-.77-2-2.48-3.29-2.89-2.32-.74-1.19-1.91-.6-2.82A7.65,7.65,0,0,1,57,38.91c1.66-1,2.94-.5,4.06,1.16.67,1,.12,2.57-1,3.7a2.48,2.48,0,0,0-.55,2.12c.35.9,1.23,1.13,2.28.58A14.8,14.8,0,0,1,65,45.25c2.88-.74,5.55.33,8.29,1a7.21,7.21,0,0,0,3.19-.33c.29-.07.64-.87.56-1.26s-.65-.73-1.07-.86c-1.06-.31-2.16-.49-3.25-.72A38.15,38.15,0,0,0,67,41.94a2.79,2.79,0,0,1-3-2.48,4.58,4.58,0,0,0-4-3.79C54.23,35,50.66,39.29,50.57,44.53ZM36.76,145.45a20.52,20.52,0,0,0-4.69.89c-2.31.92-4.68,1.8-5.75,4.63A11.15,11.15,0,0,0,26,156.9c.32,2.08.5,4.48,3,5.25,1.46.46,3.3.87,4.61.36a86.52,86.52,0,0,0,9.68-4.79c1.08-.58,1.82-1.3,3.19-.41,1.67,1.09,3.1,0,3.12-2a8.67,8.67,0,0,1,.49-2.43c.33-1,.43-2.58-.59-2.58-1.57,0-2-1.1-2.87-1.79C43.93,146.43,40.92,145.45,36.76,145.45Zm168.67,3.73a2.89,2.89,0,0,0-2.47,3.08c-.06,2-.53,2.27-2.34,1.57a40,40,0,0,1-3.88-1.84c-1.3-.66-1.91-.27-2.17,1.16s1.34,2.59,2.67,3.13c1.61.65,3.61.56,4.5,2.56.1.23.9.37,1.26.24,2-.73,3.84-.1,5.75.42a23.17,23.17,0,0,0,5.29.91,2,2,0,0,0,2-3,75.1,75.1,0,0,0-4.67-6.81c-1.85-2.32-4-4.43-6-6.62a22.9,22.9,0,0,0-2.91-3,2.35,2.35,0,0,0-2.19.06c-.9.63-.36,1.44.25,2.17C202.19,145.07,203.72,147,205.44,149.18ZM43.35,56.63c-3.84,0-5.09,1.86-4.68,4.81a13.57,13.57,0,0,0,3.87,7.63C45.26,72,47.83,75,51.36,77a1.93,1.93,0,0,0,1.7-.12,2.19,2.19,0,0,0,.81-1.59c0-.32-.83-.6-1.25-.94a39.43,39.43,0,0,1-4.17-3.55c-.32-.34.16-1.54.43-2.29a39.91,39.91,0,0,1,1.94-4.84c.59-1.15,1.56-1.14,2.4-.13.29.35.35.91.66,1.25s.86.91,1.3.91a1.76,1.76,0,0,0,1.26-.92,2.8,2.8,0,0,0-.73-3.3C52.1,57.8,47.14,57.81,43.35,56.63ZM92.88,27.19A5.32,5.32,0,0,1,94.28,26a23.64,23.64,0,0,1,2.8-.62c3.08-.79,3.41-.56,3.75,2.64a8.84,8.84,0,0,0,.12,1.27,9.26,9.26,0,0,0,.94,3,2.32,2.32,0,0,0,2.13.59c.49-.17,1.12-1.51.92-1.83-1.11-1.72-.81-3.58-.91-5.42-.07-1.27-.19-2.54-.37-3.8-.1-.66-.46-1.28-.57-1.94-.26-1.52-.45-3-.66-4.57A1.49,1.49,0,0,0,100.33,14a2.23,2.23,0,0,0-1.13,1.72,38.58,38.58,0,0,0,.43,4.75c.1.86-.1,1.43-1.1,1.57-1.57.22-3.14.48-4.69.82a1.48,1.48,0,0,1-2-1.26,8,8,0,0,0-.85-2.7c-.56-.75-1.69-1.74-2.36-1.6-1.35.28-1,1.41-.52,2.54a15.58,15.58,0,0,1,1,3.83c.49,3,.86,5.93,1.34,8.89a4.45,4.45,0,0,0,.64,1.62,1.43,1.43,0,0,0,2.42.26A3.45,3.45,0,0,0,94,32.21C93.77,30.68,93.33,29.19,92.88,27.19ZM82.94,198.25c-2.57,2.45-4.86,4.69-7.23,6.85-.91.83-1.41,2.35-.8,3.08.79.93,1.87.79,3-.32,2.76-2.72,5.46-5.5,8.34-8.09s3.63-5.48,2.45-8.85-4.24-4.61-7.15-5.83a1.62,1.62,0,0,0-2.37,1.9,2.76,2.76,0,0,0,1.68,1.51c2,.65,3.73,1.54,4.78,3.45.47.86,1.06,1.93.09,2.58a3,3,0,0,1-2.45-.15c-2.12-1-4.13-2.32-6.23-3.43a3.86,3.86,0,0,0-2-.44c-.55,0-1.44.44-1.51.81a2.1,2.1,0,0,0,.71,1.7,42.19,42.19,0,0,0,3.9,2.46C79.63,196.34,81.12,197.19,82.94,198.25ZM108.42,24.76A7.05,7.05,0,0,0,113.14,32c4,1.49,9.17-1.71,9.86-6a13.53,13.53,0,0,0-1.94-9.88c-1.25-1.94-2.46-2.39-4.8-1.59a2.38,2.38,0,0,1-1.1.14c-1.82-.31-2.87.87-3.89,2A10.61,10.61,0,0,0,108.42,24.76Zm-50,171.46.17-.45c.48,0,1,0,1.44,0,4.08-.24,5.35-1.41,5.11-5.42a43.93,43.93,0,0,0-1.44-7.29c-.4-1.69.79-2.75,2.13-3.78a2.15,2.15,0,0,1,3.05.32,8.71,8.71,0,0,1,1.59,3.23c.23.88.22,1.8,1.31,1.84s1.64-.81,1.78-1.88c.27-2-2.82-6.94-4.79-7.6a2.2,2.2,0,0,0-.47-.07c-2.39-.26-5.94,1.66-6.86,3.87a9.32,9.32,0,0,0-.43,6.07c.41,1.55.74,3.11,1.1,4.67a1.72,1.72,0,0,1-1.47,2.34,9.81,9.81,0,0,1-6.1-.33c-.68-.27-1.62.14-2.44.24.32.72.45,1.81,1,2.09A52.35,52.35,0,0,0,58.4,196.22ZM47.68,98.3a9.78,9.78,0,0,0-.38-2.35c-1.47-3.46-3.7-6.15-7.59-7-2.38-.54-4.71-1.56-7.2-.82-.59.17-1.5.92-1.44,1.27a3,3,0,0,0,1.31,1.73c.41.27,1.14,0,1.71.07a33.79,33.79,0,0,1,5.76.88,6.65,6.65,0,0,1,4.5,5.84,4.65,4.65,0,0,1-1.78,3.77,7.45,7.45,0,0,1-7.57.08,4.79,4.79,0,0,0-2.73-.29c-.26,0-.68,1.56-.5,1.7a27.48,27.48,0,0,0,3.57,2.17c1.61.88,3.31.34,5,.27C44.07,105.45,48.09,101.44,47.68,98.3ZM199.55,78.36a19.11,19.11,0,0,0,1,2.16,1.5,1.5,0,0,0,1.05.7,1.36,1.36,0,0,0,1-.79c.67-2.32,1.22-4.64-.7-6.75a1.73,1.73,0,0,1-.27-1.54,5.52,5.52,0,0,1,1.54-2q5.54-4.25,11.19-8.37c1-.73,1.35-1.5.65-2.56s-1.46-1.2-2.54-.41c-2.44,1.78-5,3.41-7.44,5.19a25,25,0,0,0-6.61,6.57,3.2,3.2,0,0,0,.26,4.34C199.59,75.88,200.25,76.83,199.55,78.36Zm3.61,55.23.19-.42a8.34,8.34,0,0,1,1.87.36c3.06,1.35,6.16,2.66,9.12,4.2,2.09,1.09,2,1.25,1.09,3.45a6.33,6.33,0,0,0-.64,1.44,2.14,2.14,0,0,0,.28,1.56,1.65,1.65,0,0,0,1.52.35,3.63,3.63,0,0,0,1.67-1.56q2-4.51,3.64-9.14a1.77,1.77,0,0,0-.55-1.63,2.21,2.21,0,0,0-1.9.14,4.62,4.62,0,0,0-1.27,1.78c-.74,1.43-1.15,1.46-2.59.76-3.76-1.83-7.55-3.59-11.39-5.22a2.59,2.59,0,0,0-2.21.68,2.64,2.64,0,0,0-.63,2.19C201.48,133,202.52,133.24,203.16,133.59ZM40.69,81.25l0-.25c1.42.16,2.84.36,4.27.48,3.78.31,4.93,1.37,3.26,4.91-.5,1.06-.1,1.8,1,2.27s1.64-.11,2.28-1a6,6,0,0,0-.38-7.16c-1.1-1.14-3.09-1.65-4.76-2-4.44-.8-8.92-1.34-13.39-2-.37-.05-.82-.21-1.1-.06-.65.34-1.59.74-1.72,1.29a2.07,2.07,0,0,0,1.14,1.71C34.43,80.2,37.57,80.69,40.69,81.25ZM174.43,208.82c.42-.43,1.08-.84,1.28-1.41a1.79,1.79,0,0,0-.52-1.56,54.8,54.8,0,0,1-9.72-11c-.77-1.08-1.3-2.32-2.71-2.67-.49-.12-1.22-.28-1.51,0a2,2,0,0,0-.67,1.59,8.54,8.54,0,0,0,1.31,2.48c.87,1.26,1.9,2.4,2.73,3.68a30.58,30.58,0,0,0,8.34,8.45A6.85,6.85,0,0,0,174.43,208.82Zm7.81-174.57a8.12,8.12,0,0,0-1.91-1.77c-.29-.14-1.31.61-1.6,1.16-2.52,4.84-4.95,9.73-7.4,14.6-.49,1-.08,2.72.76,2.67a3.53,3.53,0,0,0,2.56-1.29c1.89-3.37,3.54-6.87,5.25-10.33C180.67,37.73,181.36,36.14,182.24,34.24ZM33.34,138.09c1.92-.27,4.09-.49,6.21-.9a23.15,23.15,0,0,0,4.24-1.29,2.38,2.38,0,0,0,.86-3c-.81-1.11-1.63-.47-2.49,0a7.76,7.76,0,0,1-2.31.95c-2.91.53-5.85.91-8.76,1.46a2,2,0,0,0-1.34,1.21c-.07.39.62,1.12,1.13,1.33A8.94,8.94,0,0,0,33.34,138.09Zm41.93,65.14c-.11-.13-.35-.67-.74-.86q-2.78-1.35-5.64-2.52c-.4-.16-1.26-.09-1.36.13-.21.45-.29,1.34,0,1.59,1.82,1.6,3.57,3.4,6.24,3.53C74.82,205.15,75.36,204.69,75.28,203.23Z"/><path d="M117.75,176.77c-.26.48-.51,1-.79,1.44a14.37,14.37,0,0,1-1.79,2.93c-.47.49-1.46.49-2.23.67-.54.12-1.25,0-1.61.29a1.34,1.34,0,0,1-2.28-.28c-.58-.87-1.1-.83-1.81-.22a1.59,1.59,0,0,1-1,.42,1.7,1.7,0,0,1-1.1-.46c-1.24-1.38-4.32-1-3.87-4a11.29,11.29,0,0,0-.1-2.87,13.47,13.47,0,0,0-.61-2c-.25.62-.37.77-.35.89.24,1.19.11,2.18-1.33,2.41a2.45,2.45,0,0,1-2.81-2.17c-.22-1.95-.15-3.94-.5-5.85A45.69,45.69,0,0,0,94,162.67a5.31,5.31,0,0,1-.47-1.66c.23-4.67.54-9.33.8-14,.08-1.37-.08-2.77.11-4.13a37.41,37.41,0,0,0,.27-9.18,2.4,2.4,0,0,0-2-2.42,10.72,10.72,0,0,1-8.06-9.12c-.64-3.64,1.67-9.44,4.58-10.92a8.61,8.61,0,0,1,3.69-.68c1.28,0,1.74-.45,1.66-1.69-.24-3.41-.62-6.82-.62-10.23a194.4,194.4,0,0,1,1.73-28.85c.36-2.36.27-4.78.53-7.16.06-.55.66-1.45,1-1.46a2.39,2.39,0,0,1,1.9.87c1.43,2.83,2.66,5.76,4,8.64.59,1.28,1.26,2.53,2.06,4.13a27.72,27.72,0,0,0,1.67-2.33c2.34-4.21,4.63-8.46,7-12.67.52-.93,1.08-2.38,2.41-1.81a4.89,4.89,0,0,1,2.16,2.49c1.37,3.22,2.53,6.52,3.79,9.79a10,10,0,0,0,.64,1.14,8.56,8.56,0,0,0,.79-1.07,37.8,37.8,0,0,1,7.38-10.21c.83-.81,2.11-.55,2.67.81a51.47,51.47,0,0,1,2,6c.28,1,.49,1.61,1.76,1.39s1.84.76,1.95,2.49c2.84-2.83,5.41-5.36,7.93-7.94a23,23,0,0,0,1.72-2.29c.91-1.21,2.66-1.1,3,.36a58.59,58.59,0,0,1,1,6.73c.52,4,1,8,1.49,12,.35,2.74.68,5.49,1.09,8.22a57.52,57.52,0,0,1,.92,12.18c-.12,1.88.81,3.81,1.12,5.74a12.63,12.63,0,0,1-2.55,10c-.92,1.2-2,2.32-2.82,3.55a5.54,5.54,0,0,0-.5,1.74,8.08,8.08,0,0,0,1.48.17,45.75,45.75,0,0,1,5.1-.37,3.59,3.59,0,0,1,2.45,1.26,4.75,4.75,0,0,1,.28,5.28,15.87,15.87,0,0,1-5.71,6.06c-1,.66-1.66,1.94-2.58,2.82a10.83,10.83,0,0,1-3.11,2.53c-2.66,1.05-5.46,1.73-8.19,2.62a14.87,14.87,0,0,0-2.06,1l0,.61a71.89,71.89,0,0,0,8.07,1.3c6.5.34,8.22,4,7.59,9.81-.11,1.06-.37,2.1-.5,3.15a8.56,8.56,0,0,1-7.47,6.89,41.09,41.09,0,0,1-11.68-.88c-2.34-.52-5,.35-7.51.6-.42,0-.84.17-1.26.18a2.17,2.17,0,0,0-2.34,1.87c-.54,2.15-1.66,4.18-2.06,6.34-.5,2.71-.47,5.51-.77,8.27a3.3,3.3,0,0,1-.9,2.09,2.17,2.17,0,0,1-2,0A2.66,2.66,0,0,1,118,181c0-1.34.12-2.69.2-4ZM149.31,100c-3.4.51-6.73,1.61-8.61,5.23-.47.9-1.52,1.65-1.64,2.56a12.32,12.32,0,0,0,2.33,9c1.32,1.81,3.74,2.63,5.14,1.77,2.22-1.36,4.51-2.73,5.74-5.17,1-2.06,2.13-4,2-6.59-.13-2.18-1.68-3.48-2.22-5.31C151.63,100.26,150.72,100,149.31,100Zm-13.62,4.75a2.89,2.89,0,0,0-.8-.14c-3.49.68-7,1.59-9.09,4.67a17.19,17.19,0,0,0-2.68,6.22c-.55,2.76,1.23,4.68,3.36,6.36,3.63,2.85,6.83,2.48,9.78-.64a3.07,3.07,0,0,0,.85-3.56C135.39,113.6,134.51,109.37,135.69,104.78Zm-37.88.44.61,0c.18-9.62.36-19.25.55-29.17C97.39,77.86,96.73,99.32,97.81,105.22Zm9.86,8.62.36-.06V93.36l-.36,0Zm31.81,43.27.86.15,2.36-7.76c-1.56-.88-1.76-.78-2,.72-.19,1.15-.52,2.27-.73,3.42S139.65,155.95,139.49,157.11Zm-1.12-60.63-.75,0-1.27,3.21.31.45,2.43-.42Zm-30.78-9.4.44,0,.22-4.7-.65,0ZM119,122.75c.12-1.41,2.39-2.84,0-4.58ZM97.71,160.93l.76-.08-.58-4-.53.07Zm1.79-90.06L99,71,98.81,74c.71-.43,1.47-.74,1.44-.9A13.28,13.28,0,0,0,99.49,70.88Z"/><path d="M182.26,188.72c-.63-.44-1.69-1.13-2.68-1.91a12,12,0,0,1-2-2,1.29,1.29,0,0,1,.21-1.24c.41-.39,1.23-.89,1.55-.72a35.8,35.8,0,0,1,5.13,3.05c3.48,2.59,6.56,5.72,10.59,7.56.71.33,1.17,1.23,1.74,1.87-.57.49-1.15,1-1.72,1.47a3.75,3.75,0,0,0-.74.74c-1.53,2.44-3.64,3.37-6.38,2.59-1.16-.33-2.6-.2-3.35-1.57a1.6,1.6,0,0,0-1.21.24,8.2,8.2,0,0,1-8.49,1.61c-1.56-.51-2.86-2.08-4.08-3.36-1.84-1.94-2.53-4.45-3.06-7-.63-3.13,3.35-7.18,5.79-7.41.91-.08,1.9.7,2.86,1.09-.19.41-.26,1-.58,1.22-1,.73-2.06,1.28-3.05,2a3.32,3.32,0,0,0-1.26,3.69,10.46,10.46,0,0,0,3.43,6,3.94,3.94,0,0,0,4.66.28c.9-.59,1.25-2.16,1.63-3.36C181.66,192.1,181.86,190.63,182.26,188.72Zm3.4,2.74-.58.24c.48,1.23.93,2.48,1.46,3.69a3.06,3.06,0,0,0,4,1.27,1.54,1.54,0,0,0,.15-1.46C189.1,193.88,187.37,192.69,185.66,191.46Z"/><path d="M132.88,213.26c-.2-2.21-.31-4.44-.62-6.64s-.82-4.27-1.27-6.4.73-3.58,2.52-3a2,2,0,0,1,1.23,1.24c.5,3,1,5.95,1.22,8.94s.3,6.25.42,9.38a6.51,6.51,0,0,1,0,1.91c-.19.71-.6,1.87-1,1.92a4,4,0,0,1-2.89-.65,41.93,41.93,0,0,1-3.67-4.57c-1.63-2.09-3.29-4.16-4.91-6.27-1-1.34-2-2.72-3.17-4.37a11.77,11.77,0,0,0-1.93,5.71c0,2,0,4,.05,6.07,0,.32,0,.64,0,1,0,1.29-.63,2.48-1.83,2.32a3.13,3.13,0,0,1-2.1-2.19,45.3,45.3,0,0,1,.33-9.09,27.07,27.07,0,0,1,2.34-6.76,4.15,4.15,0,0,1,2.33-2.28c1.22-.25,2.38.42,3.19,1.82a70.69,70.69,0,0,0,4.44,6c1.12,1.53,2.15,3.13,3.26,4.66a16.63,16.63,0,0,0,1.43,1.53Z"/><path d="M191.34,63.85c-4.56-1.31-8.93-1.95-11.93-5.52-1.46-1.74-1.22-2.51.72-3.64a3.71,3.71,0,0,0,1.36-1.28c2-3.6,4-7.23,5.95-10.84a18.16,18.16,0,0,1,1.24-1.86,1.35,1.35,0,0,1,2-.41,9.21,9.21,0,0,0,2.19.39A35.54,35.54,0,0,1,197,41.82c1.63.62,4.48,4.61,3.88,7a4.73,4.73,0,0,1-1.35,2.43,1.63,1.63,0,0,0-.39,2.46,6.06,6.06,0,0,1-3.19,8.56C194.33,62.87,192.71,63.37,191.34,63.85Zm-4-13-.51.15c-.94,2.15-1.9,4.28-2.77,6.45-.1.26.2.82.47,1.06,2.08,1.8,8,2.29,10.35.87a3.55,3.55,0,0,0,2-3c0-1.8-1-2.56-3.37-2.75S188.44,54.17,187.31,50.82Zm.11-.6a21.31,21.31,0,0,1,3.21-.59c1.27,0,2.54.19,3.81.28a3,3,0,0,0,3.16-2.17c.21-.65-.84-1.73-1.39-2.57a4.11,4.11,0,0,0-1-.79,3.49,3.49,0,0,0-5.22,1C189.17,46.95,188.35,48.48,187.42,50.22Z"/><path d="M197.05,173.1a9.6,9.6,0,0,0,.29,2.12c1.41,3.27,2.91,6.5,4.32,9.77,1,2.29-.23,3.9-2.7,3.37a14.77,14.77,0,0,1-4.82-1.89c-2.79-1.79-5.4-3.86-8.07-5.84-.42-.31-1-.75-1-1.18a4,4,0,0,1,.38-2.17c.12-.24,1.17-.34,1.51-.1,2.44,1.69,4.8,3.5,7.2,5.24,1,.73,2,1.41,3.06,2.11l.38-.28c-.43-1.13-.8-2.3-1.31-3.4-1-2.26-2.23-4.46-3.24-6.73a3.65,3.65,0,0,1,.23-3.92c1-1.3,2.22-.94,3.48-.6.9.24,1.81.45,2.71.67l.25-.41c-1.12-.89-2.25-1.76-3.36-2.67-1.75-1.44-3.51-2.87-5.21-4.37a1.2,1.2,0,0,1-.22-1.14c.27-.38.87-.84,1.25-.77a5.91,5.91,0,0,1,2.46,1q4.33,3.25,8.52,6.68a46.4,46.4,0,0,1,4.56,4.18,2.45,2.45,0,0,1,.47,2.2,2.37,2.37,0,0,1-2,1c-2.41-.55-4.76-1.38-7.13-2.11C198.49,173.64,198,173.43,197.05,173.1Z"/><path d="M33.78,112.28a45.63,45.63,0,0,1,5.19-3.8,4.32,4.32,0,0,1,6.25,2.8c.72,2.53,1.48,5.1.28,7.76a6.74,6.74,0,0,0-.11,2c-.06.73.08,1.82-.33,2.12-2.53,1.83-4.86,4.13-8.31,4.23-2.07.06-4.13.33-6.19.46a2,2,0,0,1-2.36-1.45,2.29,2.29,0,0,0-1-1.19,3.48,3.48,0,0,1-1.83-3.6c.12-2.47-.21-5,1.17-7.29C28.32,111.4,31.22,110.56,33.78,112.28ZM39,123.52a9.11,9.11,0,0,1-.58-1.36c-.24-1,.2-1.74,1.21-1.47,1.51.39,2.08-.48,2.53-1.54a7.65,7.65,0,0,0,0-6.93,2.58,2.58,0,0,0-2-1.09c-1.6.08-3.61,2.88-3.5,4.47a5.65,5.65,0,0,1-.1,2.43c-.27.66-1,1.51-1.63,1.55-.87.06-1.49-.65-1.7-1.75a7.31,7.31,0,0,0-1.34-2.77c-.85-1.17-1.78-.9-2.57.18a7.78,7.78,0,0,0-1.08,6.86A4.5,4.5,0,0,0,31,125,12.4,12.4,0,0,0,39,123.52Z"/><path d="M214.23,87.66a34.45,34.45,0,0,0-3.69,1.58,1.68,1.68,0,0,0-.55,1.39c.22,1.68.74,3.32.86,5a12.62,12.62,0,0,1-.36,4.37,2.7,2.7,0,0,1-2,1.55,1.79,1.79,0,0,1-1.84-2.27c.66-3.4-.1-6.63-.82-9.91a2.48,2.48,0,0,1,.8-2,10.5,10.5,0,0,1,3.08-1.62c2.35-.82,4.76-1.47,7.12-2.27,1.48-.51,2.91-1.19,4.37-1.77a1.82,1.82,0,0,1,2.62,1.08,4.29,4.29,0,0,0,1.66,2,3.58,3.58,0,0,1,1,1.87c.53,2.63,1,5.27,1.41,7.92a4.39,4.39,0,0,1,0,1.12c-.1,1.13-.23,2.55-1.56,2.62s-1.89-1.2-2.08-2.43c-.42-2.73-.83-5.46-1.19-8.19a26.77,26.77,0,0,1,0-3c-1.92.8-3.6,1.39-5.17,2.21-.38.2-.52,1.11-.54,1.7-.05,2.45,0,4.9,0,7.34a3.9,3.9,0,0,1-.14.95c-.28,1.09-.76,2.08-2.07,2-1,0-1.89-1.93-1.76-3C213.71,93.32,213.93,90.71,214.23,87.66Z"/><path d="M161.21,35.1c1.1,2.84,2.22,5.56,3.17,8.33a2.25,2.25,0,0,1-.38,2,1.53,1.53,0,0,1-2.42-.62,17.42,17.42,0,0,1-.73-1.91c-1-2.65-1.69-5.5-4-7.51-1.37-1.22-2.09-1.06-2.54.67-.39,1.5-.69,3-1,4.53a2.1,2.1,0,0,1-2.42,1.8c-1.25-.13-1.28-1.35-1.11-2.3a49.43,49.43,0,0,1,1.31-5.74c.9-2.94,2.22-5.78,2.89-8.76.61-2.67,2.6-3.28,4.61-4a7.58,7.58,0,0,1,9,2.88c1.85,2.95,1.5,5.34-1.36,7.76a18.86,18.86,0,0,1-3.13,1.8Zm1.28-10.91c-3.16.11-5.38,1-5.87,4.63-.09.65-.57,1.48-.32,1.89a2.67,2.67,0,0,0,1.86,1,8,8,0,0,0,6.15-2c1.2-1.09,1.67-2.85.81-3.69A15.37,15.37,0,0,0,162.49,24.2Z"/><path d="M161,215.38c-.26,1.52-1.31,1.86-2.57,1.9l-8.3.32h-.32c-1.66,0-3-.92-3-2s1.33-1.71,3-1.71c2.58,0,5.15-.09,7.73-.08a21.38,21.38,0,0,1,2.7.37c-.7-1.73-1.24-3.33-2-4.81-.19-.37-1.14-.55-1.7-.48-1.9.24-3.78.64-5.67,1a5.25,5.25,0,0,1-1.26.15c-1.21-.09-2.31-.58-2.41-1.89s1.06-1.83,2.23-2c2.21-.37,4.43-.69,6.89-1.07a28.3,28.3,0,0,0-1.49-3.49,2,2,0,0,0-1.46-.58c-2.23,0-4.46.09-6.68,0-1.16-.06-2.49-.35-2.23-2s1.08-2.12,3.17-1.85a16.82,16.82,0,0,0,5,0c3-.56,4.52.52,5.93,3.54,1.92,4.13,3.7,8.32,5.57,12.47a1.74,1.74,0,0,1-1.58,2.58A9.08,9.08,0,0,1,161,215.38Z"/><path d="M136.68,28c1.14,2,2.12,3.87,3.25,5.65.65,1,1.09,2.2,2.42,2.76.72.3.62,1.15-.11,1.69a2.42,2.42,0,0,1-3.28-.5c-1.31-2-2.47-4.16-3.86-6.14a24.3,24.3,0,0,0-2.75-2.86,21.31,21.31,0,0,0-1.19,3.34c-.27,1.46-.13,3-.44,4.44a2.57,2.57,0,0,1-1.45,1.51,1.37,1.37,0,0,1-1.94-1.11,6.72,6.72,0,0,1-.21-2.65c1.26-5.54,2.6-11.07,4-16.58.52-2.08,1.33-2.4,3.34-1.65a7.51,7.51,0,0,0,2.15.42,6.83,6.83,0,0,1,6,6.91c-.15,1.79-1.45,2.64-2.75,3.44A24.16,24.16,0,0,1,136.68,28Zm-1.32-3.19a12.47,12.47,0,0,0,2.77-1A2.65,2.65,0,0,0,139.38,22a2.92,2.92,0,0,0-1.27-2c-2-1.24-3.75-.37-4.39,2C133,24.54,133,24.54,135.37,24.79Z"/><path d="M50.57,44.53c.08-5.24,3.65-9.57,9.41-8.85a4.58,4.58,0,0,1,4,3.79,2.79,2.79,0,0,0,3,2.48,38.15,38.15,0,0,1,5.76,1.12c1.09.23,2.19.41,3.25.72.43.13,1,.5,1.07.86s-.26,1.19-.56,1.26a7.21,7.21,0,0,1-3.19.33c-2.74-.65-5.41-1.72-8.29-1a14.8,14.8,0,0,0-3.25,1.22c-1,.55-1.92.32-2.28-.58a2.48,2.48,0,0,1,.55-2.12c1.08-1.13,1.63-2.71,1-3.7-1.13-1.65-2.41-2.12-4.06-1.16a7.65,7.65,0,0,0-2.5,2.35c-.59.9-1.72,2.08.6,2.82,1.27.41,2.06,2.12,3.29,2.89,2.69,1.68,5.53,3.12,8.29,4.68A5.18,5.18,0,0,1,68.53,53a1.59,1.59,0,0,1-2,2.37,27.78,27.78,0,0,1-4.38-2.32c-2.67-1.71-5.26-3.53-7.89-5.29a2.19,2.19,0,0,0-1-.5C51,47.19,50.73,47,50.57,44.53Z"/><path d="M36.76,145.45c4.15,0,7.17,1,9.8,3.07.88.69,1.3,1.79,2.87,1.79,1,0,.91,1.54.59,2.58a8.67,8.67,0,0,0-.49,2.43c0,2-1.44,3.08-3.12,2-1.37-.89-2.11-.17-3.19.41a86.52,86.52,0,0,1-9.68,4.79c-1.3.51-3.15.1-4.61-.36-2.46-.77-2.64-3.17-3-5.25a11.15,11.15,0,0,1,.34-5.93c1.08-2.83,3.45-3.71,5.75-4.63A20.52,20.52,0,0,1,36.76,145.45Zm-5.93,14.71,1.8-.4c4.69-1.1,8.43-3.94,12.17-6.75.33-.25.54-1.29.37-1.43-1.07-.9-2.18-2.07-3.45-2.37a28.16,28.16,0,0,0-7.35-.73,6.07,6.07,0,0,0-5.76,4.42c-.65,2.32.27,4.4,1,6.49C29.74,159.77,30.48,159.95,30.83,160.16Z"/><path d="M205.44,149.18c-1.72-2.14-3.24-4.11-4.84-6-.61-.73-1.15-1.53-.25-2.17a2.35,2.35,0,0,1,2.19-.06,22.9,22.9,0,0,1,2.91,3c2,2.19,4.11,4.3,6,6.62a75.1,75.1,0,0,1,4.67,6.81,2,2,0,0,1-2,3,23.17,23.17,0,0,1-5.29-.91c-1.91-.52-3.75-1.15-5.75-.42-.36.13-1.16,0-1.26-.24-.88-2-2.89-1.9-4.5-2.56-1.33-.54-2.93-1.73-2.67-3.13s.87-1.82,2.17-1.16a40,40,0,0,0,3.88,1.84c1.82.7,2.28.4,2.34-1.57A2.89,2.89,0,0,1,205.44,149.18Zm5.55,7.51c-.12-1.76-2.49-4.78-4.05-5.32l-.21.9c-.7,3.1-.7,3.1,2.27,3.88Z"/><path d="M43.35,56.63c3.79,1.19,8.75,1.17,12.35,4.81a2.8,2.8,0,0,1,.73,3.3,1.76,1.76,0,0,1-1.26.92c-.44,0-.95-.51-1.3-.91s-.36-.89-.66-1.25c-.84-1-1.81-1-2.4.13a39.91,39.91,0,0,0-1.94,4.84c-.27.75-.75,1.95-.43,2.29a39.43,39.43,0,0,0,4.17,3.55c.42.34,1.25.62,1.25.94a2.19,2.19,0,0,1-.81,1.59,1.93,1.93,0,0,1-1.7.12c-3.54-1.95-6.1-5-8.82-7.89a13.57,13.57,0,0,1-3.87-7.63C38.26,58.48,39.51,56.67,43.35,56.63Zm0,2.88c-1.33,0-2.07.74-1.67,1.84a36,36,0,0,0,2.57,5.37c.43.76,1.14.72,1.55-.2.63-1.4,1.31-2.78,1.82-4.22a1.52,1.52,0,0,0-.4-1.39C46,60.34,44.63,60,43.33,59.51Z"/><path d="M92.88,27.19c.45,2,.88,3.49,1.08,5a3.45,3.45,0,0,1-.45,2.21,1.43,1.43,0,0,1-2.42-.26,4.45,4.45,0,0,1-.64-1.62c-.47-3-.85-5.94-1.34-8.89a15.58,15.58,0,0,0-1-3.83c-.51-1.13-.83-2.26.52-2.54.67-.14,1.8.85,2.36,1.6a8,8,0,0,1,.85,2.7,1.48,1.48,0,0,0,2,1.26c1.55-.34,3.12-.6,4.69-.82,1-.14,1.19-.71,1.1-1.57a38.58,38.58,0,0,1-.43-4.75A2.23,2.23,0,0,1,100.33,14a1.49,1.49,0,0,1,2.09,1.33c.21,1.53.4,3.06.66,4.57.11.66.47,1.28.57,1.94.19,1.26.3,2.53.37,3.8.1,1.84-.2,3.7.91,5.42.21.32-.43,1.66-.92,1.83a2.32,2.32,0,0,1-2.12-.59,9.26,9.26,0,0,1-.94-3,8.84,8.84,0,0,1-.12-1.27c-.33-3.2-.67-3.43-3.75-2.64a23.64,23.64,0,0,0-2.8.62A5.32,5.32,0,0,0,92.88,27.19Z"/><path d="M82.94,198.25c-1.82-1.05-3.31-1.9-4.79-2.78a42.19,42.19,0,0,1-3.9-2.46,2.1,2.1,0,0,1-.71-1.7c.06-.36,1-.76,1.51-.81a3.86,3.86,0,0,1,2,.44c2.1,1.1,4.1,2.38,6.23,3.43a3,3,0,0,0,2.45.15c1-.65.38-1.72-.09-2.58-1-1.91-2.79-2.8-4.78-3.45A2.76,2.76,0,0,1,79.17,187a1.62,1.62,0,0,1,2.37-1.9c2.91,1.22,5.95,2.41,7.15,5.83s.43,6.27-2.45,8.85-5.58,5.37-8.34,8.09c-1.12,1.11-2.21,1.25-3,.32-.61-.72-.11-2.25.8-3.08C78.08,202.93,80.37,200.69,82.94,198.25Z"/><path d="M108.42,24.76a10.61,10.61,0,0,1,2.84-8.06c1-1.16,2.07-2.33,3.89-2a2.38,2.38,0,0,0,1.1-.14c2.35-.8,3.55-.35,4.8,1.59A13.53,13.53,0,0,1,123,26c-.69,4.25-5.89,7.45-9.86,6A7.05,7.05,0,0,1,108.42,24.76Zm6.06,4.77a4.39,4.39,0,0,0,4.27-1.82c1.42-2.12,2.28-4.51,1.44-7-.37-1.11-1.38-2.82-2.12-2.83-1.68,0-4-.51-4.87,1.74a32.12,32.12,0,0,0-1.69,6.7C111.3,27.75,113.32,29.5,114.48,29.53Z"/><path d="M58.4,196.22a52.35,52.35,0,0,1-5.33-2.15c-.55-.29-.67-1.37-1-2.09.82-.1,1.77-.51,2.44-.24a9.81,9.81,0,0,0,6.1.33,1.72,1.72,0,0,0,1.47-2.34c-.35-1.56-.69-3.12-1.1-4.67a9.32,9.32,0,0,1,.43-6.07c.92-2.21,4.46-4.13,6.86-3.87a2.2,2.2,0,0,1,.47.07c2,.66,5.06,5.57,4.79,7.6-.14,1.06-.61,1.92-1.78,1.88s-1.08-1-1.31-1.84a8.71,8.71,0,0,0-1.59-3.23,2.15,2.15,0,0,0-3.05-.32c-1.34,1-2.53,2.09-2.13,3.78a43.93,43.93,0,0,1,1.44,7.29c.24,4-1,5.18-5.11,5.42-.48,0-1,0-1.44,0Z"/><path d="M47.68,98.3c.41,3.14-3.61,7.15-7.37,7.3-1.67.07-3.37.61-5-.27a27.48,27.48,0,0,1-3.57-2.17c-.19-.14.24-1.67.5-1.7a4.79,4.79,0,0,1,2.73.29,7.45,7.45,0,0,0,7.57-.08,4.65,4.65,0,0,0,1.78-3.77A6.65,6.65,0,0,0,39.85,92a33.79,33.79,0,0,0-5.76-.88c-.57-.07-1.31.2-1.71-.07a3,3,0,0,1-1.31-1.73c-.06-.35.85-1.1,1.44-1.27,2.49-.74,4.83.28,7.2.82,3.89.89,6.12,3.58,7.59,7A9.78,9.78,0,0,1,47.68,98.3Z"/><path d="M199.55,78.36c.7-1.53,0-2.48-.84-3.45a3.2,3.2,0,0,1-.26-4.34A25,25,0,0,1,205.06,64c2.44-1.78,5-3.41,7.44-5.19,1.08-.79,1.86-.63,2.54.41s.34,1.84-.65,2.56q-5.64,4.13-11.19,8.37a5.52,5.52,0,0,0-1.54,2,1.73,1.73,0,0,0,.27,1.54c1.92,2.1,1.36,4.42.7,6.75a1.36,1.36,0,0,1-1,.79,1.5,1.5,0,0,1-1.05-.7A19.11,19.11,0,0,1,199.55,78.36Z"/><path d="M203.16,133.59c-.64-.35-1.68-.58-1.81-1.06a2.64,2.64,0,0,1,.63-2.19,2.59,2.59,0,0,1,2.21-.68c3.84,1.63,7.63,3.39,11.39,5.22,1.44.7,1.85.67,2.59-.76a4.62,4.62,0,0,1,1.27-1.78,2.21,2.21,0,0,1,1.9-.14,1.77,1.77,0,0,1,.55,1.63q-1.68,4.62-3.64,9.14a3.63,3.63,0,0,1-1.67,1.56,1.65,1.65,0,0,1-1.52-.35,2.14,2.14,0,0,1-.28-1.56,6.33,6.33,0,0,1,.64-1.44c.92-2.2,1-2.36-1.09-3.45-3-1.55-6.06-2.85-9.12-4.2a8.34,8.34,0,0,0-1.87-.36Z"/><path d="M40.69,81.25c-3.12-.56-6.26-1-9.35-1.74A2.07,2.07,0,0,1,30.2,77.8c.13-.54,1.07-1,1.72-1.29.28-.15.73,0,1.1.06,4.47.63,9,1.17,13.39,2,1.68.3,3.66.82,4.76,2a6,6,0,0,1,.38,7.16c-.63.89-1.07,1.51-2.28,1s-1.52-1.21-1-2.27c1.67-3.54.52-4.6-3.26-4.91-1.43-.12-2.85-.32-4.27-.48Z"/><path d="M174.43,208.82a6.85,6.85,0,0,1-1.49-.51,30.58,30.58,0,0,1-8.34-8.45c-.83-1.28-1.86-2.42-2.73-3.68a8.54,8.54,0,0,1-1.31-2.48,2,2,0,0,1,.67-1.59c.29-.25,1-.09,1.51,0,1.41.36,1.94,1.59,2.71,2.67a54.8,54.8,0,0,0,9.72,11,1.79,1.79,0,0,1,.52,1.56C175.51,208,174.84,208.38,174.43,208.82Z"/><path d="M182.24,34.24c-.88,1.9-1.57,3.49-2.33,5-1.71,3.47-3.37,7-5.25,10.33a3.53,3.53,0,0,1-2.56,1.29c-.83.05-1.25-1.69-.76-2.67,2.45-4.87,4.88-9.76,7.4-14.6.29-.55,1.3-1.31,1.6-1.16A8.12,8.12,0,0,1,182.24,34.24Z"/><path d="M33.34,138.09a8.94,8.94,0,0,1-2.44-.25c-.51-.21-1.2-.94-1.13-1.33a2,2,0,0,1,1.34-1.21c2.91-.56,5.84-.93,8.76-1.46a7.76,7.76,0,0,0,2.31-.95c.86-.48,1.68-1.12,2.49,0a2.38,2.38,0,0,1-.86,3,23.15,23.15,0,0,1-4.24,1.29C37.43,137.6,35.26,137.82,33.34,138.09Z"/><path d="M75.28,203.23c.08,1.46-.46,1.92-1.53,1.87-2.67-.13-4.42-1.92-6.24-3.53-.28-.24-.2-1.14,0-1.59.11-.22,1-.29,1.36-.13q2.86,1.16,5.64,2.52C74.93,202.56,75.16,203.1,75.28,203.23Z"/><path class="cls-1" d="M149.31,100c1.42,0,2.32.23,2.71,1.53.54,1.83,2.09,3.14,2.22,5.31.16,2.57-.93,4.53-2,6.59-1.23,2.44-3.51,3.8-5.74,5.17-1.4.86-3.81,0-5.14-1.77a12.32,12.32,0,0,1-2.33-9c.12-.91,1.17-1.66,1.64-2.56C142.57,101.63,145.91,100.54,149.31,100Zm.31,9c-.41-1.52-1-2.22-2.21-2.28s-2.41.92-2.09,1.82a13.15,13.15,0,0,0,1.9,2.84Z"/><path class="cls-1" d="M135.69,104.78c-1.19,4.59-.3,8.82,1.42,12.9a3.07,3.07,0,0,1-.85,3.56c-2.95,3.13-6.15,3.5-9.78.64-2.14-1.68-3.91-3.59-3.36-6.36a17.19,17.19,0,0,1,2.68-6.22c2.12-3.08,5.6-4,9.09-4.67A2.89,2.89,0,0,1,135.69,104.78Zm-3.52,9c-1.44-.19-1.69.88-1.67,1.9s.19,2.21,1.58,2.37c1.1.13,2.34-1.3,2.3-2.59S133.42,113.73,132.17,113.8Z"/><path class="cls-1" d="M97.81,105.22c-1.09-5.9-.42-27.36,1.16-29.13-.19,9.92-.37,19.55-.55,29.17Z"/><path class="cls-1" d="M107.68,113.84V93.38l.36,0v20.41Z"/><path class="cls-1" d="M139.49,157.11c.16-1.16.28-2.32.49-3.47s.54-2.27.73-3.42c.25-1.5.45-1.6,2-.72l-2.36,7.76Z"/><path class="cls-1" d="M138.37,96.48l.71,3.2-2.43.42-.31-.45,1.27-3.21Z"/><path class="cls-1" d="M107.59,87.07V82.39l.65,0-.22,4.7Z"/><path class="cls-1" d="M119,122.75v-4.58C121.37,119.91,119.1,121.34,119,122.75Z"/><path class="cls-1" d="M97.71,160.93l-.36-4,.53-.07.58,4Z"/><path class="cls-1" d="M99.49,70.88a13.28,13.28,0,0,1,.76,2.26c0,.17-.73.47-1.44.9L99,71Z"/><path class="cls-1" d="M185.66,191.46c1.7,1.23,3.44,2.42,5.08,3.74a1.54,1.54,0,0,1-.15,1.46,3.06,3.06,0,0,1-4-1.27c-.53-1.21-1-2.46-1.46-3.69Z"/><path class="cls-1" d="M187.31,50.82c1.13,3.35,3.87,2.56,6.19,2.74s3.39.95,3.37,2.75a3.55,3.55,0,0,1-2,3c-2.35,1.42-8.27.92-10.35-.87-.27-.24-.57-.8-.47-1.06.87-2.17,1.84-4.31,2.77-6.45Z"/><path class="cls-1" d="M187.42,50.22c.94-1.74,1.75-3.28,2.58-4.8a3.49,3.49,0,0,1,5.22-1,4.11,4.11,0,0,1,1,.79c.55.84,1.6,1.92,1.39,2.57a3,3,0,0,1-3.16,2.17c-1.27-.09-2.54-.31-3.81-.28A21.31,21.31,0,0,0,187.42,50.22Z"/><path class="cls-1" d="M39,123.52A12.4,12.4,0,0,1,31,125a4.5,4.5,0,0,1-2.77-2.85,7.78,7.78,0,0,1,1.08-6.86c.79-1.08,1.73-1.35,2.57-.18a7.31,7.31,0,0,1,1.34,2.77c.21,1.1.84,1.81,1.7,1.75.6,0,1.36-.89,1.63-1.55a5.65,5.65,0,0,0,.1-2.43c-.11-1.59,1.9-4.39,3.5-4.47a2.58,2.58,0,0,1,2,1.09,7.65,7.65,0,0,1,0,6.93c-.45,1.06-1,1.93-2.53,1.54-1-.26-1.45.48-1.21,1.47A9.11,9.11,0,0,0,39,123.52Z"/><path class="cls-1" d="M162.49,24.2A15.37,15.37,0,0,1,165.12,26c.86.84.39,2.6-.81,3.69a8,8,0,0,1-6.15,2,2.67,2.67,0,0,1-1.86-1c-.25-.4.23-1.24.32-1.89C157.11,25.24,159.33,24.3,162.49,24.2Z"/><path class="cls-1" d="M135.37,24.79c-2.34-.25-2.34-.25-1.65-2.81.64-2.38,2.39-3.25,4.39-2a2.92,2.92,0,0,1,1.27,2,2.65,2.65,0,0,1-1.24,1.84A12.47,12.47,0,0,1,135.37,24.79Z"/><path class="cls-1" d="M30.83,160.16c-.35-.21-1.1-.38-1.23-.77-.72-2.09-1.64-4.18-1-6.49a6.07,6.07,0,0,1,5.76-4.42,28.16,28.16,0,0,1,7.35.73c1.27.29,2.38,1.46,3.45,2.37.17.15,0,1.19-.37,1.43-3.74,2.81-7.47,5.65-12.17,6.75Z"/><path class="cls-1" d="M211,156.69l-2-.53c-3-.79-3-.79-2.27-3.88l.21-.9C208.5,151.91,210.87,154.93,211,156.69Z"/><path class="cls-1" d="M43.33,59.51c1.3.45,2.63.83,3.87,1.4a1.52,1.52,0,0,1,.4,1.39c-.52,1.44-1.2,2.82-1.82,4.22-.41.92-1.12,1-1.55.2a36,36,0,0,1-2.57-5.37C41.27,60.25,42,59.54,43.33,59.51Z"/><path class="cls-1" d="M114.48,29.53c-1.15,0-3.18-1.78-3-3.25a32.12,32.12,0,0,1,1.69-6.7c.83-2.25,3.19-1.77,4.87-1.74.74,0,1.75,1.72,2.12,2.83.84,2.53,0,4.93-1.44,7A4.39,4.39,0,0,1,114.48,29.53Z"/><path d="M149.61,109l-2.41,2.38a13.15,13.15,0,0,1-1.9-2.84c-.32-.9.95-1.88,2.09-1.82S149.2,107.52,149.61,109Z"/><path d="M132.17,113.8c1.25-.07,2.17.26,2.21,1.68s-1.2,2.71-2.3,2.59c-1.39-.16-1.56-1.34-1.58-2.37S130.73,113.61,132.17,113.8Z"/></g></g></svg>