<svg xmlns="http://www.w3.org/2000/svg" viewBox="0 0 993.25 185.12"><defs><style>.cls-1{fill:#301515;}.cls-2{fill:#301616;}.cls-3{fill:#a7d6b9;}.cls-4{fill:#a0ced2;}.cls-5{fill:#a0d1d4;}.cls-6{fill:#9dc8cd;}.cls-7{fill:#a2d2d8;}.cls-8{fill:#9dcece;}.cls-9{fill:#a2d1d2;}.cls-10{fill:#9bcccd;}.cls-11{fill:#9ecfcd;}.cls-12{fill:#a4d1d4;}.cls-13{fill:#9ecbcc;}.cls-14{fill:#a4d5d6;}.cls-15{fill:#9dcbcf;}.cls-16{fill:#a5d1d4;}.cls-17{fill:#9ccdcf;}.cls-18{fill:#9eced4;}.cls-19{fill:#9ccdcc;}.cls-20{fill:#a1cece;}.cls-21{fill:#93c4ca;}.cls-22{fill:#97b6bc;}.cls-23{fill:#9fcfd7;}.cls-24{fill:#020202;}.cls-25{fill:#98c8d0;}.cls-26{fill:#a6d8e0;}.cls-27{fill:#97bec4;}.cls-28{fill:#97c6cb;}.cls-29{fill:#a0cdca;}.cls-30{fill:#a0ced8;}.cls-31{fill:#9fced5;}.cls-32{fill:#a1cfd4;}.cls-33{fill:#99c8c7;}.cls-34{fill:#97c7c9;}.cls-35{fill:#a9dce7;}.cls-36{fill:#9dced3;}.cls-37{fill:#9dcbca;}.cls-38{fill:#9ecbcd;}.cls-39{fill:#9fd0d5;}.cls-40{fill:#a1d2dd;}.cls-41{fill:#9cccc2;}.cls-42{fill:#a5d6d8;}.cls-43{fill:#9ccccf;}.cls-44{fill:#9fc4c9;}.cls-45{fill:#a5c9cf;}.cls-46{fill:#97c997;}.cls-47{fill:#9dcccf;}.cls-48{fill:#9acac9;}.cls-49{fill:#a0d0cf;}.cls-50{fill:#9dcbce;}.cls-51{fill:#9acacd;}.cls-52{fill:#93c4c7;}.cls-53{fill:#9ecdcc;}.cls-54{fill:#9dcdc9;}.cls-55{fill:#9fcad0;}.cls-56{fill:#9ac7d0;}.cls-57{fill:#9dcecc;}.cls-58{fill:#9fd0d9;}.cls-59{fill:#9fd0d2;}.cls-60{fill:#9bcbc6;}.cls-61{fill:#9fcbd4;}.cls-62{fill:#9fccd4;}.cls-63{fill:#a0d0d1;}.cls-64{fill:#a7d8dd;}.cls-65{fill:#9fd0cf;}.cls-66{fill:#a4d5de;}.cls-67{fill:#a6d8e2;}.cls-68{fill:#fccb0e;}.cls-69{fill:#0f0f0f;}.cls-70{fill:#0a0a0a;}.cls-71{fill:#fbcb12;}.cls-72{fill:#282218;}.cls-73{fill:#9bc9cb;}.cls-74{fill:#9fcec7;}.cls-75{fill:#97c9cc;}.cls-76{fill:#a3d5da;}.cls-77{fill:#94c4cb;}.cls-78{fill:#a1d3d0;}.cls-79{fill:#9bc7ca;}.cls-80{fill:#9cccc5;}.cls-81{fill:#9bc6c8;}.cls-82{fill:#321717;}.cls-83{fill:#a2d3d7;}.cls-84{fill:#a5d7dc;}.cls-85{fill:#a4cfd2;}.cls-86{fill:#a8dadf;}.cls-87{fill:#a6d1d3;}.cls-88{fill:#9ccdc9;}.cls-89{fill:#a6d8e1;}.cls-90{fill:#90bec4;}.cls-91{fill:#f6f5f5;}.cls-92{fill:#98c9cd;}.cls-93{fill:#fbfcfc;}.cls-94{fill:#322e2a;}.cls-95{fill:#0c0c0c;}.cls-96{fill:#2b2323;}.cls-97{fill:#a0d0d4;}.cls-98{fill:#a2d3d6;}.cls-99{fill:#a0d0d5;}.cls-100{fill:#a2ced8;}.cls-101{fill:#a0d0d6;}.cls-102{fill:#9cc9cc;}.cls-103{fill:#98c8cb;}.cls-104{fill:#9fcfd2;}.cls-105{fill:#9dccd1;}.cls-106{fill:#a0ccce;}.cls-107{fill:#9bc6c9;}.cls-108{fill:#a9dde0;}.cls-109{fill:#9ac3ca;}.cls-110{fill:#a8dae5;}.cls-111{fill:#a2ced2;}.cls-112{fill:#9dcdd0;}.cls-113{fill:#a1d2d5;}.cls-114{fill:#9ccdd3;}.cls-115{fill:#9dcdca;}.cls-116{fill:#9ecbcf;}.cls-117{fill:#9dced0;}.cls-118{fill:#a2d1c9;}.cls-119{fill:#9ecfcc;}.cls-120{fill:#92c2c5;}.cls-121{fill:#a3ccce;}.cls-122{fill:#a5d8e0;}.cls-123{fill:#fccb10;}.cls-124{fill:#9ececf;}.cls-125{fill:#97c5ca;}.cls-126{fill:#99c8c8;}.cls-127{fill:#a2d3d5;}.cls-128{fill:#9dcac9;}.cls-129{fill:#a1d3db;}.cls-130{fill:#a9dcdf;}.cls-131{fill:#a2ccc4;}.cls-132{fill:#a9dcd9;}.cls-133{fill:#fcfcfb;}.cls-134{fill:#9cc8cd;}.cls-135{fill:#301513;}.cls-136{fill:#976867;}.cls-137{fill:#311431;}.cls-138{fill:#faca13;}.cls-139{fill:#facb14;}.cls-140{fill:#fac915;}.cls-141{fill:#eb3f24;}.cls-142{fill:#e93f26;}.cls-143{fill:#a1d2da;}.cls-144{fill:#a2d3da;}.cls-145{fill:#a0d0d7;}.cls-146{fill:#a4d5d8;}.cls-147{fill:#9fccd3;}.cls-148{fill:#e83f26;}.cls-149{fill:#9fced4;}.cls-150{fill:#e43f28;}.cls-151{fill:#9ccacd;}.cls-152{fill:#a1d0d6;}.cls-153{fill:#a3d3d5;}.cls-154{fill:#343432;}.cls-155{fill:#9dcdd1;}.cls-156{fill:#9fcfd1;}.cls-157{fill:#9cc7cb;}.cls-158{fill:#9cccd2;}.cls-159{fill:#9dced4;}.cls-160{fill:#a4d5dc;}.cls-161{fill:#99c9cd;}.cls-162{fill:#343434;}.cls-163{fill:#9bcbcf;}.cls-164{fill:#a1d2d8;}.cls-165{fill:#9fcfd0;}.cls-166{fill:#9fcbd2;}.cls-167{fill:#9ac6cd;}.cls-168{fill:#9ac8cc;}.cls-169{fill:#97c2c7;}.cls-170{fill:#99c7cf;}.cls-171{fill:#9fd0d4;}.cls-172{fill:#a0d1d6;}.cls-173{fill:#9ecccb;}.cls-174{fill:#a0ced7;}.cls-175{fill:#9eced6;}.cls-176{fill:#9fcbd3;}.cls-177{fill:#9ecacc;}.cls-178{fill:#98c5cb;}.cls-179{fill:#a0cfd5;}.cls-180{fill:#a0cfd0;}.cls-181{fill:#97c7c7;}.cls-182{fill:#9fd1d3;}.cls-183{fill:#9ed0d7;}.cls-184{fill:#9ac5c5;}.cls-185{fill:#9fd0d0;}.cls-186{fill:#101110;}.cls-187{fill:#a0d1d2;}.cls-188{fill:#9ecfcf;}.cls-189{fill:#9eccd4;}.cls-190{fill:#a2cfd8;}.cls-191{fill:#3b302e;}.cls-192{fill:#a2cfd1;}.cls-193{fill:#9cced5;}.cls-194{fill:#9fd0d3;}.cls-195{fill:#9ccccc;}.cls-196{fill:#a0d2d9;}.cls-197{fill:#99cad2;}.cls-198{fill:#9ecbca;}.cls-199{fill:#9eccd0;}.cls-200{fill:#9cccd0;}.cls-201{fill:#9fcfc9;}.cls-202{fill:#99c9cb;}.cls-203{fill:#a3d4d8;}.cls-204{fill:#9dcecd;}.cls-205{fill:#a6cecd;}.cls-206{fill:#a1d1d6;}.cls-207{fill:#a3d6d4;}.cls-208{fill:#9fcac8;}.cls-209{fill:#9dc9cf;}.cls-210{fill:#b6902e;}.cls-211{fill:#9fcac9;}.cls-212{fill:#9ecbd4;}.cls-213{fill:#9dcdd2;}.cls-214{fill:#93bac0;}.cls-215{fill:#9fcbcd;}.cls-216{fill:#676734;}.cls-217{fill:#353527;}.cls-218{fill:#98c9d0;}.cls-219{fill:#97c0bc;}.cls-220{fill:#9dcacd;}.cls-221{fill:#97c9c7;}.cls-222{fill:#132416;}.cls-223{fill:#a6d8db;}.cls-224{fill:#a5d6d5;}.cls-225{fill:#98c8d1;}.cls-226{fill:#99c7c9;}.cls-227{fill:#a7d9d8;}.cls-228{fill:#97c8cf;}.cls-229{fill:#a7d9e3;}.cls-230{fill:#9ccdd5;}.cls-231{fill:#9dc6cd;}.cls-232{fill:#a2d4d6;}.cls-233{fill:#9bc7cc;}.cls-234{fill:#c63734;}.cls-235{fill:#95c6c9;}.cls-236{fill:#a2cbd2;}.cls-237{fill:#a1c9cf;}.cls-238{fill:#35351b;}.cls-239{fill:#372319;}.cls-240{fill:#36231b;}.cls-241{fill:#321c17;}.cls-242{fill:#3d301c;}.cls-243{fill:#3c2f20;}.cls-244{fill:#373224;}.cls-245{fill:#37292d;}.cls-246{fill:#3c341f;}.cls-247{fill:#3a311f;}.cls-248{fill:#1e1f11;}.cls-249{fill:#584a28;}.cls-250{fill:#342b1c;}.cls-251{fill:#382b21;}.cls-252{fill:#322620;}.cls-253{fill:#322e29;}.cls-254{fill:#382b1e;}.cls-255{fill:#3c3420;}.cls-256{fill:#372b1f;}.cls-257{fill:#372c1f;}.cls-258{fill:#342b23;}.cls-259{fill:#3b3320;}.cls-260{fill:#473c23;}</style></defs><title>logo</title><g id="Layer_2" data-name="Layer 2"><g id="Layer_1-2" data-name="Layer 1"><g id="Layer_2-2" data-name="Layer 2"><g id="Layer_1-2-2" data-name="Layer 1-2"><path class="cls-1" d="M257.85,179.74a5.06,5.06,0,0,1-2.12-.4,3.6,3.6,0,0,1-1.38-1.07,4.24,4.24,0,0,1-.74-1.59,8,8,0,0,1-.22-1.92,15.67,15.67,0,0,1,.09-1.6,16.88,16.88,0,0,1,.28-1.79h2.73v2.74a11.18,11.18,0,0,0,.08,1.46,3.24,3.24,0,0,0,.24.94,1.1,1.1,0,0,0,.42.5,1.21,1.21,0,0,0,.63.15,1.23,1.23,0,0,0,.55-.12,1,1,0,0,0,.42-.42,2.53,2.53,0,0,0,.26-.8,7.3,7.3,0,0,0,.09-1.27V157h3.41v17.06a8.61,8.61,0,0,1-.4,2.85,4.33,4.33,0,0,1-1.06,1.73,3.54,3.54,0,0,1-1.52.86A6.72,6.72,0,0,1,257.85,179.74Z"/><path class="cls-1" d="M274.38,157h3.44v16.51a12.08,12.08,0,0,0,.11,1.75,3.33,3.33,0,0,0,.34,1.11,1.38,1.38,0,0,0,.59.59,2.19,2.19,0,0,0,1.74,0,1.43,1.43,0,0,0,.62-.59,3.42,3.42,0,0,0,.37-1.11,10.25,10.25,0,0,0,.13-1.75V157h3.4v15.6a13,13,0,0,1-.26,2.82,7.5,7.5,0,0,1-.7,2,4.25,4.25,0,0,1-1,1.25,4.44,4.44,0,0,1-2.35,1,9.86,9.86,0,0,1-1.08.07,9.69,9.69,0,0,1-1.07-.07,4.37,4.37,0,0,1-2.33-1,4.3,4.3,0,0,1-1-1.25,7.37,7.37,0,0,1-.69-2,13.38,13.38,0,0,1-.26-2.83Z"/><path class="cls-1" d="M301.53,179.74a5.85,5.85,0,0,1-.92-.09,3.85,3.85,0,0,1-1.09-.36,4.59,4.59,0,0,1-1.1-.78,4.86,4.86,0,0,1-1-1.34,8.46,8.46,0,0,1-.68-2,13.93,13.93,0,0,1-.26-2.91v-8a13.17,13.17,0,0,1,.28-2.91,7.67,7.67,0,0,1,.74-2,4.48,4.48,0,0,1,1.06-1.31,4.75,4.75,0,0,1,1.25-.74,5.18,5.18,0,0,1,1.28-.34,9.5,9.5,0,0,1,1.17-.08,6.28,6.28,0,0,1,2.31.38,4,4,0,0,1,1.53,1,3.91,3.91,0,0,1,.84,1.52,6.5,6.5,0,0,1,.26,1.85,9.7,9.7,0,0,1-.09,1.34q-.09.61-.23,1.35h-2.73v-1.07q0-3.7-2-3.7a2.2,2.2,0,0,0-.94.18,1.52,1.52,0,0,0-.66.63,3.42,3.42,0,0,0-.39,1.17,10.88,10.88,0,0,0-.12,1.81v10.2a10.2,10.2,0,0,0,.13,1.75,3.26,3.26,0,0,0,.38,1.12,1.47,1.47,0,0,0,.65.6,2.21,2.21,0,0,0,.93.18,1.62,1.62,0,0,0,1-.3,2.25,2.25,0,0,0,.67-.81,4.34,4.34,0,0,0,.39-1.21,8.65,8.65,0,0,0,.13-1.52v-2.94h-1.75v-2.24h5.08v11.4h-2.27l-.37-2.14a4.6,4.6,0,0,1-1.48,1.8A3.55,3.55,0,0,1,301.53,179.74Z"/><path class="cls-1" d="M318.8,157h3.44v16.51a12.08,12.08,0,0,0,.11,1.75,3.33,3.33,0,0,0,.34,1.11,1.38,1.38,0,0,0,.59.59,2.19,2.19,0,0,0,1.74,0,1.43,1.43,0,0,0,.62-.59,3.42,3.42,0,0,0,.37-1.11,10.25,10.25,0,0,0,.13-1.75V157h3.4v15.6a13,13,0,0,1-.26,2.82,7.5,7.5,0,0,1-.7,2,4.25,4.25,0,0,1-1,1.25,4.44,4.44,0,0,1-2.35,1,9.86,9.86,0,0,1-1.08.07,9.69,9.69,0,0,1-1.07-.07,4.37,4.37,0,0,1-2.33-1,4.3,4.3,0,0,1-1-1.25,7.37,7.37,0,0,1-.69-2,13.38,13.38,0,0,1-.26-2.83Z"/><path class="cls-1" d="M341.41,157h8.33v2.69h-4.93v6.74h3.81v2.69h-3.81v7.71h5.06v2.69h-8.48Z"/><path class="cls-1" d="M360.45,157h3.7q.63,0,1.39.05a8,8,0,0,1,1.52.26,6.08,6.08,0,0,1,1.46.61,4.3,4.3,0,0,1,1.25,1.12,5.6,5.6,0,0,1,.88,1.79,9,9,0,0,1,.33,2.6V164a10.14,10.14,0,0,1-.74,4.19,4.64,4.64,0,0,1-2.18,2.33l3.61,9h-3.61l-3-8.42h-1.28v8.42h-3.35Zm3.86,11.63a5,5,0,0,0,1.52-.2,2.07,2.07,0,0,0,1-.67,2.94,2.94,0,0,0,.55-1.24,9,9,0,0,0,.17-1.91v-1.78a6.26,6.26,0,0,0-.16-1.5,2.35,2.35,0,0,0-.53-1,2.25,2.25,0,0,0-1-.61,5.19,5.19,0,0,0-1.56-.2h-.51v9.14Z"/><path class="cls-1" d="M382.36,157h3.38v22.52h-3.41Zm.3-1.87,4.23-2.85,1.7,2.2L384,156.68Z"/><path class="cls-1" d="M400.21,157h3.93l4.17,22.52h-3.45l-.62-4h-4.11l-.59,4h-3.47Zm3.63,15.91-1.58-11.22h-.15l-1.59,11.22Z"/><path class="cls-1" d="M431.25,174.13a6,6,0,0,1,.37-2.11,10,10,0,0,1,.9-1.83,12.5,12.5,0,0,1,1.11-1.52l1-1.18.36-.38-.45-.8q-.34-.62-.66-1.31a14.21,14.21,0,0,1-.56-1.4,11.26,11.26,0,0,1-.39-1.46,7.75,7.75,0,0,1-.14-1.48,5.2,5.2,0,0,1,.39-2.07,4.73,4.73,0,0,1,1.07-1.57,4.67,4.67,0,0,1,1.58-1,5.36,5.36,0,0,1,1.94-.35,5.27,5.27,0,0,1,2.22.41,4,4,0,0,1,1.39,1,3.6,3.6,0,0,1,.72,1.32,4.75,4.75,0,0,1,.2,1.31,6.31,6.31,0,0,1-.4,2.27,10.23,10.23,0,0,1-1,1.91,12.65,12.65,0,0,1-1.17,1.54l-1,1.15-.29.33,3.4,6.18a11,11,0,0,0,.35-1.52,10.41,10.41,0,0,0,.13-1.62v-1.54h2.75a6.86,6.86,0,0,1,.1.74v.8a9.64,9.64,0,0,1-.5,3.06,11.41,11.41,0,0,1-1.34,2.76l2.06,3.72h-3.53l-.74-1.32a8.14,8.14,0,0,1-2,1.13,5.9,5.9,0,0,1-2.15.41,6.86,6.86,0,0,1-2.32-.38,5.18,5.18,0,0,1-1.82-1.09,4.83,4.83,0,0,1-1.19-1.76A6.36,6.36,0,0,1,431.25,174.13Zm3.39-.46a4.61,4.61,0,0,0,.18,1.26,3.35,3.35,0,0,0,.55,1.12,2.87,2.87,0,0,0,1,.8,3.15,3.15,0,0,0,2.62,0,3.78,3.78,0,0,0,1.06-.74l-3.74-6.75a7.89,7.89,0,0,0-1.21,2.08,6,6,0,0,0-.46,2.22Zm2.85-9.2.6-.71a7.19,7.19,0,0,0,.64-.92,6,6,0,0,0,.51-1.15,4.31,4.31,0,0,0,.21-1.37,2.49,2.49,0,0,0-.14-.87,1.74,1.74,0,0,0-.37-.61,1.52,1.52,0,0,0-.53-.36,1.67,1.67,0,0,0-.63-.12,2,2,0,0,0-.63.11,1.59,1.59,0,0,0-.6.38,2,2,0,0,0-.45.71,3,3,0,0,0-.18,1.1,5.3,5.3,0,0,0,.07.88,6.2,6.2,0,0,0,.23.91,9,9,0,0,0,.42,1q.26.55.61,1.23Z"/><path class="cls-1" d="M470.39,157H479v2.69h-5.19v6.74h4.07v2.69h-4.07v10.4H470.4Z"/><path class="cls-1" d="M491.86,157h3.88l4.17,22.52h-3.45l-.62-4h-4.1l-.59,4h-3.41Zm3.63,15.91-1.58-11.22h-.17l-1.59,11.22Z"/><path class="cls-1" d="M510.23,157H513l5.46,15.07h.08a7,7,0,0,0-.11-1.17,9.43,9.43,0,0,1-.12-1.47q0-.82-.09-1.87t0-2.35V157h3.06v22.52h-2.84L513,164.86h-.11a8.36,8.36,0,0,0,.11,1.29,11.42,11.42,0,0,1,.12,1.63q0,.94.09,2.18t0,3v6.62h-3Z"/><path class="cls-1" d="M531.74,177.72l6.67-18h-5.67V157h9.51v1.81l-6.68,18h6.29v2.69H531.74Z"/><path class="cls-1" d="M552.74,157h3.42v22.52h-3.42Z"/><path class="cls-1" d="M568.06,157h2.77l5.46,15.07h.08a7,7,0,0,0-.11-1.17,9.43,9.43,0,0,1-.12-1.47q0-.82-.09-1.87t0-2.35V157h3.06v22.52h-2.79l-5.43-14.67h-.15a8.36,8.36,0,0,0,.11,1.29,11.42,11.42,0,0,1,.12,1.63q0,.94.09,2.18t0,3v6.62h-3Z"/><path class="cls-1" d="M591,157h8.35v2.69h-4.93v6.74h3.81v2.69h-3.81v7.71h5.06v2.69H591Z"/><path class="cls-1" d="M610.06,157h3.68q.63,0,1.39.05a8,8,0,0,1,1.52.26,6.09,6.09,0,0,1,1.46.61,4.29,4.29,0,0,1,1.25,1.12,5.57,5.57,0,0,1,.88,1.79,8.92,8.92,0,0,1,.33,2.6V164a10.14,10.14,0,0,1-.74,4.19,4.63,4.63,0,0,1-2.18,2.33l3.61,9h-3.61l-3-8.42h-1.28v8.42H610Zm3.86,11.63a5,5,0,0,0,1.52-.2,2.08,2.08,0,0,0,1-.67,2.94,2.94,0,0,0,.55-1.24,8.89,8.89,0,0,0,.17-1.91v-1.78a6.26,6.26,0,0,0-.16-1.5,2.35,2.35,0,0,0-.53-1,2.26,2.26,0,0,0-1-.61,5.19,5.19,0,0,0-1.56-.2h-.51v9.14Z"/><path class="cls-1" d="M632,157h3.41v22.52H632Zm.3-1.87,4.23-2.85,1.7,2.2-4.55,2.19Z"/><path class="cls-1" d="M649.81,157h3.93l4.17,22.52h-3.45l-.62-4h-4.1l-.59,4h-3.47Zm3.63,15.91-1.58-11.22h-.12l-1.59,11.22Z"/><path class="cls-1" d="M434.1,101.61c-3,18.27-12.9,29.7-28.93,32.64-11.31,2.07-22-1.38-31.91-6.12-7.75-3.7-9.64-12.12-10.22-19.74-1-12.39-3.39-24.68-2.68-37.21.54-9.57,2.72-18.49,8.62-26.28,1.29-1.7,2.73-3.07,4.83-3.42,5.32-.89,10.08-3.36,15.12-5.06,18-6.09,41.43,1.26,44.1,24.86.83,7.31-5.69,14.84-13.19,14.93a10.32,10.32,0,0,0-1.11-.06c-8.9.95-15-.65-16.39-11.69-1-7.68-4.23-8.46-9-5.73-3.37,2-2.74,5.44-2.43,7.88,1.36,10.82-.13,21.67.88,32.48.49,5.31,3.62,10.82,7.34,11.72s6.41.46,6.32-4.36c0-2.35.6-4.71.61-7.06,0-3.68,2.39-6.06,5.31-6,8,.05,15.89,1,23.83,1.54a2.78,2.78,0,0,1,.82,1.26,5.32,5.32,0,0,1,.09,1.52C436,99.26,434.52,100.13,434.1,101.61Z"/><path class="cls-1" d="M282.56,114.88c2.34,7.77,2,14.79-5.21,20.16-1.39,1-2.51,1.79-4.38,1.68-4.61-.29-9.25-.14-13.86-.39-4.8-.26-7.82-2.23-8-7.75-.55-16-1.38-31.92-2.18-47.87-.48-9.57-1-19.14-1.74-28.69-.82-10.67,2.4-15.49,13-15.63,13.43-.18,26.83-.62,40.21,3.34,19.5,5.77,28.17,31,11.85,47.12-2.54,2.51-2.74,3.94-1,6.79,4.3,6.84,8.21,13.93,12.35,20.87a13.5,13.5,0,0,1,1.82,5.17c.3,2.38-1.49,1.92-2.82,2.09-2.6-.46-2.94-2.94-4.14-4.64-.48-.86-.9-1.76-1.44-2.59a28.48,28.48,0,0,1-2.38-3.55,16.41,16.41,0,0,0-2.32-4.29,10.2,10.2,0,0,1-.86-1.16c-1.76-2.64-2.88-5.67-4.9-8.15a42.5,42.5,0,0,1-4-8,4.87,4.87,0,0,1-.19-1.48,4.81,4.81,0,0,1,1.28-2.63c1.13-1.2,2.4-2.26,3.56-3.43a26,26,0,0,0,2.28-2.6c1.7-1.72,2.44-3.95,3.18-6.17,1.16-3,2.58-5.87,1.38-9.18a13.2,13.2,0,0,0-2.73-7.68c-3.91-7-10.37-10.31-17.84-12.11a9.51,9.51,0,0,0-4.65-.63c-3.75.39-7.39-.85-11.13-.62-5.15-.12-10.3-.69-15.45-.3-2.42,1.09-1.57,3.11-1.38,4.94a38,38,0,0,0,.33,5.39c.17,4-.34,8,.7,11.86-.15,4.79,1.27,9.54.34,14.35-.66,2.19-1.45,4.38,0,6.59,1.22,2.09,1,4.45,1.28,6.71a14.48,14.48,0,0,0,.39,4.41,11.07,11.07,0,0,1,.18,1.55c.54,7.17.12,14.38,1.13,21.51.29,2.15,1.54,3.11,3.69,3.14a48.62,48.62,0,0,1,5.91.95c3.18-.78,2-3.53,2.44-5.5C277.89,115.49,278.55,112.75,282.56,114.88Z"/><path class="cls-1" d="M522.9,101.32c2.13-.94,4.24-1.94,6.39-2.82,4-1.65,7.58-1.84,9.26,3.33a5.63,5.63,0,0,0,1.76,2.1c2.35,2.09,4.72,4.3,8.25,3.5.55-.12,1.43-1.08,1.33-1.41-.9-3-3.21-4.73-5.71-6.41C536.41,94.4,528.66,89.14,521,83.74c-8.55-6-12.44-16.17-9.8-24.94,4.82-16,19.56-25,36.34-22.4,11.72,1.85,21.59,6.91,29.08,16.26a21.7,21.7,0,0,1,2,2.67c3.74,6.53,2.44,9.7-4.9,11.49-4.47,1.09-9,1.77-13.51,2.82-2.47.58-3.59-.6-4.88-2.44-3-4.29-6.68-7.76-12.16-8.72-1-.17-1.93-1.57-2.9-.34-.78,1,.07,2.12.45,3.11,2,5.27,6.08,8.54,10.84,11.07,5.35,2.85,11,5.14,16.08,8.44,6.42,4.21,11.08,10.06,12.08,18.08.59,1.35.92,2.79-.63,3.62-1.31.7-2.25-.33-3.09-1.24-2.09-3-3.43-6.43-5.48-9.45a27.41,27.41,0,0,0-1.63-2.45,17.63,17.63,0,0,0-3.82-3.19,35.77,35.77,0,0,0-4.2-2.79A57.18,57.18,0,0,0,552.43,79a20.88,20.88,0,0,1-4.5-2.6c-1.59-1.17-3.16-2.36-4.65-3.66a27.08,27.08,0,0,1-4.57-4,23.19,23.19,0,0,1-5-11.6c-.14-2.4,1-4.25,2.57-5.91a11.71,11.71,0,0,1,4.36-2.44,16.15,16.15,0,0,1,5-.32,10.56,10.56,0,0,1,3.17.63c1.43.63,2.6,1.69,4,2.44a60.91,60.91,0,0,1,7.8,5.71c1.81,1.49,3.58,3.07,6.22,2.26,1.8-.51,4.29-.17,4.91-2.37.49-1.74-1.67-2.46-2.69-3.61-1.31-1.68-2.49-3.48-4.43-4.55-.61-.41-1.19-.85-1.78-1.28-5.2-4.12-11.57-4-17.66-5a8.27,8.27,0,0,1-1.49-.09c-4-.73-7.71.86-11.47,1.83-.69.24-1.39.45-2.07.71-1.94.88-2.62,2.77-3.54,4.45a15,15,0,0,0-2,6.78c-.29,1.33-.75,2.65-.2,4,.82,2,1.06,4.12,1.76,6.13A35.75,35.75,0,0,0,528.55,71a27.44,27.44,0,0,0,8,8.44,36.45,36.45,0,0,0,4.22,2.88c2.61,1.42,5.06,3.09,7.57,4.66,3.78,2.58,7.29,5.53,11,8.24A18,18,0,0,1,561,97c2.76,3.16,4,6.71,2.68,10.87a10.22,10.22,0,0,1-2.68,3.29,22.55,22.55,0,0,1-3.26,2.73c-9.94,3-17.89.18-23.29-8.27-1.82-2.07-4-1.49-6.18-.79-1.8.63-3.59,1.33-5.54.64C520.27,104,522.17,102.68,522.9,101.32Z"/><path class="cls-1" d="M435.31,97.44l-.1-1.48c1.16-2.55.84-5.19.48-7.83-.11-7.48-.12-15-.34-22.45-.38-12.68,5.58-21.12,17.31-26,12.14-5.09,24-6.91,37-2.76C503.53,41.36,506,47.84,506.29,60c.35,14.66.4,29.33,0,44-.33,12.54-6.69,22.2-17.62,27.7-12,6-24.94,7.23-36.66-.81-10.34-7.09-16.51-17.1-16-30.27C435.06,99.69,436.16,98.36,435.31,97.44Z"/><path class="cls-1" d="M343.36,37.37c4,.11,8.7-1.56,11.93.64,4,2.69-.06,7.15.15,10.91,1.17,21.28,1.6,42.61,3.46,63.86.4,4.58-.07,9.17.6,13.77.6,4.14-2.64,7.51-7.15,7.09-5.17-.47-10.24.35-15.36.2-6.1-.17-7.71-2.33-7.93-8.4-.31-8.74-1.89-17.36-2-26.2-.23-16.78-1.66-33.54-2.38-50.31-.49-11.27.66-12.2,12.6-11.79Z"/><path class="cls-1" d="M322,120.81c1.26,0,2.61.21,3.44-1.14,1.64,1.57,1.25,3.84,1.52,5.68.78,5.25-2.23,8.44-7.62,8.75-8.16.48-16.38,2.32-24.24-1.92a5.55,5.55,0,0,1-3.06-3.32c-2.44-6.69-5.08-13.32-8.07-21.09l-1.36,7.1c-4.92-.5-3.89,3.22-3.91,5.85,0,3.4-.58,5.84-4.81,4.92-.29-1.8,2-2.24,2-3.88a87.17,87.17,0,0,0-.26-17.91c.17-4.41-.49-8.88,1.08-13.16,3.78-3.49,8-2.11,12.18-1.1,2.45,1,4,3.13,5.67,5s2.32,4.63,3.46,7c1,2,2.07,4,2.92,6.1.42,1.17.73,2.37,1.22,3.51a85.45,85.45,0,0,0,4.1,8.77c2.41,4.15,6,1.52,9.09,1.56C317.54,121.22,319.84,121.85,322,120.81Z"/><path class="cls-2" d="M576.44,99.94c.94.39,1,2.18,2.37,1.7s.76-1.81,1-2.8c3.22,11-.78,20.75-11.52,26.18-13.6,6.88-27.68,9.56-42.27,2.78a35,35,0,0,1-17.4-17.72c-1.29-2.78-.31-4.23,1.94-5.31,3.91-1.88,7.69-4.33,12.38-3.45.34,1.13-1.41,2.26,0,3.4a14,14,0,0,0,3.78,5.06,65.47,65.47,0,0,0,7.54,5.92,16.26,16.26,0,0,0,8,2.91c6.42,2.08,12.84.91,19.25,0a13.92,13.92,0,0,0,4.33-1.88c6.74-1.26,8.25-6.37,8.92-12.11C574.9,102.91,574.85,101.13,576.44,99.94Z"/><path class="cls-1" d="M435.74,88.13c1.72,2.73,1.3,5.32-.48,7.83a2.3,2.3,0,0,1,0-1.1Z"/><path class="cls-3" d="M411.09,123a2.46,2.46,0,0,1-2.43.92,105.09,105.09,0,0,0-11.45-.28,28.26,28.26,0,0,1-16.45-4.8,3.53,3.53,0,0,1-2-2.53c-1.11-3.5-3.4-6.55-4-10.27-1.47-8.78-.74-17.65-1.23-26.47-.09-1.61.61-3.34-.77-4.74-.17-4.46-1.14-9,.5-13.34-.53.51.89-.74.57-.08l.41.32c-.38-4.63,1.87-8.45,3.82-12.36.47-1.89,2.68-1.77,3.62-3.13,3.1-.94,5.1-3.78,8.21-4.71,3.27-.61,6.31-2.61,9.85-1.62,6.19.89,12.42,1.59,18.22,4.15a1.55,1.55,0,0,1,.28,1c1.91,2.09,4.24,3.81,5.71,6.3,1.53,3.53,1.07,7.68,3.44,10.94v1.16c-6.4,2.47-9.29,1.66-13.19-3.68a4.72,4.72,0,0,1-2.07-3.58c-2.48-5.51-10.67-8.76-16.63-6.46A21.85,21.85,0,0,0,392,51.21a20.58,20.58,0,0,0-3.87,3.14c-.69.56-1.45,1.09-1.44,2.12a2.61,2.61,0,0,1-.24,1c-2.17,1.69-2.55,3.5-.39,5.49l.1,2.27c-.25,6.38-.85,12.7.19,19.15,1,6-.32,12.17-.22,18.26a4.28,4.28,0,0,0,1,2.3c1.71,4,3.43,8.08,8.2,9.47.69,1.49,1.8-.35,2.59.33,5.62,2.9,10,.57,14.15-3.22a33.07,33.07,0,0,0,3.78-6.39c.7-5.32,4.13-6.67,8.87-6.1,2,.25,3.68.87,2.55,3.48l.08-.16c-2,4.09-1.68,9-4.44,12.76a32.24,32.24,0,0,1-5,4.83c-1.1.54-2.33.73-3.43,1.28C413.61,122.28,411.95,121.84,411.09,123Z"/><path class="cls-4" d="M372.74,74.78c3.93-.68,1.88,2.42,1.83,3.46a162.45,162.45,0,0,0,1.17,28.95,1.13,1.13,0,0,1-1,.85c-2-2.7-1.51-6-1.65-8.95C372.69,91,372.83,82.88,372.74,74.78Z"/><path class="cls-5" d="M386,104.25c-.5-13-2.76-26,.2-39,1.32,5.79.39,11.67.74,17.5.89,2.27-.35,4.7.55,7V91C385.94,95.25,387.63,99.94,386,104.25Z"/><path class="cls-6" d="M380.74,118.79c6.2,2.82,12.76,3.69,19.5,4.07,2.78.16,5.89-1.59,8.39,1C398.74,125.66,388.94,126.7,380.74,118.79Z"/><path class="cls-7" d="M391.24,51c6.78-4.89,13.27-3.79,19.46,1.08,1.16.92,3.79,1.79,1.46,4.14-5-5.7-11.15-7.16-18.3-5A2.34,2.34,0,0,1,391.24,51Z"/><path class="cls-8" d="M427.32,102.51c-2.93-3.74-7.55-3.63-9.4.21-.61,1.27-1.29,2.49-2,3.74-.87-1.26-.53-2.54,0-3.83.09-2,.35-4.87,2.64-4.58,3.32.42,6.88-1.67,9.79.53C429.87,99.73,430.18,101.85,427.32,102.51Z"/><path class="cls-9" d="M417.95,44l-18.57-3.78q-.55-.39-.34-.73t.41-.32C405.93,39.61,412.58,39.34,417.95,44Z"/><path class="cls-10" d="M412.48,111.87c-3.2,4.14-7.33,5.92-12.56,5-1.3-.22-2-.84-2-2.17,5.48.91,10.3-.33,14.3-4.32a.82.82,0,0,1,.26,1.49Z"/><path class="cls-11" d="M414.23,59.76c.44-.13,1.24-.4,1.25-.37,2.3,6.33,7.52,4,11.93,4.05.53,3.63-2.35,2.22-3.56,2-2.8-.48-6.46,2-8.31-2.1C415,62.2,414.67,61,414.23,59.76Z"/><path class="cls-12" d="M378,49.31c-.48,4.62-3.56,8.61-3.23,13.42l-1.56-1.31C372.74,56.56,374.74,52.66,378,49.31Z"/><path class="cls-13" d="M395.38,114.42c-6,0-7.31-4.44-8.34-9.07a.87.87,0,0,1,.25-1.5C389.8,107.51,391.45,111.84,395.38,114.42Z"/><path class="cls-14" d="M422.27,115.51c2.11-4.23,2.43-9.16,5.13-13.16-.58,5.27-.63,10.72-5,14.69a.94.94,0,0,1-.13-1.53Z"/><path class="cls-15" d="M427.39,62.29c-4.21-2.73-2.7-7.46-3.92-11.24.32-.45.62-.42.91,0A22.84,22.84,0,0,1,427.39,62.29Z"/><path class="cls-16" d="M374.74,108l1-.85c.42,3.22,4.12,5.35,3,9.07A11.77,11.77,0,0,1,374.74,108Z"/><path class="cls-17" d="M387.28,103.85l-.25,1.5-1.08-1.1c.71-4.42-.76-9.09,1.5-13.33Z"/><path class="cls-18" d="M399.46,39.13a6.79,6.79,0,0,1-.07,1l-10,1.71q-.47-.33-.29-.62t.34-.28C392.45,38.78,395.89,38.65,399.46,39.13Z"/><path class="cls-19" d="M412.48,111.87l-.21-1.44,3.65-7.8q0,1.91,0,3.82C415.61,108.78,413.85,110.2,412.48,111.87Z"/><path class="cls-20" d="M389.39,41a8.15,8.15,0,0,1,0,.9c-2.43,1.65-4.14,4.59-7.67,4.26C384,44.06,386,41.55,389.39,41Z"/><path class="cls-21" d="M424.37,51.08h-.91c-2.15-1.64-4.21-3.37-5.23-6C421.41,45.91,422.9,48.48,424.37,51.08Z"/><path class="cls-22" d="M386,63c-2.85-2-2.83-3.88.39-5.49Z"/><path class="cls-23" d="M422.27,115.51l.11,1.53c-.89,1.29-1.54,2.89-3.52,2.81a.7.7,0,0,1-1.17-.1A10.91,10.91,0,0,1,422.27,115.51Z"/><path class="cls-24" d="M394.08,125.78c3.28.11,5.06-.36,6.91.74A9.15,9.15,0,0,1,394.08,125.78Z"/><path class="cls-14" d="M391.24,51l2.63.24L389,54.28c-.45.42-.85.39-1.18-.15A6.8,6.8,0,0,1,391.24,51Z"/><path class="cls-25" d="M417.69,119.76l1.17.1c-1.12,1.49-2.78,1.94-4.46,2.38a.84.84,0,0,1-.08-1.45C415.13,119.43,416.47,119.8,417.69,119.76Z"/><path class="cls-17" d="M387.44,89.71c-1.69-2.21-.52-4.64-.55-7C388.57,85,386.95,87.41,387.44,89.71Z"/><path class="cls-26" d="M414.32,120.79l.08,1.45c-.89,1.2-2.15.76-3.31.72C411,120.55,413.58,122,414.32,120.79Z"/><path class="cls-27" d="M387.74,54.13l1.18.15-2.27,2.17C384.94,54.69,386.29,54.38,387.74,54.13Z"/><path class="cls-3" d="M301,111.33,299.89,108c.28-2.6-1.53-4.42-2.44-6.58-1.08-2.4-1.63-5.08-3.67-7-1-1.55-2.07-3.1-4.08-3.54-4-.68-8-1.4-12.14-.5-3,4.26-.68,9.06-1.38,13.56.74,6.35,0,12.74.59,19.09-4.45,1.48-8.75,2.33-11.72-2.67-1.82-7.51,0-15.37-2.18-22.86V96.21A24,24,0,0,0,262.44,86c-1-7.07.16-14.26-1.23-21.3-1-4.54.15-9.13-.41-13.67.15-9.34.15-9.24,9.73-9.34,2.52,0,5.1.67,7.6-.27,3.78-1.23,7.41,1.41,11.18.44,1.32,1.28,3.19,1.27,4.75,2C301.83,46,308.63,49.42,312.5,57c1.44,2.14,1.51,4.68,2,7.08,1.27,3.15-.65,5.83-1.29,8.69-.58,2.7-2.43,4.85-3.25,7.46a2.56,2.56,0,0,1-2.12,2.26c-1.52.23-2.26,1.59-3.41,2.37s-1.87,1.46-1.47,2.88l.16,1.1c.38,3.55,2.32,6.34,4.44,9,1.6,2.74,2.76,5.75,5.15,8l-.08-.13c1,1.41.89,3.29,2.14,4.56.68,1.47,1,3.2,3,3.65,1,.38,1.06,1.22,1.13,2.08,1.28,3.56.23,5.66-3.73,5.93-3-.18-6.32,2-8.87-1.24C304.32,117.72,303.86,113.86,301,111.33Z"/><path class="cls-28" d="M261.74,65.2c1.69,7,1.51,14.08,1.44,21.18a8.49,8.49,0,0,1-.35,6.8c-2.13-1.9.38-5-1.77-6.89-1-2.21-.58-4.43,0-6.64l-.32-14.52Q261.24,64.38,261.74,65.2Z"/><path class="cls-29" d="M312,57.13c-4-7.28-11.51-9.73-18.41-13q-.55-.4-.34-.76t.4-.35c8.13,1.24,14.64,4.94,18.64,12.39A1.21,1.21,0,0,1,312,57.13Z"/><path class="cls-30" d="M262.86,97.5c3.58,7.15,1.63,14.9,2.43,22.35a.94.94,0,0,1-1.33,0l0,0C262.51,112.47,262.83,105,262.86,97.5Z"/><path class="cls-31" d="M278.13,41.44c-3.47,1.59-7.14.52-10.68.89-3,.31-7.87-.07-5.52,5.87.25.63-.53,1.68-.83,2.53.34,1.19-.2,1.4-1.21,1.07-1.11-1.46,0-3-.19-4.5A15.72,15.72,0,0,1,260,42C266,39.49,272.09,41.13,278.13,41.44Z"/><path class="cls-32" d="M259.89,51.79l1.21-1.07c2.32,4.74.17,9.66.6,14.48l-1-.07C259.41,60.76,259.74,56.27,259.89,51.79Z"/><path class="cls-33" d="M263.93,119.88h1.37c2.55,4.49,7.14,2.93,10.94,3.69q.56-.75,1.06,0c-.26,2.18-2.61.85-3.46,2-1.92-.37-3.88-1.17-5.77-1C264.28,124.9,263.31,123.21,263.93,119.88Z"/><path class="cls-34" d="M315.24,121.58c2.84-.77,3.12-3.24,3.65-5.53,2.36.73,1.09,3.79,3.07,4.76-1.29,4.3-4.48,1.2-6.74,1.73q-.57-.33-.37-.65C315,121.68,315.12,121.58,315.24,121.58Z"/><path class="cls-35" d="M312.6,73.72l1.43-10a.64.64,0,0,1,1.09.11c2.55,3.78-.33,6.69-1.6,9.85C313.22,74.13,312.91,74.08,312.6,73.72Z"/><path class="cls-36" d="M307.21,98c-2.18-2.68-5.67-4.77-4.06-9.13l4.19,7.84a.78.78,0,0,1,.23.89Q307.38,98,307.21,98Z"/><path class="cls-37" d="M315.12,63.85,314,63.74c-1.66-1.92-1.23-4.48-2-6.66l.28-1.66A10.54,10.54,0,0,1,315.12,63.85Z"/><path class="cls-38" d="M307.21,98l.13-1.29c2.65,2.56,4,5.9,5.4,9.17C309.41,104.31,308.25,101.2,307.21,98Z"/><path class="cls-39" d="M312.6,73.72h.92A7.32,7.32,0,0,1,310,80.27C308.53,77.13,311.9,76,312.6,73.72Z"/><path class="cls-40" d="M262.74,93.18l.35-6.8a10,10,0,0,1-.26,9.87A2.61,2.61,0,0,1,262.74,93.18Z"/><path class="cls-41" d="M314.48,110.49c-2-1-2.25-2.75-1.81-4.73,2.34.75,2.24,3,3,4.78Q315,111.33,314.48,110.49Z"/><path class="cls-42" d="M314.48,110.49h1.14l2.14,3.44c-.18.84-.43,2.25-1.46,1S315.06,112,314.48,110.49Z"/><path class="cls-43" d="M293.63,43a10.13,10.13,0,0,1-.06,1.1c-1.63-.37-4,.76-4.27-2.25A5,5,0,0,1,293.63,43Z"/><path class="cls-44" d="M304.36,84.51c1.09-.81,1.13-3.47,3.51-2a7.2,7.2,0,0,1-3.54,3.09q-.42-.38-.27-.75T304.36,84.51Z"/><path class="cls-24" d="M261,79.65v6.64C259.19,84.13,259.55,81.87,261,79.65Z"/><path class="cls-45" d="M304.36,84.51v1.11L303,87.78C301.43,85.84,302,84.82,304.36,84.51Z"/><path class="cls-46" d="M260,41.94l-.34,5.36C259.15,45.46,258.55,43.63,260,41.94Z"/><path class="cls-3" d="M565.84,117.66c-.11,2.34-2,1.82-3.36,2-6.71-.84-13.48,1.69-20.16-.4-3-.8-6.1-1.43-8.6-3.51-2.69-1.39-4.57-3.85-7.14-5.4-3.23-4-3.23-4,1.86-6,2.66-.73,5.51-2.19,7,1.73,3.92,7,13.82,10.81,20.92,8.09A2.87,2.87,0,0,0,558,112.1l2.11-2c1.39.29,2-.88,2.89-1.53a7.3,7.3,0,0,0,.66-1.23c.27-1.86.59-3.71-.14-5.54a7.44,7.44,0,0,0-3.88-4.7l-1-1c-1.73-4-6.21-4.83-8.82-7.79-2.73-1.7-5.14-3.95-8.33-4.86a29.29,29.29,0,0,0-5.62-3.63,84.66,84.66,0,0,1-7.68-8.2c-.61-1.81-1.24-3.61-3-4.68-1.47-2-1.32-4.5-1.93-6.76a14.81,14.81,0,0,1,.9-3.47,76,76,0,0,1,1.7-7.58A6.17,6.17,0,0,1,529.45,44c2.17.83,4.09-.22,6.08-.81,3,.39,5.53-2.49,8.64-1.21h.69a63.9,63.9,0,0,1,19,5.18l1.34.92A52.15,52.15,0,0,0,569.84,54c2.45,4.27,2.45,4.27-3.26,5.94-2.83,1.17-4.24-1.43-6.27-2.37-2.07-1.78-3.85-4-6.59-4.8-1-1.12-2.48-1.64-3.65-2.56-.77-.86-1.89-1-2.88-1.43a27.07,27.07,0,0,1-3-1c.35.84,2.06.14,1.84,1.62l-5.39.49a2.82,2.82,0,0,0-3.6,1.71l-.06.18c-.94,1.65-2.5,3-2.15,5.21-1,4.48,2,7.56,3.92,11a14.55,14.55,0,0,0,5,4.25c2,.32,3.18,1.94,4.6,3.17.62,2.24,2.66,2.52,4.41,3.2,2.47,1.08,4.67,2.71,7.28,3.5,2,.9,3.36,3,5.77,3.13a7.61,7.61,0,0,1,4,3.34c-.59,2,1.71,2.6,1.9,4.21a21.3,21.3,0,0,1,3.65,12.78C574.24,111.28,572.06,116.13,565.84,117.66Z"/><path class="cls-47" d="M558,112.13c-1,4.8-4.81,3.69-7.89,3.49-6.65-.44-12.52-2.42-15.18-9.42a1.6,1.6,0,0,1,.07-2.26l.05,0C540.74,113.13,550,116.45,558,112.13Z"/><path class="cls-48" d="M563.85,47.13c-6.62-.67-12.54-3.9-19-5.18A25.32,25.32,0,0,1,563.85,47.13Z"/><path class="cls-49" d="M575,105.45l-4-13.66a.8.8,0,0,1,.21-1.29l5.15,9.44-.44,5.57C575.64,106,575.32,106,575,105.45Z"/><path class="cls-50" d="M566.68,59.51c1.86-1.35,6-1.66,2.43-5.44a.92.92,0,0,1,.26-1.51,9.64,9.64,0,0,1,4.94,5.73c-2.45,1.27-4.78,2.66-7.66,2.33q-.57-.38-.37-.74C566.42,59.62,566.55,59.5,566.68,59.51Z"/><path class="cls-51" d="M550.07,87.85c2.91,2.72,8.33,2.86,8.58,8.32l-10.91-8.33a1.63,1.63,0,0,1,2.31,0Z"/><path class="cls-52" d="M538.63,68.61c-2.55-3.42-6.34-6.42-3.87-11.52.8,4.18,3,7.76,4.82,11.51Q539.11,69.25,538.63,68.61Z"/><path class="cls-53" d="M544.17,42c-3.13.3-5.79,2.84-9.18,2a2.84,2.84,0,0,1-3.68-.32C535.56,42.75,539.48,39.38,544.17,42Z"/><path class="cls-54" d="M528.49,71.47a31.12,31.12,0,0,1,7.44,8.17c.38.2.5.41.38.61s-.25.31-.37.31a18.8,18.8,0,0,1-8.41-9.09C527.84,70.91,528.16,70.93,528.49,71.47Z"/><path class="cls-55" d="M528.34,104.86c-3.2,1.2-3.65,3-1.26,5.51a.76.76,0,0,1-1.28,0c-1.64-1.55-4.84-2.29-2.92-5.67l5.48-1a.69.69,0,0,1,.27.77Q528.48,104.86,528.34,104.86Z"/><path class="cls-56" d="M550.07,87.85h-2.33l-7.61-4.72a.7.7,0,0,1,1.21,0C545.12,83.07,547.56,85.53,550.07,87.85Z"/><path class="cls-57" d="M559.66,97.13a4.41,4.41,0,0,1,4.39,4.43s0,.07,0,.11a9,9,0,0,1-.24,6.66h0a.87.87,0,0,1-1.45-.2C563.74,103.94,562.26,100.43,559.66,97.13Z"/><path class="cls-58" d="M525.86,49.13c1.17,2.89.18,5.39-1.42,7.78q-.51.79-1,0C523.4,54,523.34,51.13,525.86,49.13Z"/><path class="cls-59" d="M560.38,82.72a11.3,11.3,0,0,1-7.74-3.66q-.57-.36-.37-.71c.14-.23.27-.34.4-.34a17.11,17.11,0,0,1,8.82,4.65C561.13,83.13,560.74,83.13,560.38,82.72Z"/><path class="cls-60" d="M553.54,52.39c3.46-.26,5,2.2,6.6,4.63q.4.41.23.77t-.32.35l-8-5.6a.85.85,0,0,1,1.49-.15Z"/><path class="cls-61" d="M528.34,104.86v-1.15c2.28-1.14,4.56-2.57,6.72.2l-.12,2.31C533.31,103,530.56,105.26,528.34,104.86Z"/><path class="cls-62" d="M569.37,52.55l-.26,1.51c-1.51-1.86-4.48-2.76-3.91-6A6.41,6.41,0,0,1,569.37,52.55Z"/><path class="cls-63" d="M560.06,58.13l.08-1.12c2.43.16,3.81,3.09,6.54,2.49v1.1C563,63.69,562.06,59.47,560.06,58.13Z"/><path class="cls-64" d="M546,49.49l-3.71-1.43c3.39-.92,6-.42,8.14,2a1.09,1.09,0,0,1-1.53.15l0,0Z"/><path class="cls-65" d="M528.49,71.47h-1A9.31,9.31,0,0,1,525.16,67C528.74,66.69,528.31,69.29,528.49,71.47Z"/><path class="cls-35" d="M538.63,68.61a4.33,4.33,0,0,0,1,0c1.44,1.19,3.53,1.65,4.17,3.73C541.07,72.42,539.74,70.68,538.63,68.61Z"/><path class="cls-64" d="M552.66,78v1c-2.14-.33-4.86,0-4.29-3.56Z"/><path class="cls-23" d="M541.34,83.07h-1.22c-1.79-.21-2.94-1.46-4.2-2.55V79.6C538.26,80,540.25,80.8,541.34,83.07Z"/><path class="cls-66" d="M536.91,51.87c.14-2.72.83-4.36,3.66-1.89Z"/><path class="cls-67" d="M560.38,82.72a8,8,0,0,0,1.11,0c2.09-.17,3,1.49,4.32,2.65C562.88,86.79,562.15,83.66,560.38,82.72Z"/><path class="cls-23" d="M548.82,50.13l1.56-.12a3.13,3.13,0,0,1,3.15,2.36l-1.45.15Z"/><path class="cls-26" d="M562.36,108.13l1.45.2c-1,1.11-1.35,3.43-3.67,1.8Z"/><path class="cls-35" d="M571.29,90.5l-.21,1.29c-1-.83-3.48-1-1.24-3.12Z"/><path class="cls-35" d="M523.46,56.86h1c0,1.26.21,2.59-1.19,3.35C522,59,522.53,57.93,523.46,56.86Z"/><path class="cls-35" d="M531.31,43.61l3.68.32c-1.82,1.68-3.68,1.34-5.54.07Z"/><path class="cls-68" d="M501,66a81.38,81.38,0,0,0,.18,18l0,.12c-.4,6.36-1,12.71-1.18,19.08-.64,19-9.27,22.29-24.1,23.36-17,1.23-29.9-14.19-30-30.33-.09-11.13.66-22.27-.43-33.38l0-.12A30.06,30.06,0,0,1,455.87,46.3c8.46-6.81,17.78-8.83,28.12-5.77A44.92,44.92,0,0,0,489.68,42c6.23,1,9.17,5.5,11.32,10.82C502.53,57.23,501.45,61.63,501,66Z"/><path class="cls-69" d="M501,66V52.83C503.38,57.22,502.43,61.63,501,66Z"/><path class="cls-70" d="M501.14,84l.36-9.87c.68,3.38,2.09,6.83-.3,10Z"/><path class="cls-24" d="M445.46,62.84l-.32,8.76c-.74-3-2.08-6.11.26-8.87Z"/><path class="cls-71" d="M351.41,49.48l2.09,31.28a13.74,13.74,0,0,1-.26,7.75l.19,1.21c.65,2.2-.61,4.55.53,6.71-.61,7,.11,14,.55,21,.42,6.63,0,7.58-6.17,6.6-2.68-.43-5.45,4.06-7.66-.23-1.3-2.54-1-5.39-1.11-8.13q-1.26-26.37-2.49-52.75c-.24-5.14.14-10.37-.74-15.4-.85-4.83.35-6.19,5-5.07a3.76,3.76,0,0,0,3.66-.73c1.78,0,3.68-1.32,5.33.43l1,2C351.61,45.88,352.3,47.66,351.41,49.48Z"/><path class="cls-24" d="M350.31,42.13c-1.76-.35-3.64.82-5.33-.43C346.91,39.81,348.74,39.76,350.31,42.13Z"/><path class="cls-24" d="M351.41,49.48a8.87,8.87,0,0,1-.14-5.38C353.74,45.83,352.43,47.66,351.41,49.48Z"/><path class="cls-72" d="M353.25,88.51l.26-7.75A6.62,6.62,0,0,1,353.25,88.51Z"/><path class="cls-72" d="M354,96.43c-1.42-2.14-.42-4.47-.53-6.71C354.9,91.86,353.84,94.19,354,96.43Z"/><path class="cls-73" d="M277.3,123.59h-1.09c-1.53-6.66-.6-13.36-.4-20,.65.16.73.83,1.12,1.22C278.06,111,277.74,117.29,277.3,123.59Z"/><path class="cls-74" d="M277,104.72l-1.12-1.22c-1.23-3.6-1-7.3-.64-11,.1-1.17-.2-3.39,2.35-2.14Z"/><path class="cls-75" d="M315.24,121.58v1c-3.62.12-8,3.9-10.29-2.24a1,1,0,0,1,1.4-.18l.1.09C309.08,122.56,312.42,120.42,315.24,121.58Z"/><path class="cls-76" d="M306.44,120.22l-1.5.09c-1.27-3-3.39-5.65-3.92-9C305,113,305.34,116.82,306.44,120.22Z"/><path class="cls-77" d="M289.74,90.88c2.88-.42,3.35-.07,4.35,3.23q.78.75-.16,1.29Z"/><path class="cls-78" d="M293.88,95.39l.16-1.26c2.57,1.6,2.93,4.47,4,6.94a1.12,1.12,0,0,1-.94.86Z"/><path class="cls-78" d="M297.09,101.91l1-.86c.81,2.25,3.36,4,1.85,6.91A16,16,0,0,1,297.09,101.91Z"/><path class="cls-79" d="M541.2,118.67c5.44-.08,10.89,1.07,16.34-.37,1.63-.43,3.71-.53,4.94,1.39-7.1,1.62-14.21,2.3-21.35.22a.75.75,0,0,1-.26-.84Q541,118.66,541.2,118.67Z"/><path class="cls-26" d="M575,105.45l1,.06c-1.9,9.74-3.1,11.17-10.16,12.15C570.74,115,573.57,110.72,575,105.45Z"/><path class="cls-80" d="M541.2,118.67l-.06,1.24a11.9,11.9,0,0,1-7.69-3.58.83.83,0,0,1,.17-1.3C535.91,116.72,539.1,116.56,541.2,118.67Z"/><path class="cls-81" d="M533.61,115l-.17,1.3a23,23,0,0,1-7.64-5.94h1.28C530,110.83,531.37,113.57,533.61,115Z"/><path class="cls-82" d="M282.11,49.37l4.52.12c3-1.35,4.9,1.48,7.45,1.81A29.32,29.32,0,0,1,297,52.77c3.51,1.53,4.11,5.1,5.65,8,.45,3.41,2.83,6.86-.24,10.19l-2.2,3.32c-.27,1.42-1.64,1.92-2.44,2.89-1.75,1.3-3.93,1.5-5.88,2.31-1.93.16-3.92-.24-5.75.72-3.16-.38-6.3,1.62-9.46,0-1-1-2.2-1.89-2.07-3.54-.35-5.57-1.35-11.12-.45-16.73a.64.64,0,0,0,0-.9l0,0C271,49.47,272.35,47.76,282.11,49.37Z"/><path class="cls-83" d="M282.11,49.37c-8.1.81-8.1.81-7.9,9.7-3.72-3-3-7.2-1-9.85S279.15,47.3,282.11,49.37Z"/><path class="cls-84" d="M274.17,60a45.72,45.72,0,0,1,.45,16.73C273,71.19,271.43,65.65,274.17,60Z"/><path class="cls-85" d="M276.69,80.27c3.32-.47,6.61-1.25,10-.85,1.68-.91,3.46-.19,5.18-.32a2.09,2.09,0,0,1,1.6.6c-4.77,2-10,1.47-14.92,2.36C278,82.13,277.31,80.9,276.69,80.27Z"/><path class="cls-86" d="M302.41,71a26.32,26.32,0,0,0-.87-10.91.94.94,0,0,1,1.52,0c1.67,3.68,2.91,7.44,1,11.4C303.1,73.55,302.74,72,302.41,71Z"/><path class="cls-57" d="M303,60l-1.52,0c-1.77-2.24-2-5.67-5.22-6.8a1.66,1.66,0,0,1,2.53-.07C301.93,54.43,301.85,57.62,303,60Z"/><path class="cls-87" d="M294.29,52.25l-7.66-2.76c3.1-2.42,5.39-.1,7.83,1.35a.91.91,0,0,1,0,1.29Z"/><path class="cls-88" d="M293.47,79.7l-1.16-.07q-.52-.33-.34-.63t.36-.3l5.86-2.26c.37-.38.64-.3.82.18C297.79,78.77,295.74,79.44,293.47,79.7Z"/><path class="cls-89" d="M294.29,52.25l.17-1.41a5.83,5.83,0,0,1,4.38,2.36l-2.52.07C295.48,53.25,294.69,53.13,294.29,52.25Z"/><path class="cls-90" d="M299,76.61a3.47,3.47,0,0,1-.82-.17l2-2.14C302,76.13,300.45,76.38,299,76.61Z"/><path class="cls-35" d="M563.8,108.38l.24-6.66A5,5,0,0,1,563.8,108.38Z"/><path class="cls-1" d="M489.74,90.83c0,5.46-.1,11.37-2.58,16.89-3,6.69-10.84,10-18.68,7.82-5.11-1.39-10.6-9.69-9.21-15.55,2.78-11.66,1.41-23.39,1.5-35.09.06-7.85,4.63-13.38,12.34-14.18,8-.82,14.53,3.79,15.37,11.62C489.51,71.65,490.74,81,489.74,90.83Z"/><path class="cls-91" d="M284.35,74.91a16.64,16.64,0,0,1-2.77-1.29c-.93-.64-2.67-13.5-2-14.47a2,2,0,0,1,1.23-.86c3.44-.26,5.94,1.61,8,4,2.52,2.84,2.76,6,1.34,9.63C289,74.7,286.44,73.77,284.35,74.91Z"/><path class="cls-92" d="M292.33,78.7v.94l-5.62-.21C288.41,77.91,290.4,78.53,292.33,78.7Z"/><path class="cls-93" d="M480.46,98.35a59.65,59.65,0,0,1-1,7.13c-1.1,4.43-4.67,5.34-8.57,5.07s-4.68-3.09-4.71-6.3C466,90.13,466,76,465.85,61.9c0-1.42.34-2.59,1.69-3.18a4.42,4.42,0,0,1,5.08.66c5,4.18,7.08,9.89,7.53,16C480.67,82.66,480.38,90,480.46,98.35Z"/><path class="cls-1" d="M759.89,100.49c.21,3.29.65,6.59.55,9.88-.11,3.71-1.08,7.27-3.93,10-20.08,19.09-39.63,19.93-61.8,4.77-7.19-4.92-9-13.78-8.93-22.23.13-17.79.73-35.58,1.28-53.37.19-6,5.09-10.56,11.15-11,5-.32,9.91-.62,14.86-1,3.22-.24,4.72.91,4.58,4.42q-1,26.44-1.79,52.88c-.27,9.5,1.29,11.79,8.29,14.91,4.23,1.89,6.29.42,7.27-3.6a50,50,0,0,0,1-12.62Q732.2,78.4,732,63.27c1.38-1.33.35-3.23,1.12-4.7.09-.74-.65-.17-.61,0,.38,1.32.65,2.72-.53,3.86-1.32-5.28,0-10.58-.06-15.87,0-2.29,1.84-3.37,3.83-4.23,7.88-3.4,16.37-1.53,24.49-2.88,1.69-.28,1.87,1.5,1.8,2.81-.58,11.73-1.38,23.45-1.72,35.19-.16,5.32-.32,10.62-.87,15.92C760.29,95.7,758.94,98.13,759.89,100.49Z"/><path class="cls-1" d="M911.79,96.22c-1.57,6-1.08,13.51-4.41,21-4.85,10.91-13.64,16.1-23.48,17.82-18.79,3.29-35.8-.25-39.9-22-3.18-16.9-4.89-34.21-.57-51.54C849.1,38.73,874.8,30,893.81,38.1c7.93,3.39,13.85,9.49,18.54,16.73A4.38,4.38,0,0,1,913,58C911.54,70.2,912.62,82.55,911.79,96.22Z"/><path class="cls-1" d="M649.33,48.53c-1.73-6.18,1.13-9.94,8.21-11a10.28,10.28,0,0,1,5.81.74c3,1.49,6-.07,9,.22,4.53-1.26,6.76.35,6.2,5.14-.79,6.83,1.12,13.78-1,20.55.88,5-1,9.93,0,14.9a3.12,3.12,0,0,1,.07,3c1,3.44-.83,7,.34,10.4l.82,22.48c.17,4.94-1.37,8.62-6.11,11.29-8.78,4.94-17.61,9-28,7.75-5.25-.64-7.6-2-9-8.66-1.93-9.06,1-13.52,9-16.4,4.69-1.7,1.44-6.29,2.9-9.22.72-2.33-.1-4.86.92-7.17.29-.66.06-1.15,0-.41l-.51-.06c-.65-5.43-.1-10.85.15-16.28.34-7.25.54-14.5.81-21.76C650.28,52.32,650.14,50.45,649.33,48.53Z"/><path class="cls-24" d="M647.9,92.13c.32-.43,1.11-1.43,1.07-1-.19,2.89,1,6.08-1.44,8.59A9.39,9.39,0,0,1,647.9,92.13Z"/><path class="cls-94" d="M677.62,79.13c-1.73-5-.2-9.93,0-14.9C678.91,69.19,678.16,74.13,677.62,79.13Z"/><path class="cls-95" d="M672.34,38.54c-3,1.93-6,1.46-9-.22C666.33,38.71,669.39,36.53,672.34,38.54Z"/><path class="cls-94" d="M678,92.49c-1.93-3.41-.42-6.93-.34-10.4C679,85.51,677.74,89,678,92.49Z"/><path class="cls-96" d="M759.89,100.49c-1.74-2.27-.47-4.74-.45-7.12C760.93,95.66,759.52,98.13,759.89,100.49Z"/><path class="cls-24" d="M732,62.44l.88-6.11c.61,3.44,1,5.38-.85,7a.58.58,0,0,1-.1-.81Z"/><path class="cls-24" d="M649.33,48.53c1.54,2,1.65,3.85-.47,5.52Z"/><path class="cls-24" d="M830.95,103.33l.43-6.55C833,99.13,833.06,101.28,830.95,103.33Z"/><path class="cls-24" d="M830.47,110l.41-5.4C832.64,106.55,832.61,108.36,830.47,110Z"/><path class="cls-24" d="M792,66.7a8.05,8.05,0,0,1,.29-5.57,3.87,3.87,0,0,1-.18,5.47Z"/><path class="cls-24" d="M808.11,40.53c1.32-.93,2.7-.7,4.15-.26C810.94,41.92,809.49,40.27,808.11,40.53Z"/><path class="cls-24" d="M798.59,128.25c-1.35,1.41-2.87,1.23-5.49.11l5.48-.12Z"/><path class="cls-24" d="M776.42,105.86l-.49,4.75c-1.29-2.08-1-3.49.49-4.74Z"/><path class="cls-3" d="M712.53,48.8v4.44C711.25,68.79,711,84.4,709.95,100c.16,3.22.56,6.37,3.1,8.77a14.16,14.16,0,0,0,6.75,4.89c6.2,1.93,12.4,4.07,18.09-1.25,6.46-5.09,4.2-12,3.75-18.45a42.63,42.63,0,0,1,.25-11c.77-9.73,1.47-19.46,1.59-29.23,0-2.91-2-7.54,3.51-7.86,8.36-.49,8.73,0,9.1,7.62a8.78,8.78,0,0,0,.15,1.09c.57,10.15-.41,20.28-.53,30.42.87,5.58-.5,11.21.27,16.78.49,3.5-2.09,6.16-2.28,9.45a9.84,9.84,0,0,1-4.66,4.37c-4.47,2.08-8.54,5-13.25,6.59-10.09,3.21-19.74,1.25-29.25-2.47-1.66.11-2.39-1-3-2.27-6.75-11.28-3.3-23.7-4-35.66-.28-4.58,1.08-9.27-.93-13.73l.18-5.48c.22-2.37.71-4.69,1.14-7a34.09,34.09,0,0,1,0-4.9c.61-6.79.54-6.29,6.84-7.12C711.64,42.83,711.63,45.94,712.53,48.8Z"/><path class="cls-97" d="M698.53,68c.75-.14,2.07-2.81,2.07.41,0,7.44-.12,14.89-.13,22.33,0,5.79,0,11.58.17,17.36.08,2.9,2,5,3.66,7.22.91,1.24.87,1.92-.8,2.08-6.12-5.88-5.17-13.6-5.25-21C698.16,87,698.42,77.51,698.53,68Z"/><path class="cls-98" d="M755.9,54.65a2.57,2.57,0,0,1-.93-2.46c1-6.88-4.18-5.92-7.89-5.71-4.39.24-3.2,4.22-2.93,6.72,1,9.42-.62,18.71-1,28,0,.58-.81,1.14-1.25,1.7-1.58-5.44,0-10.9,0-16.34,0-6.2.54-12.4.66-18.6,0-2.66,1-3.44,3.66-3.29,2.11.13,4.16.68,6.46-.1,3.32-1.13,4.76.59,3.77,4a14.2,14.2,0,0,1,0,5.28Z"/><path class="cls-99" d="M755.28,85.76c-1.64-10.41.54-20.74.62-31.11H756q.54-.7,1,.06c1.23,6.31,0,12.66.32,19a9.82,9.82,0,0,1-.31,5.51l-.59,6.68a.66.66,0,0,1-1.1-.14Z"/><path class="cls-100" d="M709.81,102.13c-1.21-1-1-2.28-.92-3.55q1.18-20.93,2.38-41.86c.07-1.27,0-2.61,1.27-3.46a33,33,0,0,1-.62,14.08A258.9,258.9,0,0,1,709.81,102.13Z"/><path class="cls-18" d="M755.28,85.76l1.09.07c1,4.81.19,9.67.44,14.5a11.52,11.52,0,0,1-.4,6.65c-1.28,1.17-.8,3.46-2.71,4.23-1.87-3.81,1.55-7.07,1-11C754,95.5,755,90.58,755.28,85.76Z"/><path class="cls-101" d="M706.56,119.69c1.18-1.48,2.32-.38,3.38.13,8.66,4.18,17.61,3.41,26.62,1.61a.75.75,0,0,1,.29.79q-.13.41-.26.4C726.13,126.2,716.09,125.51,706.56,119.69Z"/><path class="cls-102" d="M712.53,48.8c-2.94-.13-.69-4.54-4.22-4.73-5.44-.29-6.83.56-7.35,6.14-.18,1.9-.59,3.78-.9,5.67a.61.61,0,0,1-1-.06c.56-1.62-.64-3-.49-4.74.78-8.93,2.31-10.39,11.16-8.76C713.51,43,713.3,45.9,712.53,48.8Z"/><path class="cls-103" d="M709.81,102.13l2.1-34.78c2,9.49-.44,18.91-.6,28.37-.08,4.27,0,8.35,1.53,12.36.31.22.4.42.27.58a.48.48,0,0,1-.37.23C710.83,107,708.45,105.37,709.81,102.13Z"/><path class="cls-104" d="M741.65,93.91c.51-.07,1.42-.33,1.49-.18,2.17,4.52-.86,16-4.94,18.91q-.51-.4-.33-.8t.34-.4c3.66-2.74,2.62-6.77,2.86-10.45C741.22,98.63,741.45,96.27,741.65,93.91Z"/><path class="cls-105" d="M738.2,111.44v1.2c-5,5.24-11.26,5.62-19.09,1.15a3.73,3.73,0,0,1,3.76.06C728.26,114.85,733.57,115.29,738.2,111.44Z"/><path class="cls-106" d="M736.58,122.62v-1.19c4.19-1.89,7.55-5.56,12.5-5.85C745.67,119.29,741.32,121.3,736.58,122.62Z"/><path class="cls-107" d="M722.86,113.85l-3.76-.06c-2.86-.69-5.16-2.11-6.36-4.93a3.33,3.33,0,0,1,.1-.81A31.63,31.63,0,0,0,722.86,113.85Z"/><path class="cls-108" d="M699,55.83q.51,0,1,.06c.92,2.48.19,4.64-1.31,6.64C697.48,60.24,698.16,58,699,55.83Z"/><path class="cls-24" d="M740.85,52.44c-.14-2.34-.56-4.48.62-6.81C741.92,48.27,741.94,50.49,740.85,52.44Z"/><path class="cls-96" d="M756.41,107l.4-6.65A5.34,5.34,0,0,1,756.41,107Z"/><path class="cls-109" d="M756.95,54.66h-1l.47-5.94C757.62,50.57,757.27,52.62,756.95,54.66Z"/><path class="cls-96" d="M757,79.13l.31-5.51A4.15,4.15,0,0,1,757,79.13Z"/><path class="cls-1" d="M949.47,62.64c3.2,11.11,13,14.72,22,19.1,9.85,4.78,18.32,10.63,21,22.28,3.37,14.68-4.24,30-20.22,32.59-10.59,1.73-21.36,2.36-31.57-2-8.83-3.75-17.28-8.22-22.56-16.83-2.17-3.53.88-14.33,4.79-15,4.36-.76,8.46-2.3,12.7-3.34,4.4-1.08,5.39.8,6.29,4.33,1.93,7.65,8.23,11.92,14.62,10.24,2.68-.7,3.79-1.51,2.52-4.93-2.4-6.5-8.51-8.33-13.2-11.9-6.54-5-14.66-8.08-19.49-15.07-10.61-15.24-4.27-33.8,10.39-40.24,7.5-3.29,14.47-9.1,23.26-6.24,12,3.9,22.61,10,27.91,22.39a3.88,3.88,0,0,1-3.71,1.69A5.44,5.44,0,0,1,980.85,57c-5.14-7.68-13-11.18-21.24-14.32-3.93-1.51-7.69-.9-11.3.76a55,55,0,0,0-7.23,4.1c-11.16,7.38-12.14,21.78-2,30.69,6.13,5.41,13.33,9.31,20.2,13.65,4.27,2.7,8.27,5.62,11.34,9.66,4.18,5.49,3.51,10.64-1.9,15-9.7,7.82-22.35,5.7-29.3-4.92-1.7-2.6-3-5.68-7.11-4.92s-4.81,2.3-2.36,5.85c7.85,11.38,19.33,14.18,32.13,13.66,5.54-.22,11-1.08,16-4,9-5.27,11.33-15.05,5.25-23.65-3-4.31-7.33-7.21-11.9-9.78-8-4.51-16.75-8-22.54-15.78-1.82-2.44-3.58-4.74-3-8C946.42,63.23,946.86,61.24,949.47,62.64Z"/><path class="cls-1" d="M949.47,62.64c-2.4,0-2.34,1.9-2.66,3.5C943.25,62,943,57.45,946.07,54c6.92-7.71,17.08-7.11,23.09,1.37,5.16,7.27,6.92,7.71,15,3.71l3.77-1c2.66,2.37,1.53,5.86,2.42,8.76.5,1.62-1.65,2.16-3.06,2.42q-9.68,1.76-19.38,3.36a4.29,4.29,0,0,1-5-2.48A58.57,58.57,0,0,0,957.42,62C953.57,57.13,952.51,57.3,949.47,62.64Z"/><path class="cls-68" d="M984.16,59.07c-.92,4.06-4.3,3.89-7.3,4.07-4,.25-6.41-2-8.15-5.46C965.78,51.94,960.5,49,955.49,50c-9.06,1.93-11.5,6.46-8.68,16.1,2.21,8.22,9.06,12.05,15.55,16,6.08,3.73,12.63,6.63,18.21,11.27,11.77,9.79,9.4,26.53-5,31.68-12.23,4.37-24.56,3.54-36.42-1.85-6-2.71-8.87-8.72-13.22-13.16a2.79,2.79,0,0,1-.22-2.59c1.72-3.08,11.15-3.09,12.77.18,3.56,7.22,8.84,11.33,17.1,12,5.71.44,13.28-3,15.66-8.14,1.4-3,.75-5.58-1-8.27-4.6-6.91-12.06-10.12-18.59-14.46-4.44-2.95-8.91-5.83-13.09-9.13-6.76-5.32-8.82-12.54-7.61-20.65,1.83-12,19.68-21.28,31-17C971.27,45.44,979,50.49,984.16,59.07Z"/><path class="cls-3" d="M851.49,100.13V99a36.31,36.31,0,0,0-.24-10.33c.19-.53.38-1,.59-1.57.3-3.69,1.3-7.38-.11-11.06-.61-6.55,2.8-12.65,2.07-19.21.14-1.55,1.35-2.29,2.38-3.17,1.18.14,1.66-.8,2.29-1.51a50.44,50.44,0,0,1,11.27-7.28c7.73-4.62,15.43-3.73,23.11.1,4.41,1.34,7.69,4.2,10.41,7.79,3.15,4.61,2.8,10,3.3,15.17.13,1.4-.46,2.94.82,4.11a65.5,65.5,0,0,1-.49,15.47c0,1.94-1.36,3.78-.45,5.79,1.14,3.4.34,6.65-.73,9.88-2.16,6-2.24,13-8.14,17.29a16.5,16.5,0,0,1-5.13,3.68,33.43,33.43,0,0,1-8,2.78c-1.93.65-3.65,2-5.84,1.76-1.72-.67-3.68-.21-5.35-1.14-6.11-1.3-10.11-5.6-14.11-9.9-1.74-2-3.78-3.75-4.52-6.44C853.83,107.46,853.3,103.62,851.49,100.13Z"/><path class="cls-110" d="M853.86,56.82c1.91,3.65.87,7.52.08,11a77.41,77.41,0,0,0-1.31,9,22.76,22.76,0,0,1-.61,11h0a.64.64,0,0,1-1.08-.06c-.5-3.7,1.63-7.53-.52-11.16a14.07,14.07,0,0,1,.55-7.74C853.68,65.32,851.08,60.42,853.86,56.82Z"/><path class="cls-111" d="M893.4,45.72c-8.11-4-16.27-3.45-24.48-.34q-.46-.36-.27-.67c.13-.2.24-.3.35-.29,8.2-5.83,16.38-4.32,24.54.09a.75.75,0,0,1,.17.83Q893.54,45.73,893.4,45.72Z"/><path class="cls-112" d="M907.35,72c-2,1-2.22-.18-2-1.74.84-6-.5-11.7-2.38-17.32q.48-.65.92,0C908.56,58.7,907,65.54,907.35,72Z"/><path class="cls-113" d="M896.93,120.52c3.18-4.08,6.42-8.08,6.49-13.69a4.75,4.75,0,0,1,2.26-3.66c0,6.87-1.89,12.93-7.2,17.61A1.14,1.14,0,0,1,896.93,120.52Z"/><path class="cls-104" d="M859.28,117.24c4.31,3.72,8.41,7.73,13.91,9.77l.38.58-.45.52c-6.49-.42-10-5.31-14.08-9.36a1,1,0,0,1,.1-1.41Z"/><path class="cls-114" d="M851.49,100.13c3.7,3,3.42,7.24,3.68,11.33a.75.75,0,0,1-1.19,0A24.77,24.77,0,0,1,851.49,100.13Z"/><path class="cls-115" d="M869,44.43a5.87,5.87,0,0,1-.09,1c-3,3.23-6.84,5.1-10.54,7.25a.75.75,0,0,1-1.06,0l-.1-.13A28.74,28.74,0,0,1,869,44.43Z"/><path class="cls-116" d="M903.89,53H903l-9.57-7.24.15-1.2C898.65,45.33,901.55,48.82,903.89,53Z"/><path class="cls-35" d="M850.93,87.84l1.08.06c.62,3.73,1.9,7.48-.47,11.08A18.3,18.3,0,0,1,850.93,87.84Z"/><path class="cls-117" d="M878.74,128.39l5.62-1.95a.85.85,0,0,1,.29.89q-.15.45-.29.44a9.92,9.92,0,0,1-11.23.33l.28-.34C875.21,127.69,877,127.33,878.74,128.39Z"/><path class="cls-118" d="M884.35,127.77v-1.33c2.31-1.86,5.43-1.49,7.92-2.87,1.16-.59,1.21.09,1.07,1A17.12,17.12,0,0,1,884.35,127.77Z"/><path class="cls-119" d="M854,111.42h1.19l4.11,5.78-.25,1.51C856.74,116.72,854.51,114.66,854,111.42Z"/><path class="cls-120" d="M906.41,93.29c-3.13-2.19-.83-3.95.45-5.79C908.44,89.56,907,91.39,906.41,93.29Z"/><path class="cls-24" d="M851,68.94l-.55,7.74C848.9,74,848.89,71.39,851,68.94Z"/><path class="cls-121" d="M893.35,124.53l-1.07-1,4.65-3.05,1.55.26C896.83,122.13,895.58,124,893.35,124.53Z"/><path class="cls-122" d="M857.22,52.49l1.16.15c0,1.08-.14,2.24-1.32,2.48-.87.17-.7-.88-.82-1.47Z"/><path class="cls-123" d="M658.26,69.13c.3-7,.82-13.93.82-20.9,0-4.39,1.65-6.15,6-5.44a6.82,6.82,0,0,0,2.21.06c6.32-1.09,7,2.1,6.82,7.55-.32,7.66.48,15.36.8,23,.73,1.93-.36,4,.46,5.93-.42,11.37-.92,22.74-1.19,34.12-.08,3.08-1,4.75-3.94,6.31A37.26,37.26,0,0,1,652,124.22c-4.76,0-7.22-3.05-6.32-7.76.16-.83,0-1.87,1.48-1.75,2.82.23,5.52-1.87,7.92-1.55,3.47.46,4.27-1.34,4-3.47-1.58-13.52.75-27.11-.79-40.61Z"/><path class="cls-24" d="M658.25,69.13l-.51,8.58c-.51-2.93-1.88-6,.49-8.61Z"/><path class="cls-94" d="M675.34,79.35c-1.17-1.9-.74-3.92-.46-5.93C676.35,75.29,675.45,77.35,675.34,79.35Z"/><path class="cls-1" d="M892.15,111.28l-.32,1.19c.47,2-1.47,2.47-2.38,3.6-1.82,1.62-4.1,2.31-6.33,3.1a5.86,5.86,0,0,1-4.74-.31c-1.4-1.82-4.52-.42-5.53-3-1.88-.89-3.24-2.73-5.48-2.94-2.25-1.79-.63-4.1-.81-6.17a26.3,26.3,0,0,0-.15-7c-1.1-12.18,0-24.35-.15-36.52.07-4.63,3.79-6.59,6.71-9.14,5-2.68,10-3.32,15.06-.37a11.26,11.26,0,0,1,7.33,7.75c1.74,3.72,2.77,7.55,1.22,11.57-.86,2.25.31,4.37,0,6.55-1.35,6.07-1,12.27-1.47,18.41C894.85,102.61,894.74,107.25,892.15,111.28Z"/><path class="cls-124" d="M867.42,107.65c.25,1.77-1,3.53,0,5.31-2.79,1.47-2.16-1.09-2.11-2.07.81-16.31-1.83-32.65.59-48.94.4-.5.75-.45,1.06.08q.06,19.25.13,38.51C867.83,102.87,866.63,105.31,867.42,107.65Z"/><path class="cls-125" d="M892.15,111.28c2.69-10.15,1.59-20.75,3.59-31a.73.73,0,0,1,1.19.16c-.44,8.25-.75,16.5-1.38,24.73C895.34,107.51,895.23,110.34,892.15,111.28Z"/><path class="cls-126" d="M896.9,80.44l-1.16-.16c-.64-6.28,1.53-12.71-1-18.9a.73.73,0,0,1,1.17,0c3.38,2.08,2.1,5.8,2.48,8.62C898.84,73.37,897.48,77,896.9,80.44Z"/><path class="cls-127" d="M888,54.5c-5.06-2.48-10.08-2-15.07.24q-.54-.41-.37-.84t.35-.43c6.19-4.23,12.09-3.32,17.8,1A2.55,2.55,0,0,1,888,54.5Z"/><path class="cls-128" d="M888,54.5h2.71c3.78.78,4.56,3.8,5.19,6.94h-1.17C892.9,58.7,891.23,55.84,888,54.5Z"/><path class="cls-129" d="M872.91,53.47v1.28c-1.92,2.51-4.68,4.31-6,7.28L865.84,62C865.87,57.18,870,55.84,872.91,53.47Z"/><path class="cls-130" d="M878.26,118l5.13.44a2.42,2.42,0,0,1,2.58.32c-2.57.93-5,3.44-7.88.62a.81.81,0,0,1,.17-1.38Z"/><path class="cls-35" d="M852,87.89l.61-11A12.09,12.09,0,0,1,852,87.89Z"/><path class="cls-131" d="M886,118.78l-2.58-.32,5.91-3q.57.39.4.81t-.35.43A3.2,3.2,0,0,1,886,118.78Z"/><path class="cls-89" d="M878.26,118l-.17,1.38c-1.32-1.8-5.07,0-5.24-3.5C874.48,117,876.81,116.4,878.26,118Z"/><path class="cls-132" d="M889.36,116.74a10.29,10.29,0,0,0,0-1.24l2.52-3C893.87,115.55,890.61,115.56,889.36,116.74Z"/><path class="cls-35" d="M878.74,128.39l-5.33-.62a1.93,1.93,0,0,1-.21-.76C875.07,127.33,877.25,126.45,878.74,128.39Z"/><path class="cls-133" d="M884.37,86.4c-1.74,7,.17,14.21-2,21.21-.86,2.84-1.78,5-4.72,5.08-3.26.15-5.11-2.13-5.5-5.1-1.49-11.27-1.17-22.61-.36-33.9.27-3.78-.57-7.74,1.48-11.38s4.46-4.23,7.21-1c3.51,4.17,3.9,9.27,3.54,14.48-.23,3.24-.73,6.5.24,9.71.4.15.55.33.44.53S884.49,86.4,884.37,86.4Z"/><path class="cls-134" d="M867.42,107.65c-1.61-2.29-.4-4.73-.38-7.11C868.41,102.84,867.4,105.27,867.42,107.65Z"/><path class="cls-24" d="M884.37,86.4a.57.57,0,0,1-.11-.8l0,0,.73-4.64C885.68,82.89,886.26,84.85,884.37,86.4Z"/><path class="cls-1" d="M795.68,85.05c3.8-2.42,7.77-2.36,11.6-2.35,8.47,0,16.94.43,25.42.57,2.85,0,3.81,1.27,3.78,4.08-.12,13.33,0,26.67-.15,40-.08,5.9-2.15,7.66-8.25,7.74-4.22.05-8.49.44-12.44-1.78-2-1.11-3.93.17-5.86.54-9.83,1.88-19.12,1.37-28.6-2.93-11.9-5.4-14.51-15.78-15.26-26.57a289.33,289.33,0,0,1,.28-37c.84-14.47,11.24-25.74,25.54-27.22a23.34,23.34,0,0,0,4.74-1.2c12.19-4,23.3-1,33.7,5.54,5.73,3.63,6.42,10.27,7.64,16,2.29,10.65-4.43,17.88-15.46,17.82-1.85,0-3.69-.12-5.54-.22-2.75-.15-5.86.44-8.14-.67-3-1.48-.64-5.11-1.44-7.61a22.19,22.19,0,0,0-3.2-6.38,5.76,5.76,0,0,0-6.09-1.81c-2.19.51-2.09,2.79-2.32,4.5C794.89,72.13,794.4,78.13,795.68,85.05Zm2.8,26.15c1.71,2.24,4.1,2,6.34.48,2.4-1.65,4.36-4.19,3.89-6.8-.5-2.82-3.44-1.58-5.57-1.38-2.51.24-5.06.17-8.66.26,1.61,3.06,2.51,5.48,4,7.43Z"/><path class="cls-68" d="M829.17,121.56c-.39,1.48-.56,3.13-2.2,3.52-1.9.45-2.35-1.49-3-2.64-1.29-2.32-2.82-3.08-4.69-.93-5.73,6.58-13.12,9.11-21.58,9.23h0a46.59,46.59,0,0,1-13.27-6.12c-5.76-3.92-8.54-9.41-8.88-16.26h0c.34-12.25,1.65-24.57.76-36.73-.94-12.87,7.23-19.07,16-24,10-5.6,24.8-5,35.51,4.62,4.21,3.79,3.62,9,4.78,13.63.52,2.09-2,2.81-3.36,2.88-2.75.14-6,1.11-8-2-1.07-1.71-1.62-3.79-2.87-5.34-8.26-10.29-19.63-9.29-26.91,2.2a12.41,12.41,0,0,1-.28,5.57c-.65,12.31-2,24.63-1.73,36.92.16,8.86,5.83,14.8,16.3,15.21,6.14.24,11.64-6.13,12.32-14a14,14,0,0,1,.12-2.76c1.72-5.66-1.3-6.81-6-6.63-1.78.07-4.09,1-5.19-.81a8.48,8.48,0,0,1-.91-5.3c.26-1.76,2.35-1.57,3.74-1.59,5.15-.08,10.35.43,15.45-.09,5-.5,5.6,1.84,4.94,5.65"/><path class="cls-68" d="M830,107.13"/><path class="cls-68" d="M830.07,105.82"/><path class="cls-135" d="M158.14,72.55c-6,1.18-11.66-.94-17.36-2.18a21,21,0,0,0-8.75-.31,18,18,0,0,1-7.35.44c-1.32-.28-2,.2-2.13,1.5-1.16,9.12-6,16.36-11.25,23.63-3.6,5-8.76,6.56-14.05,8.91a79,79,0,0,1,6.51,4.93A93.19,93.19,0,0,1,122.9,134.7a4.52,4.52,0,0,0,3.31,2.29c9.53,2.61,19,5.53,27,11.66a28.92,28.92,0,0,1,4.73,4.74c3.82,4.69,3,9.93,1.59,15.06-1.59,5.89-5.12,10.74-9.22,15.17-1,1.06-2.25,2.35-3.59.72-1.17-1.42.17-2.22,1.23-3.21,4.14-3.88,9.95-12.38,9.52-19.57q-9,2.4-18,4.42c-8.68,1.93-17.52,2.44-26.29,3.56-3.24.41-6.43,1.27-9.74,1.13-.45-.47-1.05-.22-1.58-.35.52.14,1.12-.11,1.57.36a190.15,190.15,0,0,1-21.25,1.26c-10,.06-20.09.21-30.12-.08-12.74-.37-25.49-1-37.91-4.26-2.62-.69-5.18-1.57-7.8-2.27C5,165,4.07,164.9,4.74,167a30.6,30.6,0,0,0,8.46,13.62c.83.76,1.86,1.34.66,2.69s-2,.32-2.79-.35c-5.42-4.66-8.12-10.9-10.15-17.55a16.32,16.32,0,0,1-.54-8.88c.55.47.19,1.1.33,1.86-.06-.88.16-1.58-.23-2.22,1.89-3.89,5.23-6.28,8.77-8.44,6.86-4.19,14.53-6.39,22.09-8.83a3.88,3.88,0,0,0,2.55-2.23,96.23,96.23,0,0,1,19.85-28.11c2.09-2.07,4.37-3.94,6.76-6.08-2.88-1.09-5.73-2-8.39-3.2-7-3.25-13.37-7.16-18.87-12.72-4.57-4.66-3.61-10-3-15.48.41-.28.53-.58,0-.91,0-3.91,1.4-7.5,2.78-11,.72-1.84.26-1.86-1.41-1.89a15.58,15.58,0,0,1-8-2.13,9.89,9.89,0,0,1-4.09-5.41,1.8,1.8,0,0,1,1-2.62c1.46-.82,2.85-1.76,4.27-2.65-3.54-4.55-3.56-4.57.32-8.82,5.55-6.07,11.68-11.53,17.68-17.09,2.12-1.93,4.12-4,6.38-5.76,1.7-1.34,3.52-2.67,5.74-2.61,7.23.19,13.27-2.52,19-6.76A16.26,16.26,0,0,1,89.09.86c.91.29,1.81.62,2.73.9a40,40,0,0,0,13.89,2,3.15,3.15,0,0,0,2.86-.11c10.16-1.92,20-1.5,29.64,2.93a98.47,98.47,0,0,1,17.17,10.7c7.7,5.7,15.7,10.93,23.88,15.9a1.67,1.67,0,0,1-.3,2.53,2.3,2.3,0,0,1-2.89.36c-2.34-1.24-4.51-2.75-6.77-4.11-8.81-5.28-16.48-12.21-25.28-17.48C134.34,8.67,124,5.73,112.56,7.82A41.7,41.7,0,0,1,92.65,6.37c-1.46-.44-3-.66-4.42-1.12-4.93-1.59-9.08,0-13.05,2.81A30.88,30.88,0,0,1,64,13.52a17.36,17.36,0,0,1-4,.5,13.35,13.35,0,0,0-4,.24c-4.61,1.5-7.71,5-11.08,8.2a2.2,2.2,0,0,0-.6,2.22c1.53,6.61-2.44,11.07-6.25,15.49A12.25,12.25,0,0,1,33,43.6c9.61,1.37,16.6-3.13,22.62-9.9.88-1,.87-1.81-.22-2.6a3.14,3.14,0,0,1-1-1.06c-.64-1.22-1.4-2.58-.1-3.71s2.28-.17,3.19.66c2.71,2.49,5.84,2.74,9.2,1.84a24.3,24.3,0,0,0,3.46-1c2.28-1,4.14-.74,5.79,1.19.94,1.09,2.18.7,3.36.42,3.34-.79,6.67-1.75,10.17-1.39,1.53.06,3.05,0,4.58,0a19.53,19.53,0,0,1,4.76.52c4,.78,7.22-.7,10.16-3.15,1.09-.91,2-2,3.45-.56s1.19,2.79-.22,4.21a9.81,9.81,0,0,0-2,2c2,.59,4,.48,6,.85a6.76,6.76,0,0,1,2.1.45,2.39,2.39,0,0,1,1.38,2.57,2.18,2.18,0,0,1-2,2,14.79,14.79,0,0,1-4.07-.1c-3.73-.55-7.36-1.55-11-2.37C96.74,33.28,91,32.21,85.14,33.33a72.09,72.09,0,0,0-14.4,4.2c2.22,1.19,4,2.37,4.66,4.58.53,1.8,0,2.73-2,2.49a3,3,0,0,1-1-.56c-.61-.43-1.07-1.42-2-.77a2.42,2.42,0,0,0-1,2.33,3.53,3.53,0,0,0,1.34,2.45c.41.33.73,0,1-.34a7,7,0,0,0,1-1.89c1-1.3,2.05-1.85,3.43-.55a4.75,4.75,0,0,1,.26,2.32,9.36,9.36,0,0,1-1.89,4.22c4.74-.82,9.1-1.34,13.38-2.25a13.43,13.43,0,0,1,7.75.66c6.21,2.32,12.36,4.79,18.84,6.36a54.64,54.64,0,0,0,22.56,1.17c1.46-.26,2.85-.19,3.16,1.62a2.58,2.58,0,0,1-1.81,3.17l-.31.06a7.31,7.31,0,0,1-1.64.34c-3.35,0-6.69.62-10,.33-.95-.08-2-.34-2.49.82-.25.82-.69,1.69.58,2.09a7.81,7.81,0,0,0,4.27.21c5.44-1.7,10.73-.77,16,.63a33.36,33.36,0,0,0,14,1.15,2.4,2.4,0,0,1,2.87,1.2,2.54,2.54,0,0,1-.73,3A2.09,2.09,0,0,1,158.14,72.55Z"/><path class="cls-136" d="M60,13.44A25,25,0,0,0,74.46,7.65C79.85,3.39,85.67,3.27,91.74,5.4A45.39,45.39,0,0,0,114.46,7c7.56-1.25,14.69.07,21.74,2.84,8,3.14,14.65,8.38,21.45,13.4,6,4.41,12.26,8.36,18.57,12.25,1.74,1.07,2.73.27,3-2.31a2.4,2.4,0,0,0,2.36-1.51c.41.26.71.64,1.09.93,5.66,4.22,6.94,8.09,5.06,15.09a50.61,50.61,0,0,1-11.87,21.1c-3.27,3.6-6.21,7.56-10.7,9.83A18,18,0,0,1,162.09,80c-2.27.66-3.68-.61-3.07-2.89a4.5,4.5,0,0,0-.47-3.66l-.44-.91a6.52,6.52,0,0,0,1.89-.2,2.16,2.16,0,0,0,1.34-2.52c-.2-1.15-1.1-1.25-2-1-6.72,1.45-13-.72-19.43-2.15a16.38,16.38,0,0,0-8.21,0,14.62,14.62,0,0,1-8.23.15,4.38,4.38,0,0,1-.11-2.43c-.46-1.5-.05-2.1,1.63-1.89A53.58,53.58,0,0,0,138,62c1.71-.21,1.89-1.32,1.72-2.56-.2-1.5-1.23-1.2-2.37-1-7.9,1.42-15.68.69-23.44-1.24a117.39,117.39,0,0,1-17.16-5.91,17.27,17.27,0,0,0-10.68-.71c-4.23.87-8.53,1.42-13.37,2.19A12,12,0,0,0,76,47.6a3.33,3.33,0,0,0-.23-2.87,11.12,11.12,0,0,0-.85-2.47c-1.11-2.4-3.06-3.74-6-4.29a13.41,13.41,0,0,1,4.32-2.15c4.88-1.67,9.78-3.28,15-3.53,6.22-.3,12.25.94,18.24,2.53a46,46,0,0,0,9.62,1.65c1.4.07,2.91.14,3-1.82s-1.36-1.86-2.82-2c-2.47-.3-5-.12-7.51-1.12a6.69,6.69,0,0,1,2.82-2.64c1.47-1,1.45-2.11.53-3.46-.68-1-1.29-1-2.08-.1-3.46,3.84-7.79,4.88-12.74,3.9-1-.2-2-.32-3.06-.47a16.6,16.6,0,0,0-5.37,0,28.23,28.23,0,0,0-9.76,1.57c-1.72.52-3.07.48-4.16-1.12s-2.14-1.51-3.9-.94c-3,1-6,2.27-9.46,1.64a10.37,10.37,0,0,1-4.75-2.56c-.68-.55-1.35-1.37-2.28-.62s-.37,1.61,0,2.42a2.58,2.58,0,0,0,1.14,1.49c2.4,1.17,1.72,2.33.21,3.84-4,4-8,8-13.85,9.36a23.63,23.63,0,0,1-10.43.24c.14-.83,1-.87,1.54-1.15,4.3-2.06,7-5.52,9.19-9.67,1.62-3,2.4-5.77,1.09-9A1.59,1.59,0,0,1,44,22.52c3.66-3.27,6.77-7.28,11.76-8.77C57.11,13.43,58.61,13.93,60,13.44Z"/><path class="cls-1" d="M158.58,73.47c1.9.54,1.65,1.9,1.17,3.26-.32.89-1,1.72,0,2.59s1.88.35,2.88,0a25.56,25.56,0,0,0,10.21-7.71c3.67-4.3,7.66-8.36,10.22-13.49,2.72-5.44,5.21-11,4.77-17.29-.23-3.4-1.49-6.14-5-7.24a1.55,1.55,0,0,1-1.17-1.82c1.81-1,3.52-.38,4.92.66a10.56,10.56,0,0,1,4.59,9.91c-.9,11.37-6.39,20.46-13.66,28.8-3.48,4-7,7.82-11.82,10.24a6.46,6.46,0,0,1-2.69.92,12.58,12.58,0,0,0-3,0c-2.44-.32-3.41-2.1-3.88-4.17S156.8,74.49,158.58,73.47Z"/><path class="cls-123" d="M127.39,111.73a3.39,3.39,0,0,1-1.92,3.68,3.72,3.72,0,0,1-4-.38c-2.1-1.33-3-3.4-3.68-5.68-1-3.52-2-7-3-10.56-.17-.64-.92-1.38-.14-2a2.1,2.1,0,0,1,2.48.1,24.71,24.71,0,0,1,2.54,2.16,33.81,33.81,0,0,1,7.13,9.79A4.6,4.6,0,0,1,127.39,111.73Z"/><path class="cls-123" d="M44.36,102.24a110.71,110.71,0,0,1-2.24,12.23,6.69,6.69,0,0,1-.63,1.54c-1.26,2.31-3.46,3.35-5.31,2.52-2.31-1-3.12-3.43-1.94-6.05a128.58,128.58,0,0,1,6.25-11.54c.44-.76.77-2,2.07-1.4S44.87,100.82,44.36,102.24Z"/><path class="cls-24" d="M160,82.24a2.06,2.06,0,0,1,2.91-.09l.09.09A3.56,3.56,0,0,1,160,82.24Z"/><path class="cls-137" d="M30.28,70.13c.55.09,1.24-.31,1.63.46-.43.73-1.11.34-1.67.45Z"/><path class="cls-24" d="M.43,156.21c.77.74.34,1.57.09,2.39l-.19-2a.25.25,0,0,1,0-.35Z"/><path class="cls-24" d="M108.57,3.69a2,2,0,0,1-2.82.14l0,0Z"/><path class="cls-3" d="M89.86,147.54a3.12,3.12,0,0,1,0-2,88.68,88.68,0,0,0-.24-11.84c-.7-3.24.16-6.6-.72-9.84a7.44,7.44,0,0,0-.6-2.24c-.7-.4-1.22-1.68-2.25-.44l-1,.89c-.52,1.63-.08,3.3.06,4.9.31,3.55.33,7.12.62,10.67.19,6.17.23,12.33.27,18.5,0,3.09,0,3.2-2.87,3.82-2.61.09-5.22,0-7.83,0-2-.05-2.5-.68-2.33-2.46a2,2,0,0,0-.39-1.8c0-.79-.41-1.57-.06-2.37.2-6.26.35-12.52,1-18.75.87-1.81.8-3.79,1.08-5.71a6.84,6.84,0,0,0,.29-2.46,2.08,2.08,0,0,0-.09-.6c.16-.8-.13-1.71.56-2.39.67-.88.41-2.06.93-3-.13-1.09-.17-2.22-1.32-2.84-1.84-.25-2-.09-2.88,2.42a57.29,57.29,0,0,1-1.35,6.48v.06c-.43,1.09-.07,2.18,0,3.27-.21,1.28.28,2.65-.45,3.87-.71-.79-.08-1.8-.44-2.75,0-.22-.45.22-.16.08.13-.06.21,0,.21.11a26.62,26.62,0,0,1,0,4,50.29,50.29,0,0,0-.48,11.44c.26,3.5-.09,7-.15,10.52,0,1.25-.47,1.88-1.8,2-3.6.29-7.12-.63-10.71-.55-1.32,0-1.37-1.09-1.51-2a37,37,0,0,1,.4-9.71,16.21,16.21,0,0,0,.15-2.59,2.11,2.11,0,0,0-.09-.61l.16-1.8A11.77,11.77,0,0,0,57.21,136l.13-.92a9.63,9.63,0,0,0,1.16-4.95c.12-.65-.14-1.4.56-1.87s.63-1,.87-1.6c.76-1.48.85-3.22,1.81-4.62a20.07,20.07,0,0,1,2.37-4.79,33.8,33.8,0,0,1,2-3.38c.52-.42.54-1.18,1.08-1.59a1.74,1.74,0,0,0,0-2.46l-.09-.09a1.82,1.82,0,0,0-2.55-.33l-.19.17h0c-1.18.58-1.46,1.79-2,2.83h0c-1,.59-1.23,1.63-1.7,2.55-.83,1.67-2,3.21-2.15,5.15l-.92,2c-.7,0-.52.75-.83,1.1-.36.8-.56,1.66-.95,2.45-.61,2-1.36,4-1.84,6.07-.45,1.29-.58,2.66-1.06,3.94a60.75,60.75,0,0,0-.94,6.15,58.74,58.74,0,0,0-1.13,14.55,1.6,1.6,0,0,0,.42,1.3c-.54,2.2-2.31.37-3.32,1-.49,0-1-.44-1.45,0l-6.22-.09c-2.22-.71-4.54-.61-6.82-.87s-2.46-.45-2-2.71c.56-2.81,1.36-5.56,2.07-8.34,0-.55-.11-1.15.49-1.51a3.75,3.75,0,0,0,1-2.88l.12-.47a4.89,4.89,0,0,0,1.28-2.91l.16-.45A8.48,8.48,0,0,0,38.7,135c.87-1.36,1.54-2.84,2.39-4.21.51-1.18,1.48-2.09,1.94-3.3a12.21,12.21,0,0,0,1.6-3,10.12,10.12,0,0,1,1.91-2.83c.86-.2,1.19-1,1.76-1.55.65-1.4,2-2.23,2.88-3.42a31,31,0,0,1,2.91-3.38c.5-.78,1.67-1.08,1.62-2.25a4.2,4.2,0,0,1,2-1.84c2.3-1.06,3.88-3,5.79-4.58,1.79-.61,3.08-2,4.74-2.86,1.25-.67,2.51-1.29,3.76-2a8.41,8.41,0,0,0,2-.86c1.25-1.32,2.79-1.09,4.34-.8,1.38,1.27,3.26,1.49,4.86,2.29l-.06-.05c2,.68,3.55,2.34,5.76,2.49a3.62,3.62,0,0,1,2,1.33c.3.91,1.27.92,1.89,1.39,1.19.53,2.2,1.39,3.36,2a68.19,68.19,0,0,1,14.49,14.42,2.34,2.34,0,0,0,.77.56l.08.09c.64,1.63,1.93,2.82,2.94,4.2.43.82.95,1.6,1.45,2.38h0a17.72,17.72,0,0,0,1.4,2.39,7.26,7.26,0,0,0,1.76,2.57l.16.46a10,10,0,0,0,2.41,4.25l.51,1a2.78,2.78,0,0,0,1,2.32,5.31,5.31,0,0,1,1.29,2.57c.31,2.25,1.74,4.1,2.22,6.29a27.24,27.24,0,0,0,.92,3c.89,2.14-1.19,2.24-2.14,3.12l-.95.06c-1.81-.26-3.47.6-5.24.64a5.85,5.85,0,0,0-3,.75l-.23.07h-.23a16.68,16.68,0,0,0-4.44.1c-1.95.49-2.34-.59-2.68-2-.23-.92,0-1.89-.24-2.81-.26-1.48,0-3-.76-4.45V149a12.81,12.81,0,0,0-.29-3.88c-.27-1.3-.54-2.61-.89-3.89a34.28,34.28,0,0,0-2.79-9c-.75-2.07-1.42-4.18-2.35-6.19-.51-1-.56-2.21-1.47-3h0a12,12,0,0,0-1.57-3.25,9,9,0,0,1-.53-1.2c-1.16-1.93-2.11-4-3.26-5.92-.52-.18.07-1.39-1-1.07a4.4,4.4,0,0,1-1.39-2,2.07,2.07,0,0,0-1.93-2.07,1.94,1.94,0,0,0-1.83.91c-.63,1-.17,1.81.62,2.5a42.43,42.43,0,0,0,3.28,5.23c.39.43.12,1.33,1,1.4l.76,1.57c.07,1.12.84,1.93,1.28,2.88.46.74.39,1.77,1.26,2.28.44.24.45.66.46,1.08a18.94,18.94,0,0,0,2.44,5.79.88.88,0,0,1,.41,1c-.32,1.17.37,2.1.74,3.11a39.11,39.11,0,0,1,1.45,4.38c.68,1.57.51,3.32,1.06,4.92a93.63,93.63,0,0,1,1.69,12.72c.08,1.73-.54,2-2,2.08-3.1.19-6.19.22-9.29.22a3.49,3.49,0,0,0-2.3.41H89.84C89.83,155.84,89.86,151.69,89.86,147.54Z"/><path class="cls-68" d="M69.89,33.22C65.26,36,60,37.73,56,41.5s-3.73,7.89.68,11C62,56.27,68.14,56.41,74.37,56c4.87-.33,9.63-1.4,14.44-2.1A14.22,14.22,0,0,1,96.52,55a103,103,0,0,0,22.6,6.84c.82.14,1.56.18,1.59,1.34a39.36,39.36,0,0,1-3.28,17.49c-.09.19-.31.31-.61.59-.55-1.33-1-2.61-1.58-3.79-2.1-4.08-6-6.21-9.81-8.06-9.09-4.38-19-5.73-28.86-7.33-1.67-.27-3.74.12-3.77-2.66,0-.63-.93-1-1.73-1s-1.2.45-1.06,1c.55,2.35-1.27,1.85-2.27,1.71-3.85-.39-7.65.16-11.47.35-6.1.3-11.51,2.89-16.92,5.42a41,41,0,0,0-7,4.71c1.22-5.68,2.36-10.59,5.12-15,1.38-2.2,2.58-4.52,3.79-6.82a5.72,5.72,0,0,1,3.65-3.1C51,44.8,55.52,40.54,59.54,35.89c3-3.46,6.65-2.75,10.33-2.72Z"/><path class="cls-3" d="M36.42,167.79c-2.75.26-5.41-.56-8.14-.58a9.77,9.77,0,0,0-3-.75c-.79-.26-1.66,0-2.42-.45a65.31,65.31,0,0,1-6.81-1.36c-.9-.12-1.75-.78-2.72-.32h-.49a24.35,24.35,0,0,0-8.66-2.87C3,161.7,2.83,161,2.87,160a4,4,0,0,0,.76-2,6.94,6.94,0,0,1,1.92-2.9c.35-.49,1.09-.66,1.12-1.4l1.38-1c.79-.26,1.62-.46,1.91-1.41.76-1.29,2.3-1.17,3.39-1.86a64.46,64.46,0,0,1,8.31-3.65,4.19,4.19,0,0,0,1.8-1.14l1.5-.47c1.42.38,2.5-.74,3.82-.84.55,0,1.3-.69,1.57.21.22.71-.43,1.09-1.07,1.3a6.05,6.05,0,0,0-.64.29c-.43.52-1.45.08-1.64,1a4,4,0,0,1-2.53.87,13.78,13.78,0,0,0-4.79,2h0a25.17,25.17,0,0,0-3.86,2.3c-2.51,1.87-2.94,3.56-1.53,6.53.37.22.77.39,1.15.6a8.29,8.29,0,0,0,2.75.95,35.34,35.34,0,0,0,3.93.6l.84.07c2.75,1.14,5.77.54,8.58,1.35,8.83,1,17.71.08,26.53.85,5.07.44,10.15.52,15.21.84a6.37,6.37,0,0,0,2.84.3c8,0,16,.26,24-.1,3.9-.18,7.88,0,11.74-.91.36-.7,1-.4,1.5-.38,2.48.4,4.88-.26,7.24-.75s4.84-.8,7.25-1.28c1.22-.57,2.65-.51,3.79-1.3l.88-.17c1.71.22,3.36-.4,4.5-.17a1.69,1.69,0,0,1-1.64-.32l4.87-.88c1.27-.08,2.19-.58,2.36-2,.86-1.77,1.16-3.44-.83-4.7l-.06-.07a4.52,4.52,0,0,0-3.39-2.34.69.69,0,0,1-.45-.09,16.78,16.78,0,0,0-7.18-3.29,4.3,4.3,0,0,1-2.42-.51c-.19-.26-.4-.5-.59-.75-.42-.58-1-1.18-.53-1.93.56-.94,1.39-.4,2.13-.22.39.09.78.17,1.16.28a14.54,14.54,0,0,0,5,1.55l4,1.47c-.17.31-.37.44-.66.12a.51.51,0,0,0,.48.24,3.85,3.85,0,0,1,1.48.48c1,.22,1.82,1.1,2.94,1.12a5.93,5.93,0,0,1,2.88,1.46c.85,1.23,2.23,1.7,3.43,2.43a1.17,1.17,0,0,1,.43.1c1.47,1.73,3.26,3.13,4.85,4.73.64,1.06,2.58,2,.46,3.39-4.38.94-8.68,2.14-13,3.43h0a92.87,92.87,0,0,0-10.29,2.07,27.73,27.73,0,0,0-4.59.51c-1.11.46-2.32.06-3.45.39-3.24,0-6.4.91-9.64,1-3.63.47-7.27.84-10.89,1.33-4,.54-8.08.51-12.09,1.14-14.76.35-29.52.31-44.28,0C43.81,168.33,40.13,167.82,36.42,167.79Z"/><path class="cls-138" d="M33.24,78.84c1.12-5.56,5.57-8.11,9.88-10.61,6.18-3.59,13.14-4.62,20.1-4.5A112.12,112.12,0,0,1,103,71.27c4.09,1.62,8.34,3.54,10.18,8.12a15.65,15.65,0,0,1,1.27,6.53,2.39,2.39,0,0,1-1.33,2.38c-.66-1.49-.69-3.09-1.29-4.59-2.13-5.32-6.88-7.63-11.41-10-8.45-4.49-17.72-6.17-27.11-7.32a75.43,75.43,0,0,0-22.89.92c-8.57,1.58-13.83,7-16.17,15.3-.83-.08-.54-1.08-1.1-1.39A2.06,2.06,0,0,1,33.24,78.84Z"/><path class="cls-138" d="M99,81.53c1,.06,2.07.1,3.1.19,2.47.23,3.84,1.88,4.53,4,.88,2.68.1,5.16-1.73,6.4-3.76,2.55-7.62,1.58-11.42.19a14.73,14.73,0,0,1-6-3.81c-1.65-1.83-1.39-3.18.76-4.39A20.67,20.67,0,0,1,99,81.53Z"/><path class="cls-138" d="M66.33,82c-3.06-1.5-6.22-2.84-8.7-5.31-1-1-2.15-1.92-2.32-3.5-.24-2.21.92-3.92,3.06-4a42.63,42.63,0,0,1,8.82.15c3.94.63,5.79,2.86,5.4,6.81-.21,2.14.33,4.79-2.52,5.88A4.06,4.06,0,0,1,66.33,82Z"/><path class="cls-139" d="M54.89,95.23A11.14,11.14,0,0,1,46.69,92c-2-2-1.54-4.69,1.1-5.25,4.68-1,9.29-2.26,14-3.25,3-.62,5.07,2.24,4.25,5.15a6.71,6.71,0,0,1-2.83,3.73A21.14,21.14,0,0,1,54.89,95.23Z"/><path class="cls-138" d="M79.29,82.13c-2.56.09-3.88-1.14-3.93-3.66-.1-5.6,3.63-8.51,9.06-7,2.58.72,5.36.85,7.65,2.49,2.68,1.93,2.71,2.55.13,4.54C90.22,80.06,83.26,82,79.29,82.13Z"/><path class="cls-140" d="M44.64,84.13a11,11,0,0,0-2.35-.19c-3.4.23-4.52-1.44-3.15-4.56,2.6-5.84,8.5-7.36,13.79-3.45,1.13.83,2.45,1.45,3.26,2.72s.93,2.18-.83,2.61c-3.45.85-6.76,2.21-10.29,2.77C44.95,84.26,44.81,84.29,44.64,84.13Z"/><path class="cls-136" d="M31.74,53.81a11.4,11.4,0,0,1-7.63-2c-1.21-.91-1.27-1.57,0-2.94,3.42-3.55,7.07-1.7,10.72-1.08.31,0,.61.19.92.24,1,.16,2.43-.56,2.84.41s-.83,1.92-1.39,2.84A5,5,0,0,1,31.74,53.81Z"/><path class="cls-141" d="M67.33,50.13c-3.24.74-6.12.11-8.93-.62C56.12,48.92,55.55,47,56.8,45c1.59-2.57,6-4.33,9-3.64.75.17,1.25.49.85,1.28C65.3,45.27,65.91,47.72,67.33,50.13Z"/><path class="cls-140" d="M86,98.44c-1.46-1.06-3.22-1.35-4.88-1.89a4.16,4.16,0,0,1-3.22-3.75c-.15-1.72,2-5.22,3.36-5.74,1.09-.41,2-.41,2.63.81a12.81,12.81,0,0,0,4.74,4.93c3.45,2.35,3.35,3.65-.32,5.65A2.06,2.06,0,0,1,86,98.44Z"/><path class="cls-142" d="M36.27,35.64c-2.3,3.55-7,5.59-10.42,4.45,1.71-2.68,4.21-4.52,6.41-6.65.44-.42.92-.41,1.22,0C34.17,34.54,35.37,34.91,36.27,35.64Z"/><path class="cls-143" d="M73.49,163.42c-11.87-.19-23.7-1.36-35.6-1.08-2.14,0-4.59.23-6.72-.84.06-.26.34-.32.49-.51l.48.05c1.44.59,3-.11,4.45.41,3.18,0,6.36.08,9.54,0,6.75-.08,13.46.48,20.17,1,1.26.1,2.54,0,3.81,0a4.79,4.79,0,0,1,3.37.06,2.4,2.4,0,0,1,0,.35.34.34,0,0,1,.11.37C73.58,163.36,73.54,163.42,73.49,163.42Z"/><path class="cls-144" d="M47,168.2H92.25c.11.1.14.19.1.29s-.08.14-.12.14c-10.13.65-20.28.57-30.42.5-4.92,0-9.84-.32-14.77-.5a.27.27,0,0,1-.12-.3C47,168.25,47,168.2,47,168.2Z"/><path class="cls-145" d="M55.22,156.21c.49,1.54,1.47,2.07,3.13,2,2.77-.19,5.5.62,8.31.49,1.55-.07,2.08-.5,2-2.07-.09-4.39,0-8.77,0-13.16a29.81,29.81,0,0,1,1-8.37c.12-.24.25-.23.38,0v2.33a34.71,34.71,0,0,0-.3,7.7,42.22,42.22,0,0,1-.06,9.14v2.14c.17,3.22.17,3.21-3.17,3.15h-4a.58.58,0,0,1-.82,0l-.09-.1-1.5-.41c-.89-.56-1.87-.23-2.8-.26C54.82,158.8,54.82,158.83,55.22,156.21Z"/><path class="cls-146" d="M73.49,163.42v-.55h29.19c1.89-1.15,4,.4,5.88-.4,1.09-.47,2.21.1,3.31-.09.18.14,1,.35.2.47-1.17.17-2.35.44-3.53.52-11.34.8-22.69.47-34,.51A1.17,1.17,0,0,1,73.49,163.42Z"/><path class="cls-147" d="M91.29,160c.27-1.34,1.35-.87,2.12-.88h9.32c1.35,0,1.8-.28,1.68-2-.31-4.35-1-8.64-1.6-12.94a.38.38,0,0,1,.54,0l0,0a73.18,73.18,0,0,1,2,13.85c.1,1.2-.27,1.75-1.55,1.68a26.81,26.81,0,0,0-2.86.13c-.22,0-.39.28-.64.17Z"/><path class="cls-148" d="M73.09,46.13a3.86,3.86,0,0,1-.1.47c-.39,1.14-1.25,2.82-2.25,2.3a3.53,3.53,0,0,1-2-3.9c.3-1.13.7-2.53,1.91-2.82s1.6,1.29,2.42,2A2.09,2.09,0,0,1,73.09,46.13Z"/><path class="cls-149" d="M83.12,160c2-.56,2.5-1.84,2.44-3.91-.17-6.2-.06-12.42-.05-18.63a.28.28,0,0,1,.48,0c.7,7,.29,14,.42,21.05C86.45,160.85,84.4,159.88,83.12,160Z"/><path class="cls-150" d="M39.87,28.42a7.18,7.18,0,0,1-1,3.14c-.81,1.16-1.82,1.49-3,.67S35,30.41,36,29.56l3.22-2.77C40.59,26.87,40,27.74,39.87,28.42Z"/><path class="cls-151" d="M92.24,168.65v-.42c1.62-1.12,3.58-.66,5.27-.75,5.81-.34,11.53-1.46,17.33-1.66q.39.27,0,.53l-.53.41a.6.6,0,0,1-.84.13l-.07-.06-11.07.94c-.9.5-1.92,0-2.84.32l-1,.28a3.26,3.26,0,0,1-2.41.19C94.81,168.23,93.54,169.13,92.24,168.65Z"/><path class="cls-152" d="M33.56,146.63c.26,2.61-1,4.94-1.47,7.39-.6,2.83-.77,2.64,2,3.22a26.83,26.83,0,0,0,5.44.4c.67,0,1.15.07.76.91-2.82.35-5.55-.54-8.34-.58-.74,0-1.51-.28-1.27-1.28C31.5,153.29,31.88,149.77,33.56,146.63Z"/><path class="cls-153" d="M111.43,122.51c-1.63,0-1.89-1.55-2.67-2.45-3.62-4.21-7.36-8.28-12-11.47a4.17,4.17,0,0,1-.74-.92.31.31,0,0,1,.54,0A53.77,53.77,0,0,1,111.43,122.51Z"/><path class="cls-154" d="M26.85,149.47c-1.43,1.63-3.57,2-5.38,2.91a13.24,13.24,0,0,0-4,2.79c2,1.24,4.31,1.27,6.5,1.61,0,0,.11.12.11.18a.61.61,0,0,1-.09.22,2.89,2.89,0,0,1-2.4,0c-1.77-.27-4.44,0-4.81-1.72s2.14-2.74,3.75-3.47c2.06-.94,3.94-2.43,6.35-2.51Z"/><path class="cls-155" d="M87.92,121.13c1.35.29,1.23,1.5,1.41,2.42a50.15,50.15,0,0,1,.51,10.09,20.78,20.78,0,0,1-.07,7.36c-.66-4.41-.64-8.87-.91-13.31a20.52,20.52,0,0,0-.94-6.09q-.22-.16-.14-.32C87.82,121.13,87.87,121.13,87.92,121.13Z"/><path class="cls-47" d="M86,137.47h-.48c-.06-.05-.17-.1-.17-.16-.33-5-1.07-10.07-.69-15.15a.53.53,0,0,1,.17-.12.63.63,0,0,1,.22.08l.91,8.19a2.56,2.56,0,0,1,.06,2.35Z"/><path class="cls-154" d="M129.28,150c-.45-3-.48-2.93,2.55-2,2.59.82,4.81,2.37,7.22,3.52a1.63,1.63,0,0,1,1.08,1.64c-2.59-1.38-5.13-2.66-7.59-4.07-1.12-.65-2-.93-2.79.39C129.95,150,129.74,150.06,129.28,150Z"/><path class="cls-156" d="M51.3,157.66c-.35.09-.87.38-.87-.28,0-5.25-.31-10.54,1.41-15.63a1.74,1.74,0,0,1,.08,1.67v1.24c-.68,1.1,0,2.39-.46,3.52C51.55,151.34,50.91,154.49,51.3,157.66Z"/><path class="cls-157" d="M128.32,160.13a118.44,118.44,0,0,1-12.68,2.36c-.74.08-1.6.28-2.25-.42l14.88-2.52a.37.37,0,0,1,.16.37C128.4,160,128.36,160.13,128.32,160.13Z"/><path class="cls-158" d="M55.22,156.21c-.28,1.84.41,2.66,2.36,2.44.81-.09,1.77-.35,2.46.47-5.47,0-5.47,0-5.4-5.43a38.84,38.84,0,0,1,1-10.1,2.49,2.49,0,0,0,.16.29,2.68,2.68,0,0,1-.06,2.25C56.1,149.5,54.82,152.82,55.22,156.21Z"/><path class="cls-159" d="M142.74,162.06c.11-.28.19-.79.34-.81,4.07-.57,7.93-2,11.86-3,.2-.06.51.27.77.42A56.5,56.5,0,0,1,142.74,162.06Z"/><path class="cls-154" d="M129.28,150l.48-.49c1.15,1.12,1.34,2.7,1.71,4.11s.81,1.78,2.25,1.29a20.09,20.09,0,0,1,3.73-.57c.17.1.23.21.17.31s-.11.16-.17.16c-1.42,1-3.17.81-4.74,1.3-1,.32-1.61-.5-1.91-1.38C130.25,153.13,129.74,151.54,129.28,150Z"/><path class="cls-160" d="M89.86,147.54a33.15,33.15,0,0,1,0,12.44c-.94-.81-.46-1.88-.43-2.81C89.49,154,88.92,150.71,89.86,147.54Z"/><path class="cls-112" d="M108.62,153.79c1,1.35-.17,3.65,1.27,4.36,1.25.61,3.07,0,4.64,0a1.4,1.4,0,0,1,1.29.47c-2,.83-4.21.38-6.29.76-.86.16-1.06-.33-1.09-1.1-.05-1.49-.2-3-.32-4.45C108.29,153.58,108.45,153.56,108.62,153.79Z"/><path class="cls-161" d="M47,168.2v.46l-4.8.06a2,2,0,0,1-2.44-.35l-3.38-.58c.18-.15.36-.41.55-.42A48.82,48.82,0,0,1,47,168.2Z"/><path class="cls-162" d="M26.85,149.48c.62-.69,1.43-1.23,2.29-.82s0,1.38.08,2.11c.16,1.93-.65,3.71-1.19,5.52-.47,1.57-1.33,1.83-2.62.89.54-.54,1.38.06,1.92-.49a30.5,30.5,0,0,1,1.09-4.79c.71-1.79.1-2.35-1.57-2.43Z"/><path class="cls-163" d="M23.45,144.72c.06.22.18.63.17.64-3.52,1.15-6.66,3.24-10.28,4.15,2-2,4.82-2.52,7.23-3.79A19.23,19.23,0,0,1,23.45,144.72Z"/><path class="cls-164" d="M14.35,158.13a4.31,4.31,0,0,1,.08-6.09l.18-.17A9.46,9.46,0,0,1,19.74,149c-.75,1.32-2.28,1.56-3.38,2.43-2.5,2-2.9,2.94-1.92,6a.44.44,0,0,1,0,.62Z"/><path class="cls-165" d="M114.84,166.34v-.53c3.18-.53,6.33-1.28,9.59-1,1-.45,2.09-.16,3.13-.19l.3.26a83,83,0,0,1-9,1c-1,.44-2.1-.14-3.08.4Z"/><path class="cls-166" d="M132.64,163.93A24.56,24.56,0,0,1,142.8,162a52.23,52.23,0,0,1-10.18,2.28q-.24-.14-.16-.27C132.53,164,132.58,163.93,132.64,163.93Z"/><path class="cls-167" d="M130.68,141.79a3.22,3.22,0,0,0-.7,0c-.83.19-1.72-1-2.41-.13s.87,1.24.89,2.06a1.44,1.44,0,0,1-.15.44c-1.91-.61-1.53-2.59-2.86-4.06a14.77,14.77,0,0,1,6.29,1.63.75.75,0,0,1-1.06.06Z"/><path class="cls-163" d="M4.24,161.45a1.12,1.12,0,0,1,1.29-.39c2.19.71,4.36,1.46,6.54,2.2a1.11,1.11,0,0,1,.83,1.05A66.48,66.48,0,0,1,4.24,161.45Z"/><path class="cls-104" d="M103.82,132.13a19.63,19.63,0,0,1,2.88,9.17.28.28,0,0,1-.39.07l-.07-.07-2.5-8.45A.53.53,0,0,1,103.82,132.13Z"/><path class="cls-168" d="M31.66,161l-.49.51c-2.59.21-5.1-.78-7.71-.48-.79.09-.62-.47-.48-.93Z"/><path class="cls-169" d="M15.79,164.39l7.2,1.42a.38.38,0,0,1,.11.4.18.18,0,0,1-.14.19,46.46,46.46,0,0,1-8.77-1.93A1.22,1.22,0,0,1,15.79,164.39Z"/><path class="cls-170" d="M74.93,128.34c.28,1.9-.47,3.7-.54,5.56,0,.46-.44.59-.84.66a55,55,0,0,1,1.27-8.76l.17.28A2.83,2.83,0,0,1,74.93,128.34Z"/><path class="cls-99" d="M28.26,145.13c.39-.71,1.64-.32,1.8-1.45-1.8-.44-3.29,1.79-5.11.57,1.62-.42,3-1.45,4.76-1.52.57-.2,1.19-.61,1.44.39-.52.74-.28,2.09-1.71,2.1A1.08,1.08,0,0,1,28.26,145.13Z"/><path class="cls-171" d="M89.74,141q0-3.68.07-7.36c1,1.68.44,3.53.43,5.28,0,2.23.55,4.52-.4,6.7C89.74,144.05,89.26,142.52,89.74,141Z"/><path class="cls-172" d="M130.74,144.68c2.12-.25,6.25,1.64,7.18,3.29Z"/><path class="cls-173" d="M70.74,126.48a19.14,19.14,0,0,1,1.32-6.81q.24-.35.49,0C72.16,122,72.11,124.41,70.74,126.48Z"/><path class="cls-174" d="M63.39,104.77c-1.26,1.94-3.19,3.17-4.93,4.59a.54.54,0,0,1-.75-.12l0-.07,5.23-4.42a.3.3,0,0,1,.5,0Z"/><path class="cls-175" d="M99.51,131.2l-.38.18c-1.13-1.84-2.18-3.71-2.05-6C98.37,127.13,98.84,129.21,99.51,131.2Z"/><path class="cls-165" d="M155.28,155.24a10.33,10.33,0,0,1-4.85-4.73A12.63,12.63,0,0,1,155.28,155.24Z"/><path class="cls-176" d="M88.87,111a1.84,1.84,0,0,1-.63-2.82,2.15,2.15,0,0,1,2.48-1c1,.35,2,.93,1.47,2.36a9.29,9.29,0,0,0-1.37-1.49,1.52,1.52,0,0,0-1.92.25c-.79.66-.62,1.32.06,2A.51.51,0,0,1,88.87,111Z"/><path class="cls-177" d="M51.92,143.42l-.08-1.67a15.48,15.48,0,0,1,1-6.22c.16-.23.33-.22.49,0C52.74,138.13,52.86,140.87,51.92,143.42Z"/><path class="cls-23" d="M94.65,112.45A23.75,23.75,0,0,1,98,118.71a.29.29,0,0,1-.4.07l-.07-.07a23.48,23.48,0,0,1-2.91-5.26A.72.72,0,0,1,94.65,112.45Z"/><path class="cls-178" d="M106.24,141.3h.5a7.34,7.34,0,0,1,.93,3.85,4.91,4.91,0,0,1-.07,3.49Z"/><path class="cls-179" d="M103.82,132.13l-.1.72a31,31,0,0,1-2.41-6.27.55.55,0,0,1,.07-.63C102.91,127.73,103.3,130,103.82,132.13Z"/><path class="cls-114" d="M88.87,111l.08-.7c1.1,1.83,2.52,3.45,3.31,5.46a.31.31,0,0,1,.11.35c-.05.11-.1.16-.14.16A13.08,13.08,0,0,1,88.87,111Z"/><path class="cls-180" d="M53.74,131.69a20.78,20.78,0,0,1,2-6.26,1.75,1.75,0,0,1,.07,1.65l-1.63,5C53.79,132.22,53.53,132.13,53.74,131.69Z"/><path class="cls-181" d="M119.16,157.65c1.75-.47,3.44-1.46,5.32-.49a14.54,14.54,0,0,1-5.31.94c-.17-.1-.22-.2-.17-.3S119.11,157.65,119.16,157.65Z"/><path class="cls-182" d="M63.39,104.77h-.5a23.06,23.06,0,0,1,5.31-3.33c.17.1.23.21.17.32s-.11.17-.16.17C66.74,103.05,65.42,104.53,63.39,104.77Z"/><path class="cls-183" d="M88.88,102.82c-2.52.56-3.93-1.45-5.76-2.49C85.34,100.47,87,101.9,88.88,102.82Z"/><path class="cls-184" d="M57.09,136a5.68,5.68,0,0,1-1.35,5.82A30.59,30.59,0,0,1,57.09,136Z"/><path class="cls-185" d="M103.4,144.13h-.58c-.81-1.5-.45-3.24-1-4.8a1.21,1.21,0,0,1,0-1.48A18.19,18.19,0,0,1,103.4,144.13Z"/><path class="cls-14" d="M64.36,109.6c.57-1.79,1.72-1,2.53-.4,1.27.87,1.68,2,.35,3.28a.51.51,0,0,1-.08-.7C67.64,109.24,65.85,109.62,64.36,109.6Z"/><path class="cls-159" d="M126.38,150.92c-.49-2.13-2.43-3.8-1.95-6.23a17.32,17.32,0,0,1,2,4.73A1.31,1.31,0,0,1,126.38,150.92Z"/><path class="cls-186" d="M69.64,154.3a58.35,58.35,0,0,1,.1-9.17A19.29,19.29,0,0,1,69.64,154.3Z"/><path class="cls-187" d="M141.82,150.47c2.27,1,2.62,2.69,1,4.71q-.26-.08-.22-.23c0-.12.07-.18.11-.18A5.2,5.2,0,0,0,141.82,150.47Z"/><path class="cls-188" d="M64.37,117.27,62,122.08a.44.44,0,0,1-.62,0l0,0a19.82,19.82,0,0,1,2.4-4.81.44.44,0,0,1,.62,0Z"/><path class="cls-189" d="M121.61,138.79a4.36,4.36,0,0,1-2.41-4.25A14.72,14.72,0,0,1,121.61,138.79Z"/><path class="cls-190" d="M58.5,130.13c.54,1.49-.22,4.41-1.27,4.88A19.07,19.07,0,0,1,58.5,130.13Z"/><path class="cls-191" d="M73.09,46.13V44.19c1.59.32,2.33-.18,1.86-1.89A3.68,3.68,0,0,1,76,44.64a.36.36,0,0,1-.06.51l-.08,0C74.62,44.57,73.81,45.21,73.09,46.13Z"/><path class="cls-192" d="M58.54,120.13c-.74-2.28,1.3-3.54,2-5.3a.73.73,0,0,1,0,1Z"/><path class="cls-193" d="M125.43,157.13c.55-1.15,2.58-1.44,1.92-3.29a.25.25,0,0,1,.42,0C128.74,156.3,128.74,156.3,125.43,157.13Z"/><path class="cls-194" d="M61.3,122l.66.06c-.71,1.58-.75,3.44-1.92,4.83a.73.73,0,0,1,0-1A8,8,0,0,1,61.3,122Z"/><path class="cls-35" d="M132.64,163.93v.39l-4.75.62-.09-.2.05-.3C129.34,163.34,131,164.13,132.64,163.93Z"/><path class="cls-195" d="M54.26,113.42l-2.88,3.36a.55.55,0,0,1-.77.09l-.09-.09,3.74-4.31a.62.62,0,0,1,.08.87Z"/><path class="cls-101" d="M83.18,100.39c-1.8-.38-3.75-.44-4.86-2.29C79.95,98.85,81.9,98.9,83.18,100.39Z"/><path class="cls-196" d="M72.53,119.65H72c.11-1.88,1.1-3,3-2.85,1.16.08,0,.5,0,.77A2.62,2.62,0,0,0,72.53,119.65Z"/><path class="cls-197" d="M135.43,158l2.53.22c-1.82-.24-3.57,1.55-5.4.27A5.59,5.59,0,0,1,135.43,158Z"/><path class="cls-198" d="M96.61,107.63h-.54a6.8,6.8,0,0,1-3.35-1.92.34.34,0,0,1-.11-.37.17.17,0,0,1,.14-.18A8.68,8.68,0,0,1,96.61,107.63Z"/><path class="cls-199" d="M114.35,126.89c-1.33-1.17-2.66-2.36-2.84-4.29a14.92,14.92,0,0,1,2.87,3.76q.19.19.11.36T114.35,126.89Z"/><path class="cls-200" d="M19.67,149.13c1.13-1.79,3-1.86,4.79-2C22.9,147.86,21.47,148.9,19.67,149.13Z"/><path class="cls-201" d="M64.37,117.27l-.67-.07a15.42,15.42,0,0,1,2.48-4,.41.41,0,0,1,.11.69A10.46,10.46,0,0,1,64.37,117.27Z"/><path class="cls-202" d="M38.87,135.06c-.49,1.3-.55,2.89-2.27,3.36l2.26-4.36a.7.7,0,0,1,0,1Z"/><path class="cls-203" d="M130.68,141.79l1.11-.06,3.67,1.37A5.55,5.55,0,0,1,130.68,141.79Z"/><path class="cls-5" d="M101.88,137.91q0,.74,0,1.48c-1-1.26-.94-2.9-1.44-4.34a.76.76,0,0,1,0-1.07l.06-.06C101,135.22,101.87,136.43,101.88,137.91Z"/><path class="cls-86" d="M50.52,116.8h.86l-2.92,3.33a.37.37,0,0,1-.62-.06C48.3,118.63,49.52,117.81,50.52,116.8Z"/><path class="cls-204" d="M138.37,148.06c2.05-.56,2.76.83,3.39,2.34Z"/><path class="cls-155" d="M108.62,153.79h-.49a18.91,18.91,0,0,1-.43-4.33C109.53,150.59,108.17,152.39,108.62,153.79Z"/><path class="cls-63" d="M127.74,153.81h-.42a4.3,4.3,0,0,1-1-2.88v-1.5A10.58,10.58,0,0,1,127.74,153.81Z"/><path class="cls-164" d="M38.87,135.06v-1c.57-1.15.91-2.44,1.92-3.34a.3.3,0,0,1,.42-.07l.07.07A16.43,16.43,0,0,1,38.87,135.06Z"/><path class="cls-200" d="M128.32,160.13v-.58c1.13-.3,2.14-1.09,3.4-.82.5,1.11-.36.82-.9.91A18.42,18.42,0,0,0,128.32,160.13Z"/><path class="cls-205" d="M18.2,159.58a3.28,3.28,0,0,1-2.93-.94.69.69,0,0,1,1,0l0,0,4,.92A1.9,1.9,0,0,1,18.2,159.58Z"/><path class="cls-206" d="M41.27,130.73h-.53a7.59,7.59,0,0,1,2-3.36q.22-.29.42,0A6.52,6.52,0,0,1,41.27,130.73Z"/><path class="cls-207" d="M68.22,101.91v-.49A6.42,6.42,0,0,1,71,99.93a.8.8,0,0,1,1,0A10,10,0,0,1,68.22,101.91Z"/><path class="cls-165" d="M5.74,155.26l-2,2.87q-.25.35-.53,0a5.26,5.26,0,0,1,2.43-3.45Q6,155,5.74,155.26Z"/><path class="cls-155" d="M150,150.41c-1.61,0-2.61-1.33-3.9-2-.35-.18.26-.32.48-.43A8.88,8.88,0,0,1,150,150.41Z"/><path class="cls-103" d="M142.74,154.77a2.08,2.08,0,0,0,.11.41c-.15,1.53-.63,2.63-2.5,2A4.49,4.49,0,0,0,142.74,154.77Z"/><path class="cls-208" d="M35,142.25c.64,1.29.56,2.34-1,2.88A6.22,6.22,0,0,1,35,142.25Z"/><path class="cls-209" d="M60.53,115.84v-1c.26-1.09.48-2.21,1.9-2.4Z"/><path class="cls-185" d="M55.74,127.08v-1.65a4.59,4.59,0,0,1,1-2.4.33.33,0,0,1,.46,0l0,0Z"/><path class="cls-210" d="M69.89,33.22h-.06c.26-1.55,1.31-1.25,2.54-1.15A2.47,2.47,0,0,1,69.89,33.22Z"/><path class="cls-211" d="M43.21,127.37h-.42a5.75,5.75,0,0,1,1.82-2.92A2.76,2.76,0,0,1,43.21,127.37Z"/><path class="cls-212" d="M108.59,162.49c-1.9.95-3.92.28-5.88.4a3.09,3.09,0,0,1,.12-.38,5.25,5.25,0,0,1,3.34-.1Z"/><path class="cls-213" d="M53.74,131.69l.41.47a10.27,10.27,0,0,1-.89,3.37h-.49C53.07,134.23,53,132.87,53.74,131.69Z"/><path class="cls-214" d="M70.67,129.8a2.36,2.36,0,0,1,0-3.27A3.62,3.62,0,0,1,70.67,129.8Z"/><path class="cls-215" d="M96.61,124.33c-1.36-.18-1.17-1.38-1.49-2.25a.71.71,0,0,1,0-1A7.31,7.31,0,0,1,96.61,124.33Z"/><path class="cls-216" d="M88.83,28.71a7.39,7.39,0,0,1,5.37,0Z"/><path class="cls-217" d="M137.45,154.77v-.47a2.78,2.78,0,0,1,2.79-.18C139.38,155.2,138.32,154.58,137.45,154.77Z"/><path class="cls-156" d="M143.74,146.53c-1.33.88-1.91-.63-2.89-.89a.32.32,0,0,1-.11-.35.17.17,0,0,1,.13-.17C142,145.13,142.81,145.92,143.74,146.53Z"/><path class="cls-218" d="M36.44,138.87c.7,1.46-.17,2.24-1.28,2.91A6.69,6.69,0,0,1,36.44,138.87Z"/><path class="cls-200" d="M54.26,113.42v-.93L55.74,111C56.57,112.62,54.81,112.66,54.26,113.42Z"/><path class="cls-117" d="M76.32,120.43a5.12,5.12,0,0,1-.56,3.12h-.2c-.06,0-.11-.1-.17-.16C75.45,122.34,75.21,121.13,76.32,120.43Z"/><path class="cls-219" d="M62.42,112.43c.17-1.29.25-2.65,2-2.83Z"/><path class="cls-220" d="M101.37,126l-.07.63a8.74,8.74,0,0,1-1.44-3.54A2.83,2.83,0,0,1,101.37,126Z"/><path class="cls-221" d="M72.07,100h-1c.92-.51,1.7-1.45,3-1A1.76,1.76,0,0,1,72.07,100Z"/><path class="cls-222" d="M96.11,168.56l2.41-.19C97.81,169.62,97,169.48,96.11,168.56Z"/><path class="cls-223" d="M23,166.41v-.59c.81.15,1.76-.35,2.41.52q.25.13.17.28t-.16.14A5,5,0,0,1,23,166.41Z"/><path class="cls-193" d="M123.14,142.13c-1.22-.39-1.7-1.1-1-2.32A4.25,4.25,0,0,1,123.14,142.13Z"/><path class="cls-6" d="M119,134.13c-1.37-.21-1.54-1.33-1.8-2.39q-.22-.2-.13-.38c.06-.12.11-.17.16-.17A7.47,7.47,0,0,1,119,134.13Z"/><path class="cls-35" d="M70,135.05h-.38v-4.81c.77,1.41.24,2.46.55,3.43Z"/><path class="cls-35" d="M18.2,159.58h2a2.24,2.24,0,0,1,1.94.49A5.78,5.78,0,0,1,18.2,159.58Z"/><path class="cls-36" d="M28.26,145.13l1.18.08a5.92,5.92,0,0,1-2.46,1C26.46,144.73,27.69,145.32,28.26,145.13Z"/><path class="cls-168" d="M36.59,161.45c-1.49-.06-3,.47-4.45-.41A11.47,11.47,0,0,1,36.59,161.45Z"/><path class="cls-155" d="M10,151.37c-.13,1.33-.38,1.51-1.91,1.41C8.47,152,9.31,151.83,10,151.37Z"/><path class="cls-216" d="M60,13.44c-1.4.84-2.89.37-4.36.3C57.09,13.13,58.57,13.47,60,13.44Z"/><path class="cls-67" d="M25.41,166.75v-.42c1,0,2.22-.39,2.88.88A5.57,5.57,0,0,1,25.41,166.75Z"/><path class="cls-117" d="M95.15,121.06v1c-.59-.88-1.61-1.61-1-2.91A3.88,3.88,0,0,1,95.15,121.06Z"/><path class="cls-224" d="M98.5,119.62a4.81,4.81,0,0,1,1.41,3.46c-.84-.59-1-1.58-1.44-2.42A.76.76,0,0,1,98.5,119.62Z"/><path class="cls-225" d="M117.28,131.13v.55a2.5,2.5,0,0,1-1.32-2.49C116.94,129.46,117,130.37,117.28,131.13Z"/><path class="cls-39" d="M100.5,133.92l-.08,1.13c-.75-.87-1.5-1.73-.5-2.9Z"/><path class="cls-226" d="M119.16,157.65v.45c-1,.18-1.86.72-2.89.45C116.81,156.88,118.21,158,119.16,157.65Z"/><path class="cls-227" d="M92.74,105.2v.55c-.91-.18-1.75-.43-1.8-1.59A2.8,2.8,0,0,1,92.74,105.2Z"/><path class="cls-24" d="M72.51,153.32a3.35,3.35,0,0,1,.06,2.37C71.6,154.92,72,154.13,72.51,153.32Z"/><path class="cls-24" d="M66.33,82h3.75A2.8,2.8,0,0,1,66.33,82Z"/><path class="cls-155" d="M60,125.89v1c-.13.6.32,1.61-1,1.38A3.74,3.74,0,0,1,60,125.89Z"/><path class="cls-228" d="M114.35,126.89v-.53a4.17,4.17,0,0,1,1.52,2.82A3.38,3.38,0,0,1,114.35,126.89Z"/><path class="cls-155" d="M87.92,121.13v.47a2.09,2.09,0,0,0-1.84-.35C86.46,120,86.83,119.93,87.92,121.13Z"/><path class="cls-229" d="M47.84,120.13l.62.06c-.45.6-.87,1.22-1.37,1.79s-.42-.13-.57-.32A2.91,2.91,0,0,1,47.84,120.13Z"/><path class="cls-35" d="M107.56,148.65q0-1.75.07-3.49a3.71,3.71,0,0,1,0,3.85A.3.3,0,0,1,107.56,148.65Z"/><path class="cls-177" d="M51.42,148.13c.1-1.18-.52-2.45.46-3.52C51.74,145.84,51.95,147.06,51.42,148.13Z"/><path class="cls-230" d="M140.83,145.13v.52a4.87,4.87,0,0,1-1.73-.53c-.64-.53.25-.34.38-.54A1.54,1.54,0,0,1,140.83,145.13Z"/><path class="cls-231" d="M92.24,116.3v-.51a3.13,3.13,0,0,1,1,1.8C91.91,118,92.36,116.93,92.24,116.3Z"/><path class="cls-24" d="M106.17,162.41l-3.34.1A2.75,2.75,0,0,1,106.17,162.41Z"/><path class="cls-24" d="M73.48,162.52l-3.37-.06A2.67,2.67,0,0,1,73.48,162.52Z"/><path class="cls-200" d="M94.65,112.45v1a3.53,3.53,0,0,1-1.07-1.81C94.59,111,94.55,111.84,94.65,112.45Z"/><path class="cls-24" d="M46.17,73.36a3.12,3.12,0,0,1,2.32-.23C47.74,73.85,46.92,73.24,46.17,73.36Z"/><path class="cls-48" d="M16.26,158.6h-1a1,1,0,0,1-.92-.48l.06-.66Z"/><path class="cls-232" d="M5.74,155.26v-.56a1.64,1.64,0,0,1,1-.94C7.29,154.87,6.07,154.8,5.74,155.26Z"/><path class="cls-222" d="M39.81,168.37a5.39,5.39,0,0,0,2.44.35C41.33,169.37,40.45,169.68,39.81,168.37Z"/><path class="cls-233" d="M99.49,168.13c.89-.63,1.89-.23,2.84-.32C101.45,168.42,100.45,168,99.49,168.13Z"/><path class="cls-216" d="M75.84,45.13l.14-.55a2.63,2.63,0,0,1,0,3Z"/><path class="cls-234" d="M39.87,28.42c-.12-.58.08-1.29-.65-1.63.24-.31.67-.78.9-.48C40.67,27,40.23,27.74,39.87,28.42Z"/><path class="cls-151" d="M115.81,166.29c.93-.84,2-.34,3.08-.4C117.92,166.5,116.85,166.26,115.81,166.29Z"/><path class="cls-24" d="M61.53,159.53l.91.06c-.73.72-1.57.49-3,.21Z"/><path class="cls-222" d="M100.34,160a.4.4,0,0,1,.64-.17l1.63.53C101.61,160.61,100.9,160.69,100.34,160Z"/><path class="cls-24" d="M86,98.44h2.31a1.38,1.38,0,0,1-2.31,0Z"/><path class="cls-235" d="M98.5,119.62v1a3,3,0,0,1-.93-2H98A.92.92,0,0,1,98.5,119.62Z"/><path class="cls-24" d="M30.36,75.48a3.27,3.27,0,0,1,.2,2.36C30,77.21,30.31,76.59,30.36,75.48Z"/><path class="cls-24" d="M70.09,137.3c.69.79.65,1.66.19,2.93L70,137.38Z"/><path class="cls-24" d="M86,132.65q0-1.17-.06-2.35C87,131.06,86.54,131.85,86,132.65Z"/><path class="cls-236" d="M57.17,123h-.51a1.82,1.82,0,0,1,.72-1.53l.25.6C57.61,122.48,57.57,122.84,57.17,123Z"/><path class="cls-237" d="M66.29,113.93l-.11-.69a2.71,2.71,0,0,1,1-1.45l.08.7Z"/><path class="cls-36" d="M31.15,143.13c-.39-.47-.94-.35-1.44-.39a1.3,1.3,0,0,1,1.82-.28h0C31.74,142.61,31.52,143,31.15,143.13Z"/><path class="cls-238" d="M27.32,156.69c-.5.72-1.26.4-1.92.49C25.81,156.13,26.74,156.94,27.32,156.69Z"/><path class="cls-238" d="M21.56,157.18H24a1.62,1.62,0,0,1-2.29.11Z"/><path class="cls-24" d="M105.95,159.34a2,2,0,0,1,0-1.72C106.35,158.13,106.23,158.59,105.95,159.34Z"/><path class="cls-24" d="M57.74,67a1.37,1.37,0,0,1-1.59.08A1.41,1.41,0,0,1,57.74,67Z"/><path class="cls-24" d="M84.48,65.54a1.62,1.62,0,0,1,1.64,0A1.4,1.4,0,0,1,84.48,65.54Z"/><path class="cls-24" d="M33.24,78.84l-.12,2.34C32.43,80.37,32.28,79.58,33.24,78.84Z"/><path class="cls-216" d="M123.36,64.34l.11,2.43A1.81,1.81,0,0,1,123.36,64.34Z"/><path class="cls-24" d="M98,80.82H99.6C99,81.34,98.56,81.13,98,80.82Z"/><path class="cls-24" d="M86.08,53.37h1.34C87,54.13,86.45,53.58,86.08,53.37Z"/><path class="cls-24" d="M103.38,170.71l-2.23-.22c1-.49,1.64-.46,2.24.22Z"/><path class="cls-24" d="M113.4,166.82l.91-.07,1.42.25C114.66,167.35,114,167.44,113.4,166.82Z"/><path class="cls-24" d="M44.64,84.13a.36.36,0,0,1,.42-.06l1.82.24C45.86,84.66,45.2,84.72,44.64,84.13Z"/><path class="cls-35" d="M15.79,164.39l-1.6.08-.79-.15a1.66,1.66,0,0,1,2.35,0Z"/><path class="cls-35" d="M46.53,158.63c.5-.6,1-.73,1.45,0C47.48,159.28,47,158.77,46.53,158.63Z"/><path class="cls-26" d="M3.24,158.13h.53c0,.79,0,1.52-.89,1.89C2.66,159.33,3,158.76,3.24,158.13Z"/><path class="cls-24" d="M107.18,89.77a5.55,5.55,0,0,1,.12-1.22c.59-.06.25.45.31.71a1.64,1.64,0,0,1-.13.61Z"/><path class="cls-35" d="M74.93,128.34l.06-2.26a1.52,1.52,0,0,1,.06,2.15Z"/><path class="cls-35" d="M55.74,146.13l.06-2.22a1.47,1.47,0,0,1,.09,2.08Z"/><path class="cls-239" d="M85.43,61.05c-1.11-.32-2.3-.63-2.35-1.8a2.11,2.11,0,0,1,2.1-2.12h0c1.31-.1,1.82.83,1.85,2A2,2,0,0,1,85.43,61.05Z"/><path class="cls-240" d="M46.35,58.13a1.93,1.93,0,0,1,2.18,1.64v.06c.18,1.21-.71,1.64-1.78,1.67a1.79,1.79,0,0,1-2-1.8C44.64,58.6,45.31,58.13,46.35,58.13Z"/><path class="cls-241" d="M50.57,53.13c-.46.72-.47,1.89-1.94,1.84s-1.68-1.09-1.78-2.07a1.41,1.41,0,0,1,1.59-1.61C49.51,51.29,50.48,51.66,50.57,53.13Z"/><path class="cls-242" d="M56.16,58.13a1.63,1.63,0,0,1-1.92-1.83,1.47,1.47,0,0,1,1.46-1.48h.13a2.09,2.09,0,0,1,2.12,1.9C58.06,57.87,57.24,58.21,56.16,58.13Z"/><path class="cls-243" d="M115,71.06c-.69-.18-1.38-.55-1.29-1.2a1.72,1.72,0,0,1,1.79-1.55c.76,0,1,.8.88,1.44A1.43,1.43,0,0,1,115,71.06Z"/><path class="cls-35" d="M127.84,164.44a2.08,2.08,0,0,1-.05.3l-3.35.13C125.48,164,126.74,164.53,127.84,164.44Z"/><path class="cls-244" d="M99,83.13c.88.47,2.21.09,2.76,1.62-2.46,0-4.77-1-7.11-.1a17.9,17.9,0,0,0-3.84,1.83c-.36.26-.89.6-1.26.08s.19-.83.53-1.11a9.2,9.2,0,0,1,6.27-2.35A4.31,4.31,0,0,1,99,83.13Z"/><path class="cls-245" d="M102.14,87.47a12.32,12.32,0,0,1-2.83,0,10.25,10.25,0,0,0-6.86.64c-.41.17-.84.67-1.11-.08-.16-.44.27-.7.58-.94C94.06,85.45,99.26,85.48,102.14,87.47Z"/><path class="cls-246" d="M99,83.13H96.39A2.35,2.35,0,0,1,99,83.13Z"/><path class="cls-247" d="M62.44,72.55C64.3,73.78,66.16,75,68,76.25c.42.29,1.18.55.74,1.23s-1,.19-1.48-.1C65.36,76.13,63.16,75.13,62,73A.79.79,0,0,1,62.44,72.55Z"/><path class="cls-248" d="M59.42,73.51c1.48,1.38,2.63,3.13,4.66,3.86.35.13,1,.55.71,1.06-.38.77-1,.2-1.37-.06A16,16,0,0,1,58.57,74C58.48,73.2,58.85,73.18,59.42,73.51Z"/><path class="cls-249" d="M62.44,72.55,62,73c-.61-.31-1-.74-.72-1.47,0-.12.27-.27.36-.24C62.26,71.47,62.39,72,62.44,72.55Z"/><path class="cls-250" d="M59.42,73.51a.88.88,0,0,0-.86.5,1,1,0,0,1-.5-1,1.12,1.12,0,0,1,.51-1Z"/><path class="cls-248" d="M58.59,72.06a1,1,0,0,1-.51,1c-.35-.44-.64-.94-.12-1.38C58.21,71.43,58.5,71.72,58.59,72.06Z"/><path class="cls-251" d="M61.74,88.32c-1.35,2.81-7.75,4.41-11.3,2.81C54.28,90.55,58.18,90.13,61.74,88.32Z"/><path class="cls-252" d="M51.37,88.43a13.34,13.34,0,0,0,6.43-1.61c.48-.25,1.06-.69,1.42.07s-.41,1.06-.83,1.21c-2.58,1-5.12,2.35-8,1.34.8-.83,1.7,0,2.5-.33C52.59,88.67,51.31,89.74,51.37,88.43Z"/><path class="cls-24" d="M51.37,88.43c.42.77,1.34.21,2,.82l-3,.2h0a.76.76,0,0,1,.06-1Z"/><path class="cls-253" d="M50.42,88.42l-.06,1c-.51,0-1.29.31-1.25-.53S49.85,88.26,50.42,88.42Z"/><path class="cls-254" d="M84.3,79.58c-.09-.07-.43-.19-.55-.42-.24-.45.14-.75.48-.94,1.78-1,3.78-1.65,5-3.41a.52.52,0,0,1,.72-.14l.1.09a1.14,1.14,0,0,1,.08.86C89.74,77,86,79.66,84.3,79.58Z"/><path class="cls-255" d="M83.74,73.13C82.46,75,80.65,76.44,81,78.86c0,.18-.39.63-.58.62-.43,0-.57-.45-.67-.87C79.25,76.27,80.84,73.91,83.74,73.13Z"/><path class="cls-256" d="M80.49,72.48c-.71,2.67-3.37,4.3-2.1,7.37-1.55-.51-1.57-1.51-1.52-2.5A5.79,5.79,0,0,1,80.49,72.48Z"/><path class="cls-257" d="M42.44,78.06c1.1-1.89,5.26-3.19,7-2.2.5.28,1.07.67.8,1.28s-.84.3-1.28.12a5.48,5.48,0,0,0-4.82.54C43.64,78.07,43.11,78.66,42.44,78.06Z"/><path class="cls-258" d="M51.65,80.29c-1.46-.17-2.92-.36-4.38-.51a5.38,5.38,0,0,0-3.21.49c-.36.19-.85.78-1.2.16s.31-.93.77-1.2C45.44,78.13,49.49,78.51,51.65,80.29Z"/><path class="cls-259" d="M82.26,88.86c1.76,2,3,3.84,5.19,4.45a.48.48,0,0,1,.28.76,1,1,0,0,1-1,.45C85,94.34,82.5,91.54,82.26,88.86Z"/><path class="cls-260" d="M85.74,95.47c-2.66.67-3.82-1-5.16-2.25a.71.71,0,0,1,0-1l0,0c.29-.33.56-.19.75.1C82.31,93.73,84.08,94.2,85.74,95.47Z"/></g></g></g></g></svg>