<svg xmlns="http://www.w3.org/2000/svg" viewBox="0 0 292.6 292.57"><defs><style>.cls-1{fill:#231f20;}</style></defs><title>face</title><g id="Layer_2" data-name="Layer 2"><g id="Layer_1-2" data-name="Layer 1"><path class="cls-1" d="M146.3,0c80.63,0,146.25,65.62,146.3,146.32S227,292.58,146.3,292.57A146.32,146.32,0,0,1,0,146.32C0,65.68,65.64,0,146.3,0Zm41.36,55.64c-11.37,0-22.46-.62-33.45.15-16.13,1.12-27.13,10.9-30.63,26.47-1.09,4.86-1.16,10-1.36,15-.22,5.44,0,10.89,0,16.77H104.5v31.8h17.84v89.81h37.38V145.56H185l3.23-31.68H159.6c0-6.9-.2-13.36.06-19.8.21-5.14,3.09-7.58,8.34-7.68,3.61-.07,7.23,0,10.85,0h8.81Z"/></g></g></svg>