<svg xmlns="http://www.w3.org/2000/svg" viewBox="0 0 292.96 292.96"><defs><style>.cls-1{fill:#231f20;}</style></defs><title>insta</title><g id="Layer_2" data-name="Layer 2"><g id="Layer_1-2" data-name="Layer 1"><path class="cls-1" d="M146,293C65.55,292.71-.27,226.06,0,145.14.27,65.66,67.55-.52,147.54,0,227,.52,293.18,67.06,293,146.13,292.74,227,226.47,293.2,146,293ZM144.92,71.15c-11,0-22.1-.46-33.11.1-20.48,1-37.71,15.83-40.38,35.55a300.46,300.46,0,0,0-.26,80.8c2.42,17.87,16.67,31.68,34.78,34.58,25.35,4,50.94,2.89,76.32,1.25,20.91-1.35,36.65-16.49,39.28-35.52a306.72,306.72,0,0,0,.38-79.66c-2.2-17.89-14.93-31-32.67-35.37C174.61,69.26,159.71,71.27,144.92,71.15Z"/><path class="cls-1" d="M145.28,208.41c-9.15,0-18.29.13-27.43,0-21.53-.32-32.06-9.45-33-30.83s-.78-42.68-.07-64c.61-18.23,10.58-27.85,30.33-28.69,21.68-.92,43.45-.86,65.13,0,17.61.71,26.95,10.67,27.81,29.93,1,21.67.9,43.45.06,65.13-.71,18.36-11.55,27.43-32,28.35C165.88,208.78,155.57,208.4,145.28,208.41ZM107.2,147.46c0,22.3,16.69,39.62,38.43,39.83,23.07.22,40.24-17.09,40.12-40.47-.11-22.07-17-39-39-39.1C124.2,107.63,107.23,124.69,107.2,147.46Zm79.63-51c-4.86,1.18-8.39,3.91-8.29,9.93s3.72,9.34,9.28,9.07,9.08-3.7,8.94-9.69S193,97.11,186.83,96.47Z"/><path class="cls-1" d="M146.86,121.24a25.24,25.24,0,1,1-1.11,50.46,25.7,25.7,0,0,1-24.5-25.25C121.2,132.68,133,121,146.86,121.24Z"/></g></g></svg>